<svg width="122" height="126" viewBox="0 0 122 126" fill="none" xmlns="http://www.w3.org/2000/svg">
<g id="Group 48098883">
<g id="Group 48098882">
<g id="Group 48098739">
<circle id="Ellipse 479" cx="57" cy="67" r="31" fill="#FFD9DC"/>
<g id="celebration">
<mask id="mask0_3568_182783" style="mask-type:alpha" maskUnits="userSpaceOnUse" x="39" y="49" width="36" height="36">
<rect id="Bounding box" x="39" y="49" width="36" height="36" fill="#D9D9D9"/>
</mask>
<g mask="url(#mask0_3568_182783)">
<path id="celebration_2" d="M45.909 79.811C45.3667 80.0167 44.8859 79.91 44.4667 79.4908C44.0475 79.0716 43.9408 78.5908 44.1465 78.0485L48.3205 66.3861C48.6417 65.4419 49.2893 64.8592 50.2633 64.6381C51.2373 64.4169 52.0811 64.6631 52.7945 65.3765L58.581 71.163C59.2945 71.8764 59.5406 72.7202 59.3195 73.6942C59.0983 74.6682 58.5156 75.3158 57.5714 75.637L45.909 79.811ZM46.907 77.0505L56.7897 73.5457C56.9531 73.488 57.0541 73.3774 57.0926 73.2139C57.131 73.0505 57.0878 72.9062 56.9628 72.7812L51.1763 66.9947C51.0513 66.8697 50.9071 66.8265 50.7436 66.8649C50.5801 66.9034 50.4695 67.0044 50.4118 67.1678L46.907 77.0505ZM59.3454 67.4274C59.1589 67.2409 59.0657 67.0313 59.0657 66.7986C59.0657 66.5659 59.1589 66.3563 59.3454 66.1698L66.9435 58.5717C67.6954 57.8198 68.605 57.4438 69.6723 57.4438C70.7397 57.4438 71.6493 57.8198 72.4012 58.5717L72.5368 58.7073C72.6983 58.8688 72.7815 59.0659 72.7863 59.2986C72.7911 59.5313 72.7002 59.7409 72.5137 59.9274C72.3368 60.114 72.1296 60.2048 71.8921 60.2C71.6546 60.1952 71.4474 60.1043 71.2704 59.9274L71.1724 59.8294C70.7647 59.4217 70.2695 59.2178 69.6868 59.2178C69.1041 59.2178 68.6089 59.4217 68.2012 59.8294L60.5656 67.4649C60.4041 67.6265 60.207 67.7072 59.9743 67.7072C59.7416 67.7072 59.532 67.614 59.3454 67.4274ZM53.8647 61.9467C53.6782 61.7602 53.5849 61.5506 53.5849 61.3179C53.5849 61.0852 53.6782 60.8756 53.8647 60.689L54.1359 60.4179C54.582 59.9717 54.8051 59.4313 54.8051 58.7967C54.8051 58.1621 54.582 57.6217 54.1359 57.1755L53.7811 56.8207C53.6195 56.6592 53.5388 56.4621 53.5388 56.2294C53.5388 55.9967 53.632 55.7871 53.8186 55.6005C54.0051 55.414 54.2147 55.3207 54.4474 55.3207C54.6801 55.3207 54.8897 55.414 55.0762 55.6005L55.3935 55.9178C56.1935 56.7178 56.5935 57.6775 56.5935 58.7967C56.5935 59.9159 56.1935 60.8755 55.3935 61.6755L55.0849 61.9842C54.9234 62.1457 54.7262 62.2265 54.4935 62.2265C54.2609 62.2265 54.0513 62.1332 53.8647 61.9467ZM56.6051 64.6871C56.4185 64.5005 56.3253 64.2909 56.3253 64.0582C56.3253 63.8256 56.4185 63.6159 56.6051 63.4294L61.2032 58.8313C61.6109 58.4236 61.8147 57.9284 61.8147 57.3457C61.8147 56.763 61.6109 56.2678 61.2032 55.8601L59.5676 54.2246C59.406 54.063 59.3253 53.8659 59.3253 53.6332C59.3253 53.4006 59.4185 53.1909 59.6051 53.0044C59.7916 52.8179 60.0012 52.7246 60.2339 52.7246C60.4666 52.7246 60.6762 52.8179 60.8628 53.0044L62.4608 54.6025C63.2224 55.364 63.6031 56.2784 63.6031 57.3457C63.6031 58.413 63.2224 59.3275 62.4608 60.089L57.8253 64.7246C57.6637 64.8861 57.4666 64.9669 57.2339 64.9669C57.0012 64.9669 56.7916 64.8736 56.6051 64.6871ZM62.0858 70.1678C61.8993 69.9813 61.806 69.7716 61.806 69.539C61.806 69.3063 61.8993 69.0967 62.0858 68.9101L63.2512 67.7448C64.0608 66.9352 65.0377 66.5303 66.182 66.5303C67.3262 66.5303 68.3031 66.9352 69.1127 67.7448L70.3155 68.9476C70.4771 69.1092 70.5579 69.3063 70.5579 69.539C70.5579 69.7716 70.4646 69.9813 70.278 70.1678C70.0915 70.3543 69.8819 70.4476 69.6492 70.4476C69.4165 70.4476 69.2069 70.3543 69.0204 70.1678L67.8551 69.0025C67.3993 68.5467 66.8416 68.3188 66.182 68.3188C65.5223 68.3188 64.9646 68.5467 64.5088 69.0025L63.306 70.2053C63.1444 70.3668 62.9473 70.4476 62.7146 70.4476C62.482 70.4476 62.2724 70.3543 62.0858 70.1678Z" fill="#400011"/>
</g>
</g>
</g>
<circle id="Ellipse 480" cx="57" cy="67" r="40.5" stroke="#FFECED"/>
<circle id="Ellipse 481" cx="57" cy="67" r="51.5" stroke="#FFF8F7"/>
</g>
<g id="Group 48098864">
<path id="Vector" d="M5.00022 23.0024C-1.66169 23.0024 -1.67179 32.9649 5.00022 32.9649C11.661 32.9644 11.6722 23.0024 5.00022 23.0024Z" fill="#379584"/>
<path id="Vector_2" d="M118.5 59.0088C113.837 59.0088 113.83 65.9817 118.5 65.9817C123.163 65.9813 123.171 59.0088 118.5 59.0088Z" fill="#FFB2BA"/>
<path id="Vector_3" d="M46.0001 121.017C43.3353 121.017 43.3313 125.001 46.0001 125.001C48.6644 125.001 48.6689 121.017 46.0001 121.017Z" fill="#3BB8E0"/>
<path id="Vector_4" d="M74.9201 14.2233C74.7732 14.2605 74.6216 14.2869 74.4654 14.3018C73.3938 14.4067 72.3219 13.9693 71.5977 13.132C70.2497 11.5723 70.1321 8.93089 71.3362 7.24384C71.6193 6.84702 71.9633 6.5086 72.3519 6.23686C70.3938 4.98033 68.1129 4.41024 65.9562 4.68594C63.1592 5.04861 60.6019 6.82066 59.1205 9.44004C58.9383 9.76513 58.5464 9.8415 58.2447 9.61183C57.9444 9.38303 57.8488 8.93441 58.0327 8.61007C59.6997 5.66054 62.5753 3.66038 65.7284 3.25738C68.4673 2.90699 71.3853 3.76767 73.7585 5.58578C74.5115 5.36106 75.3796 5.37241 76.2244 5.58766C78.6641 6.20875 80.7064 8.57256 81.1908 11.336C81.2599 11.7301 81.0408 12.0951 80.6909 12.1416C80.3454 12.1931 80.0101 11.9155 79.9412 11.522C79.565 9.37795 77.9178 7.47095 76.0249 6.98929C75.7437 6.91765 75.4598 6.87849 75.18 6.87007C76.6428 8.47995 77.6723 10.8798 76.7097 12.7907C76.3434 13.5194 75.7048 14.0248 74.9201 14.2233ZM73.6068 7.17694C73.1038 7.40201 72.6676 7.74577 72.3506 8.19016C71.5402 9.3258 71.5995 11.1456 72.481 12.1651C72.9134 12.6659 73.6001 12.9356 74.2714 12.8701C74.8674 12.8111 75.3487 12.5027 75.5921 12.0199C76.2522 10.7088 75.2928 8.77233 74.0031 7.53805C73.8732 7.41374 73.7412 7.29412 73.6068 7.17694Z" fill="#3BB8E0"/>
<g id="Vector 14">
<path d="M6.87093 110.414L4.74369 103.345C4.4805 102.471 5.43155 101.732 6.21565 102.202L14.7929 107.344C15.5389 107.791 15.3998 108.91 14.5673 109.158L8.11728 111.085C7.5881 111.243 7.03009 110.942 6.87093 110.414Z" fill="#D9D9D9"/>
<path d="M6.87093 110.414L4.74369 103.345C4.4805 102.471 5.43155 101.732 6.21565 102.202L14.7929 107.344C15.5389 107.791 15.3998 108.91 14.5673 109.158L8.11728 111.085C7.5881 111.243 7.03009 110.942 6.87093 110.414Z" fill="#FEBA4B"/>
</g>
<g id="Vector 15">
<path d="M109.508 41.6523L105.559 38.4311C104.079 37.2237 104.979 34.8325 106.892 34.8905L113.327 35.0856C114.989 35.136 115.868 37.0636 114.815 38.3453L112.328 41.3714C111.626 42.2247 110.364 42.3505 109.508 41.6523Z" fill="#D9D9D9"/>
<path d="M109.508 41.6523L105.559 38.4311C104.079 37.2237 104.979 34.8325 106.892 34.8905L113.327 35.0856C114.989 35.136 115.868 37.0636 114.815 38.3453L112.328 41.3714C111.626 42.2247 110.364 42.3505 109.508 41.6523Z" fill="#FEBA4B"/>
</g>
</g>
</g>
</svg>
