<svg width="36" height="36" viewBox="0 0 36 36" fill="none" xmlns="http://www.w3.org/2000/svg">
<mask id="mask0_4298_146625" style="mask-type:alpha" maskUnits="userSpaceOnUse" x="0" y="0" width="36" height="36">
<rect width="36" height="36" fill="#D9D9D9"/>
</mask>
<g mask="url(#mask0_4298_146625)">
<circle cx="18" cy="18" r="17.5" stroke="black"/>
<path d="M18 24C18.2 24 18.3613 23.9391 18.484 23.8173C18.6058 23.6947 18.6667 23.5333 18.6667 23.3333V18.6667H23.3667C23.5444 18.6667 23.6947 18.6 23.8173 18.4667C23.9391 18.3333 24 18.1778 24 18C24 17.8 23.9391 17.6387 23.8173 17.516C23.6947 17.3942 23.5333 17.3333 23.3333 17.3333H18.6667V12.6333C18.6667 12.4556 18.6 12.3053 18.4667 12.1827C18.3333 12.0609 18.1778 12 18 12C17.8 12 17.6387 12.0609 17.516 12.1827C17.3942 12.3053 17.3333 12.4667 17.3333 12.6667V17.3333H12.6333C12.4556 17.3333 12.3058 17.4 12.184 17.5333C12.0613 17.6667 12 17.8222 12 18C12 18.2 12.0613 18.3613 12.184 18.484C12.3058 18.6058 12.4667 18.6667 12.6667 18.6667H17.3333V23.3667C17.3333 23.5444 17.4 23.6947 17.5333 23.8173C17.6667 23.9391 17.8222 24 18 24Z" fill="black"/>
</g>
</svg>
