<svg width="122" height="125" viewBox="0 0 122 125" fill="none" xmlns="http://www.w3.org/2000/svg">
<g id="Group 48098883">
<g id="Group 48098882">
<g id="Group 48098739">
<circle id="Ellipse 479" cx="57" cy="67" r="31" fill="#FFD9DC"/>
<g id="discover_tune">
<mask id="mask0_3568_181686" style="mask-type:alpha" maskUnits="userSpaceOnUse" x="39" y="49" width="36" height="36">
<rect id="Bounding box" x="39" y="49" width="36" height="36" fill="#D9D9D9"/>
</mask>
<g mask="url(#mask0_3568_181686)">
<path id="discover_tune_2" d="M60 62.5C59.575 62.5 59.2188 62.3562 58.9313 62.0688C58.6438 61.7812 58.5 61.425 58.5 61C58.5 60.575 58.6438 60.2188 58.9313 59.9312C59.2188 59.6437 59.575 59.5 60 59.5H63V55C63 54.575 63.1438 54.2188 63.4313 53.9312C63.7188 53.6437 64.075 53.5 64.5 53.5C64.925 53.5 65.2812 53.6437 65.5688 53.9312C65.8563 54.2188 66 54.575 66 55V59.5H69C69.425 59.5 69.7812 59.6437 70.0687 59.9312C70.3562 60.2188 70.5 60.575 70.5 61C70.5 61.425 70.3562 61.7812 70.0687 62.0688C69.7812 62.3562 69.425 62.5 69 62.5H60ZM64.5 80.5C64.075 80.5 63.7188 80.3562 63.4313 80.0687C63.1438 79.7812 63 79.425 63 79V67C63 66.575 63.1438 66.2188 63.4313 65.9313C63.7188 65.6438 64.075 65.5 64.5 65.5C64.925 65.5 65.2812 65.6438 65.5688 65.9313C65.8563 66.2188 66 66.575 66 67V79C66 79.425 65.8563 79.7812 65.5688 80.0687C65.2812 80.3562 64.925 80.5 64.5 80.5ZM49.5 80.5C49.075 80.5 48.7188 80.3562 48.4313 80.0687C48.1438 79.7812 48 79.425 48 79V74.5H45C44.575 74.5 44.2188 74.3563 43.9312 74.0688C43.6437 73.7812 43.5 73.425 43.5 73C43.5 72.575 43.6437 72.2188 43.9312 71.9313C44.2188 71.6438 44.575 71.5 45 71.5H54C54.425 71.5 54.7812 71.6438 55.0688 71.9313C55.3562 72.2188 55.5 72.575 55.5 73C55.5 73.425 55.3562 73.7812 55.0688 74.0688C54.7812 74.3563 54.425 74.5 54 74.5H51V79C51 79.425 50.8563 79.7812 50.5688 80.0687C50.2812 80.3562 49.925 80.5 49.5 80.5ZM49.5 68.5C49.075 68.5 48.7188 68.3563 48.4313 68.0688C48.1438 67.7813 48 67.425 48 67V55C48 54.575 48.1438 54.2188 48.4313 53.9312C48.7188 53.6437 49.075 53.5 49.5 53.5C49.925 53.5 50.2812 53.6437 50.5688 53.9312C50.8563 54.2188 51 54.575 51 55V67C51 67.425 50.8563 67.7813 50.5688 68.0688C50.2812 68.3563 49.925 68.5 49.5 68.5Z" fill="#400011"/>
</g>
</g>
</g>
<circle id="Ellipse 480" cx="57" cy="67" r="40.5" stroke="#FFECED"/>
<circle id="Ellipse 481" cx="57" cy="67" r="51.5" stroke="#FFF8F7"/>
</g>
<g id="Group 48098864">
<path id="Vector" d="M5.00022 23.0029C-1.66169 23.0029 -1.67179 32.9654 5.00022 32.9654C11.661 32.9649 11.6722 23.0029 5.00022 23.0029Z" fill="#379584"/>
<path id="Vector_2" d="M118.5 59.0088C113.837 59.0088 113.83 65.9817 118.5 65.9817C123.163 65.9813 123.171 59.0088 118.5 59.0088Z" fill="#FFB2BA"/>
<path id="Vector_3" d="M46.0001 121.017C43.3353 121.017 43.3313 125.001 46.0001 125.001C48.6644 125.001 48.6689 121.017 46.0001 121.017Z" fill="#3BB8E0"/>
<path id="Vector_4" d="M74.9201 14.2238C74.7732 14.261 74.6216 14.2874 74.4654 14.3023C73.3938 14.4072 72.3219 13.9698 71.5977 13.1325C70.2497 11.5728 70.1321 8.93138 71.3362 7.24433C71.6193 6.84751 71.9633 6.50908 72.3519 6.23735C70.3938 4.98082 68.1129 4.41073 65.9562 4.68642C63.1592 5.0491 60.6019 6.82115 59.1205 9.44053C58.9383 9.76562 58.5464 9.84199 58.2447 9.61232C57.9444 9.38352 57.8488 8.9349 58.0327 8.61056C59.6997 5.66102 62.5753 3.66087 65.7284 3.25787C68.4673 2.90748 71.3853 3.76816 73.7585 5.58627C74.5115 5.36154 75.3796 5.3729 76.2244 5.58815C78.6641 6.20924 80.7064 8.57305 81.1908 11.3365C81.2599 11.7306 81.0408 12.0956 80.6909 12.1421C80.3454 12.1936 80.0101 11.916 79.9412 11.5224C79.565 9.37844 77.9178 7.47143 76.0249 6.98978C75.7437 6.91814 75.4598 6.87898 75.18 6.87056C76.6428 8.48043 77.6723 10.8803 76.7097 12.7912C76.3434 13.5199 75.7048 14.0253 74.9201 14.2238ZM73.6068 7.17743C73.1038 7.4025 72.6676 7.74626 72.3506 8.19065C71.5402 9.32629 71.5995 11.1461 72.481 12.1656C72.9134 12.6664 73.6001 12.936 74.2714 12.8706C74.8674 12.8116 75.3487 12.5032 75.5921 12.0204C76.2522 10.7092 75.2928 8.77282 74.0031 7.53854C73.8732 7.41422 73.7412 7.29461 73.6068 7.17743Z" fill="#3BB8E0"/>
<g id="Vector 14">
<path d="M6.87093 110.414L4.74369 103.345C4.4805 102.471 5.43155 101.732 6.21565 102.202L14.7929 107.344C15.5389 107.791 15.3998 108.91 14.5673 109.158L8.11728 111.085C7.5881 111.243 7.03009 110.942 6.87093 110.414Z" fill="#D9D9D9"/>
<path d="M6.87093 110.414L4.74369 103.345C4.4805 102.471 5.43155 101.732 6.21565 102.202L14.7929 107.344C15.5389 107.791 15.3998 108.91 14.5673 109.158L8.11728 111.085C7.5881 111.243 7.03009 110.942 6.87093 110.414Z" fill="#FEBA4B"/>
</g>
<g id="Vector 15">
<path d="M109.508 41.6523L105.559 38.4311C104.079 37.2237 104.979 34.8325 106.892 34.8905L113.327 35.0856C114.989 35.136 115.868 37.0636 114.815 38.3453L112.328 41.3714C111.626 42.2247 110.364 42.3505 109.508 41.6523Z" fill="#D9D9D9"/>
<path d="M109.508 41.6523L105.559 38.4311C104.079 37.2237 104.979 34.8325 106.892 34.8905L113.327 35.0856C114.989 35.136 115.868 37.0636 114.815 38.3453L112.328 41.3714C111.626 42.2247 110.364 42.3505 109.508 41.6523Z" fill="#FEBA4B"/>
</g>
</g>
</g>
</svg>
