<svg width="24" height="24" viewBox="0 0 24 24" fill="none" xmlns="http://www.w3.org/2000/svg">
<mask id="mask0_1_21635" style="mask-type:alpha" maskUnits="userSpaceOnUse" x="0" y="0" width="24" height="24">
<rect width="24" height="24" fill="#D9D9D9"/>
</mask>
<g mask="url(#mask0_1_21635)">
<path d="M8.74064 18.1284C8.60541 17.9888 8.5378 17.8225 8.5378 17.6296C8.5378 17.4368 8.60541 17.2705 8.74064 17.1308L13.8562 11.8467L8.72363 6.54507C8.59538 6.41261 8.53125 6.2504 8.53125 6.05844C8.53125 5.86649 8.60105 5.69843 8.74064 5.55425C8.87587 5.41457 9.03683 5.34473 9.22353 5.34473C9.41022 5.34473 9.57118 5.41457 9.70641 5.55425L15.3572 11.402C15.4209 11.4678 15.4658 11.5372 15.492 11.6102C15.5182 11.6832 15.5312 11.762 15.5312 11.8467C15.5312 11.9315 15.5182 12.0103 15.492 12.0833C15.4658 12.1563 15.4209 12.2257 15.3572 12.2915L9.6894 18.146C9.56116 18.2785 9.40587 18.3447 9.22353 18.3447C9.04119 18.3447 8.88022 18.2726 8.74064 18.1284Z" fill="black"/>
</g>
</svg>
