<svg width="32" height="32" viewBox="0 0 32 32" fill="none" xmlns="http://www.w3.org/2000/svg">
<g id="arrow_right">
<mask id="mask0_2681_159880" style="mask-type:alpha" maskUnits="userSpaceOnUse" x="0" y="0" width="32" height="32">
<rect id="Bounding box" width="32" height="32" transform="matrix(-1 0 0 1 32 0)" fill="#D9D9D9"/>
</mask>
<g mask="url(#mask0_2681_159880)">
<path id="arrow_forward_ios" d="M20.3419 24.1709C20.5222 23.9847 20.6124 23.763 20.6124 23.5059C20.6124 23.2487 20.5222 23.0271 20.3419 22.8408L13.5212 15.7953L20.3646 8.72644C20.5356 8.54982 20.6211 8.33354 20.6211 8.07759C20.6211 7.82167 20.528 7.59758 20.3419 7.40534C20.1616 7.2191 19.947 7.12598 19.6981 7.12598C19.4491 7.12598 19.2345 7.2191 19.0542 7.40534L11.5198 15.2024C11.4349 15.2901 11.375 15.3826 11.3401 15.4799C11.3052 15.5773 11.2878 15.6824 11.2878 15.7953C11.2878 15.9083 11.3052 16.0134 11.3401 16.1107C11.375 16.2081 11.4349 16.3006 11.5198 16.3883L19.0769 24.1944C19.2479 24.371 19.4549 24.4593 19.6981 24.4593C19.9412 24.4593 20.1558 24.3632 20.3419 24.1709Z" fill="black"/>
</g>
</g>
</svg>
