<svg width="32" height="32" viewBox="0 0 32 32" fill="none" xmlns="http://www.w3.org/2000/svg">
<g id="arrow_right">
<mask id="mask0_2681_159877" style="mask-type:alpha" maskUnits="userSpaceOnUse" x="0" y="0" width="32" height="32">
<rect id="Bounding box" width="32" height="32" fill="#D9D9D9"/>
</mask>
<g mask="url(#mask0_2681_159877)">
<path id="arrow_forward_ios" d="M11.6581 24.1709C11.4778 23.9847 11.3876 23.763 11.3876 23.5059C11.3876 23.2487 11.4778 23.0271 11.6581 22.8408L18.4788 15.7953L11.6354 8.72644C11.4644 8.54982 11.3789 8.33354 11.3789 8.07759C11.3789 7.82167 11.472 7.59758 11.6581 7.40534C11.8384 7.2191 12.053 7.12598 12.3019 7.12598C12.5509 7.12598 12.7655 7.2191 12.9458 7.40534L20.4802 15.2024C20.5651 15.2901 20.625 15.3826 20.6599 15.4799C20.6948 15.5773 20.7122 15.6824 20.7122 15.7953C20.7122 15.9083 20.6948 16.0134 20.6599 16.1107C20.625 16.2081 20.5651 16.3006 20.4802 16.3883L12.9231 24.1944C12.7521 24.371 12.5451 24.4593 12.3019 24.4593C12.0588 24.4593 11.8442 24.3632 11.6581 24.1709Z" fill="black"/>
</g>
</g>
</svg>
