<svg xmlns="http://www.w3.org/2000/svg" xmlns:xlink="http://www.w3.org/1999/xlink" width="1366" height="547" viewBox="0 0 1366 547" fill="none">

<g mask="url(#mask0_3286_190733)">
<g clip-path="url(#clip0_3286_190733)">
<g opacity="0.4">
<mask id="mask1_3286_190733" style="mask-type:luminance" maskUnits="userSpaceOnUse" x="734" y="13" width="374" height="382">
<path d="M1108 90.279L814.336 13.2207L734.387 317.742L1028.05 394.8L1108 90.279Z" fill="white"/>
</mask>
<g mask="url(#mask1_3286_190733)">
<path d="M1092.85 124.991C1090.33 100.15 1075.28 81.6928 1052.7 75.7707C1045.37 73.8464 1038.23 73.4836 1031.64 74.4739C1017.89 76.306 994.563 85.9016 972.679 110.684C952.238 133.427 933.244 164.409 930.574 168.845C930.427 163.669 928.818 127.283 922.463 97.5081C915.293 65.1011 899.691 45.2906 888.894 37.0181C883.638 32.9188 877.239 29.7285 869.905 27.8039C847.054 21.808 824.873 30.4945 810.471 50.8937C807.087 55.7477 797.317 67.6912 792.67 100.321C786.376 146.119 795.626 182.094 807.653 228.166C819.487 272.677 847.416 325.944 857.512 339.171C863.57 347.107 872.686 353.731 879.382 355.79L879.664 355.864L881.075 356.234L882.485 356.604L882.767 356.678C889.538 358.455 900.806 356.879 909.985 352.939C924.993 346.3 975.77 313.685 1007.94 280.723C1041.26 246.851 1066.78 219.698 1083.79 176.714C1096.06 146.082 1093.41 130.881 1092.85 124.991Z" fill="#FFF181"/>
</g>
</g>
<g opacity="0.3">
<mask id="mask2_3286_190733" style="mask-type:luminance" maskUnits="userSpaceOnUse" x="373" y="144" width="224" height="161">
<path d="M400.25 144L373 191.186L569.7 304.721L596.95 257.535L400.25 144Z" fill="white"/>
</mask>
<g mask="url(#mask2_3286_190733)">
<path d="M386.486 167.832C381.576 176.336 379.732 189.483 398.437 204.112C407.739 211.238 433.015 225.827 453.021 237.375C487.88 257.496 522.588 277.05 543.847 288.362L544.206 288.569C554.375 293.64 572.861 299.52 583.374 281.317C595.685 259.999 576.883 248.029 569.783 243.452C545.129 227.784 524.713 215.841 499.797 201.458C481.468 190.88 446.899 171.086 424.884 159.976C402.22 148.331 391.05 159.928 386.486 167.832Z" fill="white"/>
<path d="M386.486 167.832C381.576 176.336 379.732 189.483 398.437 204.112C407.739 211.238 433.015 225.827 453.021 237.375C487.88 257.496 522.588 277.05 543.847 288.362L544.206 288.569C554.375 293.64 572.861 299.52 583.374 281.317C595.685 259.999 576.883 248.029 569.783 243.452C545.129 227.784 524.713 215.841 499.797 201.458C481.468 190.88 446.899 171.086 424.884 159.976C402.22 148.331 391.05 159.928 386.486 167.832Z" fill="#DBF0EC"/>
</g>
</g>



</g>








</g>

</svg>