<svg width="1234" height="827" viewBox="0 0 1234 827" fill="none" xmlns="http://www.w3.org/2000/svg">
<path d="M1225.42 116C1214.2 116 1214.18 133.436 1225.42 133.436C1236.64 133.436 1236.66 116 1225.42 116Z" fill="#333847"/>
<path d="M8.421 458C-2.798 458 -2.816 475.436 8.421 475.436C19.64 475.436 19.659 458 8.421 458Z" fill="#62BEBB"/>
<path d="M1137.42 686C1126.2 686 1126.18 703.436 1137.42 703.436C1148.64 703.435 1148.66 686 1137.42 686Z" fill="#ED7279"/>
<path d="M1013.15 8.11301C1013.15 8.10507 1013.15 8.09613 1013.15 8.08819C1013.08 7.40248 1013.58 6.79138 1014.26 6.72279C1019.86 6.15566 1025.66 5.56829 1031.42 6.43442C1037.99 7.42179 1043.46 10.3009 1046.83 14.5426C1049.31 17.6623 1050.63 21.4062 1051.4 25.1317C1055.27 24.3555 1059.4 24.733 1063 26.3024C1068.32 28.6203 1072.51 33.5487 1073.95 39.1663C1074.13 39.8268 1073.72 40.5103 1073.06 40.6815C1072.39 40.8527 1071.71 40.4514 1071.54 39.785C1070.29 34.8952 1066.63 30.6046 1062 28.5861C1058.85 27.2111 1055.23 26.8873 1051.85 27.5802C1052 28.591 1052.12 29.587 1052.23 30.556C1052.49 32.8311 1052.67 35.246 1051.88 37.5484C1051.1 39.86 1049.01 42.2517 1046.11 42.384C1044.5 42.4574 1042.95 41.7692 1041.76 40.446C1040.36 38.8956 1039.68 36.7002 1039.98 34.7037C1040.43 31.7005 1042.67 28.9049 1046.12 27.0322C1047.04 26.5338 1048 26.1155 1048.99 25.7781C1048.29 22.3205 1047.1 18.8811 1044.88 16.0919C1041.91 12.347 1036.99 9.79206 1031.05 8.89856C1025.6 8.08023 1019.96 8.64938 1014.51 9.20152C1013.84 9.26927 1013.23 8.784 1013.15 8.11301ZM1049.43 28.2638C1048.7 28.5316 1047.99 28.8502 1047.31 29.2218C1046 29.9296 1042.92 31.9169 1042.44 35.0761C1042.25 36.3329 1042.71 37.7826 1043.61 38.7797C1044.01 39.2188 1044.84 39.9488 1046 39.8952C1047.71 39.817 1049.03 38.2082 1049.53 36.7468C1050.14 34.9293 1049.98 32.8276 1049.76 30.8318C1049.67 29.9947 1049.56 29.1335 1049.43 28.2638Z" fill="#ED7279"/>
<path d="M178.672 55.1167C178.29 55.1167 177.913 54.9417 177.669 54.6117C173.009 48.3047 172.761 38.9747 177.079 32.4277C178.729 29.9257 180.896 27.9667 183.311 26.7327C185.018 20.6097 189.451 15.3117 195.345 12.7347C202.863 9.44869 212.026 10.9197 218.137 16.3967C218.651 16.8557 218.693 17.6427 218.235 18.1557C217.775 18.6677 216.988 18.7117 216.476 18.2517C211.159 13.4887 202.88 12.1587 196.342 15.0177C191.801 17.0017 188.171 20.9747 186.338 25.6067C186.658 25.5297 186.982 25.4657 187.305 25.4137C191.852 24.6947 196.546 26.7367 198.71 30.3957C200.484 33.3997 200.434 37.3067 198.581 40.1177C196.621 43.0917 192.791 44.5557 189.473 43.5987C184.608 42.1977 182.473 36.5767 182.548 31.9487C182.56 31.3127 182.6 30.6797 182.669 30.0517C181.342 31.0327 180.146 32.3007 179.157 33.7987C175.394 39.5047 175.61 47.6337 179.672 53.1297C180.081 53.6837 179.963 54.4627 179.41 54.8727C179.187 55.0377 178.929 55.1167 178.672 55.1167ZM185.455 28.4937C185.201 29.6437 185.059 30.8147 185.04 31.9897C184.979 35.7007 186.557 40.1677 190.162 41.2067C192.428 41.8587 195.149 40.8027 196.502 38.7487C197.82 36.7467 197.847 33.8327 196.565 31.6647C194.911 28.8647 191.265 27.3127 187.697 27.8747C186.937 27.9967 186.185 28.2057 185.455 28.4937Z" fill="#FDBC2C"/>
<path d="M198.168 812.514C198.161 812.511 198.152 812.508 198.145 812.505C197.504 812.252 197.189 811.529 197.441 810.89C199.504 805.649 201.636 800.23 205.047 795.505C208.933 790.12 214 786.573 219.315 785.519C223.224 784.744 227.155 785.29 230.821 786.308C231.905 782.511 234.131 779.017 237.174 776.538C241.671 772.873 247.975 771.399 253.628 772.692C254.296 772.838 254.717 773.513 254.564 774.184C254.411 774.854 253.743 775.274 253.073 775.12C248.152 773.994 242.664 775.278 238.749 778.467C236.082 780.641 234.137 783.708 233.2 787.037C234.169 787.363 235.112 787.708 236.023 788.055C238.162 788.872 240.391 789.818 242.078 791.57C243.773 793.327 244.941 796.281 243.731 798.919C243.057 800.385 241.737 801.444 240.016 801.896C237.996 802.43 235.733 802.03 234.097 800.847C231.634 799.07 230.174 795.8 230.089 791.878C230.067 790.832 230.137 789.783 230.293 788.745C226.895 787.79 223.295 787.268 219.8 787.961C215.106 788.892 210.585 792.089 207.068 796.962C203.842 801.435 201.765 806.706 199.76 811.801C199.51 812.434 198.802 812.748 198.168 812.514ZM232.701 789.498C232.604 790.27 232.562 791.047 232.58 791.823C232.612 793.307 232.966 796.957 235.556 798.828C236.585 799.576 238.085 799.829 239.383 799.487C239.955 799.336 240.986 798.929 241.467 797.878C242.184 796.317 241.357 794.41 240.286 793.298C238.954 791.916 237.01 791.098 235.135 790.381C234.349 790.079 233.533 789.781 232.701 789.498Z" fill="#3BB8E0"/>
</svg>
