<svg width="1366" height="657" viewBox="0 0 1366 657" fill="none" xmlns="http://www.w3.org/2000/svg">
<rect width="1366" height="657" fill="#FFF8F7"/>
<path d="M1295.42 169C1284.2 169 1284.18 186.436 1295.42 186.436C1306.64 186.436 1306.66 169 1295.42 169Z" fill="#333847"/>
<path d="M78.421 511C67.202 511 67.184 528.436 78.421 528.436C89.64 528.436 89.659 511 78.421 511Z" fill="#62BEBB"/>
<path d="M363.421 592C352.201 592 352.184 609.436 363.421 609.436C374.639 609.435 374.658 592 363.421 592Z" fill="#ED7279"/>
<path d="M1083.15 61.113C1083.15 61.1051 1083.15 61.0961 1083.15 61.0882C1083.08 60.4025 1083.58 59.7914 1084.26 59.7228C1089.86 59.1557 1095.66 58.5683 1101.42 59.4344C1107.99 60.4218 1113.46 63.3009 1116.83 67.5426C1119.31 70.6623 1120.63 74.4062 1121.4 78.1317C1125.27 77.3555 1129.4 77.733 1133 79.3024C1138.32 81.6203 1142.51 86.5487 1143.95 92.1663C1144.13 92.8268 1143.72 93.5103 1143.06 93.6815C1142.39 93.8527 1141.71 93.4514 1141.54 92.785C1140.29 87.8952 1136.63 83.6046 1132 81.5861C1128.85 80.2111 1125.23 79.8874 1121.85 80.5802C1122 81.5909 1122.12 82.587 1122.23 83.556C1122.49 85.8311 1122.67 88.246 1121.88 90.5484C1121.1 92.86 1119.01 95.2517 1116.11 95.384C1114.5 95.4574 1112.95 94.7692 1111.76 93.446C1110.36 91.8956 1109.68 89.7002 1109.98 87.7037C1110.43 84.7005 1112.67 81.9049 1116.12 80.0322C1117.04 79.5338 1118 79.1155 1118.99 78.7781C1118.29 75.3205 1117.1 71.8811 1114.88 69.0919C1111.91 65.347 1106.99 62.7921 1101.05 61.8986C1095.6 61.0802 1089.96 61.6494 1084.51 62.2015C1083.84 62.2693 1083.23 61.784 1083.15 61.113ZM1119.43 81.2638C1118.7 81.5316 1117.99 81.8502 1117.31 82.2218C1116 82.9296 1112.92 84.9169 1112.44 88.0761C1112.25 89.3329 1112.71 90.7826 1113.61 91.7797C1114.01 92.2188 1114.84 92.9488 1116 92.8952C1117.71 92.817 1119.03 91.2082 1119.53 89.7468C1120.14 87.9293 1119.98 85.8276 1119.76 83.8318C1119.67 82.9947 1119.56 82.1335 1119.43 81.2638Z" fill="#ED7279"/>
<path d="M248.672 108.117C248.29 108.117 247.913 107.942 247.669 107.612C243.009 101.305 242.761 91.9747 247.079 85.4277C248.729 82.9257 250.896 80.9667 253.311 79.7327C255.018 73.6097 259.451 68.3117 265.345 65.7347C272.863 62.4487 282.026 63.9197 288.137 69.3967C288.651 69.8557 288.693 70.6427 288.235 71.1557C287.775 71.6677 286.988 71.7117 286.476 71.2517C281.159 66.4887 272.88 65.1587 266.342 68.0177C261.801 70.0017 258.171 73.9747 256.338 78.6067C256.658 78.5297 256.982 78.4657 257.305 78.4137C261.852 77.6947 266.546 79.7367 268.71 83.3957C270.484 86.3997 270.434 90.3067 268.581 93.1177C266.621 96.0917 262.791 97.5557 259.473 96.5987C254.608 95.1977 252.473 89.5767 252.548 84.9487C252.56 84.3127 252.6 83.6797 252.669 83.0517C251.342 84.0327 250.146 85.3007 249.157 86.7987C245.394 92.5047 245.61 100.634 249.672 106.13C250.081 106.684 249.963 107.463 249.41 107.873C249.187 108.038 248.929 108.117 248.672 108.117ZM255.455 81.4937C255.201 82.6437 255.059 83.8147 255.04 84.9897C254.979 88.7007 256.557 93.1677 260.162 94.2067C262.428 94.8587 265.149 93.8027 266.502 91.7487C267.82 89.7467 267.847 86.8327 266.565 84.6647C264.911 81.8647 261.265 80.3127 257.697 80.8747C256.937 80.9967 256.185 81.2057 255.455 81.4937Z" fill="#FDBC2C"/>
</svg>
