<svg width="1386" height="1649" viewBox="0 0 1386 1649" fill="none" xmlns="http://www.w3.org/2000/svg">
<rect width="1386" height="1649" fill="white"/>
<mask id="mask0_58_298" style="mask-type:alpha" maskUnits="userSpaceOnUse" x="0" y="0" width="1386" height="1649">
<rect width="1386" height="1649" fill="white"/>
</mask>
<g mask="url(#mask0_58_298)">
<path d="M1185.74 215.18L1174 214.859C1174 214.859 1179.58 183.361 1197.63 178.067C1201.02 177.084 1204.72 176.082 1208.45 175.534C1210.66 175.194 1214.16 174.683 1215.88 174.04C1216.27 171.072 1215.03 167.291 1213.63 162.999C1212.53 159.672 1211.4 156.25 1210.79 152.506C1209.62 145.208 1211.57 138.761 1216.27 134.318C1222.02 128.93 1231.3 127.21 1241.78 129.592C1247.75 130.953 1252.16 133.883 1256.03 136.455C1261.57 140.141 1264.81 142.013 1271.58 137.457C1279.76 131.936 1269.06 110.326 1263.37 97.8481L1284.6 89C1287.46 95.2391 1301.24 127.342 1292.15 145.662C1289.08 151.825 1283.81 155.909 1276.89 157.441C1261.84 160.806 1253.03 154.945 1246.6 150.672C1243.56 148.649 1240.89 147.061 1238 146.229C1217.9 140.501 1245.96 170.07 1232.82 183.361C1224.93 191.321 1205.67 193.419 1204.42 193.722C1192.02 196.709 1185.74 215.18 1185.74 215.18Z" fill="#F48FB1"/>
<path d="M110.466 1162.18L122.207 1161.86C122.207 1161.86 116.63 1130.36 98.5742 1125.07C95.19 1124.08 91.4844 1123.08 87.7599 1122.53C85.5478 1122.19 82.0502 1121.68 80.3297 1121.04C79.9327 1118.07 81.1805 1114.29 82.5795 1110C83.6761 1106.67 84.8105 1103.25 85.4155 1099.51C86.5877 1092.21 84.6403 1085.76 79.9327 1081.32C74.1852 1075.93 64.9022 1074.21 54.4281 1076.59C48.4538 1077.95 44.0486 1080.88 40.1728 1083.45C34.6333 1087.14 31.4003 1089.01 24.6319 1084.46C16.4455 1078.94 27.1464 1057.33 32.8372 1044.85L11.6055 1036C8.75064 1042.24 -5.03203 1074.34 4.06188 1092.66C7.12469 1098.83 12.3995 1102.91 19.3192 1104.44C34.3686 1107.81 43.1789 1101.94 49.607 1097.67C52.6509 1095.65 55.3167 1094.06 58.2094 1093.23C78.3067 1087.5 50.2499 1117.07 63.3897 1130.36C71.2736 1138.32 90.5391 1140.42 91.7869 1140.72C104.189 1143.71 110.466 1162.18 110.466 1162.18Z" fill="#F48FB1"/>
<path d="M130.421 644C119.201 644 119.184 661.436 130.421 661.436C141.639 661.435 141.658 644 130.421 644Z" fill="#ED7279"/>
<path d="M1286.42 960C1275.2 960 1275.18 977.436 1286.42 977.436C1297.64 977.435 1297.66 960 1286.42 960Z" fill="#ED7279"/>
<path d="M100.421 260C89.202 260 89.184 277.436 100.421 277.436C111.64 277.436 111.659 260 100.421 260Z" fill="#62BEBB"/>
<path d="M199.421 1243C188.202 1243 188.184 1260.44 199.421 1260.44C210.64 1260.44 210.659 1243 199.421 1243Z" fill="#62BEBB"/>
</g>
</svg>
