<svg width="1198" height="542" viewBox="0 0 1198 542" fill="none" xmlns="http://www.w3.org/2000/svg">
<path d="M1189.42 176C1178.2 176 1178.18 193.436 1189.42 193.436C1200.64 193.436 1200.66 176 1189.42 176Z" fill="#333847"/>
<path d="M872.168 506.514C872.161 506.511 872.152 506.508 872.145 506.505C871.504 506.252 871.189 505.529 871.441 504.89C873.504 499.649 875.636 494.23 879.047 489.505C882.933 484.12 888 480.573 893.315 479.519C897.224 478.744 901.155 479.29 904.821 480.308C905.905 476.511 908.131 473.017 911.174 470.538C915.671 466.873 921.975 465.399 927.628 466.692C928.296 466.838 928.717 467.513 928.564 468.184C928.411 468.854 927.743 469.274 927.073 469.12C922.152 467.994 916.664 469.278 912.749 472.467C910.082 474.641 908.137 477.708 907.2 481.037C908.169 481.363 909.112 481.708 910.023 482.055C912.162 482.872 914.391 483.818 916.078 485.57C917.773 487.327 918.941 490.281 917.731 492.919C917.057 494.385 915.737 495.444 914.016 495.896C911.996 496.43 909.733 496.03 908.097 494.847C905.634 493.07 904.174 489.8 904.089 485.878C904.067 484.832 904.137 483.783 904.293 482.745C900.895 481.79 897.295 481.268 893.8 481.961C889.106 482.892 884.585 486.089 881.068 490.962C877.842 495.435 875.765 500.706 873.76 505.801C873.51 506.434 872.802 506.748 872.168 506.514ZM906.701 483.498C906.604 484.27 906.562 485.047 906.58 485.823C906.612 487.307 906.966 490.957 909.556 492.828C910.585 493.576 912.085 493.829 913.383 493.487C913.955 493.336 914.986 492.929 915.467 491.878C916.184 490.317 915.357 488.41 914.286 487.298C912.954 485.916 911.01 485.098 909.135 484.381C908.349 484.079 907.533 483.781 906.701 483.498Z" fill="#3BB8E0"/>
<path d="M8.421 458C-2.798 458 -2.816 475.436 8.421 475.436C19.64 475.436 19.659 458 8.421 458Z" fill="#62BEBB"/>
<path d="M305.421 524C294.201 524 294.184 541.436 305.421 541.436C316.639 541.435 316.658 524 305.421 524Z" fill="#ED7279"/>
<path d="M1013.15 8.11301C1013.15 8.10507 1013.15 8.09613 1013.15 8.08819C1013.08 7.40248 1013.58 6.79138 1014.26 6.72279C1019.86 6.15566 1025.66 5.56829 1031.42 6.43442C1037.99 7.42179 1043.46 10.3009 1046.83 14.5426C1049.31 17.6623 1050.63 21.4062 1051.4 25.1317C1055.27 24.3555 1059.4 24.733 1063 26.3024C1068.32 28.6203 1072.51 33.5487 1073.95 39.1663C1074.13 39.8268 1073.72 40.5103 1073.06 40.6815C1072.39 40.8527 1071.71 40.4514 1071.54 39.785C1070.29 34.8952 1066.63 30.6046 1062 28.5861C1058.85 27.2111 1055.23 26.8873 1051.85 27.5802C1052 28.591 1052.12 29.587 1052.23 30.556C1052.49 32.8311 1052.67 35.246 1051.88 37.5484C1051.1 39.86 1049.01 42.2517 1046.11 42.384C1044.5 42.4574 1042.95 41.7692 1041.76 40.446C1040.36 38.8956 1039.68 36.7002 1039.98 34.7037C1040.43 31.7005 1042.67 28.9049 1046.12 27.0322C1047.04 26.5338 1048 26.1155 1048.99 25.7781C1048.29 22.3205 1047.1 18.8811 1044.88 16.0919C1041.91 12.347 1036.99 9.79206 1031.05 8.89856C1025.6 8.08023 1019.96 8.64938 1014.51 9.20152C1013.84 9.26927 1013.23 8.784 1013.15 8.11301ZM1049.43 28.2638C1048.7 28.5316 1047.99 28.8502 1047.31 29.2218C1046 29.9296 1042.92 31.9169 1042.44 35.0761C1042.25 36.3329 1042.71 37.7826 1043.61 38.7797C1044.01 39.2188 1044.84 39.9488 1046 39.8952C1047.71 39.817 1049.03 38.2082 1049.53 36.7468C1050.14 34.9293 1049.98 32.8276 1049.76 30.8318C1049.67 29.9947 1049.56 29.1335 1049.43 28.2638Z" fill="#ED7279"/>
<path d="M178.672 55.1167C178.29 55.1167 177.913 54.9417 177.669 54.6117C173.009 48.3047 172.761 38.9747 177.079 32.4277C178.729 29.9257 180.896 27.9667 183.311 26.7327C185.018 20.6097 189.451 15.3117 195.345 12.7347C202.863 9.44869 212.026 10.9197 218.137 16.3967C218.651 16.8557 218.693 17.6427 218.235 18.1557C217.775 18.6677 216.988 18.7117 216.476 18.2517C211.159 13.4887 202.88 12.1587 196.342 15.0177C191.801 17.0017 188.171 20.9747 186.338 25.6067C186.658 25.5297 186.982 25.4657 187.305 25.4137C191.852 24.6947 196.546 26.7367 198.71 30.3957C200.484 33.3997 200.434 37.3067 198.581 40.1177C196.621 43.0917 192.791 44.5557 189.473 43.5987C184.608 42.1977 182.473 36.5767 182.548 31.9487C182.56 31.3127 182.6 30.6797 182.669 30.0517C181.342 31.0327 180.146 32.3007 179.157 33.7987C175.394 39.5047 175.61 47.6337 179.672 53.1297C180.081 53.6837 179.963 54.4627 179.41 54.8727C179.187 55.0377 178.929 55.1167 178.672 55.1167ZM185.455 28.4937C185.201 29.6437 185.059 30.8147 185.04 31.9897C184.979 35.7007 186.557 40.1677 190.162 41.2067C192.428 41.8587 195.149 40.8027 196.502 38.7487C197.82 36.7467 197.847 33.8327 196.565 31.6647C194.911 28.8647 191.265 27.3127 187.697 27.8747C186.937 27.9967 186.185 28.2057 185.455 28.4937Z" fill="#FDBC2C"/>
</svg>
