<svg width="12" height="13" viewBox="0 0 12 13" fill="none" xmlns="http://www.w3.org/2000/svg">
<path d="M7.21633 1.73315C7.23262 1.67223 7.26076 1.61512 7.29913 1.56508C7.33751 1.51504 7.38536 1.47305 7.43997 1.44152C7.49458 1.40998 7.55486 1.38951 7.61738 1.38128C7.6799 1.37305 7.74343 1.37721 7.80434 1.39354C8.69419 1.62572 9.50607 2.0909 10.1564 2.74118C10.8066 3.39146 11.2718 4.20333 11.504 5.09318C11.5203 5.15409 11.5245 5.21762 11.5163 5.28014C11.508 5.34266 11.4876 5.40294 11.456 5.45755C11.4245 5.51215 11.3825 5.56001 11.3325 5.59838C11.2824 5.63675 11.2253 5.66489 11.1644 5.68119C11.1239 5.69184 11.0821 5.69728 11.0402 5.69739C10.9344 5.69738 10.8316 5.66244 10.7477 5.59799C10.6639 5.53354 10.6036 5.44319 10.5764 5.34098C10.387 4.61457 10.0074 3.95179 9.47655 3.42098C8.94573 2.89016 8.28296 2.51051 7.55654 2.32115C7.49556 2.30492 7.43839 2.27683 7.38828 2.23849C7.33818 2.20014 7.29612 2.15229 7.26452 2.09768C7.23293 2.04307 7.21241 1.98276 7.20414 1.92021C7.19587 1.85766 7.20001 1.7941 7.21633 1.73315ZM7.07653 4.24117C7.90394 4.46197 8.43555 4.99358 8.65635 5.82099C8.68359 5.9232 8.74383 6.01355 8.8277 6.078C8.91157 6.14245 9.01439 6.17739 9.12016 6.17739C9.16208 6.17728 9.20382 6.17184 9.24436 6.16119C9.30528 6.1449 9.36239 6.11676 9.41243 6.07839C9.46247 6.04001 9.50446 5.99216 9.536 5.93755C9.56754 5.88295 9.58801 5.82266 9.59624 5.76014C9.60447 5.69762 9.6003 5.63409 9.58397 5.57318C9.27676 4.42357 8.47395 3.62077 7.32433 3.31356C7.26342 3.29729 7.19991 3.29318 7.13741 3.30145C7.07491 3.30973 7.01465 3.33023 6.96008 3.3618C6.90551 3.39336 6.85768 3.43536 6.81934 3.48541C6.781 3.53545 6.75289 3.59256 6.73662 3.65347C6.72035 3.71437 6.71623 3.77789 6.72451 3.84039C6.73279 3.90289 6.75329 3.96314 6.78486 4.01772C6.81642 4.07229 6.85842 4.12011 6.90847 4.15845C6.95851 4.19679 7.01562 4.2249 7.07653 4.24117ZM11.993 9.96223C11.886 10.7753 11.4867 11.5215 10.8697 12.0617C10.2527 12.6018 9.46019 12.8989 8.64015 12.8975C3.87607 12.8975 5.42928e-06 9.02142 5.42928e-06 4.25737C-0.00146458 3.43734 0.295623 2.64481 0.83578 2.02781C1.37594 1.41081 2.12222 1.01152 2.93526 0.90454C3.14085 0.879436 3.34905 0.921497 3.52878 1.02444C3.7085 1.12739 3.85012 1.2857 3.93247 1.47575L5.1997 4.30477V4.31197C5.26275 4.45745 5.28879 4.61627 5.27549 4.77426C5.2622 4.93225 5.20997 5.08449 5.12349 5.21738C5.11269 5.23358 5.10129 5.24858 5.08929 5.26358L3.84007 6.7444C4.28948 7.6576 5.2447 8.60441 6.16991 9.05502L7.63034 7.81241C7.64468 7.80035 7.6597 7.78913 7.67534 7.77881C7.80812 7.69025 7.96088 7.63619 8.11981 7.62152C8.27873 7.60685 8.43881 7.63204 8.58555 7.69481L8.59335 7.69841L11.42 8.96502C11.6104 9.04708 11.7691 9.18857 11.8724 9.36832C11.9757 9.54807 12.018 9.75642 11.993 9.96223ZM11.0402 9.84223C11.0402 9.84223 11.036 9.84223 11.0336 9.84223L8.21355 8.57921L6.75252 9.82183C6.73835 9.83383 6.72353 9.84505 6.70812 9.85543C6.56997 9.94759 6.41028 10.0023 6.24464 10.0143C6.079 10.0263 5.91309 9.99514 5.7631 9.92383C4.63929 9.38082 3.51907 8.26901 2.97546 7.1572C2.90347 7.00831 2.87117 6.84335 2.88168 6.67831C2.8922 6.51327 2.94516 6.35374 3.03546 6.21519C3.04563 6.19892 3.05707 6.18348 3.06966 6.16899L4.32008 4.68638L3.06006 1.86635C3.05982 1.86395 3.05982 1.86154 3.06006 1.85915C2.4782 1.93505 1.94397 2.22045 1.5574 2.66191C1.17083 3.10336 0.95845 3.67059 0.960022 4.25737C0.962245 6.29357 1.77211 8.24574 3.21194 9.68555C4.65176 11.1254 6.60394 11.9352 8.64015 11.9374C9.22658 11.9395 9.79366 11.7278 10.2354 11.3421C10.6771 10.9564 10.9632 10.423 11.0402 9.84163V9.84223Z" fill="#400011"/>
</svg>
