<svg width="122" height="125" viewBox="0 0 122 125" fill="none" xmlns="http://www.w3.org/2000/svg">
<g id="Group 48098883">
<g id="Group 48098882">
<g id="Group 48098739">
<circle id="Ellipse 479" cx="57" cy="67" r="31" fill="#FFD9DC"/>
<g id="cancel">
<mask id="mask0_3568_181516" style="mask-type:alpha" maskUnits="userSpaceOnUse" x="39" y="49" width="36" height="36">
<rect id="Bounding box" x="39" y="49" width="36" height="36" fill="#D9D9D9"/>
</mask>
<g mask="url(#mask0_3568_181516)">
<path id="cancel_2" d="M57 68.6639L61.8523 73.5162C62.0709 73.7348 62.3457 73.8466 62.6766 73.8517C63.0076 73.8568 63.2874 73.7449 63.5162 73.5162C63.7449 73.2874 63.8593 73.0101 63.8593 72.6842C63.8593 72.3583 63.7449 72.081 63.5162 71.8523L58.6639 67L63.5162 62.1477C63.7348 61.9291 63.8466 61.6543 63.8517 61.3234C63.8568 60.9924 63.7449 60.7126 63.5162 60.4838C63.2874 60.2551 63.0101 60.1407 62.6842 60.1407C62.3583 60.1407 62.081 60.2551 61.8523 60.4838L57 65.3361L52.1477 60.4838C51.9291 60.2652 51.6543 60.1534 51.3234 60.1483C50.9924 60.1432 50.7126 60.2551 50.4838 60.4838C50.2551 60.7126 50.1407 60.9899 50.1407 61.3158C50.1407 61.6417 50.2551 61.919 50.4838 62.1477L55.3361 67L50.4838 71.8523C50.2652 72.0709 50.1533 72.3457 50.1483 72.6766C50.1432 73.0076 50.2551 73.2874 50.4838 73.5162C50.7126 73.7449 50.9899 73.8593 51.3158 73.8593C51.6417 73.8593 51.919 73.7449 52.1477 73.5162L57 68.6639ZM57.0026 82C54.928 82 52.9779 81.6063 51.1525 80.8189C49.327 80.0316 47.739 78.963 46.3887 77.6133C45.0383 76.2635 43.9693 74.6763 43.1816 72.8516C42.3939 71.0269 42 69.0773 42 67.0026C42 64.928 42.3937 62.9779 43.1811 61.1525C43.9684 59.327 45.037 57.739 46.3867 56.3887C47.7365 55.0383 49.3237 53.9693 51.1484 53.1816C52.9731 52.3939 54.9227 52 56.9974 52C59.072 52 61.0221 52.3937 62.8475 53.1811C64.673 53.9684 66.261 55.037 67.6113 56.3867C68.9617 57.7365 70.0307 59.3237 70.8184 61.1484C71.6061 62.9731 72 64.9227 72 66.9974C72 69.072 71.6063 71.022 70.8189 72.8475C70.0316 74.673 68.963 76.261 67.6133 77.6113C66.2635 78.9617 64.6763 80.0307 62.8516 80.8184C61.0269 81.6061 59.0773 82 57.0026 82ZM57 79.6316C60.5263 79.6316 63.5132 78.4079 65.9606 75.9606C68.4079 73.5132 69.6316 70.5263 69.6316 67C69.6316 63.4737 68.4079 60.4868 65.9606 58.0395C63.5132 55.5921 60.5263 54.3684 57 54.3684C53.4737 54.3684 50.4868 55.5921 48.0394 58.0395C45.5921 60.4868 44.3684 63.4737 44.3684 67C44.3684 70.5263 45.5921 73.5132 48.0394 75.9606C50.4868 78.4079 53.4737 79.6316 57 79.6316Z" fill="#400011"/>
</g>
</g>
</g>
<circle id="Ellipse 480" cx="57" cy="67" r="40.5" stroke="#FFECED"/>
<circle id="Ellipse 481" cx="57" cy="67" r="51.5" stroke="#FFF8F7"/>
</g>
<g id="Group 48098864">
<path id="Vector" d="M5.00022 23.0029C-1.66169 23.0029 -1.67179 32.9654 5.00022 32.9654C11.661 32.9649 11.6722 23.0029 5.00022 23.0029Z" fill="#379584"/>
<path id="Vector_2" d="M118.5 59.0088C113.837 59.0088 113.83 65.9817 118.5 65.9817C123.163 65.9813 123.171 59.0088 118.5 59.0088Z" fill="#FFB2BA"/>
<path id="Vector_3" d="M46.0001 121.017C43.3353 121.017 43.3313 125.001 46.0001 125.001C48.6644 125.001 48.6689 121.017 46.0001 121.017Z" fill="#3BB8E0"/>
<path id="Vector_4" d="M74.9201 14.2238C74.7732 14.261 74.6216 14.2874 74.4654 14.3023C73.3938 14.4072 72.3219 13.9698 71.5977 13.1325C70.2497 11.5728 70.1321 8.93138 71.3362 7.24433C71.6193 6.84751 71.9633 6.50908 72.3519 6.23735C70.3938 4.98082 68.1129 4.41073 65.9562 4.68642C63.1592 5.0491 60.6019 6.82115 59.1205 9.44053C58.9383 9.76562 58.5464 9.84199 58.2447 9.61232C57.9444 9.38352 57.8488 8.9349 58.0327 8.61056C59.6997 5.66102 62.5753 3.66087 65.7284 3.25787C68.4673 2.90748 71.3853 3.76816 73.7585 5.58627C74.5115 5.36154 75.3796 5.3729 76.2244 5.58815C78.6641 6.20924 80.7064 8.57305 81.1908 11.3365C81.2599 11.7306 81.0408 12.0956 80.6909 12.1421C80.3454 12.1936 80.0101 11.916 79.9412 11.5224C79.565 9.37844 77.9178 7.47143 76.0249 6.98978C75.7437 6.91814 75.4598 6.87898 75.18 6.87056C76.6428 8.48043 77.6723 10.8803 76.7097 12.7912C76.3434 13.5199 75.7048 14.0253 74.9201 14.2238ZM73.6068 7.17743C73.1038 7.4025 72.6676 7.74626 72.3506 8.19065C71.5402 9.32629 71.5995 11.1461 72.481 12.1656C72.9134 12.6664 73.6001 12.936 74.2714 12.8706C74.8674 12.8116 75.3487 12.5032 75.5921 12.0204C76.2522 10.7092 75.2928 8.77282 74.0031 7.53854C73.8732 7.41422 73.7412 7.29461 73.6068 7.17743Z" fill="#3BB8E0"/>
<g id="Vector 14">
<path d="M6.87093 110.414L4.74369 103.345C4.4805 102.471 5.43155 101.732 6.21565 102.202L14.7929 107.344C15.5389 107.791 15.3998 108.91 14.5673 109.158L8.11728 111.085C7.5881 111.243 7.03009 110.942 6.87093 110.414Z" fill="#D9D9D9"/>
<path d="M6.87093 110.414L4.74369 103.345C4.4805 102.471 5.43155 101.732 6.21565 102.202L14.7929 107.344C15.5389 107.791 15.3998 108.91 14.5673 109.158L8.11728 111.085C7.5881 111.243 7.03009 110.942 6.87093 110.414Z" fill="#FEBA4B"/>
</g>
<g id="Vector 15">
<path d="M109.508 41.6523L105.559 38.4311C104.079 37.2237 104.979 34.8325 106.892 34.8905L113.327 35.0856C114.989 35.136 115.868 37.0636 114.815 38.3453L112.328 41.3714C111.626 42.2247 110.364 42.3505 109.508 41.6523Z" fill="#D9D9D9"/>
<path d="M109.508 41.6523L105.559 38.4311C104.079 37.2237 104.979 34.8325 106.892 34.8905L113.327 35.0856C114.989 35.136 115.868 37.0636 114.815 38.3453L112.328 41.3714C111.626 42.2247 110.364 42.3505 109.508 41.6523Z" fill="#FEBA4B"/>
</g>
</g>
</g>
</svg>
