<svg width="172" height="175" viewBox="0 0 172 175" fill="none" xmlns="http://www.w3.org/2000/svg">
<circle cx="81.9961" cy="91.9987" r="42" fill="#FFD9DC"/>
<path d="M71.9961 112C70.8961 112 69.9544 111.608 69.1711 110.825C68.3878 110.042 67.9961 109.1 67.9961 108C67.9961 106.9 68.3878 105.958 69.1711 105.175C69.9544 104.392 70.8961 104 71.9961 104C73.0961 104 74.0378 104.392 74.8211 105.175C75.6044 105.958 75.9961 106.9 75.9961 108C75.9961 109.1 75.6044 110.042 74.8211 110.825C74.0378 111.608 73.0961 112 71.9961 112ZM91.9961 112C90.8961 112 89.9544 111.608 89.1711 110.825C88.3878 110.042 87.9961 109.1 87.9961 108C87.9961 106.9 88.3878 105.958 89.1711 105.175C89.9544 104.392 90.8961 104 91.9961 104C93.0961 104 94.0378 104.392 94.8211 105.175C95.6044 105.958 95.9961 106.9 95.9961 108C95.9961 109.1 95.6044 110.042 94.8211 110.825C94.0378 111.608 93.0961 112 91.9961 112ZM70.2961 80L75.0961 90H89.0961L94.5961 80H70.2961ZM71.9961 102C70.4961 102 69.3628 101.342 68.5961 100.025C67.8294 98.7083 67.7961 97.4 68.4961 96.1L71.1961 91.2L63.9961 76H61.9461C61.3794 76 60.9128 75.8083 60.5461 75.425C60.1794 75.0417 59.9961 74.5667 59.9961 74C59.9961 73.4333 60.1878 72.9583 60.5711 72.575C60.9544 72.1917 61.4294 72 61.9961 72H65.2461C65.6128 72 65.9628 72.1 66.2961 72.3C66.6294 72.5 66.8794 72.7833 67.0461 73.15L68.3961 76H97.8961C98.7961 76 99.4128 76.3333 99.7461 77C100.079 77.6667 100.063 78.3667 99.6961 79.1L92.5961 91.9C92.2294 92.5667 91.7461 93.0833 91.1461 93.45C90.5461 93.8167 89.8628 94 89.0961 94H74.1961L71.9961 98H94.0461C94.6128 98 95.0794 98.1917 95.4461 98.575C95.8128 98.9583 95.9961 99.4333 95.9961 100C95.9961 100.567 95.8044 101.042 95.4211 101.425C95.0378 101.808 94.5628 102 93.9961 102H71.9961Z" fill="#400011"/>
<circle cx="81.9961" cy="91.9987" r="54.5" stroke="#FFECED"/>
<circle cx="81.9961" cy="91.9987" r="69.5" stroke="#FFF8F7"/>
<path d="M7.60175 32.2031C-1.72477 32.2031 -1.7389 46.1504 7.60175 46.1504C16.9266 46.1496 16.9424 32.2031 7.60175 32.2031Z" fill="#379584"/>
<path d="M166.499 82.6107C159.97 82.6107 159.96 92.3725 166.499 92.3725C173.026 92.372 173.037 82.6107 166.499 82.6107Z" fill="#FFB2BA"/>
<path d="M65.0003 169.421C61.2697 169.421 61.264 174.999 65.0003 174.999C68.7302 174.998 68.7365 169.421 65.0003 169.421Z" fill="#3BB8E0"/>
<path d="M105.488 19.9125C105.282 19.9645 105.07 20.0014 104.851 20.0223C103.351 20.1692 101.851 19.5568 100.837 18.3846C98.9497 16.201 98.785 12.5031 100.471 10.1413C100.867 9.58578 101.349 9.11199 101.893 8.73156C99.1513 6.97246 95.9582 6.17434 92.9388 6.56031C89.0232 7.06805 85.4429 9.54887 83.369 13.2159C83.114 13.6711 82.5653 13.778 82.143 13.4564C81.7225 13.1361 81.5887 12.5081 81.8462 12.054C84.1799 7.92473 88.2057 5.12455 92.62 4.56037C96.4544 4.06983 100.539 5.27476 103.862 7.82007C104.916 7.50546 106.131 7.52136 107.314 7.8227C110.73 8.69221 113.589 12.0015 114.267 15.8702C114.364 16.4219 114.057 16.933 113.567 16.9981C113.083 17.0701 112.614 16.6815 112.517 16.1306C111.991 13.129 109.685 10.4593 107.035 9.78496C106.641 9.68466 106.244 9.62984 105.852 9.61805C107.9 11.8718 109.341 15.2316 107.994 17.9068C107.481 18.927 106.587 19.6345 105.488 19.9125ZM103.65 10.0477C102.945 10.3628 102.335 10.844 101.891 11.4661C100.756 13.056 100.839 15.6036 102.073 17.031C102.679 17.7321 103.64 18.1096 104.58 18.0179C105.414 17.9353 106.088 17.5036 106.429 16.8277C107.353 14.9921 106.01 12.2812 104.204 10.5532C104.022 10.3792 103.838 10.2117 103.65 10.0477Z" fill="#3BB8E0"/>
<path d="M10.3357 154.959L6.94486 143.692C6.68167 142.818 7.63271 142.079 8.41682 142.549L22.0889 150.745C22.8349 151.193 22.6958 152.311 21.8633 152.56L11.582 155.631C11.0528 155.789 10.4948 155.488 10.3357 154.959Z" fill="#D9D9D9"/>
<path d="M10.3357 154.959L6.94486 143.692C6.68167 142.818 7.63271 142.079 8.41682 142.549L22.0889 150.745C22.8349 151.193 22.6958 152.311 21.8633 152.56L11.582 155.631C11.0528 155.789 10.4948 155.488 10.3357 154.959Z" fill="#FEBA4B"/>
<path d="M154.53 58.8178L146.558 52.315C145.078 51.1076 145.978 48.7164 147.891 48.7744L160.883 49.1683C162.544 49.2187 163.424 51.1463 162.371 52.428L157.35 58.5369C156.648 59.3903 155.386 59.516 154.53 58.8178Z" fill="#D9D9D9"/>
<path d="M154.53 58.8178L146.558 52.315C145.078 51.1076 145.978 48.7164 147.891 48.7744L160.883 49.1683C162.544 49.2187 163.424 51.1463 162.371 52.428L157.35 58.5369C156.648 59.3903 155.386 59.516 154.53 58.8178Z" fill="#FEBA4B"/>
</svg>
