<svg width="179" height="170" viewBox="0 0 179 170" fill="none" xmlns="http://www.w3.org/2000/svg">
<path opacity="0.5" d="M42.4826 -116C-43.3209 -116 -103 -57.268 -103 26.7448C-103 64.7929 -90.4501 100.032 -67.6534 125.823C-42.0407 154.678 -6.43835 170 35.8233 170C120.091 170 179 109.225 179 21.8923C178.744 -61.8643 125.213 -116 42.4826 -116ZM36.8477 74.7511C22.7605 74.7511 10.7221 69.6441 2.26978 59.9405C-5.41393 51.259 -9.51156 39.5123 -9.51156 26.7448C-9.51156 -1.34491 10.4663 -21.0073 39.1523 -21.0073C66.8151 -21.0073 84.7442 -2.87701 84.7442 25.2122C84.7442 54.323 65.0221 74.7511 36.8477 74.7511Z" fill="#FFECED"/>
</svg>
