<svg width="122" height="126" viewBox="0 0 122 126" fill="none" xmlns="http://www.w3.org/2000/svg">
<circle cx="57" cy="67" r="31" fill="#FFD9DC"/>
<mask id="mask0_3568_182403" style="mask-type:alpha" maskUnits="userSpaceOnUse" x="39" y="49" width="36" height="36">
<rect x="39" y="49" width="36" height="36" fill="#D9D9D9"/>
</mask>
<g mask="url(#mask0_3568_182403)">
<path d="M49.9615 79.7499C49.2135 79.7499 48.5745 79.485 48.0447 78.9552C47.5149 78.4254 47.25 77.7864 47.25 77.0384V58H45.75V55.75H52.5V54.4231H61.5V55.75H68.2499V58H66.7499V77.0384C66.7499 77.7961 66.4874 78.4374 65.9624 78.9624C65.4374 79.4874 64.7961 79.7499 64.0384 79.7499H49.9615ZM64.5 58H49.5V77.0384C49.5 77.173 49.5432 77.2836 49.6298 77.3701C49.7163 77.4567 49.8269 77.5 49.9615 77.5H64.0384C64.1538 77.5 64.2596 77.4519 64.3557 77.3557C64.4519 77.2596 64.5 77.1538 64.5 77.0384V58ZM53.1058 74.5H55.3557V61H53.1058V74.5ZM58.6442 74.5H60.8941V61H58.6442V74.5Z" fill="#400011"/>
</g>
<circle cx="57" cy="67" r="40.5" stroke="#FFECED"/>
<circle cx="57" cy="67" r="51.5" stroke="#FFF8F7"/>
<path d="M5.00022 23.0026C-1.66169 23.0026 -1.67179 32.9651 5.00022 32.9651C11.661 32.9645 11.6722 23.0026 5.00022 23.0026Z" fill="#379584"/>
<path d="M118.5 59.0087C113.837 59.0087 113.83 65.9816 118.5 65.9816C123.163 65.9812 123.171 59.0087 118.5 59.0087Z" fill="#FFB2BA"/>
<path d="M46.0001 121.017C43.3353 121.017 43.3313 125.001 46.0001 125.001C48.6644 125.001 48.6689 121.017 46.0001 121.017Z" fill="#3BB8E0"/>
<path d="M74.9201 14.2235C74.7732 14.2606 74.6216 14.287 74.4654 14.3019C73.3938 14.4069 72.3219 13.9695 71.5977 13.1321C70.2497 11.5724 70.1321 8.93101 71.3362 7.24397C71.6193 6.84715 71.9633 6.50872 72.3519 6.23698C70.3938 4.98045 68.1129 4.41036 65.9562 4.68606C63.1592 5.04873 60.6019 6.82078 59.1205 9.44017C58.9383 9.76526 58.5464 9.84162 58.2447 9.61195C57.9444 9.38315 57.8488 8.93453 58.0327 8.6102C59.6997 5.66066 62.5753 3.6605 65.7284 3.2575C68.4673 2.90711 71.3853 3.76779 73.7585 5.5859C74.5115 5.36118 75.3796 5.37253 76.2244 5.58778C78.6641 6.20887 80.7064 8.57269 81.1908 11.3361C81.2599 11.7302 81.0408 12.0952 80.6909 12.1418C80.3454 12.1932 80.0101 11.9156 79.9412 11.5221C79.565 9.37807 77.9178 7.47107 76.0249 6.98942C75.7437 6.91777 75.4598 6.87861 75.18 6.87019C76.6428 8.48007 77.6723 10.88 76.7097 12.7909C76.3434 13.5195 75.7048 14.0249 74.9201 14.2235ZM73.6068 7.17706C73.1038 7.40214 72.6676 7.74589 72.3506 8.19028C71.5402 9.32592 71.5995 11.1457 72.481 12.1652C72.9134 12.666 73.6001 12.9357 74.2714 12.8702C74.8674 12.8112 75.3487 12.5028 75.5921 12.0201C76.2522 10.7089 75.2928 8.77245 74.0031 7.53817C73.8732 7.41386 73.7412 7.29425 73.6068 7.17706Z" fill="#3BB8E0"/>
<path d="M6.87093 110.414L4.74369 103.345C4.4805 102.471 5.43155 101.732 6.21565 102.202L14.7929 107.344C15.5389 107.791 15.3998 108.91 14.5673 109.158L8.11728 111.085C7.5881 111.243 7.03009 110.943 6.87093 110.414Z" fill="#D9D9D9"/>
<path d="M6.87093 110.414L4.74369 103.345C4.4805 102.471 5.43155 101.732 6.21565 102.202L14.7929 107.344C15.5389 107.791 15.3998 108.91 14.5673 109.158L8.11728 111.085C7.5881 111.243 7.03009 110.943 6.87093 110.414Z" fill="#FEBA4B"/>
<path d="M109.508 41.6523L105.559 38.4311C104.079 37.2237 104.979 34.8325 106.892 34.8905L113.327 35.0856C114.989 35.136 115.868 37.0636 114.815 38.3453L112.328 41.3714C111.626 42.2247 110.364 42.3505 109.508 41.6523Z" fill="#D9D9D9"/>
<path d="M109.508 41.6523L105.559 38.4311C104.079 37.2237 104.979 34.8325 106.892 34.8905L113.327 35.0856C114.989 35.136 115.868 37.0636 114.815 38.3453L112.328 41.3714C111.626 42.2247 110.364 42.3505 109.508 41.6523Z" fill="#FEBA4B"/>
</svg>
