<svg width="20" height="20" viewBox="0 0 20 20" fill="none" xmlns="http://www.w3.org/2000/svg">
<g id="icon">
<mask id="mask0_4084_15381" style="mask-type:alpha" maskUnits="userSpaceOnUse" x="0" y="0" width="20" height="20">
<rect id="Bounding box" width="20" height="20" fill="#D9D9D9"/>
</mask>
<g mask="url(#mask0_4084_15381)">
<path id="expand_more" d="M9.9992 12.2181C9.90412 12.2181 9.81197 12.2021 9.72276 12.17C9.63355 12.1379 9.54996 12.0829 9.47197 12.0049L5.71395 8.24694C5.59323 8.12622 5.535 7.98199 5.53928 7.81425C5.54355 7.64652 5.60605 7.50229 5.72678 7.38157C5.8475 7.26084 5.99387 7.20048 6.16587 7.20048C6.33787 7.20048 6.48423 7.26084 6.60495 7.38157L9.9992 10.7758L13.4063 7.36875C13.527 7.24803 13.6712 7.1898 13.8389 7.19407C14.0067 7.19834 14.1509 7.26084 14.2716 7.38157C14.3924 7.50229 14.4527 7.64866 14.4527 7.82067C14.4527 7.99267 14.3924 8.13903 14.2716 8.25975L10.5264 12.0049C10.4484 12.0829 10.3662 12.1379 10.2796 12.17C10.1931 12.2021 10.0996 12.2181 9.9992 12.2181Z" fill="#BD0043"/>
</g>
</g>
</svg>
