<svg width="19" height="18" viewBox="0 0 19 18" fill="none" xmlns="http://www.w3.org/2000/svg">
<g id="icon">
<mask id="mask0_3750_44821" style="mask-type:alpha" maskUnits="userSpaceOnUse" x="0" y="0" width="19" height="18">
<rect id="Bounding box" x="0.5" width="18" height="18" fill="#D9D9D9"/>
</mask>
<g mask="url(#mask0_3750_44821)">
<path id="download" d="M9.5 12.287C9.37948 12.287 9.26731 12.268 9.16347 12.23C9.05962 12.192 8.96091 12.1267 8.86732 12.0342L5.75771 8.9601C5.61926 8.82321 5.54844 8.65115 5.54524 8.44393C5.54202 8.23672 5.61284 8.0615 5.75771 7.91829C5.90258 7.77507 6.08078 7.70093 6.29231 7.69586C6.50385 7.69078 6.68206 7.75985 6.82694 7.90307L8.75002 9.80424V2.24142C8.75002 2.03103 8.82181 1.85486 8.9654 1.71292C9.10898 1.57097 9.28718 1.5 9.5 1.5C9.71282 1.5 9.89102 1.57097 10.0346 1.71292C10.1782 1.85486 10.25 2.03103 10.25 2.24142V9.80424L12.1731 7.90307C12.3115 7.76619 12.4881 7.69871 12.7029 7.7006C12.9176 7.70251 13.0974 7.77507 13.2423 7.91829C13.3872 8.0615 13.4596 8.23513 13.4596 8.43918C13.4596 8.64323 13.3872 8.81687 13.2423 8.9601L10.1327 12.0342C10.0391 12.1267 9.94038 12.192 9.83652 12.23C9.73269 12.268 9.62052 12.287 9.5 12.287ZM3.80771 16.5C3.30257 16.5 2.875 16.327 2.525 15.981C2.175 15.635 2 15.2123 2 14.7129V12.7928C2 12.5824 2.0718 12.4062 2.2154 12.2643C2.35898 12.1223 2.53719 12.0513 2.75 12.0513C2.96282 12.0513 3.14102 12.1223 3.2846 12.2643C3.42819 12.4062 3.49998 12.5824 3.49998 12.7928V14.7129C3.49998 14.789 3.53203 14.8587 3.59613 14.9221C3.66025 14.9854 3.73077 15.0171 3.80771 15.0171H15.1923C15.2692 15.0171 15.3398 14.9854 15.4039 14.9221C15.468 14.8587 15.5 14.789 15.5 14.7129V12.7928C15.5 12.5824 15.5718 12.4062 15.7154 12.2643C15.859 12.1223 16.0372 12.0513 16.25 12.0513C16.4628 12.0513 16.641 12.1223 16.7846 12.2643C16.9282 12.4062 17 12.5824 17 12.7928V14.7129C17 15.2123 16.825 15.635 16.475 15.981C16.125 16.327 15.6974 16.5 15.1923 16.5H3.80771Z" fill="black"/>
</g>
</g>
</svg>
