<svg width="122" height="126" viewBox="0 0 122 126" fill="none" xmlns="http://www.w3.org/2000/svg">
<circle cx="57" cy="67" r="31" fill="#FFD9DC"/>
<mask id="mask0_3568_182510" style="mask-type:alpha" maskUnits="userSpaceOnUse" x="39" y="49" width="36" height="36">
<rect x="39" y="49" width="36" height="36" fill="#D9D9D9"/>
</mask>
<g mask="url(#mask0_3568_182510)">
<path d="M46.7265 77.5H48.5813L62.4708 63.6105L60.616 61.7557L46.7265 75.6452V77.5ZM67.2822 61.9836L62.2198 56.9674L64.19 54.9972C64.6208 54.5664 65.1515 54.3511 65.7823 54.3511C66.413 54.3511 66.9438 54.5664 67.3745 54.9972L69.2293 56.852C69.6601 57.2827 69.8832 57.8058 69.8985 58.4212C69.9139 59.0366 69.7062 59.5596 69.2755 59.9904L67.2822 61.9836ZM45.8323 79.75C45.4458 79.75 45.1232 79.6206 44.8645 79.362C44.6059 79.1033 44.4766 78.7807 44.4766 78.3942V75.2529C44.4766 75.0722 44.5092 74.9001 44.5746 74.7366C44.64 74.5731 44.7429 74.4212 44.8833 74.2808L60.5929 58.5712L65.6553 63.6336L49.9457 79.3432C49.8053 79.4836 49.6534 79.5865 49.4899 79.6519C49.3265 79.7173 49.1543 79.75 48.9736 79.75H45.8323Z" fill="#400011"/>
</g>
<circle cx="57" cy="67" r="40.5" stroke="#FFECED"/>
<circle cx="57" cy="67" r="51.5" stroke="#FFF8F7"/>
<path d="M5.00022 23.0027C-1.66169 23.0027 -1.67179 32.9652 5.00022 32.9652C11.661 32.9646 11.6722 23.0027 5.00022 23.0027Z" fill="#379584"/>
<path d="M118.5 59.0085C113.837 59.0085 113.83 65.9814 118.5 65.9814C123.163 65.981 123.171 59.0085 118.5 59.0085Z" fill="#FFB2BA"/>
<path d="M46.0001 121.017C43.3353 121.017 43.3313 125.001 46.0001 125.001C48.6644 125.001 48.6689 121.017 46.0001 121.017Z" fill="#3BB8E0"/>
<path d="M74.9201 14.2233C74.7732 14.2605 74.6216 14.2869 74.4654 14.3018C73.3938 14.4067 72.3219 13.9693 71.5977 13.132C70.2497 11.5723 70.1321 8.93089 71.3362 7.24384C71.6193 6.84702 71.9633 6.5086 72.3519 6.23686C70.3938 4.98033 68.1129 4.41024 65.9562 4.68594C63.1592 5.04861 60.6019 6.82066 59.1205 9.44004C58.9383 9.76513 58.5464 9.8415 58.2447 9.61183C57.9444 9.38303 57.8488 8.93441 58.0327 8.61007C59.6997 5.66054 62.5753 3.66038 65.7284 3.25738C68.4673 2.90699 71.3853 3.76767 73.7585 5.58578C74.5115 5.36106 75.3796 5.37241 76.2244 5.58766C78.6641 6.20875 80.7064 8.57256 81.1908 11.336C81.2599 11.7301 81.0408 12.0951 80.6909 12.1416C80.3454 12.1931 80.0101 11.9155 79.9412 11.522C79.565 9.37795 77.9178 7.47095 76.0249 6.98929C75.7437 6.91765 75.4598 6.87849 75.18 6.87007C76.6428 8.47995 77.6723 10.8798 76.7097 12.7907C76.3434 13.5194 75.7048 14.0248 74.9201 14.2233ZM73.6068 7.17694C73.1038 7.40201 72.6676 7.74577 72.3506 8.19016C71.5402 9.3258 71.5995 11.1456 72.481 12.1651C72.9134 12.6659 73.6001 12.9356 74.2714 12.8701C74.8674 12.8111 75.3487 12.5027 75.5921 12.0199C76.2522 10.7088 75.2928 8.77233 74.0031 7.53805C73.8732 7.41374 73.7412 7.29412 73.6068 7.17694Z" fill="#3BB8E0"/>
<path d="M6.87093 110.414L4.74369 103.345C4.4805 102.471 5.43155 101.732 6.21565 102.202L14.7929 107.344C15.5389 107.791 15.3998 108.91 14.5673 109.158L8.11728 111.085C7.5881 111.243 7.03009 110.942 6.87093 110.414Z" fill="#D9D9D9"/>
<path d="M6.87093 110.414L4.74369 103.345C4.4805 102.471 5.43155 101.732 6.21565 102.202L14.7929 107.344C15.5389 107.791 15.3998 108.91 14.5673 109.158L8.11728 111.085C7.5881 111.243 7.03009 110.942 6.87093 110.414Z" fill="#FEBA4B"/>
<path d="M109.508 41.6523L105.559 38.4311C104.079 37.2237 104.979 34.8325 106.892 34.8905L113.327 35.0856C114.989 35.136 115.868 37.0636 114.815 38.3453L112.328 41.3714C111.626 42.2247 110.364 42.3505 109.508 41.6523Z" fill="#D9D9D9"/>
<path d="M109.508 41.6523L105.559 38.4311C104.079 37.2237 104.979 34.8325 106.892 34.8905L113.327 35.0856C114.989 35.136 115.868 37.0636 114.815 38.3453L112.328 41.3714C111.626 42.2247 110.364 42.3505 109.508 41.6523Z" fill="#FEBA4B"/>
</svg>
