<svg width="172" height="175" viewBox="0 0 172 175" fill="none" xmlns="http://www.w3.org/2000/svg">
<circle cx="82" cy="91.9987" r="42" fill="#FFD9DC"/>
<mask id="mask0_3619_185921" style="mask-type:alpha" maskUnits="userSpaceOnUse" x="58" y="68" width="48" height="48">
<rect x="58" y="68" width="48" height="48" fill="#D9D9D9"/>
</mask>
<g mask="url(#mask0_3619_185921)">
<path d="M82 106.7C86.0667 102.967 89.0833 99.575 91.05 96.525C93.0167 93.475 94 90.7667 94 88.4C94 84.7667 92.8417 81.7917 90.525 79.475C88.2083 77.1583 85.3667 76 82 76C78.6333 76 75.7917 77.1583 73.475 79.475C71.1583 81.7917 70 84.7667 70 88.4C70 90.7667 70.9833 93.475 72.95 96.525C74.9167 99.575 77.9333 102.967 82 106.7ZM82 110.65C81.5333 110.65 81.0667 110.567 80.6 110.4C80.1333 110.233 79.7167 109.983 79.35 109.65C77.1833 107.65 75.2667 105.7 73.6 103.8C71.9333 101.9 70.5417 100.058 69.425 98.275C68.3083 96.4917 67.4583 94.775 66.875 93.125C66.2917 91.475 66 89.9 66 88.4C66 83.4 67.6083 79.4167 70.825 76.45C74.0417 73.4833 77.7667 72 82 72C86.2333 72 89.9583 73.4833 93.175 76.45C96.3917 79.4167 98 83.4 98 88.4C98 89.9 97.7083 91.475 97.125 93.125C96.5417 94.775 95.6917 96.4917 94.575 98.275C93.4583 100.058 92.0667 101.9 90.4 103.8C88.7333 105.7 86.8167 107.65 84.65 109.65C84.2833 109.983 83.8667 110.233 83.4 110.4C82.9333 110.567 82.4667 110.65 82 110.65ZM82 92C83.1 92 84.0417 91.6083 84.825 90.825C85.6083 90.0417 86 89.1 86 88C86 86.9 85.6083 85.9583 84.825 85.175C84.0417 84.3917 83.1 84 82 84C80.9 84 79.9583 84.3917 79.175 85.175C78.3917 85.9583 78 86.9 78 88C78 89.1 78.3917 90.0417 79.175 90.825C79.9583 91.6083 80.9 92 82 92Z" fill="#400011"/>
</g>
<circle cx="82" cy="91.9987" r="54.5" stroke="#FFECED"/>
<circle cx="82" cy="91.9987" r="69.5" stroke="#FFF8F7"/>
<path d="M7.60175 32.2031C-1.72477 32.2031 -1.7389 46.1504 7.60175 46.1504C16.9266 46.1496 16.9424 32.2031 7.60175 32.2031Z" fill="#379584"/>
<path d="M166.502 82.6107C159.973 82.6107 159.963 92.3725 166.502 92.3725C173.029 92.372 173.04 82.6107 166.502 82.6107Z" fill="#FFB2BA"/>
<path d="M65.0032 169.421C61.2726 169.421 61.2669 174.999 65.0032 174.999C68.7331 174.998 68.7395 169.421 65.0032 169.421Z" fill="#3BB8E0"/>
<path d="M105.486 19.9125C105.281 19.9645 105.068 20.0014 104.85 20.0223C103.349 20.1692 101.849 19.5568 100.835 18.3846C98.9477 16.201 98.783 12.5031 100.469 10.1413C100.865 9.58579 101.347 9.112 101.891 8.73157C99.1494 6.97247 95.9562 6.17435 92.9368 6.56032C89.0212 7.06805 85.441 9.54888 83.3671 13.216C83.112 13.6711 82.5633 13.778 82.141 13.4564C81.7205 13.1361 81.5868 12.5081 81.8443 12.054C84.178 7.92473 88.2038 5.12456 92.618 4.56038C96.4524 4.06984 100.538 5.27477 103.86 7.82008C104.914 7.50547 106.129 7.52137 107.312 7.82271C110.728 8.69222 113.587 12.0015 114.265 15.8702C114.362 16.4219 114.055 16.933 113.565 16.9981C113.081 17.0701 112.612 16.6815 112.516 16.1306C111.989 13.129 109.683 10.4593 107.033 9.78496C106.639 9.68466 106.242 9.62984 105.85 9.61805C107.898 11.8718 109.339 15.2316 107.992 17.9068C107.479 18.927 106.585 19.6345 105.486 19.9125ZM103.648 10.0477C102.943 10.3628 102.333 10.844 101.889 11.4661C100.754 13.056 100.837 15.6037 102.071 17.031C102.677 17.7321 103.638 18.1096 104.578 18.018C105.412 17.9353 106.086 17.5036 106.427 16.8278C107.351 14.9921 106.008 12.2812 104.202 10.5532C104.02 10.3792 103.836 10.2117 103.648 10.0477Z" fill="#3BB8E0"/>
<path d="M10.3376 154.959L6.94682 143.692C6.68363 142.818 7.63467 142.079 8.41877 142.549L22.0908 150.745C22.8368 151.193 22.6977 152.311 21.8652 152.56L11.584 155.631C11.0548 155.789 10.4968 155.488 10.3376 154.959Z" fill="#D9D9D9"/>
<path d="M10.3376 154.959L6.94682 143.692C6.68363 142.818 7.63467 142.079 8.41877 142.549L22.0908 150.745C22.8368 151.193 22.6977 152.311 21.8652 152.56L11.584 155.631C11.0548 155.789 10.4968 155.488 10.3376 154.959Z" fill="#FEBA4B"/>
<path d="M154.531 58.8178L146.559 52.315C145.079 51.1076 145.979 48.7164 147.892 48.7744L160.884 49.1683C162.545 49.2186 163.425 51.1463 162.371 52.428L157.351 58.5369C156.649 59.3903 155.387 59.516 154.531 58.8178Z" fill="#D9D9D9"/>
<path d="M154.531 58.8178L146.559 52.315C145.079 51.1076 145.979 48.7164 147.892 48.7744L160.884 49.1683C162.545 49.2186 163.425 51.1463 162.371 52.428L157.351 58.5369C156.649 59.3903 155.387 59.516 154.531 58.8178Z" fill="#FEBA4B"/>
</svg>
