<svg width="18" height="20" viewBox="0 0 18 20" fill="none" xmlns="http://www.w3.org/2000/svg">
<path id="event_note" d="M2.3077 19.5001C1.80257 19.5001 1.375 19.3251 1.025 18.9751C0.675 18.6251 0.5 18.1975 0.5 17.6924V4.30784C0.5 3.80271 0.675 3.37514 1.025 3.02514C1.375 2.67514 1.80257 2.50014 2.3077 2.50014H3.69233V1.15397C3.69233 0.936032 3.76618 0.753349 3.91388 0.605916C4.06156 0.458483 4.24457 0.384766 4.4629 0.384766C4.68122 0.384766 4.86378 0.458483 5.01058 0.605916C5.15736 0.753349 5.23075 0.936032 5.23075 1.15397V2.50014H12.8077V1.13474C12.8077 0.922241 12.8796 0.744116 13.0234 0.600366C13.1672 0.456633 13.3454 0.384766 13.558 0.384766C13.7706 0.384766 13.9486 0.456633 14.0922 0.600366C14.2358 0.744116 14.3076 0.922241 14.3076 1.13474V2.50014H15.6923C16.1974 2.50014 16.625 2.67514 16.975 3.02514C17.325 3.37514 17.5 3.80271 17.5 4.30784V17.6924C17.5 18.1975 17.325 18.6251 16.975 18.9751C16.625 19.3251 16.1974 19.5001 15.6923 19.5001H2.3077ZM2.3077 18.0001H15.6923C15.7692 18.0001 15.8397 17.9681 15.9038 17.904C15.9679 17.8398 16 17.7693 16 17.6924V8.30784H1.99997V17.6924C1.99997 17.7693 2.03202 17.8398 2.09612 17.904C2.16024 17.9681 2.23077 18.0001 2.3077 18.0001ZM4.99998 11.7501C4.78748 11.7501 4.60936 11.6782 4.46563 11.5344C4.32188 11.3906 4.25 11.2124 4.25 10.9998C4.25 10.7872 4.32188 10.6091 4.46563 10.4655C4.60936 10.3219 4.78748 10.2501 4.99998 10.2501H13C13.2125 10.2501 13.3906 10.322 13.5344 10.4658C13.6781 10.6097 13.75 10.7879 13.75 11.0004C13.75 11.213 13.6781 11.3911 13.5344 11.5347C13.3906 11.6783 13.2125 11.7501 13 11.7501H4.99998ZM4.99998 15.7501C4.78748 15.7501 4.60936 15.6782 4.46563 15.5344C4.32188 15.3906 4.25 15.2124 4.25 14.9998C4.25 14.7872 4.32188 14.6091 4.46563 14.4655C4.60936 14.3219 4.78748 14.2501 4.99998 14.2501H9.99998C10.2125 14.2501 10.3906 14.322 10.5344 14.4658C10.6781 14.6097 10.75 14.7879 10.75 15.0004C10.75 15.213 10.6781 15.3911 10.5344 15.5347C10.3906 15.6783 10.2125 15.7501 9.99998 15.7501H4.99998Z" fill="#400011"/>
</svg>
