<svg width="445" height="623" viewBox="0 0 445 623" fill="none" xmlns="http://www.w3.org/2000/svg">
<g clip-path="url(#clip0_0_18)">
<path d="M471.704 -26.6996H-26.7038V649.684H471.704V-26.6996Z" fill="#E94290"/>
<path d="M348.609 593.214C369.083 593.214 385.68 576.617 385.68 556.144C385.68 535.671 369.083 519.075 348.609 519.075C328.135 519.075 311.538 535.671 311.538 556.144C311.538 576.617 328.135 593.214 348.609 593.214Z" fill="#EE74AA"/>
<path d="M365.561 299.817C386.035 299.817 402.632 283.221 402.632 262.748C402.632 242.274 386.035 225.678 365.561 225.678C345.087 225.678 328.489 242.274 328.489 262.748C328.489 283.221 345.087 299.817 365.561 299.817Z" fill="#ED6FA7"/>
<path d="M107.537 572.593C119.774 572.593 129.695 562.673 129.695 550.436C129.695 538.2 119.774 528.28 107.537 528.28C95.3 528.28 85.3799 538.2 85.3799 550.436C85.3799 562.673 95.3 572.593 107.537 572.593Z" fill="#EE74AA"/>
<path d="M61.3574 391.774C81.0302 391.774 96.9781 375.827 96.9781 356.155C96.9781 336.483 81.0302 320.536 61.3574 320.536C41.6847 320.536 25.7367 336.483 25.7367 356.155C25.7367 375.827 41.6847 391.774 61.3574 391.774Z" fill="#ED6FA7"/>
<path d="M373.517 397.244C371.598 394.151 368.722 383.458 373.156 382.016C374.795 390.258 380.063 402.675 386.522 404.6C388.629 405.228 390.638 404.421 391.765 402.496C393.087 400.233 393.134 396.365 391.976 392.293C395.219 397.068 399.219 400.729 402.908 401.014C407.163 401.341 409.094 399.015 409.869 397.599C412.748 392.318 409.191 383.464 404.654 377.477C401.941 373.897 396.801 369.828 391.263 367.734C391.768 366.45 392.538 365.257 393.665 364.249C395.231 362.852 397.005 362.4 399.244 362.83C408.547 364.61 420.952 380.626 423.555 385.844C423.819 383.059 424.802 374.93 424.802 374.93C427.64 376.158 434.626 380.114 434.626 380.114C429.37 370.171 414.334 357.182 400.56 356.205C389.869 355.446 386.917 364.02 386.104 366.438C384.512 366.252 382.942 366.293 381.435 366.61C378.33 367.263 374.311 369.398 372.782 375.838C372.722 376.089 372.682 376.368 372.653 376.685C362.374 380.283 365.856 397.448 367.338 400.195C367.259 399.806 367.793 397.658 368.631 394.528C369.718 395.319 373.517 397.244 373.517 397.244ZM387.495 397.991C387.495 398.478 387.457 398.889 387.385 399.215C383.994 397.363 380.566 389.225 378.914 383.238C380.016 383.856 381.106 384.66 382.095 385.621C386.114 389.505 387.498 395.046 387.495 397.991ZM400.412 380.688C404.098 385.552 405.58 390.274 405.58 393.084C405.58 393.925 405.448 394.591 405.2 395.043C405.062 395.294 404.776 395.815 403.323 395.699C400.754 395.501 394.836 388.983 391.928 380.387C391.288 378.484 390.594 375.866 390.481 373.172C394.368 374.874 398.199 377.769 400.412 380.688ZM377.963 377.094C377.963 377.087 377.966 377.075 377.966 377.068C378.688 374.032 380.186 372.315 382.54 371.819C383.36 371.649 384.249 371.618 385.184 371.7C385.093 374.915 385.63 378.378 386.886 382.098C387.046 382.572 387.222 383.056 387.407 383.536C386.905 382.93 386.371 382.346 385.803 381.8C383.445 379.517 380.688 377.888 377.963 377.094Z" fill="#FAC12F"/>
<path d="M402.635 516.949C412.33 516.949 420.19 509.09 420.19 499.395C420.19 489.701 412.33 481.842 402.635 481.842C392.94 481.842 385.081 489.701 385.081 499.395C385.081 509.09 392.94 516.949 402.635 516.949Z" fill="#EE74AA"/>
<path d="M65.2539 603.101C73.5288 603.101 80.2369 596.393 80.2369 588.119C80.2369 579.844 73.5288 573.136 65.2539 573.136C56.979 573.136 50.2709 579.844 50.2709 588.119C50.2709 596.393 56.979 603.101 65.2539 603.101Z" fill="#EE74AA"/>
<path d="M200.318 581.412C207.295 581.412 212.952 575.756 212.952 568.778C212.952 561.801 207.295 556.144 200.318 556.144C193.34 556.144 187.683 561.801 187.683 568.778C187.683 575.756 193.34 581.412 200.318 581.412Z" fill="#EE74AA"/>
<path d="M224.142 87.2539C240.853 87.2539 254.4 73.7075 254.4 56.9971C254.4 40.2868 240.853 26.7404 224.142 26.7404C207.431 26.7404 193.884 40.2868 193.884 56.9971C193.884 73.7075 207.431 87.2539 224.142 87.2539Z" fill="#EE74AA"/>
<path d="M77.2164 265.297C74.9495 268.145 65.8473 274.449 62.9964 270.757C70.2053 266.44 80.1301 257.303 79.7691 250.575C79.6529 248.377 78.218 246.761 76.0233 246.346C73.4456 245.863 69.7877 247.122 66.3434 249.58C69.75 244.921 71.8506 239.919 70.8804 236.353C69.7595 232.237 66.9148 231.2 65.3198 230.946C59.3762 230.01 52.2364 236.34 48.1233 242.622C45.6649 246.381 43.5612 252.594 43.4545 258.512C42.073 258.471 40.6915 258.145 39.3633 257.423C37.5234 256.418 36.4999 254.898 36.1513 252.647C34.6976 243.288 45.6115 226.221 49.6461 222.014C46.9365 222.701 38.9489 224.51 38.9489 224.51C39.1467 221.424 40.525 213.515 40.525 213.515C32.9299 221.81 25.7524 240.337 29.4699 253.636C32.3522 263.959 41.4167 263.856 43.9694 263.806C44.3304 265.366 44.8987 266.832 45.7057 268.145C47.3635 270.848 50.7262 273.912 57.304 273.187C57.5615 273.159 57.8377 273.102 58.1454 273.024C64.9902 281.498 79.9857 272.44 82.0737 270.123C81.7346 270.327 79.5336 270.546 76.3028 270.813C76.6827 269.52 77.2164 265.297 77.2164 265.297ZM73.2195 251.881C73.6779 251.718 74.0767 251.618 74.4095 251.57C73.8035 255.385 67.2979 261.354 62.2115 264.92C62.4218 263.674 62.8143 262.377 63.3889 261.124C65.6903 256.038 70.4439 252.87 73.2195 251.881ZM52.5818 245.539C55.9193 240.434 59.8692 237.448 62.5192 236.506C63.3104 236.224 63.9854 236.123 64.4909 236.205C64.7704 236.252 65.3606 236.343 65.7406 237.75C66.4188 240.236 62.2711 248.001 55.1532 253.63C53.5771 254.873 51.3447 256.409 48.8454 257.42C49.1343 253.187 50.5723 248.603 52.5818 245.539ZM56.742 267.887C56.7357 267.89 56.7263 267.89 56.72 267.89C53.6179 268.233 51.4985 267.401 50.2395 265.35C49.8031 264.635 49.4734 263.809 49.2379 262.898C52.2961 261.903 55.3762 260.233 58.4563 257.796C58.8488 257.486 59.2444 257.159 59.6368 256.823C59.2349 257.501 58.8645 258.198 58.5411 258.917C57.1847 261.909 56.5756 265.055 56.742 267.887Z" fill="#FAC12F"/>
<path d="M386.889 45.4841C384.223 43.0037 378.641 33.4435 382.544 30.8878C386.289 38.4104 394.635 49.0067 401.37 49.1669C403.571 49.2202 405.294 47.9141 405.878 45.7603C406.56 43.2298 405.586 39.4842 403.401 35.861C407.784 39.6161 412.607 42.0964 416.243 41.4057C420.431 40.605 421.684 37.8516 422.061 36.2818C423.452 30.4295 417.693 22.8221 411.747 18.2351C408.189 15.4942 402.158 12.9165 396.268 12.3514C396.415 10.9762 396.845 9.62616 397.668 8.35774C398.811 6.59954 400.406 5.69532 402.679 5.52578C412.123 4.80052 428.296 16.998 432.18 21.3465C431.703 18.5898 430.519 10.4896 430.519 10.4896C433.584 10.9291 441.364 12.9102 441.364 12.9102C433.681 4.69691 415.762 -3.88688 402.214 -1.2119C391.699 0.863403 391.103 9.90872 390.955 12.4581C389.373 12.6967 387.866 13.1488 386.493 13.8521C383.671 15.2964 380.352 18.4109 380.569 25.0293C380.575 25.2867 380.61 25.5661 380.666 25.8801C371.689 32.0495 379.561 47.6975 381.708 49.9581C381.533 49.6064 381.482 47.393 381.467 44.1497C382.716 44.6238 386.889 45.4841 386.889 45.4841ZM400.572 42.5359C400.701 43.0037 400.77 43.4119 400.789 43.7447C397.031 42.8468 391.583 35.8987 388.421 30.5519C389.649 30.8596 390.908 31.3494 392.117 32.0181C397.009 34.7088 399.797 39.6914 400.572 42.5359ZM408.491 22.4485C413.326 26.1752 415.995 30.3415 416.729 33.0542C416.949 33.8642 416.996 34.5455 416.877 35.0447C416.811 35.321 416.673 35.9019 415.241 36.1719C412.711 36.6554 405.288 31.9208 400.227 24.3888C399.109 22.7216 397.75 20.3763 396.933 17.8081C401.128 18.4234 405.586 20.213 408.491 22.4485ZM385.884 24.8723C385.884 24.866 385.884 24.8534 385.881 24.8472C385.781 21.7264 386.773 19.6793 388.914 18.5804C389.658 18.2005 390.509 17.9337 391.435 17.7704C392.189 20.8943 393.618 24.0968 395.809 27.3557C396.089 27.7702 396.384 28.1909 396.688 28.6053C396.045 28.1501 395.379 27.7294 394.685 27.3495C391.812 25.7734 388.723 24.9257 385.884 24.8723Z" fill="#FAC12F"/>
<path d="M361.944 262.179C360.16 260.066 356.823 252.346 359.997 250.776C362.135 256.789 367.46 265.542 372.528 266.28C374.179 266.521 375.602 265.693 376.236 264.12C376.98 262.274 376.588 259.36 375.272 256.427C378.233 259.661 381.646 261.972 384.449 261.781C387.683 261.561 388.88 259.595 389.304 258.446C390.886 254.161 387.238 247.897 383.172 243.897C380.741 241.505 376.427 239.012 372.038 238.048C372.277 237.028 372.722 236.045 373.46 235.166C374.484 233.944 375.768 233.408 377.498 233.486C384.688 233.803 395.768 244.475 398.299 248.107C398.189 245.985 398.038 239.769 398.038 239.769C400.308 240.378 405.995 242.582 405.995 242.582C400.949 235.687 388.22 227.58 377.759 228.359C369.642 228.965 368.364 235.734 368.019 237.64C366.804 237.674 365.627 237.878 364.531 238.283C362.27 239.115 359.485 241.163 359.042 246.17C359.027 246.365 359.027 246.578 359.039 246.82C351.708 250.654 356.214 263.171 357.626 265.074C357.526 264.792 357.692 263.118 357.975 260.672C358.876 261.15 361.944 262.179 361.944 262.179ZM372.531 261.203C372.584 261.567 372.6 261.881 372.584 262.135C369.834 261.115 366.358 255.379 364.462 251.062C365.357 251.404 366.264 251.891 367.115 252.503C370.559 254.977 372.208 258.989 372.531 261.203ZM380.336 246.779C383.643 250.029 385.275 253.417 385.58 255.53C385.671 256.161 385.646 256.679 385.511 257.043C385.435 257.244 385.278 257.671 384.173 257.743C382.22 257.875 377.055 253.63 373.925 247.489C373.234 246.129 372.424 244.236 372.044 242.227C375.149 243.071 378.349 244.826 380.336 246.779ZM363.068 246.544C363.068 246.544 363.068 246.531 363.068 246.525C363.278 244.164 364.214 242.71 365.928 242.076C366.525 241.86 367.19 241.734 367.903 241.693C368.189 244.117 368.97 246.663 370.327 249.319C370.499 249.658 370.685 250.001 370.876 250.346C370.43 249.944 369.966 249.564 369.479 249.216C367.454 247.768 365.203 246.845 363.068 246.544Z" fill="#FAC12F"/>
<path d="M-3.32816 8.31691C-1.12718 5.94962 7.36276 0.979558 9.63596 4.44259C2.95766 7.78003 -6.4491 15.2022 -6.58725 21.1863C-6.63434 23.1423 -5.47263 24.6713 -3.55737 25.1862C-1.30929 25.789 2.01887 24.9194 5.23714 22.9759C1.9027 26.8754 -0.295143 31.161 0.326532 34.3917C1.0424 38.1122 3.48828 39.2236 4.88548 39.5564C10.0881 40.7871 16.8417 35.6632 20.9109 30.3761C23.3411 27.2144 25.6237 21.8519 26.1229 16.6181C27.3411 16.7469 28.5405 17.1299 29.6708 17.8583C31.2345 18.8724 32.0382 20.2852 32.1921 22.3072C32.8452 30.6963 22.0224 45.0759 18.1636 48.5295C20.6126 48.1025 27.809 47.0413 27.809 47.0413C27.4228 49.7634 25.6676 56.6769 25.6676 56.6769C32.9582 49.8419 40.569 33.9144 38.1765 21.8833C36.3209 12.5429 28.2862 12.0217 26.0193 11.893C25.8089 10.4864 25.4039 9.15206 24.7791 7.93074C23.4918 5.4253 20.7225 2.48031 14.8448 2.67811C14.6156 2.68753 14.3676 2.71578 14.0882 2.76602C8.59983 -5.20241 -5.2968 1.80529 -7.30312 3.71733C-6.98914 3.56035 -5.02364 3.51325 -2.14133 3.49755C-2.56834 4.61213 -3.32816 8.31691 -3.32816 8.31691ZM-0.697033 20.4736C-1.11148 20.5866 -1.4757 20.6494 -1.77084 20.6651C-0.976474 17.3277 5.19004 12.4832 9.93738 9.66382C9.66736 10.7533 9.23093 11.8741 8.63751 12.951C6.25442 17.2994 1.83048 19.7829 -0.697033 20.4736ZM17.1557 27.4876C13.8527 31.7858 10.1509 34.1593 7.73954 34.8155C7.02053 35.0133 6.41769 35.0573 5.97184 34.9505C5.7238 34.8877 5.20888 34.7684 4.96712 33.4969C4.53697 31.2489 8.73484 24.6494 15.4226 20.1471C16.9045 19.1518 18.9862 17.9431 21.2657 17.2147C20.7256 20.9446 19.1401 24.9068 17.1557 27.4876ZM14.9799 7.40641C14.9861 7.40641 14.9956 7.40641 15.0018 7.40327C17.7743 7.31536 19.5953 8.19133 20.5718 10.094C20.9077 10.7564 21.1464 11.5131 21.2939 12.3325C18.5184 13.0044 15.6737 14.276 12.782 16.2257C12.4147 16.4769 12.041 16.7406 11.6705 17.0075C12.0756 16.436 12.4492 15.8426 12.7852 15.2273C14.1886 12.6747 14.939 9.93069 14.9799 7.40641Z" fill="white"/>
<path d="M34.9582 516.057C33.0022 517.976 31.6458 519.26 31.3287 519.367C33.9629 519.31 48.0291 514.732 46.3964 505.681C46.6162 505.53 46.8046 505.383 46.9647 505.235C51.0621 501.433 50.9585 497.59 50.1485 495.037C49.756 493.797 49.1312 492.626 48.3337 491.534C49.7717 489.929 54.8456 484.196 49.8408 476.655C43.3948 466.938 27.5955 461.289 18.1008 461.563C18.1008 461.563 23.9157 465.051 25.9973 466.627C25.9973 466.627 20.4336 470.73 18.4964 472.083C23.4133 471.826 40.3429 474.281 45.5204 480.378C46.7701 481.845 47.1751 483.339 46.7983 485.069C46.5252 486.316 45.9694 487.38 45.2347 488.284C41.3948 485.085 36.2644 483 32.5061 482.495C26.2202 481.65 18.2327 482.717 15.5482 487.031C14.8291 488.19 13.9218 490.579 15.9312 493.568C17.6769 496.161 22.0286 497.581 26.889 497.976C23.4164 498.821 20.5906 500.463 19.4792 502.375C18.5309 504.007 18.7727 505.816 20.1134 507.103C24.2139 511.047 35.5328 509.756 42.2708 507.533C43.0557 511.392 34.0006 513.728 30.9299 513.602C30.9299 513.596 33.9221 515.59 34.9582 516.057ZM35.9002 502.46C37.0179 502.786 38.0603 503.251 38.974 503.806C33.8844 505.084 26.4808 505.948 23.7084 504.227C23.9188 504.039 24.2077 503.838 24.5624 503.637C26.7289 502.409 31.3789 501.122 35.9002 502.46ZM41.5612 491.122C39.5329 492.158 37.3225 492.736 35.6553 493.059C28.1292 494.497 20.8764 492.859 19.6613 491.053C18.9736 490.033 19.2405 489.606 19.3661 489.402C19.5953 489.034 20.0318 488.658 20.6471 488.309C22.7131 487.138 26.798 486.262 31.9064 486.95C34.9771 487.361 38.6977 488.972 41.5612 491.122ZM37.1718 498.146C36.5313 497.954 35.8813 497.807 35.2251 497.687C35.6553 497.621 36.0823 497.552 36.4999 497.471C39.7589 496.849 42.5251 495.8 44.8517 494.397C45.3038 495.05 45.646 495.719 45.8627 496.391C46.4749 498.328 45.8375 500.139 43.9066 501.935C43.9066 501.935 43.8972 501.945 43.8909 501.948C42.1734 500.277 39.8249 498.931 37.1718 498.146Z" fill="white"/>
<path d="M390.588 595.851C387.85 595.851 385.982 595.82 385.68 595.673C387.599 597.478 400.848 604.059 406.023 596.454C406.283 596.501 406.525 596.527 406.742 596.533C412.331 596.687 414.946 593.874 416.155 591.484C416.745 590.323 417.119 589.051 417.313 587.71C419.464 587.575 427.1 587.035 428.811 578.147C431.015 566.697 423.694 551.598 416.723 545.143C416.723 545.143 418.431 551.705 418.814 554.289C418.814 554.289 411.966 553.322 409.64 552.929C413.329 556.191 423.697 569.799 423.119 577.777C422.984 579.698 422.227 581.048 420.748 582.018C419.681 582.718 418.538 583.089 417.379 583.218C416.877 578.244 414.676 573.161 412.346 570.169C408.45 565.165 402.001 560.333 397.065 561.535C395.74 561.859 393.42 562.926 392.76 566.468C392.189 569.541 394.305 573.601 397.495 577.287C394.425 575.456 391.26 574.649 389.125 575.237C387.307 575.739 386.211 577.199 386.264 579.058C386.428 584.747 395.41 591.748 401.778 594.881C399.633 598.184 391.536 593.509 389.432 591.271C389.435 591.277 390.176 594.793 390.588 595.851ZM400.783 586.806C401.351 587.823 401.768 588.888 402.032 589.921C397.508 587.268 391.618 582.7 390.842 579.528C391.125 579.544 391.47 579.601 391.866 579.707C394.274 580.351 398.491 582.684 400.783 586.806ZM412.767 582.678C410.594 581.999 408.61 580.86 407.197 579.924C400.817 575.679 396.789 569.431 397.184 567.293C397.407 566.081 397.897 565.965 398.129 565.906C398.55 565.802 399.125 565.84 399.809 566.022C402.101 566.634 405.634 568.869 408.798 572.938C410.698 575.381 412.227 579.139 412.767 582.678ZM404.71 584.618C404.387 584.034 404.029 583.472 403.643 582.929C403.998 583.183 404.352 583.434 404.704 583.666C407.464 585.503 410.177 586.696 412.817 587.321C412.682 588.103 412.459 588.822 412.145 589.453C411.225 591.264 409.502 592.112 406.864 592.04C406.858 592.04 406.849 592.04 406.842 592.037C406.789 589.641 406.057 587.035 404.71 584.618Z" fill="white"/>
<path d="M145.123 100.993C153.022 100.993 159.425 94.5902 159.425 86.6919C159.425 78.7936 153.022 72.3908 145.123 72.3908C137.225 72.3908 130.822 78.7936 130.822 86.6919C130.822 94.5902 137.225 100.993 145.123 100.993Z" fill="#ED6FA7"/>
<path d="M136.973 129.583C140.368 129.583 143.12 126.83 143.12 123.435C143.12 120.04 140.368 117.288 136.973 117.288C133.577 117.288 130.825 120.04 130.825 123.435C130.825 126.83 133.577 129.583 136.973 129.583Z" fill="#ED6FA7"/>
<path d="M311.538 95.9288C324.229 95.9288 334.518 85.6407 334.518 72.9497C334.518 60.2587 324.229 49.9706 311.538 49.9706C298.846 49.9706 288.558 60.2587 288.558 72.9497C288.558 85.6407 298.846 95.9288 311.538 95.9288Z" fill="#ED6FA7"/>
<path d="M308.21 126.729C311.31 126.729 313.823 124.215 313.823 121.115C313.823 118.015 311.31 115.501 308.21 115.501C305.109 115.501 302.596 118.015 302.596 121.115C302.596 124.215 305.109 126.729 308.21 126.729Z" fill="#ED6FA7"/>
<path d="M67.8725 160.973C77.6265 160.973 85.5337 153.066 85.5337 143.312C85.5337 133.559 77.6265 125.652 67.8725 125.652C58.1184 125.652 50.2112 133.559 50.2112 143.312C50.2112 153.066 58.1184 160.973 67.8725 160.973Z" fill="#ED6FA7"/>
<path d="M391.03 159.469C397.353 159.469 402.478 154.344 402.478 148.022C402.478 141.7 397.353 136.575 391.03 136.575C384.708 136.575 379.583 141.7 379.583 148.022C379.583 154.344 384.708 159.469 391.03 159.469Z" fill="#ED6FA7"/>
<path d="M11.5826 375.853L35.6364 366.654L32.4307 394.314L11.5826 375.853Z" fill="#9ED4D3"/>
<path d="M347.576 123.438L364.672 116.898L362.396 136.559L347.576 123.438Z" fill="#9ED4D3"/>
<path d="M401.753 425.968L413.16 411.655L421.179 429.749L401.753 425.968Z" fill="#9ED4D3"/>
<path d="M347.45 587.246L364.801 581.409L361.721 600.96L347.45 587.246Z" fill="#9ED4D3"/>
<path d="M132.175 581.23L142.492 574.034L144.235 587.522L132.175 581.23Z" fill="white"/>
<path d="M279.964 36.1656L285.867 25.0544L293.569 36.2692L279.964 36.1656Z" fill="white"/>
<path d="M342.185 27.924L338.185 45.7855L323.064 33.0197L342.185 27.924Z" fill="#9ED4D3"/>
<path d="M123.647 46.3694L119.647 64.2309L104.523 51.462L123.647 46.3694Z" fill="#F2E854"/>
<path d="M423.138 285.874L409.536 298.122L404.591 278.958L423.138 285.874Z" fill="#F2E854"/>
<path d="M413.879 191.085L403.772 200.19L400.098 185.946L413.879 191.085Z" fill="white"/>
<path d="M415.835 364.83L402.23 365.031L408.842 351.892L415.835 364.83Z" fill="white"/>
<path d="M95.4648 590.156L83.1537 584.367L94.8588 575.459L95.4648 590.156Z" fill="white"/>
<path d="M27.8592 314.514L15.5482 308.725L27.2532 299.817L27.8592 314.514Z" fill="white"/>
<path d="M84.8178 137.852L72.5068 132.063L84.2118 123.156L84.8178 137.852Z" fill="white"/>
<path d="M175.507 30.9004L161.924 31.6539L167.994 18.2539L175.507 30.9004Z" fill="white"/>
<path d="M421.806 518.17L408.309 519.875L413.423 506.083L421.806 518.17Z" fill="white"/>
<path d="M233.21 585.758L225.213 602.222L213.426 586.32L233.21 585.758Z" fill="#72B62B"/>
<path d="M30.1983 171.585L30.5688 189.886L12.8385 181.092L30.1983 171.585Z" fill="#F2E854"/>
<path d="M140.024 16.6653L140.982 27.519L130.096 23.0105L140.024 16.6653Z" fill="#9ED4D3"/>
<path d="M23.9031 108.707L24.8607 119.561L13.9751 115.052L23.9031 108.707Z" fill="#9ED4D3"/>
<path d="M51.8785 553.943L68.8018 573.356L41.7307 579.871L51.8785 553.943Z" fill="#9ED4D3"/>
<path d="M340.825 111.605L334.63 88.9961L331.896 93.8563C331.896 93.8563 326.125 90.6884 326.191 90.883C326.257 91.0808 337.789 111.416 337.789 111.416L340.825 111.605Z" fill="#DBBA44"/>
<path d="M344.781 115.306L361.237 98.6097L361.246 104.186C361.246 104.186 367.827 104.245 367.673 104.384C367.52 104.519 347.516 116.625 347.516 116.625L344.781 115.306Z" fill="#D4AB17"/>
<path d="M347.384 113.24L372.744 111.313L374.779 121.134L351.196 116.807L347.384 113.24Z" fill="#F9C81B"/>
<path d="M372.744 111.313L367.881 123.181L349.956 116.132L350.904 118.992L372.838 129.796L374.779 121.134L372.744 111.313Z" fill="#D4AB17"/>
<path d="M338.596 110.609L323.076 92.9018L311.242 97.2659L334.784 111.244L338.596 110.609Z" fill="#F9D450"/>
<path d="M311.242 97.2659L307.484 104.299L323.987 111.438L332.96 111.397L318.012 104.87L323.076 92.9018L311.242 97.2659Z" fill="#DBBA44"/>
<path d="M300.074 111.118L347.557 110.164L345.328 123.633L296.624 117.762L300.074 111.118Z" fill="#EE6F36"/>
<path d="M372.339 136.044L347.557 110.164L345.328 123.633L371.338 144.172L372.339 136.044Z" fill="#E9521D"/>
<path d="M296.624 117.762L337.415 138.351L371.338 144.172L345.328 123.633L296.624 117.762Z" fill="#853C15"/>
<path d="M299.782 119.061L344.992 124.914L335.036 163.057L293.493 152.612L299.782 119.061Z" fill="#FAB400"/>
<path d="M321.406 121.862L297.377 131.881L297.035 133.705L324.48 122.261L321.406 121.862Z" fill="#E9521D"/>
<path d="M336.8 123.852L333.861 123.473L295.748 140.577L295.399 142.433L336.8 123.852Z" fill="#E9521D"/>
<path d="M309.581 120.333L298.658 125.049L298.313 126.885L312.589 120.722L309.581 120.333Z" fill="#E9521D"/>
<path d="M344.496 126.826L294.583 146.791L294.244 148.593L344.006 128.691L344.496 126.826Z" fill="#E9521D"/>
<path d="M336.747 156.495L337.224 154.671L322.759 159.971L325.431 160.643L336.747 156.495Z" fill="#E9521D"/>
<path d="M339.66 145.346L340.175 143.368L311.792 157.214L314.125 157.798L339.66 145.346Z" fill="#E9521D"/>
<path d="M327.089 143.384L299.49 154.119L302.084 154.775L341.167 139.573L341.651 137.72L327.089 143.384Z" fill="#E9521D"/>
<path d="M369.529 143.595L344.992 124.914L335.036 163.057L360.421 170.055L369.529 143.595Z" fill="#F28B1A"/>
<path d="M366.452 152.539L367.121 150.593L358.107 134.895L354.932 132.48L366.452 152.539Z" fill="#CA4819"/>
<path d="M364.801 139.993L368.22 147.397L368.951 145.281L367.435 142L364.801 139.993Z" fill="#CA4819"/>
<path d="M344.059 165.544L337.227 154.652L336.69 156.712L341.846 164.935L344.059 165.544Z" fill="#CA4819"/>
<path d="M361.563 166.734L341.711 137.491L341.189 139.485L360.935 168.564L361.563 166.734Z" fill="#CA4819"/>
<path d="M340.194 143.303L339.535 145.821L347.871 166.596L349.748 167.114L340.194 143.303Z" fill="#CA4819"/>
<path d="M343.993 128.75L364.967 156.853L365.576 155.083L344.493 126.829L343.993 128.75Z" fill="#CA4819"/>
<path opacity="0.47" d="M299.782 119.061L344.48 126.879L369.529 143.595L344.992 124.914L299.782 119.061Z" fill="#602C12"/>
<path d="M308.241 156.32L317.073 110.054L329.723 109.313L317.578 158.9L308.241 156.32Z" fill="#F9D450"/>
<path d="M358.116 120.349L344.96 165.993L351.978 167.88L366.725 129.46L358.116 120.349Z" fill="#F9C81B"/>
<path d="M103.045 112.929L84.7617 94.7693L84.815 100.898C84.815 100.898 77.5779 101.039 77.7506 101.187C77.9201 101.337 100.046 114.408 100.046 114.408L103.045 112.929Z" fill="#685BA4"/>
<path d="M108.841 114.292L115.384 89.3691L118.448 94.6783C118.448 94.6783 124.756 91.1305 124.684 91.344C124.612 91.5575 112.175 114.047 112.175 114.047L108.841 114.292Z" fill="#43519E"/>
<path d="M110.191 110.895L133.309 95.1775L140.624 103.422L115.779 112.21L110.191 110.895Z" fill="#2B3579"/>
<path d="M133.309 95.1775L135.171 109.149L114.228 112.245L116.696 114.452L143.516 112.744L140.624 103.422L133.309 95.1775Z" fill="#43519E"/>
<path d="M100.376 113.199L75.8887 104.816L67 115.453L97.0884 115.89L100.376 113.199Z" fill="#554A90"/>
<path d="M67 115.453L67.2668 124.216L86.9061 121.987L95.4369 117.036L77.6155 118.998L75.8887 104.816L67 115.453Z" fill="#685BA4"/>
<path d="M63.9355 134.772L108.671 107.868L113.924 121.927L64.2872 142.997L63.9355 134.772Z" fill="#FAB400"/>
<path d="M146.464 118.97L108.671 107.868L113.924 121.927L149.956 127.265L146.464 118.97Z" fill="#F28B1A"/>
<path d="M64.2872 142.997L114.439 140.288L149.956 127.265L113.924 121.927L64.2872 142.997Z" fill="#853C15"/>
<path d="M68.0078 142.508L114.304 123.331L125.698 165.138L80.3817 177.926L68.0078 142.508Z" fill="#EC6344"/>
<path d="M90.1526 133.334L72.7363 156.043L73.4082 157.964L93.2987 132.031L90.1526 133.334Z" fill="#F28B1A"/>
<path d="M105.914 126.806L102.903 128.053L75.942 165.22L76.6265 167.179L105.914 126.806Z" fill="#F28B1A"/>
<path d="M78.0425 138.351L70.2151 148.828L70.8933 150.765L81.1227 137.076L78.0425 138.351Z" fill="#F28B1A"/>
<path d="M114.875 125.428L78.2341 171.779L78.8997 173.684L115.434 127.472L114.875 125.428Z" fill="#F28B1A"/>
<path d="M123.736 157.945L123.192 155.948L112.307 168.918L115.221 168.096L123.736 157.945Z" fill="#F28B1A"/>
<path d="M120.407 145.726L119.817 143.559L100.341 172.293L102.891 171.575L120.407 145.726Z" fill="#F28B1A"/>
<path d="M107.352 150.737L86.9218 176.08L89.757 175.279L118.681 139.396L118.131 137.368L107.352 150.737Z" fill="#F28B1A"/>
<path d="M147.918 127.704L114.304 123.331L125.698 165.138L153.724 157.911L147.918 127.704Z" fill="#E13213"/>
<path d="M149.881 137.914L149.457 135.695L132.266 125.667L127.921 125.101L149.881 137.914Z" fill="#ED6F25"/>
<path d="M141.441 126.86L148.753 132.046L148.289 129.629L145.048 127.331L141.441 126.86Z" fill="#ED6F25"/>
<path d="M135.657 162.57L123.186 155.93L123.802 158.184L133.215 163.201L135.657 162.57Z" fill="#ED6F25"/>
<path d="M152.995 154.118L118.062 137.117L118.659 139.302L153.397 156.209L152.995 154.118Z" fill="#ED6F25"/>
<path d="M119.795 143.484L120.549 146.25L139.868 161.484L141.943 160.95L119.795 143.484Z" fill="#ED6F25"/>
<path d="M115.45 127.535L150.829 142.84L150.439 140.819L114.875 125.431L115.45 127.535Z" fill="#ED6F25"/>
<path opacity="0.47" d="M68.0078 142.508L114.894 125.484L147.918 127.704L114.304 123.331L68.0078 142.508Z" fill="#602C12"/>
<path d="M96.4699 173.386L79.5559 124.455L91.2107 116.819L106.784 170.733L96.4699 173.386Z" fill="#5E519E"/>
<path d="M124.313 111.796L136.763 162.501L144.486 160.463L137.507 115.767L124.313 111.796Z" fill="#363F92"/>
</g>
<defs>
<clipPath id="clip0_0_18">
<rect width="445" height="623" fill="white"/>
</clipPath>
</defs>
</svg>
