<svg width="32" height="32" viewBox="0 0 32 32" fill="none" xmlns="http://www.w3.org/2000/svg">
<mask id="mask0_1_20806" style="mask-type:alpha" maskUnits="userSpaceOnUse" x="0" y="0" width="32" height="32">
<rect width="32" height="32" fill="#D9D9D9"/>
</mask>
<g mask="url(#mask0_1_20806)">
<path d="M20.4714 27.5338C17.2498 27.5338 14.521 26.4158 12.2851 24.1799C10.0492 21.944 8.93126 19.2153 8.93126 15.9937C8.93126 12.7961 10.0492 10.0755 12.2851 7.83179C14.521 5.58814 17.2498 4.46631 20.4714 4.46631C23.669 4.46631 26.3896 5.58814 28.6332 7.83179C30.8769 10.0755 31.9987 12.7961 31.9987 15.9937C31.9987 19.2153 30.8769 21.944 28.6332 24.1799C26.3896 26.4158 23.669 27.5338 20.4714 27.5338ZM20.465 25.2271C23.0281 25.2271 25.2067 24.33 27.0008 22.5359C28.795 20.7417 29.692 18.5631 29.692 16.0001C29.692 13.437 28.795 11.2584 27.0008 9.46424C25.2067 7.6701 23.0281 6.77303 20.465 6.77303C17.9019 6.77303 15.7233 7.6701 13.9292 9.46424C12.1351 11.2584 11.238 13.437 11.238 16.0001C11.238 18.5631 12.1351 20.7417 13.9292 22.5359C15.7233 24.33 17.9019 25.2271 20.465 25.2271ZM24.1115 21.3292L25.7557 19.6849L21.6184 15.5476V10.0853H19.3116V16.491L24.1115 21.3292ZM1.53784 11.002V8.69536H7.39343V11.002H1.53784ZM0 17.1534V14.8467H7.39343V17.1534H0ZM1.53784 23.3047V20.9981H7.39343V23.3047H1.53784Z" fill="black"/>
</g>
</svg>
