<svg width="350" height="60" viewBox="0 0 350 60" fill="none" xmlns="http://www.w3.org/2000/svg">
<path fill-rule="evenodd" clip-rule="evenodd" d="M5.45314 0L0.261868 6H0V6.30266V13V47V53.6973V54H0.261867L5.45314 60L10.6412 54H11.1645L16.3507 60L21.5363 54H22.0612L27.281 60L32.5008 54H33.027L38.2386 60L43.4368 54H43.9609L49.1522 60L54.3403 54H54.8636L60.0498 60L65.2353 54H65.7602L70.98 60L76.1998 54H76.726L81.9376 60L87.1358 54H87.6599L92.8512 60L98.0393 54H98.5626L103.749 60L108.934 54H109.459L114.679 60L119.899 54H120.425L125.637 60L130.835 54H131.359L136.55 60L140.503 54H142.262L147.453 60L152.641 54H153.165L158.351 60L163.536 54H164.061L169.281 60L174.501 54H175.027L180.239 60L185.437 54H185.961L191.152 60L196.34 54H196.864L202.05 60L207.235 54H207.76L212.98 60L218.2 54H218.726L223.938 60L229.136 54H229.66L234.851 60L240.039 54H240.563L245.749 60L250.934 54H251.459L256.679 60L261.899 54H262.425L267.637 60L272.835 54H273.359L278.55 60L282.503 54H285.497L289.45 60L294.641 54H295.165L300.363 60L305.575 54H306.101L311.321 60L316.541 54H317.066L322.251 60L327.437 54H327.961L333.149 60L338.34 54H338.864L344.062 60L349.715 54H350V53.6973V47V13V6.5V6H349.543L344.062 0L338.864 6H338.34L333.149 0L327.961 6H327.437L322.251 0L317.066 6H316.541L311.321 0L306.101 6H305.575L300.363 0L295.165 6H294.641L289.45 0L285.497 6H282.503L278.55 0L273.359 6H272.835L267.637 0L262.425 6H261.899L256.679 0L251.459 6H250.934L245.749 0L240.563 6H240.039L234.851 0L229.66 6H229.136L223.938 0L218.726 6H218.2L212.98 0L207.76 6H207.235L202.05 0L196.864 6H196.34L191.152 0L185.961 6H185.437L180.239 0L175.027 6H174.501L169.281 0L164.061 6H163.536L158.351 0L153.165 6H152.641L147.453 0L142.262 6H140.503L136.55 0L131.359 6H130.835L125.637 0L120.425 6H119.899L114.679 0L109.459 6H108.934L103.749 0L98.5626 6H98.0393L92.8512 0L87.6599 6H87.1358L81.9376 0L76.726 6H76.1998L70.98 0L65.7602 6H65.2353L60.0498 0L54.8636 6H54.3403L49.1522 0L43.9609 6H43.4368L38.2386 0L33.027 6H32.5008L27.281 0L22.0612 6H21.5363L16.3507 0L11.1645 6H10.6412L5.45314 0Z" fill="#FFECED"/>
</svg>
