<svg width="28" height="28" viewBox="0 0 28 28" fill="none" xmlns="http://www.w3.org/2000/svg">
<g id="account_balance_wallet">
<mask id="mask0_4224_19821" style="mask-type:alpha" maskUnits="userSpaceOnUse" x="0" y="0" width="28" height="28">
<rect id="Bounding box" width="28" height="28" fill="#D9D9D9"/>
</mask>
<g mask="url(#mask0_4224_19821)">
<path id="account_balance_wallet_2" d="M18.6692 15.75C19.1748 15.75 19.5929 15.5847 19.9234 15.2542C20.254 14.9236 20.4192 14.5056 20.4192 14C20.4192 13.4944 20.254 13.0764 19.9234 12.7458C19.5929 12.4153 19.1748 12.25 18.6692 12.25C18.1637 12.25 17.7456 12.4153 17.4151 12.7458C17.0845 13.0764 16.9192 13.4944 16.9192 14C16.9192 14.5056 17.0845 14.9236 17.4151 15.2542C17.7456 15.5847 18.1637 15.75 18.6692 15.75ZM6.19492 23.9166C5.6056 23.9166 5.10677 23.7125 4.69844 23.3041C4.2901 22.8958 4.08594 22.397 4.08594 21.8077V6.19234C4.08594 5.60302 4.2901 5.10419 4.69844 4.69586C5.10677 4.28753 5.6056 4.08336 6.19492 4.08336H21.8102C22.3996 4.08336 22.8984 4.28753 23.3067 4.69586C23.715 5.10419 23.9192 5.60302 23.9192 6.19234V9.36702H22.1692V6.19234C22.1692 6.08764 22.1356 6.00162 22.0683 5.9343C22.001 5.86699 21.9149 5.83333 21.8102 5.83333H6.19492C6.09021 5.83333 6.0042 5.86699 5.93688 5.9343C5.86957 6.00162 5.83591 6.08764 5.83591 6.19234V21.8077C5.83591 21.9124 5.86957 21.9984 5.93688 22.0657C6.0042 22.133 6.09021 22.1667 6.19492 22.1667H21.8102C21.9149 22.1667 22.001 22.133 22.0683 22.0657C22.1356 21.9984 22.1692 21.9124 22.1692 21.8077V18.633H23.9192V21.8077C23.9192 22.397 23.715 22.8958 23.3067 23.3041C22.8984 23.7125 22.3996 23.9166 21.8102 23.9166H6.19492ZM15.5283 19.25C14.9389 19.25 14.4401 19.0458 14.0318 18.6375C13.6234 18.2291 13.4193 17.7303 13.4193 17.141V10.859C13.4193 10.2697 13.6234 9.77086 14.0318 9.36253C14.4401 8.95419 14.9389 8.75003 15.5283 8.75003H22.9769C23.5662 8.75003 24.065 8.95419 24.4734 9.36253C24.8817 9.77086 25.0859 10.2697 25.0859 10.859V17.141C25.0859 17.7303 24.8817 18.2291 24.4734 18.6375C24.065 19.0458 23.5662 19.25 22.9769 19.25H15.5283ZM22.9769 17.5C23.0816 17.5 23.1676 17.4663 23.2349 17.399C23.3022 17.3317 23.3359 17.2457 23.3359 17.141V10.859C23.3359 10.7543 23.3022 10.6683 23.2349 10.601C23.1676 10.5337 23.0816 10.5 22.9769 10.5H15.5283C15.4235 10.5 15.3375 10.5337 15.2702 10.601C15.2029 10.6683 15.1692 10.7543 15.1692 10.859V17.141C15.1692 17.2457 15.2029 17.3317 15.2702 17.399C15.3375 17.4663 15.4235 17.5 15.5283 17.5H22.9769Z" fill="black"/>
</g>
</g>
</svg>
