<svg width="40" height="38" viewBox="0 0 40 38" fill="none" xmlns="http://www.w3.org/2000/svg">
<path d="M39.2478 4.51625C38.0946 1.69359 35.5576 0 32.4825 0C31.4831 0 30.5605 0.176416 29.7533 0.493965C28.062 1.12906 25.4096 2.96379 23.4492 6.52739C21.6041 9.80873 20.2203 14.0074 20.0281 14.6072C19.8359 14.0074 18.4137 9.80873 16.607 6.52739C14.6082 2.96379 11.9558 1.12906 10.3029 0.493965C9.49571 0.176416 8.57316 0 7.57374 0C4.46014 0 1.92314 1.69359 0.769958 4.51625C0.500882 5.18663 -0.344786 6.88022 0.154927 10.8319C0.885276 16.3714 3.26852 20.2878 6.34367 25.298C9.34195 30.1318 14.685 35.4949 16.4148 36.7298C17.4527 37.4708 18.8365 37.9647 19.759 38H19.7975H19.9897H20.1819H20.2203C21.1429 38 22.5267 37.4708 23.5645 36.7298C25.2559 35.4949 30.6374 30.1318 33.6357 25.298C36.7493 20.3231 39.0941 16.3714 39.8244 10.8319C40.3626 6.88022 39.5169 5.18663 39.2478 4.51625Z" fill="#EB497C"/>
</svg>
