<svg width="140" height="140" viewBox="0 0 140 140" fill="none" xmlns="http://www.w3.org/2000/svg">
<path fill-rule="evenodd" clip-rule="evenodd" d="M70.4508 128C70.2242 128 69.9976 128 69.771 128C66.8685 126.848 63.8703 125.982 60.9104 125C49.1906 121.112 37.4777 117.204 25.753 113.332C25.1352 113.129 24.9204 112.874 24.9219 112.238C24.9451 103.451 24.947 94.6639 24.9539 85.8765C26.8817 86.0931 28.6292 86.9285 30.4422 87.5209C38.9862 90.3119 47.512 93.1585 56.0445 95.9851C56.578 96.1615 57.0623 96.3875 57.4904 95.6984C60.8648 90.2684 64.2464 84.842 67.6806 79.4501C68.3713 78.3649 68.7979 77.067 69.9435 76.3008C69.9619 76.7908 69.9949 77.2803 69.9952 77.7697C69.9979 88.2267 69.9973 98.6842 69.9973 109.141C69.9973 114.955 69.9915 120.768 70.0094 126.582C70.0106 127.011 69.7257 127.617 70.4689 127.792C70.4438 127.859 70.4378 127.928 70.4508 128Z" fill="#E2A66F"/>
<path fill-rule="evenodd" clip-rule="evenodd" d="M69.9454 76.2998C68.8004 77.0659 68.3738 78.3639 67.6831 79.4491C64.2492 84.8413 60.8673 90.2677 57.4929 95.6974C57.0648 96.3865 56.5802 96.1605 56.047 95.9841C47.5145 93.1578 38.9887 90.3112 30.4447 87.5199C28.6317 86.9274 26.8842 86.0918 24.9564 85.8755C24.7739 85.6063 24.4791 85.5202 24.1966 85.4265C20.4615 84.1851 16.7242 82.9506 12.9907 81.7038C12.6629 81.5941 12.3426 81.5219 12 81.5539C12 81.4029 12 81.2518 12 81.1007C13.1142 80.0116 13.742 78.5895 14.5617 77.3034C17.9512 71.9864 21.2953 66.641 24.6658 61.3119C24.7981 61.1031 24.8712 60.8131 25.1733 60.7451C27.0516 61.7204 29.1202 62.1473 31.1079 62.8089C40.4938 65.934 49.8729 69.0794 59.2609 72.1991C62.8275 73.3843 66.4103 74.5194 69.9856 75.6774V75.6792C69.9829 75.7481 69.9862 75.817 69.9953 75.8859C69.9783 76.0236 69.962 76.1617 69.9454 76.2998Z" fill="#F1D0A4"/>
<path fill-rule="evenodd" clip-rule="evenodd" d="M69.9947 75.8862C69.9859 75.8173 69.9826 75.7485 69.9853 75.6793C70.3503 75.5932 70.7231 75.5345 71.0772 75.417C83.9366 71.1586 96.7969 66.9039 109.648 62.6216C111.39 62.0413 113.196 61.6325 114.836 60.7627C116.387 62.6132 117.492 64.7591 118.783 66.7794C121.647 71.258 124.454 75.7732 127.297 80.2657C127.489 80.5685 127.578 80.9821 128 81.1014C128 81.2525 128 81.4035 128 81.5546C127.525 81.4482 127.114 81.6878 126.694 81.825C124.448 82.5579 122.196 83.2761 119.969 84.0673C118.319 84.6543 116.576 84.9942 115.03 85.8695C114.017 85.8429 113.137 86.3287 112.219 86.6329C102.83 89.7469 93.4491 92.8847 84.068 96.0198C83.4804 96.2162 82.9535 96.424 82.5109 95.7065C80.4393 92.3478 78.3592 88.9937 76.2389 85.6658C74.1606 82.4038 72.2216 79.0527 69.9947 75.8862Z" fill="#E2A66F"/>
<path fill-rule="evenodd" clip-rule="evenodd" d="M73.3988 12C73.3988 19.1618 73.3828 26.3238 73.4188 33.4859C73.423 34.3892 73.2478 34.7551 72.2605 34.698C70.758 34.611 69.2429 34.611 67.7401 34.698C66.7534 34.7551 66.5776 34.3895 66.5821 33.4859C66.6181 26.3238 66.6021 19.1618 66.6021 12C68.8677 12 71.1335 12 73.3988 12Z" fill="#FFB2BA"/>
<path fill-rule="evenodd" clip-rule="evenodd" d="M114.835 60.7627C113.195 61.6325 111.389 62.0413 109.647 62.6216C96.796 66.9039 83.9357 71.1586 71.0762 75.417C70.7222 75.5345 70.3493 75.5932 69.9844 75.6793V75.6778C69.9898 65.7818 69.995 55.8862 70.0004 45.9902C72.8905 46.7008 75.6663 47.7715 78.4863 48.7027C90.2868 52.5982 102.079 56.5161 113.875 60.4273C114.196 60.5337 114.515 60.6506 114.835 60.7627Z" fill="#C38958"/>
<path fill-rule="evenodd" clip-rule="evenodd" d="M70.0001 45.9902C69.9947 55.8862 69.9893 65.7818 69.9841 75.6778C66.4088 74.5197 62.826 73.3847 59.2595 72.1994C49.8717 69.0798 40.4927 65.9344 31.1064 62.8093C29.1191 62.1476 27.0502 61.7204 25.1719 60.7455C39.8597 55.8792 54.5473 51.0124 69.2367 46.1501C69.482 46.0691 69.7455 46.0425 70.0001 45.9902Z" fill="#E2A76F"/>
<path fill-rule="evenodd" clip-rule="evenodd" d="M51.7092 38.4503C51.6862 38.8301 51.4155 38.9171 51.194 39.0452C49.6937 39.9147 48.1804 40.7621 46.6976 41.6597C46.1357 41.9999 45.8704 41.8676 45.5595 41.3262C42.0492 35.2137 38.5198 29.1118 34.9844 23.0144C34.7373 22.5881 34.6684 22.3307 35.1929 22.0434C36.779 21.1742 38.3467 20.269 39.8963 19.3352C40.4331 19.0116 40.6703 19.1823 40.9437 19.6575C44.4178 25.7042 47.9061 31.7426 51.3877 37.785C51.5185 38.0116 51.6161 38.2567 51.7092 38.4503Z" fill="#FFB2BA"/>
<path fill-rule="evenodd" clip-rule="evenodd" d="M105.248 22.576C105.146 22.7579 105.055 22.9225 104.961 23.086C101.492 29.0912 98.003 35.0865 94.5728 41.1144C94.109 41.9289 93.7592 41.9585 93.0338 41.496C91.7957 40.7056 90.5253 39.9552 89.2141 39.2959C88.3503 38.8615 88.1721 38.4887 88.6977 37.5941C91.9232 32.1009 95.0812 26.5688 98.2771 21.0585C99.478 18.9874 99.4967 18.998 101.548 20.1778C102.626 20.798 103.707 21.4147 104.78 22.0434C104.988 22.1648 105.297 22.2298 105.248 22.576Z" fill="#FFB2BA"/>
<path fill-rule="evenodd" clip-rule="evenodd" d="M115.03 85.8687C115.04 94.6604 115.034 103.452 115.084 112.243C115.089 113.176 114.514 113.261 113.922 113.457C105.915 116.111 97.9053 118.76 89.8979 121.415C83.8202 123.43 77.7451 125.452 71.6668 127.467C71.2756 127.597 70.8701 127.684 70.4713 127.791C69.7275 127.616 70.0121 127.01 70.0112 126.581C69.9937 120.768 69.9991 114.954 69.9991 109.14C69.9991 98.6834 69.9997 88.2258 69.997 77.7689C69.9967 77.2794 69.9637 76.79 69.9453 76.2999C69.9613 76.1619 69.9776 76.0238 69.9946 75.8857C72.2215 79.052 74.1605 82.4031 76.2385 85.6651C78.3588 88.9932 80.4385 92.347 82.5105 95.7057C82.9531 96.4233 83.48 96.2157 84.0676 96.019C93.4487 92.8839 102.83 89.7458 112.219 86.6322C113.137 86.3279 114.017 85.8421 115.03 85.8687Z" fill="#C38958"/>
</svg>
