<svg width="14" height="14" viewBox="0 0 14 14" fill="none" xmlns="http://www.w3.org/2000/svg">
<path d="M8.67638 7.0195L13.676 2.01985C13.8873 1.79841 14.0035 1.50313 13.9999 1.19711C13.9963 0.891092 13.8732 0.598621 13.6568 0.382218C13.4404 0.165816 13.1479 0.0426515 12.8419 0.0390531C12.5359 0.0354546 12.2406 0.151708 12.0191 0.362962L7.0195 5.36261L2.01985 0.362962C1.91201 0.249933 1.78267 0.159603 1.63942 0.0972851C1.49617 0.034967 1.3419 0.00191784 1.1857 8.10186e-05C1.02949 -0.0017558 0.874493 0.0276571 0.729818 0.0865895C0.585143 0.145522 0.45371 0.232785 0.343247 0.343247C0.232785 0.45371 0.145522 0.585143 0.0865895 0.729818C0.0276571 0.874493 -0.0017558 1.02949 8.10186e-05 1.1857C0.00191784 1.3419 0.034967 1.49617 0.0972851 1.63942C0.159603 1.78267 0.249933 1.91201 0.362962 2.01985L5.36261 7.0195L0.362962 12.0191C0.151708 12.2406 0.0354546 12.5359 0.0390531 12.8419C0.0426515 13.1479 0.165816 13.4404 0.382218 13.6568C0.598621 13.8732 0.891092 13.9963 1.19711 13.9999C1.50313 14.0035 1.79841 13.8873 2.01985 13.676L7.0195 8.67638L12.0191 13.676C12.2406 13.8873 12.5359 14.0035 12.8419 13.9999C13.1479 13.9963 13.4404 13.8732 13.6568 13.6568C13.8732 13.4404 13.9963 13.1479 13.9999 12.8419C14.0035 12.5359 13.8873 12.2406 13.676 12.0191L8.67638 7.0195Z" fill="#666666"/>
</svg>
