<svg width="20" height="20" viewBox="0 0 20 20" fill="none" xmlns="http://www.w3.org/2000/svg">
<path d="M5.83203 18.3337C5.3737 18.3337 4.98134 18.1705 4.65495 17.8441C4.32856 17.5177 4.16536 17.1253 4.16536 16.667C4.16536 16.2087 4.32856 15.8163 4.65495 15.4899C4.98134 15.1635 5.3737 15.0003 5.83203 15.0003C6.29036 15.0003 6.68273 15.1635 7.00911 15.4899C7.3355 15.8163 7.4987 16.2087 7.4987 16.667C7.4987 17.1253 7.3355 17.5177 7.00911 17.8441C6.68273 18.1705 6.29036 18.3337 5.83203 18.3337ZM14.1654 18.3337C13.707 18.3337 13.3147 18.1705 12.9883 17.8441C12.6619 17.5177 12.4987 17.1253 12.4987 16.667C12.4987 16.2087 12.6619 15.8163 12.9883 15.4899C13.3147 15.1635 13.707 15.0003 14.1654 15.0003C14.6237 15.0003 15.0161 15.1635 15.3424 15.4899C15.6688 15.8163 15.832 16.2087 15.832 16.667C15.832 17.1253 15.6688 17.5177 15.3424 17.8441C15.0161 18.1705 14.6237 18.3337 14.1654 18.3337ZM5.1237 5.00033L7.1237 9.16699H12.957L15.2487 5.00033H5.1237ZM5.83203 14.167C5.20703 14.167 4.73481 13.8927 4.41536 13.3441C4.09592 12.7955 4.08203 12.2503 4.3737 11.7087L5.4987 9.66699L2.4987 3.33366H1.64453C1.40842 3.33366 1.21398 3.2538 1.0612 3.09408C0.90842 2.93435 0.832031 2.73644 0.832031 2.50033C0.832031 2.26421 0.911892 2.0663 1.07161 1.90658C1.23134 1.74685 1.42925 1.66699 1.66536 1.66699H3.01953C3.17231 1.66699 3.31814 1.70866 3.45703 1.79199C3.59592 1.87533 3.70009 1.99338 3.76953 2.14616L4.33203 3.33366H16.6237C16.9987 3.33366 17.2556 3.47255 17.3945 3.75033C17.5334 4.0281 17.5265 4.31977 17.3737 4.62533L14.4154 9.95866C14.2626 10.2364 14.0612 10.4517 13.8112 10.6045C13.5612 10.7573 13.2765 10.8337 12.957 10.8337H6.7487L5.83203 12.5003H15.0195C15.2556 12.5003 15.4501 12.5802 15.6029 12.7399C15.7556 12.8996 15.832 13.0975 15.832 13.3337C15.832 13.5698 15.7522 13.7677 15.5924 13.9274C15.4327 14.0871 15.2348 14.167 14.9987 14.167H5.83203Z" fill="white"/>
</svg>
