<svg xmlns="http://www.w3.org/2000/svg" width="24" height="24" viewBox="0 0 24 24" fill="none">
<mask id="mask0_2364_25467" style="mask-type:alpha" maskUnits="userSpaceOnUse" x="0" y="0" width="24" height="24">
<rect x="24" y="24" width="24" height="24" transform="rotate(180 24 24)" fill="#D9D9D9"/>
</mask>
<g mask="url(#mask0_2364_25467)">
<path d="M6.825 7C7.325 7 7.70833 7.2125 7.975 7.6375C8.24167 8.0625 8.25833 8.5 8.025 8.95L7 11H9C9.55 11 10.0208 11.1958 10.4125 11.5875C10.8042 11.9792 11 12.45 11 13V16C11 16.55 10.8042 17.0208 10.4125 17.4125C10.0208 17.8042 9.55 18 9 18H6C5.45 18 4.97917 17.8042 4.5875 17.4125C4.19583 17.0208 4 16.55 4 16V11.475C4 11.325 4.0125 11.1708 4.0375 11.0125C4.0625 10.8542 4.11667 10.7083 4.2 10.575L5.625 7.75C5.74167 7.51667 5.90833 7.33333 6.125 7.2C6.34167 7.06667 6.575 7 6.825 7ZM15.825 7C16.325 7 16.7083 7.2125 16.975 7.6375C17.2417 8.0625 17.2583 8.5 17.025 8.95L16 11H18C18.55 11 19.0208 11.1958 19.4125 11.5875C19.8042 11.9792 20 12.45 20 13V16C20 16.55 19.8042 17.0208 19.4125 17.4125C19.0208 17.8042 18.55 18 18 18H15C14.45 18 13.9792 17.8042 13.5875 17.4125C13.1958 17.0208 13 16.55 13 16V11.475C13 11.325 13.0125 11.1708 13.0375 11.0125C13.0625 10.8542 13.1167 10.7083 13.2 10.575L14.625 7.75C14.7417 7.51667 14.9083 7.33333 15.125 7.2C15.3417 7.06667 15.575 7 15.825 7Z" fill="black"/>
</g>
</svg>