<svg width="56" height="19" viewBox="0 0 56 19" fill="none" xmlns="http://www.w3.org/2000/svg">
<mask id="mask0_1_21172" style="mask-type:alpha" maskUnits="userSpaceOnUse" x="-7" y="-3" width="25" height="25">
<rect x="-6.44267" y="-2.53203" width="24.0631" height="24.0631" fill="#D9D9D9"/>
</mask>
<g mask="url(#mask0_1_21172)">
<path d="M8.72287 18.6238L0.275723 10.2017C0.17546 10.1015 0.10444 9.99286 0.0626643 9.87589C0.0208881 9.75891 0 9.63359 0 9.4999C0 9.36622 0.0208881 9.24089 0.0626643 9.12392C0.10444 9.00694 0.17546 8.89833 0.275723 8.79806L8.72287 0.35092C8.95681 0.116973 9.24924 0 9.60016 0C9.95108 0 10.2519 0.125329 10.5025 0.375986C10.7532 0.626643 10.8785 0.919076 10.8785 1.25329C10.8785 1.58749 10.7532 1.87993 10.5025 2.13058L3.13321 9.4999L10.5025 16.8692C10.7365 17.1032 10.8534 17.3914 10.8534 17.734C10.8534 18.0766 10.7281 18.3732 10.4775 18.6238C10.2268 18.8745 9.93437 18.9998 9.60016 18.9998C9.26596 18.9998 8.97352 18.8745 8.72287 18.6238Z" fill="black"/>
</g>
<mask id="mask1_1_21172" style="mask-type:alpha" maskUnits="userSpaceOnUse" x="37" y="-3" width="25" height="25">
<rect width="24" height="24" transform="matrix(-1.00263 0 0 1.00263 61.736 -2.53203)" fill="#D9D9D9"/>
</mask>
<g mask="url(#mask1_1_21172)">
<path d="M46.5705 18.6238L55.0177 10.2017C55.1179 10.1015 55.1889 9.99286 55.2307 9.87589C55.2725 9.75891 55.2934 9.63359 55.2934 9.4999C55.2934 9.36622 55.2725 9.24089 55.2307 9.12392C55.1889 9.00694 55.1179 8.89833 55.0177 8.79806L46.5705 0.35092C46.3366 0.116973 46.0441 0 45.6932 0C45.3423 0 45.0415 0.125329 44.7908 0.375986C44.5402 0.626643 44.4149 0.919076 44.4149 1.25329C44.4149 1.58749 44.5402 1.87993 44.7908 2.13058L52.1602 9.4999L44.7908 16.8692C44.5569 17.1032 44.4399 17.3914 44.4399 17.734C44.4399 18.0766 44.5653 18.3732 44.8159 18.6238C45.0666 18.8745 45.359 18.9998 45.6932 18.9998C46.0274 18.9998 46.3199 18.8745 46.5705 18.6238Z" fill="black"/>
</g>
</svg>
