<svg width="36" height="36" viewBox="0 0 36 36" fill="none" xmlns="http://www.w3.org/2000/svg">
<path fill-rule="evenodd" clip-rule="evenodd" d="M18.7243 3C20.4238 3 29.3413 6.0615 30.5218 7.242C31.5058 8.226 31.4908 9.021 31.4218 12.831C31.3948 14.358 31.3573 16.4385 31.3573 19.3185C31.3573 29.6415 19.5523 33.3345 19.0498 33.486C18.9433 33.519 18.8338 33.534 18.7243 33.534C18.6148 33.534 18.5053 33.519 18.3988 33.486C17.8963 33.3345 6.09134 29.6415 6.09134 19.3185C6.09134 16.443 6.05384 14.3625 6.02684 12.8355C6.01451 12.1543 6.00392 11.5695 6.00043 11.0626L6 10.4906C6.01287 8.61169 6.18921 7.98 6.92834 7.242C8.10584 6.0615 17.0233 3 18.7243 3ZM18.7243 5.25C17.4523 5.25 9.42734 8.076 8.50184 8.8485C8.22884 9.123 8.21834 9.6 8.27684 12.7935C8.30384 14.3325 8.34134 16.4235 8.34134 19.3185C8.34134 27.12 16.9243 30.5835 18.7228 31.221C20.5198 30.5805 29.1073 27.0975 29.1073 19.3185C29.1073 16.4205 29.1448 14.328 29.1733 12.789C29.2303 9.5985 29.2198 9.1215 28.9303 8.8335C28.0228 8.076 19.9963 5.25 18.7243 5.25ZM24.3066 14.0092C24.7461 14.4487 24.7461 15.1613 24.3066 15.6007L18.4596 21.4493C18.2916 21.6185 18.0746 21.7281 17.8417 21.7652L17.6646 21.7792C17.3661 21.7792 17.0796 21.6608 16.8681 21.4493L14.0301 18.6083C13.5921 18.1688 13.5921 17.4547 14.0316 17.0167C14.4696 16.5772 15.1836 16.5772 15.6231 17.0167L17.6646 19.0613L22.7166 14.0092C23.1561 13.5697 23.8671 13.5697 24.3066 14.0092Z" fill="black"/>
</svg>
