<svg width="50" height="27" viewBox="0 0 50 27" fill="none" xmlns="http://www.w3.org/2000/svg">
<path d="M11.3541 26.6144C10.9019 27.0816 10.1601 27.1339 9.64678 26.7162L0.468715 19.2799C-0.0759681 18.839 -0.159409 18.0416 0.2815 17.4969C0.728422 16.9679 1.52122 16.8687 2.06374 17.309L11.2426 24.7474C11.7865 25.1876 11.87 25.9865 11.429 26.5297C11.4036 26.5604 11.3796 26.5881 11.3541 26.6144Z" fill="#FFBDAD"/>
<path d="M28.812 14.8931C28.7688 14.9377 28.722 14.9802 28.6708 15.0185C28.115 15.4434 27.3203 15.3383 26.894 14.7839C23.935 10.9224 22.5855 5.9381 23.1916 1.10919C23.2796 0.416956 23.9135 -0.0783394 24.6072 0.00971454C25.3008 0.0977684 25.7939 0.730933 25.7066 1.42531C25.1813 5.59737 26.3486 9.90531 28.9061 13.2409C29.2935 13.7462 29.2416 14.4494 28.812 14.8931Z" fill="#FFBDAD"/>
<path d="M41.7025 17.1697C41.4229 17.4585 41.0123 17.6091 40.5874 17.5404C39.8962 17.4279 39.428 16.7763 39.5412 16.0844C40.3776 10.9517 43.5497 6.30134 48.0284 3.64106C48.6307 3.28373 49.4089 3.48194 49.7648 4.08422C50.1229 4.68718 49.921 5.46474 49.3231 5.82056C45.48 8.10066 42.7606 12.0903 42.0434 16.4943C41.998 16.7591 41.8759 16.9906 41.7025 17.1697Z" fill="#FFBDAD"/>
</svg>
