<svg width="191" height="11" viewBox="0 0 191 11" fill="none" xmlns="http://www.w3.org/2000/svg">
<path d="M1.12943 1.12845C10.5698 1.12845 10.5698 9.15999 20.0102 9.15999C29.4506 9.15999 29.4506 1.12845 38.891 1.12845C48.3313 1.12845 48.3313 9.15999 57.7496 9.15999C67.1902 9.15999 67.1902 1.12845 76.6082 1.12845C86.0488 1.12845 86.0488 9.15999 95.4668 9.15999C104.907 9.15999 104.907 1.12845 114.347 1.12845C123.788 1.12845 123.788 9.15999 133.228 9.15999C142.668 9.15999 142.668 1.12845 152.109 1.12845C161.549 1.12845 161.549 9.15999 170.99 9.15999C180.43 9.15999 180.43 1.12845 189.871 1.12845" stroke="#EB497C" stroke-width="2.24719" stroke-miterlimit="10" stroke-linecap="round"/>
</svg>
