<svg width="1110" height="344" viewBox="0 0 1110 344" fill="none" xmlns="http://www.w3.org/2000/svg">
<path d="M1110 0H0V344H1110V0Z" fill="#E6F8FF"/>
<path d="M566.191 60.5771C566.191 67.7841 560.348 73.6271 553.141 73.6271C560.348 73.6271 566.191 79.4701 566.191 86.6772C566.191 79.4701 572.034 73.6271 579.241 73.6271C572.034 73.6271 566.191 67.7841 566.191 60.5771Z" fill="white"/>
<path d="M441.085 198.366C441.085 205.574 435.242 211.416 428.035 211.416C435.242 211.416 441.085 217.259 441.085 224.466C441.085 217.259 446.928 211.416 454.135 211.416C446.928 211.416 441.085 205.574 441.085 198.366Z" stroke="white" stroke-width="0.5" stroke-miterlimit="10" stroke-linecap="round" stroke-linejoin="round"/>
<path d="M585.532 82.0654C585.532 85.5414 582.715 88.3584 579.238 88.3584C582.715 88.3584 585.532 91.1764 585.532 94.6524C585.532 91.1764 588.35 88.3584 591.826 88.3584C588.351 88.3584 585.532 85.5414 585.532 82.0654Z" fill="white"/>
<path d="M390.444 276C390.751 276 391.001 275.75 391.001 275.443C391.001 275.135 390.751 274.886 390.444 274.886C390.136 274.886 389.887 275.135 389.887 275.443C389.887 275.75 390.136 276 390.444 276Z" fill="white"/>
<path d="M397.315 276C397.622 276 397.872 275.75 397.872 275.443C397.872 275.135 397.622 274.886 397.315 274.886C397.007 274.886 396.758 275.135 396.758 275.443C396.758 275.75 397.007 276 397.315 276Z" fill="white"/>
<path d="M404.182 276C404.49 276 404.739 275.75 404.739 275.443C404.739 275.135 404.49 274.886 404.182 274.886C403.874 274.886 403.625 275.135 403.625 275.443C403.625 275.75 403.874 276 404.182 276Z" fill="white"/>
<path d="M411.053 276C411.361 276 411.61 275.75 411.61 275.443C411.61 275.135 411.361 274.886 411.053 274.886C410.745 274.886 410.496 275.135 410.496 275.443C410.496 275.75 410.745 276 411.053 276Z" fill="white"/>
<path d="M417.92 276C418.228 276 418.477 275.75 418.477 275.443C418.477 275.135 418.228 274.886 417.92 274.886C417.613 274.886 417.363 275.135 417.363 275.443C417.363 275.75 417.613 276 417.92 276Z" fill="white"/>
<path d="M390.444 281.756C390.751 281.756 391.001 281.506 391.001 281.199C391.001 280.891 390.751 280.642 390.444 280.642C390.136 280.642 389.887 280.891 389.887 281.199C389.887 281.506 390.136 281.756 390.444 281.756Z" fill="white"/>
<path d="M397.315 281.756C397.622 281.756 397.872 281.506 397.872 281.199C397.872 280.891 397.622 280.642 397.315 280.642C397.007 280.642 396.758 280.891 396.758 281.199C396.758 281.506 397.007 281.756 397.315 281.756Z" fill="white"/>
<path d="M404.182 281.756C404.49 281.756 404.739 281.506 404.739 281.199C404.739 280.891 404.49 280.642 404.182 280.642C403.874 280.642 403.625 280.891 403.625 281.199C403.625 281.506 403.874 281.756 404.182 281.756Z" fill="white"/>
<path d="M411.053 281.756C411.361 281.756 411.61 281.506 411.61 281.199C411.61 280.891 411.361 280.642 411.053 280.642C410.745 280.642 410.496 280.891 410.496 281.199C410.496 281.506 410.745 281.756 411.053 281.756Z" fill="white"/>
<path d="M417.92 281.756C418.228 281.756 418.477 281.506 418.477 281.199C418.477 280.891 418.228 280.642 417.92 280.642C417.613 280.642 417.363 280.891 417.363 281.199C417.363 281.506 417.613 281.756 417.92 281.756Z" fill="white"/>
<path d="M390.444 287.51C390.751 287.51 391.001 287.261 391.001 286.953C391.001 286.646 390.751 286.396 390.444 286.396C390.136 286.396 389.887 286.646 389.887 286.953C389.887 287.261 390.136 287.51 390.444 287.51Z" fill="white"/>
<path d="M397.315 287.51C397.622 287.51 397.872 287.261 397.872 286.953C397.872 286.646 397.622 286.396 397.315 286.396C397.007 286.396 396.758 286.646 396.758 286.953C396.758 287.261 397.007 287.51 397.315 287.51Z" fill="white"/>
<path d="M404.182 287.51C404.49 287.51 404.739 287.261 404.739 286.953C404.739 286.646 404.49 286.396 404.182 286.396C403.874 286.396 403.625 286.646 403.625 286.953C403.625 287.261 403.874 287.51 404.182 287.51Z" fill="white"/>
<path d="M411.053 287.51C411.361 287.51 411.61 287.261 411.61 286.953C411.61 286.646 411.361 286.396 411.053 286.396C410.745 286.396 410.496 286.646 410.496 286.953C410.496 287.261 410.745 287.51 411.053 287.51Z" fill="white"/>
<path d="M417.92 287.51C418.228 287.51 418.477 287.261 418.477 286.953C418.477 286.646 418.228 286.396 417.92 286.396C417.613 286.396 417.363 286.646 417.363 286.953C417.363 287.261 417.613 287.51 417.92 287.51Z" fill="white"/>
<path d="M390.444 293.265C390.751 293.265 391.001 293.016 391.001 292.708C391.001 292.401 390.751 292.151 390.444 292.151C390.136 292.151 389.887 292.401 389.887 292.708C389.887 293.016 390.136 293.265 390.444 293.265Z" fill="white"/>
<path d="M397.315 293.266C397.622 293.266 397.872 293.017 397.872 292.709C397.872 292.402 397.622 292.152 397.315 292.152C397.007 292.152 396.758 292.402 396.758 292.709C396.758 293.017 397.007 293.266 397.315 293.266Z" fill="white"/>
<path d="M404.182 293.266C404.49 293.266 404.739 293.017 404.739 292.709C404.739 292.402 404.49 292.152 404.182 292.152C403.874 292.152 403.625 292.402 403.625 292.709C403.625 293.017 403.874 293.266 404.182 293.266Z" fill="white"/>
<path d="M411.053 293.266C411.361 293.266 411.61 293.017 411.61 292.709C411.61 292.402 411.361 292.152 411.053 292.152C410.745 292.152 410.496 292.402 410.496 292.709C410.496 293.017 410.745 293.266 411.053 293.266Z" fill="white"/>
<path d="M417.92 293.266C418.228 293.266 418.477 293.017 418.477 292.709C418.477 292.402 418.228 292.152 417.92 292.152C417.613 292.152 417.363 292.402 417.363 292.709C417.363 293.017 417.613 293.266 417.92 293.266Z" fill="white"/>
<path d="M390.444 299.021C390.751 299.021 391.001 298.772 391.001 298.464C391.001 298.157 390.751 297.907 390.444 297.907C390.136 297.907 389.887 298.157 389.887 298.464C389.887 298.772 390.136 299.021 390.444 299.021Z" fill="white"/>
<path d="M397.315 299.02C397.622 299.02 397.872 298.771 397.872 298.463C397.872 298.156 397.622 297.906 397.315 297.906C397.007 297.906 396.758 298.156 396.758 298.463C396.758 298.771 397.007 299.02 397.315 299.02Z" fill="white"/>
<path d="M404.182 299.02C404.49 299.02 404.739 298.771 404.739 298.463C404.739 298.156 404.49 297.906 404.182 297.906C403.874 297.906 403.625 298.156 403.625 298.463C403.625 298.771 403.874 299.02 404.182 299.02Z" fill="white"/>
<path d="M411.053 299.02C411.361 299.02 411.61 298.771 411.61 298.463C411.61 298.156 411.361 297.906 411.053 297.906C410.745 297.906 410.496 298.156 410.496 298.463C410.496 298.771 410.745 299.02 411.053 299.02Z" fill="white"/>
<path d="M417.92 299.02C418.228 299.02 418.477 298.771 418.477 298.463C418.477 298.156 418.228 297.906 417.92 297.906C417.613 297.906 417.363 298.156 417.363 298.463C417.363 298.771 417.613 299.02 417.92 299.02Z" fill="white"/>
<path opacity="0.03" d="M939.36 108.875L863.472 240.316C858.335 249.213 864.756 260.335 875.029 260.335H1026.8C1037.08 260.335 1043.5 249.214 1038.36 240.316L962.475 108.875C957.338 99.9779 944.496 99.9779 939.36 108.875Z" fill="black"/>
<mask id="mask0_1_11001" style="mask-type:luminance" maskUnits="userSpaceOnUse" x="290" y="32" width="820" height="312">
<path d="M1110 32H290V344H1110V32Z" fill="white"/>
</mask>
<g mask="url(#mask0_1_11001)">
<path d="M818.969 254.868L936.871 275.082L949.384 202.095L831.481 181.881L818.969 254.868Z" fill="url(#paint0_linear_1_11001)"/>
<path d="M797.312 251.155L915.215 271.368L927.729 198.381L809.826 178.167L797.312 251.155Z" fill="url(#paint1_linear_1_11001)"/>
<path d="M858.482 186.51L845.969 259.497" stroke="#1C1B3F" stroke-miterlimit="10" stroke-linecap="round" stroke-linejoin="round"/>
<path d="M946.999 215.996L807.441 192.07" stroke="#1C1B3F" stroke-miterlimit="10" stroke-linecap="round" stroke-linejoin="round"/>
<path d="M856.102 200.412C854.995 171.153 839.696 163.473 830.749 166.893C821.804 170.313 825.419 189.957 856.102 200.412Z" stroke="#1C1B3F" stroke-miterlimit="10" stroke-linecap="round" stroke-linejoin="round"/>
<path d="M856.102 200.412C870.455 173.081 889.117 169.572 896.685 178.404C904.964 188.066 882.589 205.641 856.102 200.412Z" stroke="#1C1B3F" stroke-miterlimit="10" stroke-linecap="round" stroke-linejoin="round"/>
<path d="M912.233 387.877L891.372 313.356C891.372 313.356 851.21 310.415 833.4 305.91C815.59 301.404 761.539 254.531 761.539 254.531C754.873 248.333 759.032 240.362 769.345 241.956C771.507 236.976 794.45 245.713 794.45 245.713C797.223 240.098 804.216 243.671 808.055 245.433C808.055 245.433 845.07 258.293 851.725 258.736C858.38 259.179 906.738 256.185 934.277 271.273C961.817 286.362 1003.77 348.751 1003.77 348.751C966.342 396.39 912.233 387.877 912.233 387.877Z" fill="url(#paint2_linear_1_11001)"/>
<path d="M838.645 276.856L797.236 255.75C793.941 254.07 792.417 250.146 793.817 246.724C793.826 246.703 793.836 246.68 793.844 246.659" stroke="#1C1B3F" stroke-width="0.5" stroke-miterlimit="10" stroke-linecap="round" stroke-linejoin="round"/>
<path d="M826.189 286.113C825.831 286.022 784.307 260.851 771.542 253.109C769.131 251.647 767.946 248.794 768.6 246.051C768.891 244.829 769.155 243.899 769.155 243.899" stroke="#1C1B3F" stroke-width="0.5" stroke-miterlimit="10" stroke-linecap="round" stroke-linejoin="round"/>
<path d="M802.484 257.275C802.484 257.275 803.714 254.994 802.731 252.907C801.075 249.393 794.117 250.075 794.117 250.075" stroke="#1C1B3F" stroke-width="0.5" stroke-miterlimit="10" stroke-linecap="round" stroke-linejoin="round"/>
<path d="M778.45 255.763C778.45 255.763 779.485 252.265 778.376 250.556C777.267 248.846 770.214 248.19 769.285 248.444" stroke="#1C1B3F" stroke-width="0.5" stroke-miterlimit="10" stroke-linecap="round" stroke-linejoin="round"/>
<path d="M768.82 259.193C768.82 259.193 769.844 256.181 769.328 254.659C768.81 253.138 762.065 249.927 760.863 249.924" stroke="#1C1B3F" stroke-width="0.5" stroke-miterlimit="10" stroke-linecap="round" stroke-linejoin="round"/>
<path d="M892.93 313.153C896.025 312.885 899.076 312.13 901.938 310.92" stroke="#1C1B3F" stroke-width="0.5" stroke-miterlimit="10" stroke-linecap="round" stroke-linejoin="round"/>
</g>
<mask id="mask1_1_11001" style="mask-type:luminance" maskUnits="userSpaceOnUse" x="290" y="0" width="820" height="312">
<path d="M1110 0H290V312H1110V0Z" fill="white"/>
</mask>
<g mask="url(#mask1_1_11001)">
<path d="M967.098 52.9014C967.27 53.0054 937.441 66.6044 937.441 66.6044C943.28 81.9324 961.04 72.0084 961.04 72.0084L967.098 52.9014Z" fill="url(#paint3_linear_1_11001)"/>
<path d="M944.773 57.3832L900.906 102.977C903.589 105.558 903.671 109.825 901.09 112.507L923.86 134.414C926.441 131.732 930.708 131.649 933.39 134.23L977.256 88.6362C974.574 86.0552 974.491 81.7882 977.072 79.1062L954.303 57.2002C951.723 59.8822 947.456 59.9642 944.773 57.3832Z" fill="url(#paint4_linear_1_11001)"/>
<path d="M945.732 63.3935L906.918 103.736L932.38 128.234L971.195 87.8913L945.732 63.3935Z" stroke="#1C1B3F" stroke-width="0.5" stroke-miterlimit="10" stroke-linecap="round" stroke-linejoin="round"/>
<path d="M1143.27 33.1833C1142.91 33.2943 1077.68 75.0873 1077.68 75.0873C1077.68 75.0873 1023.51 109.842 1017.09 113.964C1016.04 114.634 1014.76 114.869 1013.56 114.557C1006.03 112.595 1003.31 103.222 1003.31 103.222C992.113 103.657 990.698 91.8103 990.698 91.8103C979.022 93.4563 975.408 84.2623 974.358 79.8873C974.043 78.5743 974.338 77.1903 975.177 76.1313L981.405 68.2743L969.742 76.1003C969.742 76.1003 969.29 91.2743 967.923 96.7913C966.208 103.707 958.457 103.856 958.457 103.856C958.457 103.856 951.343 74.9663 952.673 69.9593C954.003 64.9523 971.874 39.9983 982.165 35.3463C992.456 30.6943 1030.91 23.2913 1030.91 23.2913L1089.89 -36.3447C1127.44 -15.4317 1143.27 33.1833 1143.27 33.1833Z" fill="url(#paint5_linear_1_11001)"/>
<path d="M1003.77 102.407L1019.11 89.1797" stroke="#1C1B3F" stroke-width="0.5" stroke-miterlimit="10" stroke-linecap="round" stroke-linejoin="round"/>
<path d="M991.66 90.4962L1006.03 76.2012" stroke="#1C1B3F" stroke-width="0.5" stroke-miterlimit="10" stroke-linecap="round" stroke-linejoin="round"/>
<path d="M983.051 66.642L988.925 60.958" stroke="#1C1B3F" stroke-width="0.5" stroke-miterlimit="10" stroke-linecap="round" stroke-linejoin="round"/>
<path d="M953.703 70.6074C955.541 72.7334 958.035 74.2844 960.756 74.9914" stroke="#1C1B3F" stroke-width="0.5" stroke-miterlimit="10" stroke-linecap="round" stroke-linejoin="round"/>
<path d="M960.463 101.549L959.345 95.4909C958.092 93.8789 956.77 94.0239 956.77 94.0239" stroke="#1C1B3F" stroke-width="0.5" stroke-miterlimit="10" stroke-linecap="round" stroke-linejoin="round"/>
<path d="M1032.75 23.877C1036.24 23.935 1039.72 24.475 1043.07 25.477" stroke="#1C1B3F" stroke-width="0.5" stroke-miterlimit="10" stroke-linecap="round" stroke-linejoin="round"/>
</g>
<path d="M763.226 181.222L841.539 140.014L820.243 99.543L741.93 140.75L763.226 181.222Z" fill="url(#paint6_linear_1_11001)"/>
<path d="M773.005 163.083L761.074 169.362L764.842 176.521L776.773 170.242L773.005 163.083Z" fill="white"/>
<path d="M740.39 143.144L823.086 99.6304L816.782 87.6494L734.086 131.163L740.39 143.144Z" fill="url(#paint7_linear_1_11001)"/>
<path d="M802.38 160.617L775.434 109.406" stroke="#1C1B3F" stroke-width="0.75" stroke-miterlimit="10" stroke-linecap="round" stroke-linejoin="round"/>
<path d="M775.325 109.464C763.348 114.815 749.905 110.14 753.179 103.125C756.925 95.1 771.383 103.788 775.325 109.464Z" stroke="#1C1B3F" stroke-width="0.75" stroke-miterlimit="10" stroke-linecap="round" stroke-linejoin="round"/>
<path d="M775.322 109.464C788.016 102.164 790.935 84.1124 783.3 82.8384C774.564 81.3804 771.596 100.559 775.322 109.464Z" stroke="#1C1B3F" stroke-width="0.75" stroke-miterlimit="10" stroke-linecap="round" stroke-linejoin="round"/>
<path d="M1039.25 156.64C1059.84 156.64 1076.53 139.946 1076.53 119.352C1076.53 98.7589 1059.84 82.0645 1039.25 82.0645C1018.65 82.0645 1001.96 98.7589 1001.96 119.352C1001.96 139.946 1018.65 156.64 1039.25 156.64Z" fill="url(#paint8_linear_1_11001)"/>
<defs>
<linearGradient id="paint0_linear_1_11001" x1="927.687" y1="235.942" x2="839.603" y2="220.838" gradientUnits="userSpaceOnUse">
<stop offset="4.2e-07" stop-color="#FFEDD8"/>
<stop offset="1" stop-color="#F6C8AE"/>
</linearGradient>
<linearGradient id="paint1_linear_1_11001" x1="810.247" y1="115.386" x2="871.92" y2="244.438" gradientUnits="userSpaceOnUse">
<stop offset="4.2e-07" stop-color="#FFEDD8"/>
<stop offset="1" stop-color="#F6C8AE"/>
</linearGradient>
<linearGradient id="paint2_linear_1_11001" x1="917.628" y1="393.747" x2="848.603" y2="215.16" gradientUnits="userSpaceOnUse">
<stop stop-color="#7B78DB"/>
<stop offset="0.5215" stop-color="#FFA8E8"/>
<stop offset="1" stop-color="#FF8E98"/>
</linearGradient>
<linearGradient id="paint3_linear_1_11001" x1="949.94" y1="68.2885" x2="961.784" y2="63.4597" gradientUnits="userSpaceOnUse">
<stop stop-color="#8197F7"/>
<stop offset="1" stop-color="#5E72EB"/>
</linearGradient>
<linearGradient id="paint4_linear_1_11001" x1="972.473" y1="10.4729" x2="946.234" y2="77.5289" gradientUnits="userSpaceOnUse">
<stop stop-color="#7B78DB"/>
<stop offset="0.5215" stop-color="#FFA8E8"/>
<stop offset="1" stop-color="#FF8E98"/>
</linearGradient>
<linearGradient id="paint5_linear_1_11001" x1="1031.6" y1="88.5623" x2="1070.23" y2="1.09728" gradientUnits="userSpaceOnUse">
<stop stop-color="#8197F7"/>
<stop offset="1" stop-color="#5E72EB"/>
</linearGradient>
<linearGradient id="paint6_linear_1_11001" x1="778.7" y1="115.612" x2="804.355" y2="164.366" gradientUnits="userSpaceOnUse">
<stop stop-color="#8197F7"/>
<stop offset="1" stop-color="#5E72EB"/>
</linearGradient>
<linearGradient id="paint7_linear_1_11001" x1="793.183" y1="146.184" x2="776.195" y2="110.355" gradientUnits="userSpaceOnUse">
<stop stop-color="#8197F7"/>
<stop offset="1" stop-color="#5E72EB"/>
</linearGradient>
<linearGradient id="paint8_linear_1_11001" x1="1003.71" y1="74.6445" x2="1071.19" y2="159.546" gradientUnits="userSpaceOnUse">
<stop stop-color="#7B78DB"/>
<stop offset="0.5215" stop-color="#FFA8E8"/>
<stop offset="1" stop-color="#FF8E98"/>
</linearGradient>
</defs>
</svg>
