<svg width="28" height="28" viewBox="0 0 28 28" fill="none" xmlns="http://www.w3.org/2000/svg">
<mask id="mask0_0_494" style="mask-type:alpha" maskUnits="userSpaceOnUse" x="0" y="0" width="28" height="28">
<rect width="28" height="28" fill="#D9D9D9"/>
</mask>
<g mask="url(#mask0_0_494)">
<path d="M13.8496 23.8002L18.467 12.0349H20.5834L25.2008 23.8002H23.0845L22.0126 20.7991H17.0928L15.9934 23.8002H13.8496ZM17.6975 19.0994H21.3529L19.5664 14.2392H19.484L17.6975 19.0994ZM5.82409 20.8522L4.39489 19.4712L9.53452 14.5314C8.89322 13.8408 8.33436 13.128 7.85796 12.3929C7.38156 11.6585 6.96013 10.884 6.59366 10.0696H8.70998C9.02148 10.6716 9.35129 11.207 9.69943 11.6758C10.0476 12.1454 10.4598 12.6369 10.9362 13.1503C11.6875 12.3713 12.3105 11.5703 12.8052 10.7473C13.2999 9.92368 13.7122 9.04265 14.042 8.10426H2.80078V6.16551H9.89182V4.2002H11.9257V6.16551H19.0167V8.10426H16.0759C15.7094 9.27282 15.2238 10.4014 14.6192 11.4899C14.0145 12.5792 13.2633 13.6107 12.3654 14.5845L14.8116 16.9747L14.042 18.9931L10.9088 15.9655L5.82409 20.8522Z" fill="black"/>
</g>
</svg>
