<svg width="28" height="28" viewBox="0 0 28 28" fill="none" xmlns="http://www.w3.org/2000/svg">
<mask id="mask0_0_487" style="mask-type:alpha" maskUnits="userSpaceOnUse" x="0" y="0" width="28" height="28">
<rect width="28" height="28" fill="#D9D9D9"/>
</mask>
<g mask="url(#mask0_0_487)">
<path d="M5.09164 25.0836C4.80596 25.0836 4.56628 24.983 4.37259 24.7818C4.17888 24.5807 4.08203 24.3373 4.08203 24.0516V18.3529C4.08203 17.771 4.28807 17.2741 4.70016 16.862C5.11223 16.45 5.60918 16.2439 6.19101 16.2439H6.41536V11.4875C6.41536 10.9057 6.62141 10.4087 7.03349 9.99665C7.44556 9.58458 7.94251 9.37855 8.52435 9.37855H13.1237V7.66443C12.7812 7.43858 12.5011 7.17346 12.2835 6.86908C12.0658 6.5647 11.957 6.20161 11.957 5.77982C11.957 5.51808 12.0079 5.26493 12.1096 5.02038C12.2113 4.77583 12.3639 4.55185 12.5673 4.34844L13.624 3.29173C13.6554 3.26031 13.7803 3.20571 13.9987 3.12793C14.0376 3.12793 14.1624 3.18253 14.3733 3.29173L15.4301 4.34844C15.6335 4.55185 15.7861 4.77583 15.8878 5.02038C15.9895 5.26493 16.0403 5.51808 16.0403 5.77982C16.0403 6.20161 15.9315 6.5647 15.7139 6.86908C15.4963 7.17346 15.2162 7.43858 14.8736 7.66443V9.37855H19.473C20.0548 9.37855 20.5518 9.58458 20.9638 9.99665C21.3759 10.4087 21.582 10.9057 21.582 11.4875V16.2439H21.8063C22.3882 16.2439 22.8851 16.45 23.2972 16.862C23.7093 17.2741 23.9153 17.771 23.9153 18.3529V24.0516C23.9153 24.3373 23.8147 24.5807 23.6135 24.7818C23.4123 24.983 23.1689 25.0836 22.8832 25.0836H5.09164ZM8.16534 16.2439H19.832V11.4875C19.832 11.3828 19.7983 11.2968 19.731 11.2295C19.6637 11.1622 19.5777 11.1285 19.473 11.1285H8.52435C8.41964 11.1285 8.33363 11.1622 8.26631 11.2295C8.19899 11.2968 8.16534 11.3828 8.16534 11.4875V16.2439ZM5.832 23.3337H22.1653V18.3529C22.1653 18.2482 22.1317 18.1622 22.0644 18.0948C21.997 18.0275 21.911 17.9939 21.8063 17.9939H6.19101C6.08631 17.9939 6.00029 18.0275 5.93298 18.0948C5.86566 18.1622 5.832 18.2482 5.832 18.3529V23.3337Z" fill="black"/>
</g>
</svg>
