<svg width="24" height="20" viewBox="0 0 24 20" fill="none" xmlns="http://www.w3.org/2000/svg">
<g id="Group">
<path id="Vector (Stroke)" fill-rule="evenodd" clip-rule="evenodd" d="M2.36926 2.40213C2.34088 2.40213 2.31366 2.41341 2.29359 2.43348C2.27352 2.45355 2.26224 2.48077 2.26224 2.50915V17.4915C2.26224 17.5199 2.27352 17.5471 2.29359 17.5672C2.31365 17.5873 2.34087 17.5985 2.36926 17.5985H21.6323C21.6607 17.5985 21.6879 17.5873 21.708 17.5672C21.728 17.5471 21.7393 17.5199 21.7393 17.4915V2.50915C21.7393 2.48077 21.728 2.45355 21.708 2.43348C21.6879 2.41341 21.6607 2.40213 21.6323 2.40213H2.36926ZM0.931484 1.07138C1.3128 0.690055 1.82999 0.47583 2.36926 0.47583H21.6323C22.1716 0.47583 22.6888 0.690054 23.0701 1.07138C23.4514 1.4527 23.6656 1.96988 23.6656 2.50915V17.4915C23.6656 18.0308 23.4514 18.548 23.0701 18.9293C22.6888 19.3106 22.1716 19.5248 21.6323 19.5248H2.36926C1.82999 19.5248 1.31281 19.3106 0.931484 18.9293C0.550161 18.548 0.335938 18.0308 0.335938 17.4915V2.50915C0.335938 1.96988 0.550162 1.4527 0.931484 1.07138Z" fill="black"/>
<path id="Vector (Stroke)_2" fill-rule="evenodd" clip-rule="evenodd" d="M0.335938 4.7565H23.6656V6.6828H0.335938V4.7565Z" fill="black"/>
<path id="Vector (Stroke)_3" fill-rule="evenodd" clip-rule="evenodd" d="M1.29909 1.54601C1.83102 1.54601 2.26224 1.97722 2.26224 2.50916V11.0705C2.26224 11.6024 1.83102 12.0337 1.29909 12.0337C0.767155 12.0337 0.335938 11.6024 0.335938 11.0705V2.50916C0.335938 1.97722 0.767155 1.54601 1.29909 1.54601ZM22.7025 1.54601C23.2344 1.54601 23.6656 1.97722 23.6656 2.50916V11.0705C23.6656 11.6024 23.2344 12.0337 22.7025 12.0337C22.1705 12.0337 21.7393 11.6024 21.7393 11.0705V2.50916C21.7393 1.97722 22.1705 1.54601 22.7025 1.54601ZM12.6429 14.281C12.6429 13.7491 13.0741 13.3179 13.606 13.3179H18.4218C18.9537 13.3179 19.3849 13.7491 19.3849 14.281C19.3849 14.813 18.9537 15.2442 18.4218 15.2442H13.606C13.0741 15.2442 12.6429 14.813 12.6429 14.281Z" fill="black"/>
</g>
</svg>
