<svg width="52" height="38" viewBox="0 0 52 38" fill="none" xmlns="http://www.w3.org/2000/svg">
<path d="M50.7015 37.8956C50.6802 37.8956 50.6588 37.8955 50.6374 37.8945C49.9382 37.8599 49.3998 37.2656 49.4324 36.5664C49.7784 29.4789 47.4418 22.6997 43.0217 17.9673C39.3752 14.0591 34.2773 11.7214 29.2364 11.469C29.9 13.7986 30.0313 16.2656 29.495 18.6379C28.8457 21.513 26.8845 24.2507 24.4959 25.6104C22.7433 26.6088 20.8869 26.8358 19.1252 26.2679C17.389 25.7061 15.9886 24.381 15.1835 22.5359C14.236 20.364 14.2462 17.8288 15.21 15.7547C16.7122 12.5264 20.087 10.1683 24.4745 9.28797C24.8338 9.21571 25.195 9.15465 25.5573 9.10376C23.9249 6.20219 21.2584 3.87565 18.0597 2.96274C11.8667 1.18883 4.5777 4.97989 2.46488 11.068C2.2369 11.7285 1.51432 12.0817 0.851774 11.8486C0.191262 11.6196 -0.158845 10.898 0.0701461 10.2365C2.60024 2.94443 11.3273 -1.60078 18.7548 0.525272C22.9611 1.72518 26.395 4.96363 28.2727 8.91347C28.2839 8.91347 28.294 8.91347 28.3062 8.91347C34.3353 8.91347 40.5333 11.585 44.876 16.2371C49.7591 21.4693 52.3432 28.9232 51.9646 36.6906C51.933 37.3684 51.3722 37.8956 50.7015 37.8956ZM26.6331 11.527C26.0754 11.5809 25.5217 11.6624 24.9742 11.7733C21.4406 12.4827 18.6499 14.3716 17.5111 16.8233C16.8567 18.2298 16.8557 20.0292 17.5071 21.5222C18.019 22.6926 18.8708 23.521 19.9059 23.8559C20.9867 24.2029 22.1103 24.0523 23.241 23.4091C25.0108 22.4005 26.5293 20.2582 27.0229 18.0792C27.5144 15.9033 27.3353 13.6358 26.6331 11.527Z" fill="#FFBDAD"/>
</svg>
