<svg width="24" height="24" viewBox="0 0 24 24" fill="none" xmlns="http://www.w3.org/2000/svg">
<g id="warning">
<mask id="mask0_3715_7972" style="mask-type:alpha" maskUnits="userSpaceOnUse" x="0" y="0" width="24" height="24">
<rect id="Bounding box" width="24" height="24" fill="#D9D9D9"/>
</mask>
<g mask="url(#mask0_3715_7972)">
<path id="error" d="M12 16.9797C12.2409 16.9797 12.4428 16.8983 12.6058 16.7353C12.7687 16.5724 12.8502 16.3704 12.8502 16.1296C12.8502 15.8887 12.7687 15.6867 12.6058 15.5238C12.4428 15.3609 12.2409 15.2794 12 15.2794C11.7591 15.2794 11.5572 15.3609 11.3942 15.5238C11.2313 15.6867 11.1498 15.8887 11.1498 16.1296C11.1498 16.3704 11.2313 16.5724 11.3942 16.7353C11.5572 16.8983 11.7591 16.9797 12 16.9797ZM12.0003 13.1336C12.2241 13.1336 12.4116 13.058 12.5627 12.9066C12.7139 12.7553 12.7894 12.5678 12.7894 12.3442V7.60725C12.7894 7.38358 12.7138 7.19609 12.5624 7.04478C12.411 6.89346 12.2234 6.8178 11.9997 6.8178C11.7759 6.8178 11.5884 6.89346 11.4373 7.04478C11.2861 7.19609 11.2106 7.38358 11.2106 7.60725V12.3442C11.2106 12.5678 11.2862 12.7553 11.4376 12.9066C11.589 13.058 11.7766 13.1336 12.0003 13.1336ZM12.0018 22C10.6187 22 9.31863 21.7375 8.10165 21.2126C6.88464 20.6877 5.82603 19.9753 4.9258 19.0755C4.02555 18.1757 3.31285 17.1175 2.78771 15.9011C2.26257 14.6846 2 13.3849 2 12.0018C2 10.6187 2.26246 9.31863 2.78737 8.10165C3.31228 6.88464 4.02465 5.82603 4.92448 4.9258C5.82433 4.02555 6.88248 3.31286 8.09894 2.78771C9.31538 2.26257 10.6151 2 11.9982 2C13.3813 2 14.6814 2.26246 15.8984 2.78737C17.1154 3.31229 18.174 4.02465 19.0742 4.92448C19.9745 5.82433 20.6871 6.88248 21.2123 8.09894C21.7374 9.31538 22 10.6151 22 11.9982C22 13.3813 21.7375 14.6814 21.2126 15.8984C20.6877 17.1154 19.9753 18.174 19.0755 19.0742C18.1757 19.9745 17.1175 20.6871 15.9011 21.2123C14.6846 21.7374 13.3849 22 12.0018 22Z" fill="#D10000"/>
</g>
</g>
</svg>
