<svg width="172" height="175" viewBox="0 0 172 175" fill="none" xmlns="http://www.w3.org/2000/svg">
<circle cx="81.9961" cy="91.9987" r="42" fill="#FFD9DC"/>
<path d="M71.9961 112C70.8961 112 69.9544 111.608 69.1711 110.825C68.3878 110.042 67.9961 109.1 67.9961 108C67.9961 106.9 68.3878 105.958 69.1711 105.175C69.9544 104.392 70.8961 104 71.9961 104C73.0961 104 74.0378 104.392 74.8211 105.175C75.6044 105.958 75.9961 106.9 75.9961 108C75.9961 109.1 75.6044 110.042 74.8211 110.825C74.0378 111.608 73.0961 112 71.9961 112ZM91.9961 112C90.8961 112 89.9544 111.608 89.1711 110.825C88.3878 110.042 87.9961 109.1 87.9961 108C87.9961 106.9 88.3878 105.958 89.1711 105.175C89.9544 104.392 90.8961 104 91.9961 104C93.0961 104 94.0378 104.392 94.8211 105.175C95.6044 105.958 95.9961 106.9 95.9961 108C95.9961 109.1 95.6044 110.042 94.8211 110.825C94.0378 111.608 93.0961 112 91.9961 112ZM70.2961 80L75.0961 90H89.0961L94.5961 80H70.2961ZM71.9961 102C70.4961 102 69.3628 101.342 68.5961 100.025C67.8294 98.7083 67.7961 97.4 68.4961 96.1L71.1961 91.2L63.9961 76H61.9461C61.3794 76 60.9128 75.8083 60.5461 75.425C60.1794 75.0417 59.9961 74.5667 59.9961 74C59.9961 73.4333 60.1878 72.9583 60.5711 72.575C60.9544 72.1917 61.4294 72 61.9961 72H65.2461C65.6128 72 65.9628 72.1 66.2961 72.3C66.6294 72.5 66.8794 72.7833 67.0461 73.15L68.3961 76H97.8961C98.7961 76 99.4128 76.3333 99.7461 77C100.079 77.6667 100.063 78.3667 99.6961 79.1L92.5961 91.9C92.2294 92.5667 91.7461 93.0833 91.1461 93.45C90.5461 93.8167 89.8628 94 89.0961 94H74.1961L71.9961 98H94.0461C94.6128 98 95.0794 98.1917 95.4461 98.575C95.8128 98.9583 95.9961 99.4333 95.9961 100C95.9961 100.567 95.8044 101.042 95.4211 101.425C95.0378 101.808 94.5628 102 93.9961 102H71.9961Z" fill="black"/>
<circle cx="81.9961" cy="91.9987" r="54.5" stroke="#FFECED"/>
<circle cx="81.9961" cy="91.9987" r="69.5" stroke="#FFF8F7"/>
<path d="M7.60175 32.2031C-1.72477 32.2031 -1.7389 46.1504 7.60175 46.1504C16.9266 46.1496 16.9424 32.2031 7.60175 32.2031Z" fill="#379584"/>
<path d="M166.498 82.6107C159.969 82.6107 159.959 92.3725 166.498 92.3725C173.025 92.372 173.036 82.6107 166.498 82.6107Z" fill="#FFB2BA"/>
<path d="M64.9993 169.421C61.2687 169.421 61.263 174.999 64.9993 174.999C68.7292 174.998 68.7356 169.421 64.9993 169.421Z" fill="#3BB8E0"/>
<path d="M105.486 19.9125C105.281 19.9645 105.068 20.0014 104.85 20.0223C103.349 20.1692 101.849 19.5569 100.835 18.3846C98.9477 16.201 98.783 12.5032 100.469 10.1413C100.865 9.58581 101.347 9.11202 101.891 8.73159C99.1494 6.97249 95.9562 6.17437 92.9368 6.56034C89.0212 7.06808 85.441 9.5489 83.3671 13.216C83.112 13.6711 82.5633 13.778 82.141 13.4565C81.7205 13.1362 81.5868 12.5081 81.8443 12.054C84.178 7.92476 88.2038 5.12458 92.618 4.5604C96.4524 4.06986 100.538 5.27479 103.86 7.8201C104.914 7.50549 106.129 7.52139 107.312 7.82273C110.728 8.69224 113.587 12.0015 114.265 15.8702C114.362 16.422 114.055 16.933 113.565 16.9981C113.081 17.0701 112.612 16.6816 112.516 16.1306C111.989 13.129 109.683 10.4593 107.033 9.78499C106.639 9.68469 106.242 9.62987 105.85 9.61808C107.898 11.8719 109.339 15.2316 107.992 17.9069C107.479 18.927 106.585 19.6345 105.486 19.9125ZM103.648 10.0477C102.943 10.3628 102.333 10.844 101.889 11.4662C100.754 13.056 100.837 15.6037 102.071 17.031C102.677 17.7321 103.638 18.1096 104.578 18.018C105.412 17.9354 106.086 17.5037 106.427 16.8278C107.351 14.9921 106.008 12.2812 104.202 10.5532C104.02 10.3792 103.836 10.2117 103.648 10.0477Z" fill="#3BB8E0"/>
<path d="M10.3376 154.959L6.94682 143.692C6.68363 142.818 7.63467 142.079 8.41877 142.549L22.0908 150.745C22.8368 151.193 22.6977 152.311 21.8652 152.56L11.584 155.631C11.0548 155.789 10.4968 155.488 10.3376 154.959Z" fill="#D9D9D9"/>
<path d="M10.3376 154.959L6.94682 143.692C6.68363 142.818 7.63467 142.079 8.41877 142.549L22.0908 150.745C22.8368 151.193 22.6977 152.311 21.8652 152.56L11.584 155.631C11.0548 155.789 10.4968 155.488 10.3376 154.959Z" fill="#FEBA4B"/>
<path d="M154.531 58.8178L146.559 52.315C145.079 51.1076 145.979 48.7164 147.892 48.7744L160.884 49.1683C162.545 49.2186 163.425 51.1463 162.371 52.4279L157.351 58.5369C156.649 59.3902 155.387 59.516 154.531 58.8178Z" fill="#D9D9D9"/>
<path d="M154.531 58.8178L146.559 52.315C145.079 51.1076 145.979 48.7164 147.892 48.7744L160.884 49.1683C162.545 49.2186 163.425 51.1463 162.371 52.4279L157.351 58.5369C156.649 59.3902 155.387 59.516 154.531 58.8178Z" fill="#FEBA4B"/>
</svg>
