<svg width="280" height="302" viewBox="0 0 280 302" fill="none" xmlns="http://www.w3.org/2000/svg">
<mask id="mask0_1_11833" style="mask-type:luminance" maskUnits="userSpaceOnUse" x="-53" y="-12" width="347" height="348">
<path d="M293.422 58.6031L21.9075 -11.5858L-52.0106 265.788L219.504 335.977L293.422 58.6031Z" fill="white"/>
</mask>
<g mask="url(#mask0_1_11833)">
<path d="M279.422 90.2195C277.089 67.5936 263.17 50.7814 242.301 45.3872C235.517 43.6344 228.919 43.304 222.82 44.206C210.111 45.8748 188.545 54.615 168.312 77.1885C149.412 97.9037 131.851 126.124 129.382 130.165C129.246 125.449 127.759 92.3071 121.882 65.1868C115.253 35.6688 100.828 17.6243 90.8462 10.0892C85.9866 6.3554 80.0703 3.44951 73.2893 1.69649C52.1622 -3.76489 31.6537 4.14717 18.3385 22.7279C15.2091 27.1492 6.17632 38.028 1.8803 67.7492C-3.9397 109.465 4.61285 142.232 15.7325 184.197C26.6738 224.74 52.4962 273.259 61.8308 285.307C67.4317 292.535 75.8601 298.568 82.0517 300.444L82.3121 300.511L83.6164 300.848L84.9206 301.186L85.1811 301.253C91.4412 302.871 101.859 301.435 110.346 297.847C124.222 291.8 171.169 262.093 200.914 232.069C231.721 201.217 255.318 176.484 271.046 137.331C282.384 109.431 279.94 95.585 279.422 90.2195Z" fill="#FFF9CD"/>
</g>
</svg>
