<svg width="39" height="38" viewBox="0 0 39 38" fill="none" xmlns="http://www.w3.org/2000/svg">
<path d="M24.6183 0.875301C24.8121 0.261836 25.4457 -0.112365 26.0848 0.0304567L37.497 2.55651C38.1741 2.70606 38.6004 3.37509 38.4509 4.05218C38.2891 4.718 37.6311 5.15627 36.9562 5.00637L25.5424 2.47874C24.8662 2.32949 24.4392 1.6592 24.5894 0.983374C24.5984 0.945022 24.6074 0.909863 24.6183 0.875301Z" fill="#7CDBFF"/>
<path d="M14.3445 18.9691C14.363 18.9105 14.3857 18.8522 14.4141 18.7957C14.7183 18.1738 15.4683 17.9156 16.0908 18.2179C20.4172 20.3284 23.8151 24.1443 25.4132 28.6871C25.6413 29.3388 25.2991 30.0575 24.6461 30.2862C23.9931 30.5149 23.2766 30.1723 23.047 29.519C21.6678 25.5934 18.7301 22.2957 14.9916 20.4734C14.4252 20.1973 14.1604 19.5518 14.3445 18.9691Z" fill="#7CDBFF"/>
<path d="M1.92694 22.6516C2.04678 22.2724 2.34372 21.9576 2.75027 21.8305C3.41191 21.6246 4.11443 21.9945 4.32001 22.6571C5.84846 27.5706 5.09597 33.0896 2.30702 37.4245C1.93182 38.007 1.15526 38.1756 0.57397 37.7997C-0.00954547 37.4242 -0.17458 36.6466 0.197492 36.0673C2.59172 32.35 3.23552 27.6161 1.92372 23.4003C1.84681 23.1458 1.85262 22.8868 1.92694 22.6516Z" fill="#7CDBFF"/>
</svg>
