<svg width="18" height="18" viewBox="0 0 18 18" fill="none" xmlns="http://www.w3.org/2000/svg">
<mask id="mask0_0_218" style="mask-type:alpha" maskUnits="userSpaceOnUse" x="0" y="0" width="18" height="18">
<rect width="18" height="18" fill="#D9D9D9"/>
</mask>
<g mask="url(#mask0_0_218)">
<path d="M11.5152 15.4877C9.703 15.4877 8.16807 14.8588 6.91037 13.6011C5.65268 12.3434 5.02384 10.8085 5.02384 8.99635C5.02384 7.19771 5.65268 5.66736 6.91037 4.40529C8.16807 3.14324 9.703 2.51221 11.5152 2.51221C13.3138 2.51221 14.8441 3.14324 16.1062 4.40529C17.3683 5.66736 17.9993 7.19771 17.9993 8.99635C17.9993 10.8085 17.3683 12.3434 16.1062 13.6011C14.8441 14.8588 13.3138 15.4877 11.5152 15.4877ZM11.5116 14.1901C12.9533 14.1901 14.1788 13.6855 15.188 12.6763C16.1972 11.6671 16.7018 10.4417 16.7018 8.99994C16.7018 7.55822 16.1972 6.33275 15.188 5.32355C14.1788 4.31434 12.9533 3.80974 11.5116 3.80974C10.0698 3.80974 8.84438 4.31434 7.83518 5.32355C6.82597 6.33275 6.32137 7.55822 6.32137 8.99994C6.32137 10.4417 6.82597 11.6671 7.83518 12.6763C8.84438 13.6855 10.0698 14.1901 11.5116 14.1901ZM13.5627 11.9976L14.4876 11.0727L12.1603 8.74543V5.67289H10.8628V9.27608L13.5627 11.9976ZM0.865034 6.18856V4.89105H4.1588V6.18856H0.865034ZM0 9.64869V8.35119H4.1588V9.64869H0ZM0.865034 13.1088V11.8113H4.1588V13.1088H0.865034Z" fill="#400011"/>
</g>
</svg>
