<svg width="83" height="90" viewBox="0 0 83 90" fill="none" xmlns="http://www.w3.org/2000/svg">
<mask id="mask0_1_19725" style="mask-type:alpha" maskUnits="userSpaceOnUse" x="-138" y="-10" width="221" height="141">
<rect x="-137.467" y="-9.64518" width="220.467" height="140.297" fill="#E6F8FF"/>
</mask>
<g mask="url(#mask0_1_19725)">
<path d="M58.0336 13.8309C58.0227 13.7141 58.0189 13.5951 58.0224 13.4741C58.0453 12.6441 58.4019 11.887 58.9761 11.4486C60.0455 10.6327 61.6798 10.8995 62.6192 12.044C62.8402 12.313 63.0203 12.6206 63.1558 12.9532C64.0885 11.6318 64.6253 9.97214 64.6317 8.29285C64.6369 6.1144 63.7557 3.9282 62.2654 2.44688C62.0803 2.26431 62.0653 1.95558 62.2312 1.75691C62.3964 1.55909 62.6802 1.54687 62.8647 1.73068C64.5429 3.39784 65.5385 5.85713 65.5291 8.31221C65.521 10.4448 64.7535 12.5504 63.4414 14.1119C63.5182 14.7156 63.4404 15.375 63.239 15.9891C62.6579 17.7629 61.0372 18.9989 59.2978 18.9948C59.0498 18.9943 58.8431 18.7783 58.8431 18.5056C58.8396 18.2356 59.0377 18.0177 59.2854 18.0183C60.6349 18.0212 61.9424 17.0244 62.3931 15.6482C62.4602 15.4437 62.5074 15.2328 62.5354 15.021C61.4258 15.9175 59.8656 16.3775 58.7687 15.3868C58.3504 15.0096 58.0917 14.4552 58.0336 13.8309ZM62.4751 13.7818C62.3777 13.3684 62.2018 12.9899 61.9544 12.6886C61.322 11.9184 60.1978 11.718 59.4987 12.2515C59.1554 12.5132 58.9334 12.9997 58.9189 13.5196C58.9066 13.9814 59.057 14.3894 59.3341 14.6399C60.0867 15.3194 61.3561 14.8501 62.2206 14.0348C62.3077 13.9526 62.392 13.8683 62.4751 13.7818Z" fill="black"/>
<path d="M20.0897 50.2823C20.1456 50.4438 20.135 50.6294 20.0445 50.7952C19.0722 52.5926 19.3776 54.931 20.7707 56.3569C21.0187 56.609 21.0022 57.0183 20.7374 57.2688C20.4715 57.5191 20.0562 57.5178 19.8097 57.2652C18.0441 55.4596 17.6569 52.4959 18.8894 50.2187C19.0615 49.9002 19.4604 49.771 19.7792 49.9305C19.9319 50.0063 20.0386 50.1343 20.0897 50.2823Z" fill="black"/>
<path d="M11.5863 50.9C11.6664 51.1324 11.6022 51.404 11.4023 51.5867C9.93989 52.9145 8.88733 54.6865 8.43913 56.5769C8.3571 56.9226 8.00746 57.1465 7.65869 57.0763C7.31059 57.008 7.09379 56.6709 7.17515 56.3233C7.68463 54.1786 8.87911 52.167 10.5383 50.6586C10.8058 50.4157 11.2166 50.4256 11.4552 50.6823C11.515 50.7478 11.5591 50.8211 11.5863 50.9Z" fill="black"/>
<path d="M10.1876 45.9621C10.1955 45.985 10.2023 46.0078 10.2074 46.0323C10.2815 46.3733 10.0584 46.7172 9.70926 46.8008C6.63051 47.5404 3.32578 47.3649 0.404584 46.307C0.0721203 46.1857 -0.0873646 45.8218 0.0447285 45.493C0.178298 45.1636 0.554141 44.994 0.885452 45.1136C3.57208 46.0869 6.61022 46.2484 9.4411 45.5683C9.76526 45.4894 10.0844 45.6634 10.1876 45.9621Z" fill="black"/>
<path d="M47.6517 59.5783L74.3854 64.1618L77.2227 47.6123L50.4887 43.0289L47.6517 59.5783Z" fill="url(#paint0_linear_1_19725)"/>
<path d="M42.739 58.7369L69.4727 63.3202L72.3102 46.7707L45.5762 42.1872L42.739 58.7369Z" fill="url(#paint1_linear_1_19725)"/>
<path d="M56.6074 44.078L53.7701 60.6274" stroke="#1C1B3F" stroke-miterlimit="10" stroke-linecap="round" stroke-linejoin="round"/>
<path d="M76.6809 50.7636L45.0368 45.3385" stroke="#1C1B3F" stroke-miterlimit="10" stroke-linecap="round" stroke-linejoin="round"/>
<path d="M56.0671 47.2304C55.816 40.5961 52.3471 38.8547 50.3184 39.6302C48.2901 40.4056 49.1098 44.8598 56.0671 47.2304Z" stroke="#1C1B3F" stroke-miterlimit="10" stroke-linecap="round" stroke-linejoin="round"/>
<path d="M56.068 47.2299C59.3224 41.0327 63.554 40.237 65.27 42.2397C67.1472 44.4305 62.0738 48.4155 56.068 47.2299Z" stroke="#1C1B3F" stroke-miterlimit="10" stroke-linecap="round" stroke-linejoin="round"/>
<path d="M68.7977 89.7379L64.0676 72.8406C64.0676 72.8406 54.9611 72.1737 50.9227 71.1522C46.8844 70.1305 34.6286 59.5023 34.6286 59.5023C33.1171 58.0969 34.0601 56.2895 36.3985 56.651C36.8888 55.5218 42.091 57.5029 42.091 57.5029C42.7197 56.2297 44.3054 57.0398 45.1759 57.4394C45.1759 57.4394 53.5688 60.3553 55.0778 60.4558C56.5868 60.5562 67.5518 59.8773 73.7961 63.2985C80.0407 66.7198 89.5531 80.8663 89.5531 80.8663C81.0667 91.6682 68.7977 89.7379 68.7977 89.7379Z" fill="url(#paint2_linear_1_19725)"/>
<path d="M52.1132 64.5652L42.7239 59.7795C41.9768 59.3986 41.6312 58.5088 41.9486 57.7329C41.9507 57.7282 41.9529 57.7229 41.9548 57.7182" stroke="#1C1B3F" stroke-width="0.5" stroke-miterlimit="10" stroke-linecap="round" stroke-linejoin="round"/>
<path d="M49.2883 66.6637C49.2072 66.6431 39.7918 60.9356 36.8974 59.1802C36.3507 58.8487 36.082 58.2018 36.2303 57.5798C36.2963 57.3027 36.3561 57.0919 36.3561 57.0919" stroke="#1C1B3F" stroke-width="0.5" stroke-miterlimit="10" stroke-linecap="round" stroke-linejoin="round"/>
<path d="M43.9119 60.1242C43.9119 60.1242 44.1908 59.607 43.968 59.1338C43.5925 58.337 42.0148 58.4917 42.0148 58.4917" stroke="#1C1B3F" stroke-width="0.5" stroke-miterlimit="10" stroke-linecap="round" stroke-linejoin="round"/>
<path d="M38.4638 59.7831C38.4638 59.7831 38.6985 58.99 38.447 58.6025C38.1955 58.2147 36.5963 58.066 36.3857 58.1236" stroke="#1C1B3F" stroke-width="0.5" stroke-miterlimit="10" stroke-linecap="round" stroke-linejoin="round"/>
<path d="M36.2796 60.56C36.2796 60.56 36.5118 59.877 36.3948 59.5319C36.2773 59.187 34.7479 58.459 34.4754 58.4583" stroke="#1C1B3F" stroke-width="0.5" stroke-miterlimit="10" stroke-linecap="round" stroke-linejoin="round"/>
<path d="M64.4216 72.7944C65.1234 72.7337 65.8152 72.5625 66.4641 72.2881" stroke="#1C1B3F" stroke-width="0.5" stroke-miterlimit="10" stroke-linecap="round" stroke-linejoin="round"/>
<path d="M16.0176 44.9318L51.4559 26.2843L41.819 7.97025L6.3807 26.6173L16.0176 44.9318Z" fill="url(#paint3_linear_1_19725)"/>
<path d="M20.4427 36.7231L15.0436 39.5645L16.7485 42.804L22.1475 39.9626L20.4427 36.7231Z" fill="white"/>
<path d="M5.68292 27.7005L43.1047 8.00942L40.252 2.58776L2.83021 22.2788L5.68292 27.7005Z" fill="url(#paint4_linear_1_19725)"/>
<path d="M33.7354 35.6089L21.5417 12.4348" stroke="#1C1B3F" stroke-width="0.75" stroke-miterlimit="10" stroke-linecap="round" stroke-linejoin="round"/>
<path d="M21.4901 12.4605C16.0703 14.882 9.98704 12.7664 11.4686 9.59199C13.1637 5.9605 19.7063 9.89201 21.4901 12.4605Z" stroke="#1C1B3F" stroke-width="0.75" stroke-miterlimit="10" stroke-linecap="round" stroke-linejoin="round"/>
<path d="M21.4916 12.4605C27.2359 9.15708 28.5568 0.988156 25.1018 0.411643C21.1486 -0.248134 19.8055 8.43078 21.4916 12.4605Z" stroke="#1C1B3F" stroke-width="0.75" stroke-miterlimit="10" stroke-linecap="round" stroke-linejoin="round"/>
</g>
<defs>
<linearGradient id="paint0_linear_1_19725" x1="72.3032" y1="55.2869" x2="52.3303" y2="51.8622" gradientUnits="userSpaceOnUse">
<stop offset="4.2e-07" stop-color="#FFEDD8"/>
<stop offset="1" stop-color="#F6C8AE"/>
</linearGradient>
<linearGradient id="paint1_linear_1_19725" x1="45.6718" y1="27.9519" x2="59.6558" y2="57.214" gradientUnits="userSpaceOnUse">
<stop offset="4.2e-07" stop-color="#FFEDD8"/>
<stop offset="1" stop-color="#F6C8AE"/>
</linearGradient>
<linearGradient id="paint2_linear_1_19725" x1="70.021" y1="91.069" x2="54.3698" y2="50.5751" gradientUnits="userSpaceOnUse">
<stop stop-color="#7B78DB"/>
<stop offset="0.5215" stop-color="#FFA8E8"/>
<stop offset="1" stop-color="#FF8E98"/>
</linearGradient>
<linearGradient id="paint3_linear_1_19725" x1="23.0199" y1="15.2419" x2="34.6294" y2="37.3043" gradientUnits="userSpaceOnUse">
<stop stop-color="#8197F7"/>
<stop offset="1" stop-color="#5E72EB"/>
</linearGradient>
<linearGradient id="paint4_linear_1_19725" x1="29.573" y1="29.0759" x2="21.8855" y2="12.8627" gradientUnits="userSpaceOnUse">
<stop stop-color="#8197F7"/>
<stop offset="1" stop-color="#5E72EB"/>
</linearGradient>
</defs>
</svg>
