<svg width="37" height="37" viewBox="0 0 37 37" fill="none" xmlns="http://www.w3.org/2000/svg">
<g clip-path="url(#clip0_1_10857)">
<path d="M9.24939 10.021C9.82751 9.82833 11.8702 10.3294 12.7181 11.1773C13.5661 12.0252 13.3579 12.85 12.7181 13.4898C12.0783 14.1296 11.4463 14.5304 10.5983 13.6825C9.75043 12.8346 10.0202 11.5627 9.24939 10.021ZM21.1973 11.1773C23.1244 9.2502 26.2077 9.2502 28.1348 11.1773C29.3373 12.3798 29.7844 14.0448 29.4761 15.6019L33.9161 20.0419L20.0411 33.9169L15.6011 29.4769C14.044 29.7852 12.379 29.3381 11.1765 28.1356C9.24939 26.2085 9.24939 23.1252 11.1765 21.1981L14.6452 17.7294L12.3327 15.4169L14.6452 13.1044L16.9577 15.4169L21.1973 11.1773ZM21.5827 21.5835C22.0938 21.0724 22.381 20.3793 22.381 19.6565C22.381 18.9337 22.0938 18.2405 21.5827 17.7294L22.739 16.5731C23.2501 17.0842 23.9433 17.3713 24.6661 17.3713C25.3889 17.3713 26.0821 17.0842 26.5931 16.5731C27.1042 16.062 27.3914 15.3688 27.3914 14.646C27.3914 13.9232 27.1042 13.23 26.5931 12.719C26.0821 12.2079 25.3889 11.9207 24.6661 11.9207C23.9433 11.9207 23.2501 12.2079 22.739 12.719L12.7181 22.7398C12.207 23.2509 11.9199 23.9441 11.9199 24.6669C11.9199 25.3897 12.207 26.0829 12.7181 26.594C13.2292 27.1051 13.9224 27.3922 14.6452 27.3922C15.368 27.3922 16.0612 27.1051 16.5723 26.594C17.0834 26.0829 17.3705 25.3897 17.3705 24.6669C17.3705 23.9441 17.0834 23.2509 16.5723 22.7398L17.7286 21.5835C18.2397 22.0946 18.9328 22.3818 19.6556 22.3818C20.3784 22.3818 21.0716 22.0946 21.5827 21.5835Z" fill="#BD0043"/>
</g>
<defs>
<clipPath id="clip0_1_10857">
<rect width="26" height="26" fill="white" transform="translate(0 18.5) scale(1.00627) rotate(-45)"/>
</clipPath>
</defs>
</svg>
