<svg width="24" height="24" viewBox="0 0 24 24" fill="none" xmlns="http://www.w3.org/2000/svg">
<mask id="mask0_1_10090" style="mask-type:alpha" maskUnits="userSpaceOnUse" x="0" y="0" width="24" height="24">
<rect width="24" height="24" fill="#D9D9D9"/>
</mask>
<g mask="url(#mask0_1_10090)">
<path d="M5.15229 19H6.38882L15.6485 9.74036L14.412 8.50381L5.15229 17.7635V19ZM18.8561 8.65576L15.4812 5.31158L16.7946 3.99813C17.0818 3.71097 17.4356 3.56738 17.8561 3.56738C18.2766 3.56738 18.6305 3.71097 18.9176 3.99813L20.1542 5.23466C20.4414 5.52182 20.5901 5.87053 20.6003 6.28078C20.6106 6.69103 20.4721 7.03974 20.1849 7.32691L18.8561 8.65576ZM4.55617 20.5C4.29849 20.5 4.08343 20.4138 3.91099 20.2413C3.73856 20.0689 3.65234 19.8538 3.65234 19.5961V17.502C3.65234 17.3814 3.67414 17.2667 3.71772 17.1577C3.7613 17.0488 3.82989 16.9475 3.92349 16.8539L14.3966 6.38078L17.7715 9.75573L7.29842 20.2288C7.20484 20.3224 7.10356 20.391 6.99459 20.4346C6.88561 20.4782 6.77086 20.5 6.65034 20.5H4.55617Z" fill="black"/>
</g>
</svg>
