<svg width="18" height="18" viewBox="0 0 18 18" fill="none" xmlns="http://www.w3.org/2000/svg">
<mask id="mask0_0_355" style="mask-type:alpha" maskUnits="userSpaceOnUse" x="0" y="0" width="18" height="18">
<rect width="18" height="18" fill="#D9D9D9"/>
</mask>
<g mask="url(#mask0_0_355)">
<path d="M8.99998 12.548C9.17162 12.548 9.31549 12.49 9.43159 12.3739C9.54769 12.2578 9.60574 12.1139 9.60574 11.9423C9.60574 11.7707 9.54769 11.6268 9.43159 11.5107C9.31549 11.3946 9.17162 11.3365 8.99998 11.3365C8.82834 11.3365 8.68448 11.3946 8.56838 11.5107C8.45228 11.6268 8.39423 11.7707 8.39423 11.9423C8.39423 12.1139 8.45228 12.2578 8.56838 12.3739C8.68448 12.49 8.82834 12.548 8.99998 12.548ZM9.00023 9.80768C9.15968 9.80768 9.29324 9.75377 9.40093 9.64596C9.50862 9.53816 9.56246 9.40457 9.56246 9.24519V5.87016C9.56246 5.71079 9.50854 5.57721 9.40069 5.4694C9.29283 5.36158 9.15918 5.30768 8.99974 5.30768C8.84029 5.30768 8.70672 5.36158 8.59903 5.4694C8.49134 5.57721 8.4375 5.71079 8.4375 5.87016V9.24519C8.4375 9.40457 8.49143 9.53816 8.59928 9.64596C8.70714 9.75377 8.84079 9.80768 9.00023 9.80768ZM9.00124 16.125C8.01579 16.125 7.08951 15.938 6.22241 15.564C5.3553 15.19 4.60104 14.6824 3.95963 14.0413C3.3182 13.4001 2.81041 12.6462 2.43624 11.7795C2.06208 10.9128 1.875 9.98669 1.875 9.00124C1.875 8.01579 2.062 7.08951 2.436 6.22241C2.81 5.3553 3.31756 4.60104 3.95869 3.95963C4.59983 3.3182 5.35376 2.81041 6.22048 2.43624C7.08719 2.06208 8.01328 1.875 8.99873 1.875C9.98418 1.875 10.9105 2.062 11.7776 2.436C12.6447 2.81 13.3989 3.31756 14.0403 3.95869C14.6818 4.59983 15.1896 5.35376 15.5637 6.22048C15.9379 7.08719 16.125 8.01328 16.125 8.99873C16.125 9.98418 15.938 10.9104 15.564 11.7776C15.19 12.6447 14.6824 13.3989 14.0413 14.0403C13.4001 14.6818 12.6462 15.1896 11.7795 15.5637C10.9128 15.9379 9.98669 16.125 9.00124 16.125ZM8.99998 15C10.675 15 12.0937 14.4187 13.2562 13.2562C14.4187 12.0937 15 10.675 15 8.99998C15 7.32498 14.4187 5.90623 13.2562 4.74373C12.0937 3.58123 10.675 2.99998 8.99998 2.99998C7.32498 2.99998 5.90623 3.58123 4.74373 4.74373C3.58123 5.90623 2.99998 7.32498 2.99998 8.99998C2.99998 10.675 3.58123 12.0937 4.74373 13.2562C5.90623 14.4187 7.32498 15 8.99998 15Z" fill="#400011"/>
</g>
</svg>
