<svg width="211" height="125" viewBox="0 0 211 125" fill="none" xmlns="http://www.w3.org/2000/svg">
<g opacity="0.4">
<mask id="mask0_1_11947" style="mask-type:luminance" maskUnits="userSpaceOnUse" x="-9" y="-10" width="229" height="146">
<path d="M-8.6808 86.1432L13.5388 135.471L219.437 39.4439L197.217 -9.88417L-8.6808 86.1432Z" fill="white"/>
</mask>
<g mask="url(#mask0_1_11947)">
<path d="M2.54034 111.057C6.54428 119.946 16.0773 128.984 38.7477 122.046C49.9011 118.511 76.3597 106.172 97.3007 96.405C133.791 79.3871 169.735 62.1686 191.215 51.241L191.591 51.0656C201.592 45.6438 217.078 33.8762 208.507 14.8466C198.469 -7.4393 177.885 1.10014 170.067 4.29221C143.101 15.5044 121.602 25.3801 95.5202 37.5436C76.3348 46.4921 40.2778 63.4599 18.5215 75.1217C-4.04355 87.0092 -1.18216 102.794 2.54034 111.057Z" fill="#C9F4EC"/>
<path d="M2.54034 111.057C6.54428 119.946 16.0773 128.984 38.7477 122.046C49.9011 118.511 76.3597 106.172 97.3007 96.405C133.791 79.3871 169.735 62.1686 191.215 51.241L191.591 51.0656C201.592 45.6438 217.078 33.8762 208.507 14.8466C198.469 -7.4393 177.885 1.10014 170.067 4.29221C143.101 15.5044 121.602 25.3801 95.5202 37.5436C76.3348 46.4921 40.2778 63.4599 18.5215 75.1217C-4.04355 87.0092 -1.18216 102.794 2.54034 111.057Z" fill="#C9F4EC"/>
</g>
</g>
</svg>
