<svg xmlns="http://www.w3.org/2000/svg" width="12" height="12" viewBox="0 0 12 12" fill="none">
<path d="M10 5.857C10 6.08429 9.90971 6.30227 9.74899 6.46299C9.58827 6.62371 9.37029 6.714 9.143 6.714H1.857C1.74446 6.714 1.63302 6.69183 1.52904 6.64876C1.42506 6.6057 1.33059 6.54257 1.25101 6.46299C1.17143 6.38341 1.1083 6.28894 1.06524 6.18496C1.02217 6.08098 1 5.96954 1 5.857C1 5.74446 1.02217 5.63302 1.06524 5.52904C1.1083 5.42506 1.17143 5.33059 1.25101 5.25101C1.33059 5.17143 1.42506 5.1083 1.52904 5.06524C1.63302 5.02217 1.74446 5 1.857 5H9.143C9.37029 5 9.58827 5.09029 9.74899 5.25101C9.90971 5.41173 10 5.62971 10 5.857Z" fill="black"/>
</svg>