<svg width="84" height="84" viewBox="0 0 84 84" fill="none" xmlns="http://www.w3.org/2000/svg">
<path d="M14 13.9995C13.6 13.1995 11.8333 13.9995 11 14.4995L9.5 16.4995L19 32.4995L23 29.9995C20.1667 24.9995 14.4 14.7995 14 13.9995Z" fill="#E6F8FF"/>
<path d="M54.1163 26.654C47.0086 30.2078 43.6163 41.5963 42.8086 46.8463L52.5009 47.654L52.9047 44.0194L54.1163 39.1732L56.5394 38.7694C57.2124 38.6348 58.7201 38.2848 59.3663 37.9617C60.174 37.5578 71.0778 29.4809 71.8855 28.6732C72.6932 27.8655 74.7124 25.4425 74.7124 25.0386C74.7124 24.6348 73.0971 19.3848 72.6932 19.3848C72.2894 19.3848 63.0009 22.2117 54.1163 26.654Z" fill="#BD0043"/>
<path fill-rule="evenodd" clip-rule="evenodd" d="M18.869 46.5181C18.456 43.994 17.912 41.5921 17.7145 39.1619C17.5707 37.3772 17.8938 35.5565 17.977 33.7503C17.9919 33.423 17.9358 33.0387 17.772 32.7648C14.8232 27.8242 11.8519 22.8964 8.88429 17.9668C7.96964 16.4474 8.09581 15.0104 9.26032 13.7603C10.4424 12.4917 12.4403 12.0366 13.8129 12.8197C14.299 13.0968 14.7544 13.5501 15.043 14.0315C18.0706 19.0741 21.0544 24.1425 24.077 29.1882C24.2781 29.5229 24.6517 29.8192 25.0128 29.9819C29.964 32.2097 33.933 35.5419 36.6007 40.3113C37.6477 42.1815 38.0894 44.2206 37.8357 46.5066C39.1008 46.5066 40.3136 46.5237 41.5242 46.4812C41.643 46.4768 41.8197 46.1208 41.8504 45.9101C42.3859 42.261 43.426 38.7749 45.1603 35.5095C45.5316 34.8111 46.2144 34.1357 46.2349 33.4345C46.2556 32.7336 45.6033 32.0237 45.286 31.3C44.0903 28.5743 43.2925 25.7478 43.5573 22.7437C43.6498 21.6953 43.9453 20.6255 44.3589 19.6552C44.8799 18.4323 45.8571 17.6766 47.226 17.348C53.2404 15.9042 59.2356 14.3781 65.2476 12.9222C68.4121 12.1557 70.9473 13.19 72.8052 15.8358C74.2778 17.9329 75.3237 20.2184 75.6572 22.7914C75.9598 25.1286 75.2213 27.0852 73.4795 28.6453C72.8541 29.2058 72.1463 29.6771 71.4572 30.1631C66.9221 33.3624 62.3739 36.5441 57.8482 39.7565C56.7267 40.5525 55.5192 40.7339 54.0635 40.4614C53.9698 42.4719 53.8786 44.4244 53.7823 46.4766C54.1534 46.493 54.4477 46.5173 54.7414 46.5173C58.7073 46.5191 62.674 46.5167 66.6397 46.5185C68.1248 46.5198 68.4421 46.8348 68.4053 48.3322C68.2109 56.2721 65.5159 63.1644 59.8068 68.7873C59.7525 68.8411 59.6933 68.891 59.6393 68.9448C57.8701 70.749 55.8946 71.6138 53.1981 71.5651C43.3502 71.3877 33.4971 71.5075 23.646 71.4812C23.1349 71.4788 22.5246 71.2763 22.1291 70.9579C15.1805 65.3614 11.1846 58.1841 10.5904 49.2094C10.5754 48.9796 10.5661 48.7489 10.5648 48.519C10.5543 46.9347 10.9635 46.5181 12.5278 46.5181C14.6719 46.5181 16.8167 46.5181 18.869 46.5181ZM13.1156 49.0209C13.1025 49.2265 13.08 49.3513 13.0882 49.4739C13.6175 57.6942 17.2666 64.1993 23.8796 69.0649C24.1021 69.2285 24.4469 69.2897 24.7342 69.2897C34.6058 69.301 44.4776 69.2998 54.3501 69.2861C54.6313 69.2847 54.9599 69.1811 55.186 69.016C60.8862 64.8601 64.3681 59.3037 65.6038 52.3576C65.7969 51.2705 65.8499 50.1574 65.9718 49.0209C48.2737 49.0209 30.7356 49.0209 13.1156 49.0209ZM58.6264 36.0457C58.779 35.9998 58.8595 35.9952 58.9158 35.9555C63.101 33.0207 67.2974 30.1009 71.4615 27.1364C73.1295 25.9491 73.7 24.2345 73.0821 22.3265C72.5523 20.6903 71.8562 19.0701 70.9816 17.5921C69.6653 15.3674 68.0884 14.7835 65.57 15.3751C61.8153 16.257 58.0755 17.2044 54.3294 18.1256C53.1282 18.4208 51.9279 18.7204 50.8234 18.9943C52.2852 20.9854 53.7116 22.9277 55.1535 24.8911C55.1824 24.8761 55.2723 24.8327 55.3591 24.7839C59.9423 22.2101 64.8642 20.5413 69.9552 19.3295C70.9362 19.0959 71.6165 19.4608 71.7616 20.2338C71.9051 20.9995 71.461 21.4968 70.5039 21.726C66.3437 22.7235 62.2983 24.0581 58.4443 25.9325C57.6701 26.3092 56.9254 26.7478 56.1346 27.1758C57.3894 30.0443 58.4202 32.894 58.6264 36.0457ZM51.3786 46.4748C51.3786 46.0182 51.3474 45.612 51.3835 45.2124C51.6196 42.6234 51.7771 40.0213 52.1669 37.4547C52.307 36.531 52.9292 35.6311 53.4945 34.8354C53.9788 34.1537 54.7754 34.1672 55.314 34.6577C55.8431 35.1394 55.8068 35.8395 55.3058 36.5039C54.9827 36.9315 54.7616 37.4358 54.4822 37.9273C55.6537 38.3034 56.1016 38.032 56.1415 36.9781C56.2534 34.0349 55.2213 31.3747 54.0742 28.6325C48.289 33.2558 45.3052 39.2822 44.2662 46.4748C46.6643 46.4748 48.9728 46.4748 51.3786 46.4748ZM52.8813 26.2461C51.8536 24.3618 50.6753 22.4826 49.0059 20.982C48.5243 20.5493 47.8053 20.0145 47.2747 20.0898C46.46 20.2051 46.302 21.1751 46.1408 21.9166C45.7747 23.5994 45.9316 25.2802 46.3975 26.9136C46.8042 28.3398 47.3402 29.7291 47.8194 31.136C49.5706 29.4441 51.1799 27.8895 52.8813 26.2461ZM19.4488 30.7199C20.1447 30.3032 20.7919 29.9158 21.4667 29.5122C18.6116 24.7541 15.8028 20.065 12.9832 15.3818C12.6508 14.8303 12.0768 14.7592 11.4632 15.1428C10.7448 15.593 10.5997 16.0087 10.9772 16.6381C13.5886 21.0003 16.2044 25.3598 18.8202 29.7194C19.0147 30.0426 19.2214 30.3583 19.4488 30.7199ZM31.2954 46.5168C29.0863 41.3593 26.0382 36.9771 22.374 32.8097C22.3502 33.0781 22.3246 33.1577 22.3402 33.2278C23.3454 37.7429 24.9729 42.033 27.0421 46.1608C27.1244 46.3245 27.38 46.4963 27.5594 46.5012C28.7321 46.5311 29.9059 46.5168 31.2954 46.5168ZM26.093 33.2967C26.3691 33.6719 26.5271 33.8892 26.6884 34.1048C29.4697 37.8471 32.0931 41.6822 33.7005 46.1088C33.9555 46.8093 34.5115 46.4543 34.9387 46.5057C35.4504 46.5669 35.391 46.1377 35.4148 45.8189C35.5659 43.7822 34.85 41.9992 33.758 40.3445C31.8786 37.4978 29.346 35.3307 26.5158 33.483C26.4423 33.4351 26.3524 33.4099 26.093 33.2967ZM20.189 35.629C20.2108 35.5816 20.1759 35.6255 20.171 35.6728C19.8174 39.2743 20.4922 42.7385 21.5842 46.1441C21.6298 46.2871 21.8016 46.4883 21.921 46.4927C22.7207 46.5239 23.5223 46.5089 24.2387 46.5089C22.8586 42.8015 21.5117 39.1819 20.189 35.629Z" fill="black"/>
</svg>
