<svg width="32" height="24" viewBox="0 0 32 24" fill="none" xmlns="http://www.w3.org/2000/svg">
<g clip-path="url(#clip0_1_10440)">
<path d="M5.81569 23.8807V22.2922C5.81569 21.6832 5.43144 21.2861 4.77281 21.2861C4.44356 21.2861 4.08681 21.392 3.83981 21.7362C3.64781 21.445 3.37344 21.2861 2.96181 21.2861C2.68731 21.2861 2.41306 21.3655 2.19344 21.6567V21.3391H1.61719V23.8807H2.19344V22.4775C2.19344 22.0275 2.44044 21.8156 2.82469 21.8156C3.20869 21.8156 3.40094 22.0539 3.40094 22.4775V23.8807H3.97719V22.4775C3.97719 22.0275 4.25144 21.8156 4.60819 21.8156C4.99244 21.8156 5.18444 22.0539 5.18444 22.4775V23.8807H5.81569ZM14.3496 21.3391H13.4167V20.5713H12.8404V21.3391H12.3191V21.842H12.8403V23.007C12.8403 23.5895 13.0873 23.9336 13.7459 23.9336C13.9929 23.9336 14.2672 23.8543 14.4594 23.7484L14.2947 23.2717C14.1301 23.3776 13.9381 23.4042 13.8008 23.4042C13.5264 23.4042 13.4167 23.2453 13.4167 22.9805V21.842H14.3496V21.3391ZM19.2341 21.286C18.9048 21.286 18.6853 21.445 18.5481 21.6567V21.3391H17.9718V23.8807H18.5481V22.451C18.5481 22.0275 18.7401 21.7892 19.0968 21.7892C19.2066 21.7892 19.3438 21.8157 19.4536 21.8421L19.6182 21.3127C19.5084 21.2861 19.3438 21.2861 19.2341 21.2861V21.286ZM11.8526 21.5509C11.5781 21.3655 11.1939 21.2861 10.7823 21.2861C10.1238 21.2861 9.68481 21.6038 9.68481 22.1068C9.68481 22.5305 10.0141 22.7687 10.5903 22.8482L10.8647 22.8747C11.1666 22.9275 11.3312 23.007 11.3312 23.1394C11.3312 23.3247 11.1117 23.4571 10.7274 23.4571C10.3433 23.4571 10.0414 23.3247 9.84931 23.1924L9.57494 23.6159C9.87681 23.8277 10.2884 23.9336 10.6999 23.9336C11.4683 23.9336 11.9074 23.5895 11.9074 23.1129C11.9074 22.6628 11.5507 22.4245 11.0018 22.3451L10.7274 22.3186C10.4804 22.2921 10.2884 22.2393 10.2884 22.0804C10.2884 21.8951 10.4804 21.7892 10.7823 21.7892C11.1117 21.7892 11.4409 21.9215 11.6056 22.0009L11.8526 21.5509ZM27.1644 21.2861C26.8351 21.2861 26.6156 21.445 26.4783 21.6567V21.3391H25.9021V23.8807H26.4783V22.451C26.4783 22.0275 26.6704 21.7892 27.0271 21.7892C27.1369 21.7892 27.2742 21.8157 27.3839 21.8421L27.5486 21.3127C27.4388 21.2861 27.2742 21.2861 27.1644 21.2861ZM19.8103 22.6099C19.8103 23.3776 20.3591 23.9336 21.2098 23.9336C21.5939 23.9336 21.8683 23.8543 22.1427 23.6425L21.8683 23.1924C21.6488 23.3512 21.4293 23.4306 21.1823 23.4306C20.7158 23.4306 20.3866 23.1129 20.3866 22.6099C20.3866 22.1334 20.7158 21.8156 21.1823 21.7892C21.4293 21.7892 21.6488 21.8685 21.8683 22.0275L22.1427 21.5774C21.8683 21.3655 21.5939 21.2861 21.2098 21.2861C20.3591 21.2861 19.8103 21.8421 19.8103 22.6099ZM25.1338 22.6099V21.3391H24.5576V21.6567C24.3654 21.4186 24.0911 21.2861 23.7343 21.2861C22.9934 21.2861 22.4172 21.8421 22.4172 22.6099C22.4172 23.3776 22.9934 23.9336 23.7343 23.9336C24.1184 23.9336 24.3929 23.8013 24.5576 23.563V23.8807H25.1338V22.6099ZM23.0208 22.6099C23.0208 22.1598 23.3227 21.7892 23.8166 21.7892C24.2831 21.7892 24.6124 22.1334 24.6124 22.6099C24.6124 23.06 24.2831 23.4306 23.8166 23.4306C23.3227 23.404 23.0208 23.06 23.0208 22.6099ZM16.1333 21.2861C15.3649 21.2861 14.8161 21.8156 14.8161 22.6099C14.8161 23.4042 15.3648 23.9336 16.1607 23.9336C16.5448 23.9336 16.9291 23.8277 17.2309 23.5895L16.9564 23.1924C16.7369 23.3512 16.4626 23.4571 16.1882 23.4571C15.8314 23.4571 15.4747 23.2983 15.3923 22.8481H17.3407V22.6364C17.3682 21.8156 16.8743 21.2861 16.1333 21.2861ZM16.1333 21.7626C16.4899 21.7626 16.7371 21.9745 16.7918 22.3717H15.4198C15.4747 22.0275 15.7217 21.7626 16.1333 21.7626ZM30.4298 22.6099V20.333H29.8536V21.6567C29.6614 21.4186 29.3871 21.2861 29.0303 21.2861C28.2894 21.2861 27.7132 21.8421 27.7132 22.6099C27.7132 23.3776 28.2894 23.9336 29.0303 23.9336C29.4146 23.9336 29.6889 23.8013 29.8536 23.563V23.8807H30.4298V22.6099ZM28.3169 22.6099C28.3169 22.1598 28.6187 21.7892 29.1127 21.7892C29.5792 21.7892 29.9084 22.1334 29.9084 22.6099C29.9084 23.06 29.5792 23.4306 29.1127 23.4306C28.6187 23.404 28.3169 23.06 28.3169 22.6099ZM9.05356 22.6099V21.3391H8.47731V21.6567C8.28519 21.4186 8.01081 21.2861 7.65406 21.2861C6.91319 21.2861 6.33694 21.8421 6.33694 22.6099C6.33694 23.3776 6.91319 23.9336 7.65406 23.9336C8.03831 23.9336 8.31269 23.8013 8.47731 23.563V23.8807H9.05356V22.6099ZM6.91319 22.6099C6.91319 22.1598 7.21506 21.7892 7.70894 21.7892C8.17544 21.7892 8.50481 22.1334 8.50481 22.6099C8.50481 23.06 8.17544 23.4306 7.70894 23.4306C7.21506 23.404 6.91319 23.06 6.91319 22.6099Z" fill="#252525"/>
<path d="M11.6641 2.03906H20.3078V17.0241H11.6641V2.03906Z" fill="#FF5F00"/>
<path d="M12.2111 9.53113C12.2111 6.48651 13.6929 3.78597 15.9704 2.03855C14.2966 0.767759 12.1838 0 9.87875 0C4.41788 0 0 4.26247 0 9.53113C0 14.7997 4.41788 19.0623 9.87863 19.0623C12.1836 19.0623 14.2965 18.2945 15.9704 17.0236C13.6929 15.3027 12.2111 12.5758 12.2111 9.53113Z" fill="#EB001B"/>
<path d="M31.9704 9.53113C31.9704 14.7997 27.5525 19.0623 22.0918 19.0623C19.7867 19.0623 17.6739 18.2945 16 17.0236C18.305 15.2763 19.7594 12.5758 19.7594 9.53113C19.7594 6.48651 18.2775 3.78597 16 2.03855C17.6738 0.767759 19.7867 0 22.0918 0C27.5525 0 31.9704 4.289 31.9704 9.53113Z" fill="#F79E1B"/>
</g>
<defs>
<clipPath id="clip0_1_10440">
<rect width="32" height="24" fill="white"/>
</clipPath>
</defs>
</svg>
