<svg width="21" height="35" viewBox="0 0 21 35" fill="none" xmlns="http://www.w3.org/2000/svg">
<path d="M18.9842 24.5102C19.4128 24.302 19.9406 24.3483 20.33 24.6733C20.8568 25.1141 20.9288 25.9016 20.4866 26.4302L13.7027 34.5529C13.2646 35.0806 12.4768 35.1517 11.9473 34.71C11.4196 34.2697 11.3476 33.4822 11.7897 32.9536L18.5736 24.8309C18.6898 24.6921 18.8312 24.5845 18.9842 24.5102Z" fill="#ED7279"/>
<path d="M1.14924 17.6058C1.24378 17.5599 1.34713 17.5253 1.45572 17.5037L9.26521 15.9763C9.94188 15.8435 10.5967 16.2844 10.7287 16.9593C10.8606 17.6364 10.4161 18.2907 9.74568 18.4227L1.93533 19.9506C1.25956 20.0829 0.603372 19.6416 0.47144 18.9667C0.360219 18.3986 0.653095 17.8468 1.14924 17.6058Z" fill="#ED7279"/>
<path d="M0.702146 0.125621C0.97588 -0.00733772 1.29907 -0.0408039 1.61451 0.0541522L11.0774 2.96869C11.7345 3.17144 12.1035 3.86916 11.9025 4.52767C11.6984 5.18659 11.0029 5.55333 10.3435 5.35279L0.879722 2.43874C0.222577 2.23599 -0.147261 1.53866 0.0546146 0.879715C0.161097 0.535307 0.402298 0.271263 0.702146 0.125621Z" fill="#ED7279"/>
</svg>
