<svg width="24" height="24" viewBox="0 0 24 24" fill="none" xmlns="http://www.w3.org/2000/svg">
<g id="hourglass_empty">
<mask id="mask0_3715_5813" style="mask-type:alpha" maskUnits="userSpaceOnUse" x="0" y="0" width="24" height="24">
<rect id="Bounding box" width="24" height="24" fill="#D9D9D9"/>
</mask>
<g mask="url(#mask0_3715_5813)">
<path id="error" d="M12.0018 22C10.6187 22 9.31863 21.7375 8.10165 21.2126C6.88464 20.6877 5.82603 19.9753 4.9258 19.0755C4.02555 18.1757 3.31285 17.1175 2.78771 15.9011C2.26257 14.6846 2 13.3849 2 12.0018C2 10.6187 2.26246 9.31863 2.78737 8.10165C3.31228 6.88464 4.02465 5.82603 4.92448 4.9258C5.82433 4.02555 6.88248 3.31286 8.09894 2.78771C9.31538 2.26257 10.6151 2 11.9982 2C13.3813 2 14.6814 2.26246 15.8984 2.78737C17.1154 3.31229 18.174 4.02465 19.0742 4.92448C19.9744 5.82433 20.6871 6.88248 21.2123 8.09894C21.7374 9.31538 22 10.6151 22 11.9982C22 13.3813 21.7375 14.6814 21.2126 15.8984C20.6877 17.1154 19.9753 18.174 19.0755 19.0742C18.1757 19.9744 17.1175 20.6871 15.9011 21.2123C14.6846 21.7374 13.3849 22 12.0018 22Z" fill="#FEBA4B"/>
<path id="hourglass_empty_2" d="M10 16H14V14.5C14 13.95 13.8042 13.4792 13.4125 13.0875C13.0208 12.6958 12.55 12.5 12 12.5C11.45 12.5 10.9792 12.6958 10.5875 13.0875C10.1958 13.4792 10 13.95 10 14.5V16ZM12 11.5C12.55 11.5 13.0208 11.3042 13.4125 10.9125C13.8042 10.5208 14 10.05 14 9.5V8H10V9.5C10 10.05 10.1958 10.5208 10.5875 10.9125C10.9792 11.3042 11.45 11.5 12 11.5ZM15.5 17H8.5C8.35833 17 8.23958 16.9521 8.14375 16.8562C8.04792 16.7604 8 16.6417 8 16.5C8 16.3583 8.04792 16.2396 8.14375 16.1438C8.23958 16.0479 8.35833 16 8.5 16H9V14.5C9 13.9917 9.11875 13.5146 9.35625 13.0687C9.59375 12.6229 9.925 12.2667 10.35 12C9.925 11.7333 9.59375 11.3771 9.35625 10.9313C9.11875 10.4854 9 10.0083 9 9.5V8H8.5C8.35833 8 8.23958 7.95208 8.14375 7.85625C8.04792 7.76042 8 7.64167 8 7.5C8 7.35833 8.04792 7.23958 8.14375 7.14375C8.23958 7.04792 8.35833 7 8.5 7H15.5C15.6417 7 15.7604 7.04792 15.8563 7.14375C15.9521 7.23958 16 7.35833 16 7.5C16 7.64167 15.9521 7.76042 15.8563 7.85625C15.7604 7.95208 15.6417 8 15.5 8H15V9.5C15 10.0083 14.8813 10.4854 14.6438 10.9313C14.4062 11.3771 14.075 11.7333 13.65 12C14.075 12.2667 14.4062 12.6229 14.6438 13.0687C14.8813 13.5146 15 13.9917 15 14.5V16H15.5C15.6417 16 15.7604 16.0479 15.8563 16.1438C15.9521 16.2396 16 16.3583 16 16.5C16 16.6417 15.9521 16.7604 15.8563 16.8562C15.7604 16.9521 15.6417 17 15.5 17Z" fill="white"/>
</g>
</g>
</svg>
