<svg width="192" height="152" viewBox="0 0 192 152" fill="none" xmlns="http://www.w3.org/2000/svg">
<g opacity="0.5">
<mask id="mask0_1_11921" style="mask-type:luminance" maskUnits="userSpaceOnUse" x="0" y="-41" width="192" height="193">
<path d="M191.999 -40.1069H0V151.608H191.999V-40.1069Z" fill="white"/>
</mask>
<g mask="url(#mask0_1_11921)">
<path d="M99.1413 0C40.6692 0 0 39.4052 0 95.7722C0 121.3 8.55235 144.943 24.0874 162.247C41.5416 181.607 65.8034 191.887 94.6032 191.887C152.029 191.887 192.173 151.111 192.173 92.5165C191.999 36.3214 155.519 0 99.1413 0ZM95.3013 127.981C85.7014 127.981 77.4976 124.555 71.7377 118.044C66.5015 112.22 63.7091 104.338 63.7091 95.7722C63.7091 76.9259 77.3233 63.7337 96.8718 63.7337C115.723 63.7337 127.941 75.8979 127.941 94.7439C127.941 114.275 114.501 127.981 95.3013 127.981Z" fill="#FFB6B6"/>
</g>
</g>
</svg>
