<svg width="16" height="16" viewBox="0 0 16 16" fill="none" xmlns="http://www.w3.org/2000/svg">
<path d="M14.974 4.00033C14.4607 4.23366 13.9073 4.38699 13.334 4.46033C13.9207 4.10699 14.374 3.54699 14.5873 2.87366C14.034 3.20699 13.4207 3.44033 12.774 3.57366C12.2473 3.00033 11.5073 2.66699 10.6673 2.66699C9.10068 2.66699 7.82068 3.94699 7.82068 5.52699C7.82068 5.75366 7.84734 5.97366 7.89401 6.18033C5.52068 6.06033 3.40734 4.92033 2.00068 3.19366C1.75401 3.61366 1.61401 4.10699 1.61401 4.62699C1.61401 5.62033 2.11401 6.50033 2.88734 7.00033C2.41401 7.00033 1.97401 6.86699 1.58734 6.66699V6.68699C1.58734 8.07366 2.57401 9.23366 3.88068 9.49366C3.46116 9.60846 3.02074 9.62444 2.59401 9.54033C2.77508 10.1086 3.1297 10.6059 3.60802 10.9623C4.08634 11.3186 4.66431 11.5161 5.26068 11.527C4.24976 12.3273 2.99667 12.7599 1.70734 12.7537C1.48068 12.7537 1.25401 12.7403 1.02734 12.7137C2.29401 13.527 3.80068 14.0003 5.41401 14.0003C10.6673 14.0003 13.554 9.64033 13.554 5.86033C13.554 5.73366 13.554 5.61366 13.5473 5.48699C14.1073 5.08699 14.5873 4.58033 14.974 4.00033Z" fill="white"/>
</svg>
