<svg width="20" height="20" viewBox="0 0 20 20" fill="none" xmlns="http://www.w3.org/2000/svg">
<mask id="mask0_1_20842" style="mask-type:alpha" maskUnits="userSpaceOnUse" x="0" y="0" width="20" height="20">
<rect width="20" height="20" fill="#D9D9D9"/>
</mask>
<g mask="url(#mask0_1_20842)">
<circle cx="9.9987" cy="10.0002" r="6.66667" fill="white"/>
<path d="M10.0013 11.1665L12.418 13.5832C12.5707 13.7359 12.7652 13.8123 13.0013 13.8123C13.2374 13.8123 13.4319 13.7359 13.5846 13.5832C13.7374 13.4304 13.8138 13.2359 13.8138 12.9998C13.8138 12.7637 13.7374 12.5693 13.5846 12.4165L11.168 9.99984L13.5846 7.58317C13.7374 7.43039 13.8138 7.23595 13.8138 6.99984C13.8138 6.76373 13.7374 6.56928 13.5846 6.4165C13.4319 6.26373 13.2374 6.18734 13.0013 6.18734C12.7652 6.18734 12.5707 6.26373 12.418 6.4165L10.0013 8.83317L7.58464 6.4165C7.43186 6.26373 7.23741 6.18734 7.0013 6.18734C6.76519 6.18734 6.57075 6.26373 6.41797 6.4165C6.26519 6.56928 6.1888 6.76373 6.1888 6.99984C6.1888 7.23595 6.26519 7.43039 6.41797 7.58317L8.83464 9.99984L6.41797 12.4165C6.26519 12.5693 6.1888 12.7637 6.1888 12.9998C6.1888 13.2359 6.26519 13.4304 6.41797 13.5832C6.57075 13.7359 6.76519 13.8123 7.0013 13.8123C7.23741 13.8123 7.43186 13.7359 7.58464 13.5832L10.0013 11.1665ZM10.0013 18.3332C8.84852 18.3332 7.76519 18.1144 6.7513 17.6769C5.73741 17.2394 4.85547 16.6457 4.10547 15.8957C3.35547 15.1457 2.76172 14.2637 2.32422 13.2498C1.88672 12.2359 1.66797 11.1526 1.66797 9.99984C1.66797 8.84706 1.88672 7.76373 2.32422 6.74984C2.76172 5.73595 3.35547 4.854 4.10547 4.104C4.85547 3.354 5.73741 2.76025 6.7513 2.32275C7.76519 1.88525 8.84852 1.6665 10.0013 1.6665C11.1541 1.6665 12.2374 1.88525 13.2513 2.32275C14.2652 2.76025 15.1471 3.354 15.8971 4.104C16.6471 4.854 17.2409 5.73595 17.6784 6.74984C18.1159 7.76373 18.3346 8.84706 18.3346 9.99984C18.3346 11.1526 18.1159 12.2359 17.6784 13.2498C17.2409 14.2637 16.6471 15.1457 15.8971 15.8957C15.1471 16.6457 14.2652 17.2394 13.2513 17.6769C12.2374 18.1144 11.1541 18.3332 10.0013 18.3332Z" fill="#1C1B1F"/>
</g>
</svg>
