<svg width="24" height="24" viewBox="0 0 24 24" fill="none" xmlns="http://www.w3.org/2000/svg">
<mask id="mask0_0_274" style="mask-type:alpha" maskUnits="userSpaceOnUse" x="0" y="0" width="24" height="24">
<rect width="24" height="24" fill="#D9D9D9"/>
</mask>
<g mask="url(#mask0_0_274)">
<path d="M12.0045 15C11.8764 15 11.7524 14.9777 11.6323 14.933C11.5122 14.8883 11.3997 14.8117 11.2947 14.703L6.23544 9.46722C6.07292 9.29902 5.99454 9.09808 6.0003 8.86438C6.00604 8.63068 6.09018 8.42973 6.25272 8.26154C6.41524 8.09334 6.61228 8.00925 6.84383 8.00925C7.07539 8.00925 7.27243 8.09334 7.43495 8.26154L12.0045 12.9906L16.5912 8.24369C16.7537 8.07549 16.9479 7.99436 17.1737 8.0003C17.3995 8.00626 17.5937 8.09334 17.7562 8.26154C17.9187 8.42973 18 8.63366 18 8.87332C18 9.11296 17.9187 9.31687 17.7562 9.48507L12.7142 14.703C12.6092 14.8117 12.4985 14.8883 12.382 14.933C12.2655 14.9777 12.1397 15 12.0045 15Z" fill="black"/>
</g>
</svg>
