<svg width="122" height="127" viewBox="0 0 122 127" fill="none" xmlns="http://www.w3.org/2000/svg">
<path d="M11.817 127L0 126.676C0 126.676 5.61355 94.9738 23.7863 89.6457C27.1925 88.6562 30.9221 87.6476 34.6709 87.0958C36.8973 86.7533 40.4176 86.2395 42.1493 85.5925C42.5489 82.605 41.293 78.7991 39.8848 74.4796C38.7811 71.1305 37.6394 67.6862 37.0305 63.9185C35.8507 56.5733 37.8106 50.0844 42.5489 45.6126C48.3337 40.1893 57.6769 38.4576 68.219 40.8553C74.2322 42.2254 78.6659 45.1749 82.5669 47.7628C88.1424 51.4735 91.3963 53.3574 98.2087 48.7714C106.448 43.2149 95.6779 21.4647 89.9502 8.90558L111.32 0C114.193 6.27957 128.065 38.5908 118.912 57.03C115.83 63.2334 110.521 67.3437 103.556 68.885C88.4088 72.2722 79.5413 66.3732 73.0714 62.0726C70.0077 60.0365 67.3247 58.4381 64.4132 57.6008C44.1854 51.835 72.4244 81.5964 59.1993 94.9738C51.2642 102.985 31.8736 105.097 30.6177 105.402C18.1347 108.408 11.817 127 11.817 127Z" fill="#F48FB1"/>
</svg>
