<svg width="45" height="45" viewBox="0 0 45 45" fill="none" xmlns="http://www.w3.org/2000/svg">
<path d="M4.71918 44.5615C4.33333 44.5615 3.95254 44.3848 3.70608 44.0514C-1.00091 37.6808 -1.25141 28.2568 3.11013 21.6438C4.77677 19.1165 6.96561 17.1378 9.40496 15.8913C11.1292 9.70659 15.6069 4.35516 21.5603 1.75218C29.1541 -1.56696 38.4095 -0.0811201 44.5821 5.45111C45.1013 5.91473 45.1437 6.70967 44.6811 7.22785C44.2165 7.74501 43.4215 7.78944 42.9044 7.32481C37.5337 2.51378 29.1713 1.17038 22.5674 4.0582C17.9806 6.06221 14.3139 10.0753 12.4625 14.754C12.7857 14.6762 13.113 14.6115 13.4392 14.559C18.0321 13.8328 22.7734 15.8954 24.9592 19.5913C26.7511 22.6255 26.7006 26.5719 24.8289 29.4113C22.8492 32.4153 18.9805 33.894 15.6291 32.9274C10.715 31.5123 8.55851 25.8346 8.63427 21.1599C8.64639 20.5175 8.6868 19.8781 8.75649 19.2438C7.41611 20.2347 6.20803 21.5155 5.20906 23.0286C1.40811 28.7921 1.6263 37.0031 5.72926 42.5545C6.14239 43.1141 6.0232 43.9009 5.46463 44.3151C5.23938 44.4817 4.97877 44.5615 4.71918 44.5615ZM11.5706 17.6701C11.314 18.8317 11.1706 20.0145 11.1514 21.2013C11.0898 24.9498 12.6837 29.4618 16.325 30.5113C18.6139 31.1698 21.3623 30.1032 22.729 28.0285C24.0602 26.0063 24.0875 23.0629 22.7926 20.8731C21.1219 18.0448 17.4392 16.4772 13.8352 17.0448C13.0675 17.1681 12.3079 17.3792 11.5706 17.6701Z" fill="#FDBC2C"/>
</svg>
