<svg width="23" height="23" viewBox="0 0 23 23" fill="none" xmlns="http://www.w3.org/2000/svg">
<mask id="mask0_1_20835" style="mask-type:alpha" maskUnits="userSpaceOnUse" x="-7" y="-8" width="37" height="38">
<rect x="-6.9" y="-7.21146" width="36.8" height="36.8" fill="#D9D9D9"/>
</mask>
<g mask="url(#mask0_1_20835)">
<path d="M11.5 16.7309C11.1736 16.7309 10.9004 16.6208 10.6802 16.4007C10.4601 16.1805 10.35 15.9073 10.35 15.581V3.85093L7.40128 6.79964C7.17325 7.02767 6.90639 7.14414 6.60069 7.14905C6.29502 7.15396 6.01539 7.02962 5.76181 6.77603C5.52396 6.53818 5.40897 6.26494 5.41684 5.95631C5.42469 5.6477 5.53968 5.38233 5.76181 5.1602L10.5299 0.392149C10.6734 0.248655 10.8247 0.147415 10.984 0.0884329C11.1432 0.0294763 11.3152 0 11.5 0C11.6848 0 11.8568 0.0294763 12.016 0.0884329C12.1752 0.147415 12.3266 0.248655 12.4701 0.392149L17.2381 5.1602C17.4661 5.38821 17.5787 5.65898 17.5757 5.97252C17.5728 6.28607 17.4602 6.5539 17.2381 6.77603C17.0002 7.0139 16.727 7.13677 16.4184 7.14464C16.1098 7.15249 15.8365 7.03749 15.5986 6.79964L12.6499 3.85093V15.581C12.6499 15.9073 12.5398 16.1805 12.3197 16.4007C12.0995 16.6208 11.8263 16.7309 11.5 16.7309ZM2.77181 22.6874C1.99727 22.6874 1.34167 22.419 0.805 21.8824C0.268333 21.3457 0 20.6901 0 19.9155V16.9374C0 16.611 0.110093 16.3378 0.33028 16.1176C0.550441 15.8975 0.823681 15.7874 1.15 15.7874C1.47632 15.7874 1.74956 15.8975 1.96972 16.1176C2.18988 16.3378 2.29996 16.611 2.29996 16.9374V19.9155C2.29996 20.0335 2.3491 20.1416 2.44739 20.24C2.5457 20.3382 2.65384 20.3874 2.77181 20.3874H20.2281C20.3461 20.3874 20.4542 20.3382 20.5525 20.24C20.6508 20.1416 20.7 20.0335 20.7 19.9155V16.9374C20.7 16.611 20.81 16.3378 21.0302 16.1176C21.2504 15.8975 21.5236 15.7874 21.8499 15.7874C22.1762 15.7874 22.4495 15.8975 22.6696 16.1176C22.8898 16.3378 22.9999 16.611 22.9999 16.9374V19.9155C22.9999 20.6901 22.7316 21.3457 22.1949 21.8824C21.6583 22.419 21.0026 22.6874 20.2281 22.6874H2.77181Z" fill="#1C1B1F"/>
</g>
</svg>
