<svg width="28" height="28" viewBox="0 0 28 28" fill="none" xmlns="http://www.w3.org/2000/svg">
<mask id="mask0_0_448" style="mask-type:alpha" maskUnits="userSpaceOnUse" x="0" y="0" width="28" height="28">
<rect width="28" height="28" fill="#D9D9D9"/>
</mask>
<g mask="url(#mask0_0_448)">
<path d="M8.3461 25.1506C7.77924 25.1506 7.29725 24.952 6.90013 24.5549C6.50302 24.1578 6.30446 23.6758 6.30446 23.1089C6.30446 22.5421 6.50302 22.0601 6.90013 21.663C7.29725 21.2658 7.77924 21.0673 8.3461 21.0673C8.91298 21.0673 9.39498 21.2658 9.7921 21.663C10.1892 22.0601 10.3878 22.5421 10.3878 23.1089C10.3878 23.6758 10.1892 24.1578 9.7921 24.5549C9.39498 24.952 8.91298 25.1506 8.3461 25.1506ZM19.6538 25.1506C19.0869 25.1506 18.6049 24.952 18.2078 24.5549C17.8107 24.1578 17.6121 23.6758 17.6121 23.1089C17.6121 22.5421 17.8107 22.0601 18.2078 21.663C18.6049 21.2658 19.0869 21.0673 19.6538 21.0673C20.2206 21.0673 20.7026 21.2658 21.0998 21.663C21.4969 22.0601 21.6954 22.5421 21.6954 23.1089C21.6954 23.6758 21.4969 24.1578 21.0998 24.5549C20.7026 24.952 20.2206 25.1506 19.6538 25.1506ZM7.01788 6.7083L9.97494 12.9006H18.1416L21.3724 7.0224C21.4172 6.94013 21.421 6.86721 21.3836 6.80365C21.3462 6.74007 21.2826 6.70828 21.1929 6.70828L7.01788 6.7083ZM8.3461 19.3173C7.56834 19.3173 6.98389 18.9819 6.59275 18.311C6.20162 17.6402 6.18779 16.9705 6.55124 16.3019L8.21602 13.309L3.97113 4.37497H2.5958C2.35498 4.37497 2.15381 4.29121 1.99229 4.1237C1.83076 3.95619 1.75 3.74828 1.75 3.49997C1.75 3.25169 1.83376 3.04379 2.00127 2.87627C2.16878 2.70876 2.37668 2.625 2.62494 2.625H4.40857C4.60751 2.625 4.79298 2.67772 4.96498 2.78317C5.13699 2.88862 5.26787 3.03707 5.35763 3.22852L6.17875 4.95833H22.3774C22.9174 4.95833 23.2977 5.15651 23.5183 5.55287C23.7389 5.94924 23.731 6.3688 23.4947 6.81153L19.757 13.5826C19.5655 13.9267 19.3153 14.1907 19.0065 14.3746C18.6976 14.5586 18.3495 14.6506 17.9621 14.6506H9.44994L8.09929 17.1185C8.03946 17.2083 8.03759 17.3055 8.09369 17.4102C8.14979 17.5149 8.23392 17.5673 8.3461 17.5673H20.8496C21.0904 17.5673 21.2916 17.651 21.4531 17.8186C21.6146 17.9861 21.6954 18.194 21.6954 18.4423C21.6954 18.6905 21.6117 18.8984 21.4441 19.066C21.2766 19.2335 21.0687 19.3172 20.8204 19.3172L8.3461 19.3173Z" fill="black"/>
</g>
</svg>
