<svg width="24" height="24" viewBox="0 0 24 24" fill="none" xmlns="http://www.w3.org/2000/svg">
<mask id="mask0_0_387" style="mask-type:alpha" maskUnits="userSpaceOnUse" x="0" y="0" width="24" height="24">
<rect width="24" height="24" fill="#D9D9D9"/>
</mask>
<g mask="url(#mask0_0_387)">
<path d="M22.2468 13.109L3.68723 20.9016C3.28551 21.0615 2.90387 21.0265 2.54232 20.7967C2.18077 20.5669 2 20.2323 2 19.7927V4.20733C2 3.76774 2.18077 3.43305 2.54232 3.20327C2.90387 2.97349 3.28551 2.93852 3.68723 3.09837L22.2468 10.891C22.7489 11.1108 23 11.4805 23 12C23 12.5195 22.7489 12.8892 22.2468 13.109ZM4.41033 17.9944L18.6915 12L4.41033 6.00564V10.2017L11.6413 12L4.41033 13.7983V17.9944Z" fill="black"/>
</g>
</svg>
