<svg width="28" height="28" viewBox="0 0 28 28" fill="none" xmlns="http://www.w3.org/2000/svg">
<mask id="mask0_1_23355" style="mask-type:alpha" maskUnits="userSpaceOnUse" x="0" y="0" width="28" height="28">
<rect width="28" height="28" fill="#D9D9D9"/>
</mask>
<g mask="url(#mask0_1_23355)">
<circle cx="14.0003" cy="14.0003" r="9.33333" fill="white"/>
<path d="M13.9997 15.633L17.383 19.0163C17.5969 19.2302 17.8691 19.3372 18.1997 19.3372C18.5302 19.3372 18.8025 19.2302 19.0163 19.0163C19.2302 18.8025 19.3372 18.5302 19.3372 18.1997C19.3372 17.8691 19.2302 17.5969 19.0163 17.383L15.633 13.9997L19.0163 10.6163C19.2302 10.4025 19.3372 10.1302 19.3372 9.79967C19.3372 9.46912 19.2302 9.1969 19.0163 8.98301C18.8025 8.76912 18.5302 8.66217 18.1997 8.66217C17.8691 8.66217 17.5969 8.76912 17.383 8.98301L13.9997 12.3663L10.6163 8.98301C10.4025 8.76912 10.1302 8.66217 9.79967 8.66217C9.46912 8.66217 9.1969 8.76912 8.98301 8.98301C8.76912 9.1969 8.66217 9.46912 8.66217 9.79967C8.66217 10.1302 8.76912 10.4025 8.98301 10.6163L12.3663 13.9997L8.98301 17.383C8.76912 17.5969 8.66217 17.8691 8.66217 18.1997C8.66217 18.5302 8.76912 18.8025 8.98301 19.0163C9.1969 19.2302 9.46912 19.3372 9.79967 19.3372C10.1302 19.3372 10.4025 19.2302 10.6163 19.0163L13.9997 15.633ZM13.9997 25.6663C12.3858 25.6663 10.8691 25.3601 9.44967 24.7476C8.03023 24.1351 6.79551 23.3038 5.74551 22.2538C4.69551 21.2038 3.86426 19.9691 3.25176 18.5497C2.63926 17.1302 2.33301 15.6136 2.33301 13.9997C2.33301 12.3858 2.63926 10.8691 3.25176 9.44967C3.86426 8.03023 4.69551 6.79551 5.74551 5.74551C6.79551 4.69551 8.03023 3.86426 9.44967 3.25176C10.8691 2.63926 12.3858 2.33301 13.9997 2.33301C15.6136 2.33301 17.1302 2.63926 18.5497 3.25176C19.9691 3.86426 21.2038 4.69551 22.2538 5.74551C23.3038 6.79551 24.1351 8.03023 24.7476 9.44967C25.3601 10.8691 25.6663 12.3858 25.6663 13.9997C25.6663 15.6136 25.3601 17.1302 24.7476 18.5497C24.1351 19.9691 23.3038 21.2038 22.2538 22.2538C21.2038 23.3038 19.9691 24.1351 18.5497 24.7476C17.1302 25.3601 15.6136 25.6663 13.9997 25.6663Z" fill="black"/>
</g>
</svg>
