<svg width="28" height="28" viewBox="0 0 28 28" fill="none" xmlns="http://www.w3.org/2000/svg">
<mask id="mask0_0_455" style="mask-type:alpha" maskUnits="userSpaceOnUse" x="0" y="0" width="28" height="28">
<rect width="28" height="28" fill="#D9D9D9"/>
</mask>
<g mask="url(#mask0_0_455)">
<path d="M2.75699 25.5793C2.2947 25.7559 1.88488 25.6643 1.52752 25.3045C1.17016 24.9448 1.07919 24.5322 1.2546 24.0667L4.8126 14.0578C5.08635 13.2475 5.63838 12.7474 6.46869 12.5576C7.29897 12.3678 8.01819 12.5791 8.62636 13.1914L13.5589 18.1574C14.1671 18.7697 14.3769 19.4938 14.1884 20.3298C13.9999 21.1657 13.5032 21.7215 12.6983 21.9971L2.75699 25.5793ZM3.6077 23.2102L12.0319 20.2023C12.1713 20.1528 12.2573 20.0579 12.2901 19.9176C12.3229 19.7773 12.286 19.6535 12.1795 19.5462L7.24693 14.5802C7.14038 14.4729 7.01742 14.4357 6.87807 14.4687C6.73872 14.5018 6.64446 14.5884 6.59527 14.7287L3.6077 23.2102Z" fill="black"/>
<path d="M14.2115 14.9513C14.0525 14.7912 13.973 14.6113 13.973 14.4116C13.973 14.2119 14.0525 14.032 14.2115 13.872L20.6883 7.3511C21.3292 6.70578 22.1046 6.38312 23.0144 6.38312C23.9242 6.38312 24.6996 6.70578 25.3405 7.3511L25.4561 7.46747C25.5938 7.6061 25.6647 7.77525 25.6688 7.97494C25.6729 8.17465 25.5954 8.35454 25.4364 8.51462C25.2856 8.67472 25.109 8.7527 24.9066 8.74856C24.7041 8.74444 24.5275 8.66646 24.3767 8.51462L24.2931 8.43046C23.9455 8.08057 23.5234 7.90562 23.0267 7.90562C22.53 7.90562 22.1079 8.08057 21.7603 8.43046L15.2516 14.9835C15.1139 15.1221 14.9459 15.1914 14.7475 15.1914C14.5492 15.1914 14.3705 15.1114 14.2115 14.9513ZM9.53957 10.2476C9.38057 10.0875 9.30107 9.90763 9.30107 9.70795C9.30107 9.50824 9.38057 9.32834 9.53957 9.16826L9.77071 8.93555C10.151 8.55263 10.3412 8.08885 10.3412 7.5442C10.3412 6.99955 10.151 6.53577 9.77071 6.15288L9.46828 5.84836C9.33057 5.70974 9.26172 5.54057 9.26172 5.34086C9.26172 5.14118 9.34123 4.96128 9.50025 4.80118C9.65925 4.6411 9.83792 4.56106 10.0363 4.56106C10.2346 4.56106 10.4133 4.6411 10.5723 4.80118L10.8428 5.07352C11.5247 5.76009 11.8657 6.58365 11.8657 7.5442C11.8657 8.50474 11.5247 9.3283 10.8428 10.0149L10.5797 10.2798C10.442 10.4184 10.274 10.4877 10.0756 10.4877C9.87727 10.4877 9.69859 10.4077 9.53957 10.2476ZM11.8755 12.5995C11.7165 12.4394 11.637 12.2595 11.637 12.0598C11.637 11.8601 11.7165 11.6802 11.8755 11.5201L15.795 7.57394C16.1426 7.22404 16.3163 6.79905 16.3163 6.29896C16.3163 5.79887 16.1426 5.37388 15.795 5.02399L14.4009 3.62031C14.2631 3.48169 14.1943 3.31252 14.1943 3.11281C14.1943 2.91312 14.2738 2.73323 14.4328 2.57313C14.5918 2.41305 14.7705 2.33301 14.9689 2.33301C15.1672 2.33301 15.3459 2.41305 15.5049 2.57313L16.8671 3.94462C17.5163 4.5982 17.8408 5.38298 17.8408 6.29896C17.8408 7.21494 17.5163 7.99972 16.8671 8.6533L12.9156 12.6316C12.7779 12.7703 12.6099 12.8396 12.4116 12.8396C12.2132 12.8396 12.0345 12.7595 11.8755 12.5995ZM16.5475 17.3032C16.3884 17.143 16.3089 16.9632 16.3089 16.7635C16.3089 16.5638 16.3884 16.3839 16.5475 16.2238L17.5408 15.2237C18.231 14.5288 19.0637 14.1814 20.0391 14.1814C21.0145 14.1814 21.8472 14.5288 22.5373 15.2237L23.5627 16.256C23.7004 16.3946 23.7692 16.5638 23.7692 16.7635C23.7692 16.9632 23.6897 17.143 23.5307 17.3032C23.3717 17.4632 23.193 17.5433 22.9947 17.5433C22.7963 17.5433 22.6177 17.4632 22.4587 17.3032L21.4653 16.303C21.0768 15.9119 20.6014 15.7163 20.0391 15.7163C19.4768 15.7163 19.0014 15.9119 18.6129 16.303L17.5875 17.3353C17.4498 17.474 17.2818 17.5433 17.0835 17.5433C16.8851 17.5433 16.7065 17.4632 16.5475 17.3032Z" fill="black"/>
</g>
</svg>
