<svg width="194" height="213" viewBox="0 0 194 213" fill="none" xmlns="http://www.w3.org/2000/svg">
<mask id="mask0_1_11953" style="mask-type:luminance" maskUnits="userSpaceOnUse" x="-12" y="-11" width="253" height="256">
<path d="M-11.7295 56.1357L171.296 -10.4116L240.563 177.959L57.5373 244.506L-11.7295 56.1357Z" fill="white"/>
</mask>
<g mask="url(#mask0_1_11953)">
<path d="M0.018681 77.2442C0.147525 61.3345 8.66372 48.72 22.7314 43.6055C27.3041 41.9435 31.8422 41.2841 36.1156 41.5156C45.0075 41.851 60.4839 46.5351 75.9459 60.9403C90.3648 74.1379 104.35 92.6495 106.321 95.3032C106.106 92.0105 104.961 68.8315 107.243 49.5611C109.889 28.5718 118.674 15.0661 125.078 9.16893C128.192 6.25234 132.089 3.84361 136.661 2.18156C150.902 -2.9965 165.593 1.1797 176.013 13.2541C178.465 16.1298 185.42 23.1187 190.338 43.5388C197.095 72.2132 193.333 95.5906 188.4 125.541C183.498 154.489 168.835 189.96 163.174 198.958C159.778 204.357 154.349 209.107 150.193 210.816L150.017 210.88L149.138 211.2L148.259 211.519L148.084 211.583C143.864 213.118 136.57 212.795 130.47 210.849C120.485 207.539 86.0945 189.904 63.571 170.929C40.2595 151.446 22.3312 135.756 8.89583 109.511C-0.769074 90.8167 0.0121947 81.0148 0.018681 77.2442Z" fill="#FFF9CD"/>
</g>
</svg>
