<svg width="24" height="24" viewBox="0 0 24 24" fill="none" xmlns="http://www.w3.org/2000/svg">
<mask id="mask0_1_14483" style="mask-type:alpha" maskUnits="userSpaceOnUse" x="0" y="0" width="24" height="24">
<rect width="24" height="24" fill="#D9D9D9"/>
</mask>
<g mask="url(#mask0_1_14483)">
<path d="M11.3567 14.25L5.42212 13.5289C5.03751 13.4853 4.78911 13.2795 4.67695 12.9116C4.56476 12.5436 4.64906 12.2308 4.92982 11.9731L14.9336 2.68278C14.9977 2.61868 15.0737 2.5706 15.1615 2.53855C15.2494 2.5065 15.3708 2.49048 15.5259 2.49048C15.7823 2.49048 15.9804 2.60009 16.1202 2.8193C16.2599 3.03854 16.2625 3.2661 16.1278 3.502L12.6163 9.75968L18.5701 10.4808C18.9548 10.5244 19.2048 10.7286 19.3201 11.0933C19.4355 11.4581 19.3528 11.7693 19.0721 12.027L9.06825 21.327C9.00415 21.3911 8.92819 21.4375 8.84037 21.4664C8.75254 21.4952 8.63106 21.5096 8.47595 21.5096C8.21955 21.5096 8.02468 21.4 7.89135 21.1808C7.75801 20.9616 7.75545 20.7372 7.88365 20.5077L11.3567 14.25ZM11.5316 16.9213L17.1337 11.8116L10.2356 10.9904L12.4741 7.07498L6.86822 12.1943L13.7413 13.0289L11.5316 16.9213Z" fill="black"/>
</g>
</svg>
