<svg width="16" height="16" viewBox="0 0 16 16" fill="none" xmlns="http://www.w3.org/2000/svg">
<mask id="mask0_0_457" style="mask-type:alpha" maskUnits="userSpaceOnUse" x="0" y="0" width="16" height="16">
<rect width="16" height="16" fill="#D9D9D9"/>
</mask>
<g mask="url(#mask0_0_457)">
<path d="M5.831 12.0859C5.74085 11.9928 5.69577 11.882 5.69577 11.7534C5.69577 11.6249 5.74085 11.514 5.831 11.4209L9.24138 7.89816L5.81966 4.36371C5.73416 4.2754 5.69141 4.16726 5.69141 4.03929C5.69141 3.91132 5.73794 3.79928 5.831 3.70316C5.92115 3.61004 6.02846 3.56348 6.15292 3.56348C6.27739 3.56348 6.3847 3.61004 6.47485 3.70316L10.242 7.60168C10.2845 7.64553 10.3145 7.69179 10.3319 7.74046C10.3494 7.78911 10.3581 7.84168 10.3581 7.89816C10.3581 7.95463 10.3494 8.0072 10.3319 8.05586C10.3145 8.10452 10.2845 8.15078 10.242 8.19464L6.46351 12.0977C6.37801 12.186 6.27448 12.2301 6.15292 12.2301C6.03136 12.2301 5.92406 12.1821 5.831 12.0859Z" fill="black"/>
</g>
</svg>
