<svg width="154" height="153" viewBox="0 0 154 153" fill="none" xmlns="http://www.w3.org/2000/svg">
<path d="M77.0001 152.381C119.526 152.381 154 146.658 154 139.597C154 132.536 119.526 126.812 77.0001 126.812C34.4741 126.812 0 132.536 0 139.597C0 146.658 34.4741 152.381 77.0001 152.381Z" fill="#E6E5E5"/>
<path d="M74.1467 0C79.5116 4.12327 81.4915 11.3893 75.0927 11.3893C70.0201 11.3893 75.4573 3.9567 74.1467 0Z" fill="white"/>
<path d="M75.1147 5.2102C77.6698 7.17441 78.6096 10.6314 75.5641 10.6314C73.1473 10.6346 75.737 7.09584 75.1147 5.2102Z" fill="#ED6D17"/>
<path d="M75.6869 8.59243C75.6869 11.0092 76.6486 13.5642 75.4355 16.4273" stroke="#533E13" stroke-width="0.1633" stroke-miterlimit="10"/>
<path d="M78.6883 14.1105H72.2517V46.3393H78.6883V14.1105Z" fill="#5ABBA3"/>
<path d="M78.6883 15.8857L72.2517 17.9725V16.9668L78.6883 14.8769V15.8857Z" fill="white"/>
<path d="M78.6883 19.8113L72.2517 21.9012V20.8924L78.6883 18.8056V19.8113Z" fill="white"/>
<path d="M78.6883 23.737L72.2517 25.8269V24.8212L78.6883 22.7313V23.737Z" fill="white"/>
<path d="M78.6883 27.6649L72.2517 29.7548V28.746L78.6883 26.6561V27.6649Z" fill="white"/>
<path d="M78.6883 31.5904L72.2517 33.6803V32.6715L78.6883 30.5847V31.5904Z" fill="white"/>
<path d="M78.6883 35.5162L72.2517 37.6092V36.6004L78.6883 34.5105V35.5162Z" fill="white"/>
<path d="M78.6883 39.4441L72.2517 41.534V40.5252L78.6883 38.4352V39.4441Z" fill="white"/>
<path d="M78.6883 43.3727L72.2517 45.4595V44.4507L78.6883 42.3639V43.3727Z" fill="white"/>
<path d="M63.2535 11.3891C67.1726 14.3999 68.6215 19.7079 63.9449 19.7079C60.2395 19.7079 64.212 14.2804 63.2535 11.3891Z" fill="white"/>
<path d="M63.9603 15.1946C65.8272 16.6309 66.5155 19.1545 64.2903 19.1545C62.5272 19.1545 64.416 16.5711 63.9603 15.1946Z" fill="#ED6D17"/>
<path d="M64.3782 17.6648C64.3782 19.431 65.0791 21.2978 64.1959 23.3877" stroke="#533E13" stroke-width="0.1193" stroke-miterlimit="10"/>
<path d="M66.5721 21.6971H61.8704V45.2393H66.5721V21.6971Z" fill="#EE777B"/>
<path d="M66.5721 22.9948L61.8704 24.519V23.7836L66.5721 22.2563V22.9948Z" fill="white"/>
<path d="M66.5721 25.8617L61.8704 27.389V26.6536L66.5721 25.1263V25.8617Z" fill="white"/>
<path d="M66.5721 28.7307L61.8704 30.2549V29.5195L66.5721 27.9953V28.7307Z" fill="white"/>
<path d="M66.5721 31.5966L61.8704 33.1239V32.3885L66.5721 30.8643V31.5966Z" fill="white"/>
<path d="M66.5721 34.4658L61.8704 35.9932V35.2546L66.5721 33.7304V34.4658Z" fill="white"/>
<path d="M66.5721 37.3358L61.8704 38.8601V38.1278L66.5721 36.6004V37.3358Z" fill="white"/>
<path d="M66.5721 40.2051L61.8704 41.7293V40.9939L66.5721 39.4665V40.2051Z" fill="white"/>
<path d="M66.5721 43.071L61.8704 44.5983V43.8629L66.5721 42.3356V43.071Z" fill="white"/>
<path d="M88.0948 11.3891C84.1757 14.3999 82.7268 19.7079 87.4034 19.7079C91.1088 19.7079 87.1394 14.2804 88.0948 11.3891Z" fill="white"/>
<path d="M87.3875 15.1946C85.5238 16.6309 84.8324 19.1545 87.0607 19.1545C88.8238 19.1545 86.935 16.5711 87.3875 15.1946Z" fill="#ED6D17"/>
<path d="M86.9701 17.6648C86.9701 19.431 86.2692 21.2978 87.1524 23.3877" stroke="#533E13" stroke-width="0.1193" stroke-miterlimit="10"/>
<path d="M89.4804 21.6971H84.7786V45.2393H89.4804V21.6971Z" fill="#EE777B"/>
<path d="M84.7786 22.9948L89.4804 24.519V23.7836L84.7786 22.2563V22.9948Z" fill="white"/>
<path d="M84.7786 25.8617L89.4804 27.389V26.6536L84.7786 25.1263V25.8617Z" fill="white"/>
<path d="M84.7786 28.7307L89.4804 30.2549V29.5195L84.7786 27.9953V28.7307Z" fill="white"/>
<path d="M84.7786 31.5966L89.4804 33.1239V32.3885L84.7786 30.8643V31.5966Z" fill="white"/>
<path d="M84.7786 34.4658L89.4804 35.9932V35.2546L84.7786 33.7304V34.4658Z" fill="white"/>
<path d="M84.7786 37.3358L89.4804 38.8601V38.1278L84.7786 36.6004V37.3358Z" fill="white"/>
<path d="M84.7786 40.2051L89.4804 41.7293V40.9939L84.7786 39.4665V40.2051Z" fill="white"/>
<path d="M84.7786 43.071L89.4804 44.5983V43.8629L84.7786 42.3356V43.071Z" fill="white"/>
<path d="M13.0333 86.3251V135.242C13.0333 138.853 40.7942 141.785 75.042 141.785C109.29 141.785 137.051 138.856 137.051 135.242V86.3251H13.0333Z" fill="#60388D"/>
<path d="M123.094 45.2398H26.9914V82.2455H123.094V45.2398Z" fill="#60388D"/>
<path d="M123.094 61.8518H26.9914V65.6325H123.094V61.8518Z" fill="#FFDB7F"/>
<path d="M123.094 73.194H26.9914V76.9747H123.094V73.194Z" fill="#FFDB7F"/>
<path d="M137.051 111.988H13.0333V115.769H137.051V111.988Z" fill="#FFDB7F"/>
<path d="M137.051 123.032H13.0333V126.813H137.051V123.032Z" fill="#FFDB7F"/>
<path d="M15.1142 82.2488H134.323C135.97 82.2488 137.412 83.3173 137.878 84.8981C139.122 89.1283 141.121 97.092 139.059 98.6099C136.224 100.7 128.644 98.0473 123.838 100.005C120.039 101.555 109.51 118.195 94.1415 114.415C80.5612 111.074 78.3235 100.901 67.578 101.944C59.8309 102.699 49.5223 116.718 36.3914 112.837C23.2574 108.959 21.7991 98.5502 15.2023 100.75C5.99996 103.817 9.66767 90.4671 11.61 84.741C12.1191 83.2451 13.5334 82.2488 15.1142 82.2488Z" fill="#FAB400"/>
<path d="M31.7487 40.2681H119.004C121.622 40.2681 123.976 41.8426 124.988 44.2594C126.286 47.355 127.502 51.3022 125.877 52.4053C123.093 54.2941 115.93 50.5134 112.149 52.4053C108.369 54.2941 103.793 60.1648 98.6194 59.9636C93.4463 59.7656 87.478 53.3984 81.3085 54.1936C75.1422 54.9887 70.5662 62.9492 60.4179 61.8555C50.2696 60.7619 45.4956 50.4191 39.9233 51.1137C34.3542 51.8082 32.1636 54.9918 26.9905 54.2941C23.9293 53.8824 24.4919 49.0426 25.463 45.1645C26.1827 42.2794 28.7756 40.2681 31.7487 40.2681Z" fill="#FAB400"/>
<path d="M103.975 93.0025L105.94 96.0133" stroke="#E94290" stroke-width="0.5" stroke-miterlimit="10"/>
<path d="M97.6614 108.374L101.244 108.079" stroke="#E94290" stroke-width="0.5" stroke-miterlimit="10"/>
<path d="M57.5742 53.9605L61.157 53.6651" stroke="#E94290" stroke-width="0.5" stroke-miterlimit="10"/>
<path d="M87.2899 48.8038L88.085 52.308" stroke="#E94290" stroke-width="0.5" stroke-miterlimit="10"/>
<path d="M117.842 45.4284L114.74 47.2481" stroke="#E94290" stroke-width="0.5" stroke-miterlimit="10"/>
<path d="M127.449 90.3972L123.901 89.8158" stroke="#E94290" stroke-width="0.5" stroke-miterlimit="10"/>
<path d="M73.2693 89.7943L76.8113 90.4197" stroke="#E94290" stroke-width="0.5" stroke-miterlimit="10"/>
<path d="M55.9021 91.5196L55.6758 95.1087" stroke="#E94290" stroke-width="0.5" stroke-miterlimit="10"/>
<path d="M32.1136 97.1101L34.9673 99.2943" stroke="#E94290" stroke-width="0.5" stroke-miterlimit="10"/>
<path d="M22.4176 88.2068C23.1362 88.2068 23.7187 87.6243 23.7187 86.9057C23.7187 86.1872 23.1362 85.6046 22.4176 85.6046C21.699 85.6046 21.1165 86.1872 21.1165 86.9057C21.1165 87.6243 21.699 88.2068 22.4176 88.2068Z" fill="white"/>
<path d="M46.4833 104.675C47.2019 104.675 47.7844 104.093 47.7844 103.374C47.7844 102.655 47.2019 102.073 46.4833 102.073C45.7647 102.073 45.1821 102.655 45.1821 103.374C45.1821 104.093 45.7647 104.675 46.4833 104.675Z" fill="white"/>
<path d="M61.1569 47.6406C61.8755 47.6406 62.458 47.0581 62.458 46.3395C62.458 45.6209 61.8755 45.0384 61.1569 45.0384C60.4383 45.0384 59.8557 45.6209 59.8557 46.3395C59.8557 47.0581 60.4383 47.6406 61.1569 47.6406Z" fill="white"/>
<path d="M97.6615 54.9095C98.3801 54.9095 98.9626 54.3269 98.9626 53.6084C98.9626 52.8898 98.3801 52.3073 97.6615 52.3073C96.9429 52.3073 96.3603 52.8898 96.3603 53.6084C96.3603 54.3269 96.9429 54.9095 97.6615 54.9095Z" fill="white"/>
<path d="M32.1136 47.6406C32.8323 47.6406 33.4148 47.0581 33.4148 46.3395C33.4148 45.6209 32.8323 45.0384 32.1136 45.0384C31.395 45.0384 30.8125 45.6209 30.8125 46.3395C30.8125 47.0581 31.395 47.6406 32.1136 47.6406Z" fill="white"/>
<path d="M77.0006 49.8498C77.7192 49.8498 78.3017 49.2673 78.3017 48.5487C78.3017 47.8301 77.7192 47.2476 77.0006 47.2476C76.282 47.2476 75.6994 47.8301 75.6994 48.5487C75.6994 49.2673 76.282 49.8498 77.0006 49.8498Z" fill="white"/>
<path d="M65.1735 91.721C65.8921 91.721 66.4746 91.1385 66.4746 90.4199C66.4746 89.7014 65.8921 89.1188 65.1735 89.1188C64.4549 89.1188 63.8724 89.7014 63.8724 90.4199C63.8724 91.1385 64.4549 91.721 65.1735 91.721Z" fill="white"/>
<path d="M42.0453 91.4092C42.7639 91.4092 43.3464 90.8267 43.3464 90.1081C43.3464 89.3895 42.7639 88.807 42.0453 88.807C41.3267 88.807 40.7441 89.3895 40.7441 90.1081C40.7441 90.8267 41.3267 91.4092 42.0453 91.4092Z" fill="white"/>
<path d="M91.8218 93.3144C92.5404 93.3144 93.1229 92.7319 93.1229 92.0133C93.1229 91.2947 92.5404 90.7122 91.8218 90.7122C91.1032 90.7122 90.5206 91.2947 90.5206 92.0133C90.5206 92.7319 91.1032 93.3144 91.8218 93.3144Z" fill="white"/>
<path d="M114.577 97.1101C115.295 97.1101 115.878 96.5276 115.878 95.809C115.878 95.0905 115.295 94.5079 114.577 94.5079C113.858 94.5079 113.275 95.0905 113.275 95.809C113.275 96.5276 113.858 97.1101 114.577 97.1101Z" fill="white"/>
<path d="M92.5921 104.465C93.3107 104.465 93.8932 103.882 93.8932 103.164C93.8932 102.445 93.3107 101.863 92.5921 101.863C91.8734 101.863 91.2909 102.445 91.2909 103.164C91.2909 103.882 91.8734 104.465 92.5921 104.465Z" fill="white"/>
</svg>
