<svg width="41" height="57" viewBox="0 0 41 57" fill="none" xmlns="http://www.w3.org/2000/svg">
<path d="M1.24947 56.7822C1.24144 56.7822 1.23241 56.7822 1.22439 56.7822C0.533081 56.7671 -0.0147474 56.1962 0.000302818 55.5069C0.118698 49.8571 0.240102 44.0156 1.80532 38.3818C3.58927 31.9624 7.12406 26.8614 11.7595 24.021C15.1689 21.931 19.0579 21.0772 22.8625 20.7601C22.5615 16.8099 23.4405 12.7474 25.4421 9.35506C28.399 4.34134 33.8191 0.761388 39.5893 0.0118891C40.2686 -0.0834287 40.8997 0.405206 40.989 1.08949C41.0783 1.77377 40.5957 2.40185 39.9114 2.48914C34.8886 3.14232 30.1699 6.25974 27.5953 10.6233C25.8415 13.5962 25.0779 17.1601 25.3549 20.6186C26.3803 20.5885 27.3876 20.5845 28.3659 20.5945C30.6625 20.6196 33.0896 20.734 35.287 21.7955C37.4933 22.8601 39.6204 25.233 39.3987 28.1367C39.2753 29.7511 38.4014 31.2069 36.9385 32.2313C35.2238 33.4363 32.9542 33.8477 31.0027 33.3029C28.0669 32.4872 25.5555 29.9176 24.1107 26.2564C23.7264 25.2802 23.4274 24.2688 23.2127 23.2373C19.6829 23.5203 16.113 24.2818 13.0649 26.15C8.97222 28.6594 5.82874 33.2407 4.21436 39.0501C2.73442 44.3819 2.61402 50.0648 2.49964 55.5581C2.48459 56.2404 1.92773 56.7822 1.24947 56.7822ZM25.7411 23.1079C25.9187 23.8685 26.1495 24.6139 26.4365 25.3383C26.9823 26.724 28.5856 30.036 31.6739 30.8949C32.902 31.241 34.402 30.9581 35.5047 30.1845C35.9903 29.8434 36.8191 29.1009 36.9064 27.945C37.0378 26.2263 35.596 24.7193 34.2014 24.045C32.4666 23.2082 30.3535 23.1149 28.3388 23.0929C27.494 23.0818 26.6231 23.0848 25.7411 23.1079Z" fill="#ED7279"/>
</svg>
