<svg width="28" height="28" viewBox="0 0 28 28" fill="none" xmlns="http://www.w3.org/2000/svg">
<mask id="mask0_0_470" style="mask-type:alpha" maskUnits="userSpaceOnUse" x="0" y="0" width="28" height="28">
<rect width="28" height="28" fill="#D9D9D9"/>
</mask>
<g mask="url(#mask0_0_470)">
<path d="M18.6653 15.7496C19.1709 15.7496 19.5889 15.5844 19.9195 15.2538C20.2501 14.9233 20.4153 14.5052 20.4153 13.9996C20.4153 13.4941 20.2501 13.076 19.9195 12.7455C19.5889 12.4149 19.1709 12.2496 18.6653 12.2496C18.1598 12.2496 17.7417 12.4149 17.4112 12.7455C17.0806 13.076 16.9153 13.4941 16.9153 13.9996C16.9153 14.5052 17.0806 14.9233 17.4112 15.2538C17.7417 15.5844 18.1598 15.7496 18.6653 15.7496ZM6.19101 23.9163C5.60169 23.9163 5.10286 23.7121 4.69453 23.3038C4.2862 22.8955 4.08203 22.3966 4.08203 21.8073V6.19199C4.08203 5.60267 4.2862 5.10384 4.69453 4.69551C5.10286 4.28717 5.60169 4.08301 6.19101 4.08301H21.8063C22.3956 4.08301 22.8945 4.28717 23.3028 4.69551C23.7111 5.10384 23.9153 5.60267 23.9153 6.19199V9.36667H22.1653V6.19199C22.1653 6.08728 22.1317 6.00127 22.0644 5.93395C21.997 5.86664 21.911 5.83298 21.8063 5.83298H6.19101C6.08631 5.83298 6.00029 5.86664 5.93298 5.93395C5.86566 6.00127 5.832 6.08728 5.832 6.19199V21.8073C5.832 21.912 5.86566 21.998 5.93298 22.0653C6.00029 22.1327 6.08631 22.1663 6.19101 22.1663H21.8063C21.911 22.1663 21.997 22.1327 22.0644 22.0653C22.1317 21.998 22.1653 21.912 22.1653 21.8073V18.6326H23.9153V21.8073C23.9153 22.3966 23.7111 22.8955 23.3028 23.3038C22.8945 23.7121 22.3956 23.9163 21.8063 23.9163H6.19101ZM15.5243 19.2496C14.935 19.2496 14.4362 19.0455 14.0279 18.6371C13.6195 18.2288 13.4154 17.73 13.4154 17.1406V10.8587C13.4154 10.2693 13.6195 9.77051 14.0279 9.36218C14.4362 8.95384 14.935 8.74968 15.5243 8.74968H22.973C23.5623 8.74968 24.0611 8.95384 24.4695 9.36218C24.8778 9.77051 25.082 10.2693 25.082 10.8587V17.1406C25.082 17.73 24.8778 18.2288 24.4695 18.6371C24.0611 19.0455 23.5623 19.2496 22.973 19.2496H15.5243ZM22.973 17.4996C23.0777 17.4996 23.1637 17.466 23.231 17.3987C23.2983 17.3314 23.332 17.2453 23.332 17.1406V10.8587C23.332 10.754 23.2983 10.6679 23.231 10.6006C23.1637 10.5333 23.0777 10.4996 22.973 10.4996H15.5243C15.4196 10.4996 15.3336 10.5333 15.2663 10.6006C15.199 10.6679 15.1653 10.754 15.1653 10.8587V17.1406C15.1653 17.2453 15.199 17.3314 15.2663 17.3987C15.3336 17.466 15.4196 17.4996 15.5243 17.4996H22.973Z" fill="black"/>
</g>
</svg>
