<svg width="24" height="24" viewBox="0 0 24 24" fill="none" xmlns="http://www.w3.org/2000/svg">
<path d="M17.0779 10.984C17.5092 10.984 17.8589 10.6343 17.8589 10.203C17.8589 9.77166 17.5092 9.422 17.0779 9.422C16.6465 9.422 16.2969 9.77166 16.2969 10.203C16.2969 10.6343 16.6465 10.984 17.0779 10.984Z" fill="#252525"/>
<path d="M18.875 3.56302H17.859V2.78102C17.859 2.57389 17.7767 2.37524 17.6302 2.22877C17.4838 2.08231 17.2851 2.00002 17.078 2.00002C16.8709 2.00002 16.6722 2.08231 16.5257 2.22877C16.3793 2.37524 16.297 2.57389 16.297 2.78102V3.56202H12.742V2.78102C12.742 2.57389 12.6597 2.37524 12.5133 2.22877C12.3668 2.08231 12.1681 2.00002 11.961 2.00002C11.7539 2.00002 11.5552 2.08231 11.4087 2.22877C11.2623 2.37524 11.18 2.57389 11.18 2.78102V3.56202H7.664V2.78102C7.664 2.57362 7.58161 2.37472 7.43496 2.22807C7.2883 2.08141 7.0894 1.99902 6.882 1.99902C6.6746 1.99902 6.4757 2.08141 6.32904 2.22807C6.18239 2.37472 6.1 2.57362 6.1 2.78102V3.56202H5.125C4.29635 3.56308 3.50196 3.8928 2.91611 4.47884C2.33026 5.06488 2.00079 5.85937 2 6.68802L2 18.875C2.00106 19.7035 2.33064 20.4977 2.91646 21.0836C3.50228 21.6694 4.29652 21.999 5.125 22H11.1C11.3071 22 11.5058 21.9177 11.6523 21.7713C11.7987 21.6248 11.881 21.4262 11.881 21.219C11.881 21.0119 11.7987 20.8132 11.6523 20.6668C11.5058 20.5203 11.3071 20.438 11.1 20.438H5.125C4.71089 20.4375 4.3139 20.2728 4.02108 19.9799C3.72827 19.6871 3.56353 19.2901 3.563 18.876V6.68802C3.56326 6.27374 3.72788 5.87649 4.02073 5.58346C4.31358 5.29043 4.71072 5.12555 5.125 5.12502H6.1V5.90602C6.1 6.11329 6.18234 6.31207 6.3289 6.45863C6.47546 6.60519 6.67423 6.68752 6.8815 6.68752C7.08877 6.68752 7.28754 6.60519 7.4341 6.45863C7.58066 6.31207 7.663 6.11329 7.663 5.90602V5.12502H11.18V5.90602C11.18 6.11329 11.2623 6.31207 11.4089 6.45863C11.5555 6.60519 11.7542 6.68752 11.9615 6.68752C12.1688 6.68752 12.3675 6.60519 12.5141 6.45863C12.6607 6.31207 12.743 6.11329 12.743 5.90602V5.12502H16.3V5.90602C16.3 6.11329 16.3823 6.31207 16.5289 6.45863C16.6755 6.60519 16.8742 6.68752 17.0815 6.68752C17.2888 6.68752 17.4875 6.60519 17.6341 6.45863C17.7807 6.31207 17.863 6.11329 17.863 5.90602V5.12502H18.879C19.2935 5.12529 19.6909 5.29005 19.9839 5.58311C20.277 5.87617 20.4417 6.27357 20.442 6.68802V11.141C20.442 11.3483 20.5243 11.5471 20.6709 11.6936C20.8175 11.8402 21.0162 11.9225 21.2235 11.9225C21.4308 11.9225 21.6295 11.8402 21.7761 11.6936C21.9227 11.5471 22.005 11.3483 22.005 11.141V6.68802C22.0039 5.85868 21.6737 5.06368 21.0868 4.47772C20.4999 3.89175 19.7043 3.56276 18.875 3.56302Z" fill="#252525"/>
<path d="M17.2739 12.547C16.339 12.547 15.4251 12.8242 14.6477 13.3436C13.8704 13.863 13.2645 14.6013 12.9067 15.4651C12.5489 16.3288 12.4553 17.2792 12.6377 18.1962C12.8201 19.1131 13.2703 19.9554 13.9314 20.6165C14.5925 21.2776 15.4347 21.7278 16.3517 21.9102C17.2686 22.0925 18.2191 21.999 19.0828 21.6412C19.9466 21.2834 20.6848 20.6775 21.2042 19.9002C21.7236 19.1228 22.0009 18.2089 22.0009 17.274C21.9996 16.0207 21.5011 14.8192 20.6149 13.933C19.7287 13.0468 18.5271 12.5483 17.2739 12.547ZM17.2739 20.438C16.6481 20.438 16.0364 20.2524 15.5161 19.9048C14.9957 19.5571 14.5902 19.0629 14.3507 18.4848C14.1112 17.9067 14.0486 17.2705 14.1707 16.6567C14.2928 16.043 14.5941 15.4792 15.0366 15.0367C15.4791 14.5942 16.0429 14.2929 16.6566 14.1708C17.2704 14.0487 17.9065 14.1114 18.4847 14.3508C19.0628 14.5903 19.557 14.9959 19.9046 15.5162C20.2523 16.0365 20.4379 16.6482 20.4379 17.274C20.4368 18.1128 20.1031 18.917 19.51 19.5101C18.9168 20.1032 18.1127 20.4369 17.2739 20.438Z" fill="#252525"/>
<path d="M18.2109 16.4907H17.8589V15.6707C17.8589 15.4635 17.7766 15.2649 17.6301 15.1184C17.4837 14.9719 17.285 14.8896 17.0779 14.8896C16.8707 14.8896 16.6721 14.9719 16.5256 15.1184C16.3792 15.2649 16.2969 15.4635 16.2969 15.6707V17.2707C16.2969 17.3732 16.3171 17.4748 16.3563 17.5695C16.3956 17.6643 16.4531 17.7504 16.5256 17.8229C16.5982 17.8954 16.6842 17.953 16.779 17.9922C16.8737 18.0315 16.9753 18.0517 17.0779 18.0517H18.2109C18.418 18.0517 18.6167 17.9694 18.7631 17.8229C18.9096 17.6764 18.9919 17.4778 18.9919 17.2707C18.9919 17.0635 18.9096 16.8649 18.7631 16.7184C18.6167 16.5719 18.418 16.4897 18.2109 16.4897V16.4907Z" fill="#252525"/>
<path d="M13.6794 10.9839C14.1108 10.9839 14.4604 10.6342 14.4604 10.2029C14.4604 9.77154 14.1108 9.42188 13.6794 9.42188C13.2481 9.42188 12.8984 9.77154 12.8984 10.2029C12.8984 10.6342 13.2481 10.9839 13.6794 10.9839Z" fill="#252525"/>
<path d="M10.281 14.3823C10.7123 14.3823 11.062 14.0326 11.062 13.6013C11.062 13.17 10.7123 12.8203 10.281 12.8203C9.84967 12.8203 9.5 13.17 9.5 13.6013C9.5 14.0326 9.84967 14.3823 10.281 14.3823Z" fill="#252525"/>
<path d="M6.88256 10.9839C7.3139 10.9839 7.66356 10.6342 7.66356 10.2029C7.66356 9.77154 7.3139 9.42188 6.88256 9.42188C6.45123 9.42188 6.10156 9.77154 6.10156 10.2029C6.10156 10.6342 6.45123 10.9839 6.88256 10.9839Z" fill="#252525"/>
<path d="M6.88256 14.3823C7.3139 14.3823 7.66356 14.0326 7.66356 13.6013C7.66356 13.17 7.3139 12.8203 6.88256 12.8203C6.45123 12.8203 6.10156 13.17 6.10156 13.6013C6.10156 14.0326 6.45123 14.3823 6.88256 14.3823Z" fill="#252525"/>
<path d="M6.88256 17.7808C7.3139 17.7808 7.66356 17.4311 7.66356 16.9998C7.66356 16.5684 7.3139 16.2188 6.88256 16.2188C6.45123 16.2188 6.10156 16.5684 6.10156 16.9998C6.10156 17.4311 6.45123 17.7808 6.88256 17.7808Z" fill="#252525"/>
<path d="M10.281 17.7808C10.7123 17.7808 11.062 17.4311 11.062 16.9998C11.062 16.5684 10.7123 16.2188 10.281 16.2188C9.84967 16.2188 9.5 16.5684 9.5 16.9998C9.5 17.4311 9.84967 17.7808 10.281 17.7808Z" fill="#252525"/>
<path d="M10.281 10.984C10.7123 10.984 11.062 10.6343 11.062 10.203C11.062 9.77166 10.7123 9.422 10.281 9.422C9.84967 9.422 9.5 9.77166 9.5 10.203C9.5 10.6343 9.84967 10.984 10.281 10.984Z" fill="#252525"/>
</svg>
