<svg width="44" height="34" viewBox="0 0 44 34" fill="none" xmlns="http://www.w3.org/2000/svg">
<path d="M31.021 0.821457C31.3945 0.177574 32.1346 -0.156206 32.7278 0.0720116L43.3284 4.12088C43.9575 4.36075 44.1841 5.13594 43.8359 5.85398C43.4788 6.55837 42.6956 6.95892 42.0688 6.71892L31.4671 2.66816C30.8389 2.42873 30.6119 1.65208 30.9604 0.935493C30.9806 0.894877 30.9999 0.857732 31.021 0.821457Z" fill="#7CDBFF"/>
<path d="M18.4145 16.8485C18.4489 16.7892 18.487 16.7306 18.5302 16.6744C18.9969 16.0558 19.7835 15.8661 20.2888 16.2498C23.7982 18.9266 25.938 23.2897 26.1595 28.2204C26.1901 28.9277 25.6596 29.6436 24.9737 29.8128C24.2877 29.982 23.7046 29.546 23.6729 28.8369C23.4832 24.5763 21.6329 20.8056 18.5999 18.494C18.1405 18.1438 18.0731 17.4391 18.4145 16.8485Z" fill="#7CDBFF"/>
<path d="M5.37382 18.3341C5.57565 17.968 5.91319 17.6848 6.29624 17.6006C6.9194 17.4643 7.42795 17.9071 7.43252 18.5902C7.46984 23.6557 5.38602 29.0867 1.85719 33.1222C1.38261 33.6645 0.670241 33.7514 0.267621 33.3153C-0.137006 32.8793 -0.0767586 32.0857 0.394285 31.5463C3.42263 28.086 5.20862 23.4273 5.17625 19.0811C5.17626 18.819 5.24864 18.5611 5.37382 18.3341Z" fill="#7CDBFF"/>
</svg>
