<svg width="32" height="32" viewBox="0 0 32 32" fill="none" xmlns="http://www.w3.org/2000/svg">
<mask id="mask0_1_20812" style="mask-type:alpha" maskUnits="userSpaceOnUse" x="0" y="0" width="32" height="32">
<rect width="32" height="32" fill="#D9D9D9"/>
</mask>
<g mask="url(#mask0_1_20812)">
<path d="M18.3326 16.9486C17.401 16.9486 16.6126 16.626 15.9673 15.9807C15.322 15.3354 14.9993 14.5469 14.9993 13.6153C14.9993 12.6837 15.322 11.8953 15.9673 11.25C16.6126 10.6047 17.401 10.282 18.3326 10.282C19.2642 10.282 20.0527 10.6047 20.698 11.25C21.3433 11.8953 21.6659 12.6837 21.6659 13.6153C21.6659 14.5469 21.3433 15.3354 20.698 15.9807C20.0527 16.626 19.2642 16.9486 18.3326 16.9486ZM9.53777 21.0768C8.87497 21.0768 8.30756 20.8408 7.83554 20.3688C7.36354 19.8968 7.12754 19.3294 7.12754 18.6666V8.56404C7.12754 7.90124 7.36354 7.33383 7.83554 6.86181C8.30756 6.38981 8.87497 6.15381 9.53777 6.15381H27.1274C27.7903 6.15381 28.3577 6.38981 28.8297 6.86181C29.3017 7.33383 29.5377 7.90124 29.5377 8.56404V18.6666C29.5377 19.3294 29.3017 19.8968 28.8297 20.3688C28.3577 20.8408 27.7903 21.0768 27.1274 21.0768H9.53777ZM11.5377 19.0769H25.1275C25.1275 18.4119 25.3635 17.844 25.8355 17.373C26.3075 16.9021 26.8749 16.6666 27.5377 16.6666V10.564C26.8728 10.564 26.3048 10.328 25.8339 9.85601C25.363 9.38399 25.1275 8.81658 25.1275 8.15378H11.5377C11.5377 8.81873 11.3017 9.38668 10.8297 9.85761C10.3577 10.3285 9.7903 10.564 9.1275 10.564V16.6666C9.79246 16.6666 10.3604 16.9026 10.8313 17.3746C11.3023 17.8466 11.5377 18.4141 11.5377 19.0769ZM4.87117 25.7434C4.20835 25.7434 3.64094 25.5074 3.16894 25.0354C2.69694 24.5634 2.46094 23.996 2.46094 23.3332V11.1281C2.46094 10.8448 2.5568 10.6073 2.74854 10.4157C2.94029 10.224 3.17789 10.1282 3.46134 10.1282C3.7448 10.1282 3.98226 10.224 4.1737 10.4157C4.36515 10.6073 4.46087 10.8448 4.46087 11.1281V23.3332C4.46087 23.4358 4.50362 23.5298 4.5891 23.6153C4.67457 23.7007 4.76859 23.7435 4.87117 23.7435H24.5633C24.8467 23.7435 25.0842 23.8394 25.2758 24.0311C25.4675 24.2228 25.5633 24.4604 25.5633 24.7439C25.5633 25.0274 25.4675 25.2648 25.2758 25.4562C25.0842 25.6477 24.8467 25.7434 24.5633 25.7434H4.87117ZM9.53777 19.0769H9.1275V8.15378H9.53777C9.42666 8.15378 9.3305 8.19438 9.2493 8.27558C9.1681 8.35678 9.1275 8.45293 9.1275 8.56404V18.6666C9.1275 18.7777 9.1681 18.8738 9.2493 18.955C9.3305 19.0363 9.42666 19.0769 9.53777 19.0769Z" fill="black"/>
</g>
</svg>
