<svg width="20" height="20" viewBox="0 0 20 20" fill="none" xmlns="http://www.w3.org/2000/svg">
<g id="icon">
<mask id="mask0_3750_24164" style="mask-type:alpha" maskUnits="userSpaceOnUse" x="0" y="0" width="20" height="20">
<rect id="Bounding box" width="20" height="20" fill="#D9D9D9"/>
</mask>
<g mask="url(#mask0_3750_24164)">
<path id="share" d="M15.0035 18.125C14.3672 18.125 13.826 17.9022 13.38 17.4566C12.934 17.011 12.7109 16.4699 12.7109 15.8333C12.7109 15.7293 12.7192 15.6215 12.7358 15.5101C12.7523 15.3986 12.7772 15.2959 12.8103 15.2019L6.64681 11.5929C6.42673 11.8119 6.17619 11.9831 5.89521 12.1065C5.61422 12.2299 5.31668 12.2916 5.00258 12.2916C4.36601 12.2916 3.82493 12.0689 3.37933 11.6235C2.93374 11.1781 2.71094 10.6372 2.71094 10.0009C2.71094 9.36461 2.93374 8.82344 3.37933 8.3774C3.82493 7.93136 4.36601 7.70833 5.00258 7.70833C5.31668 7.70833 5.61422 7.77003 5.89521 7.89342C6.17619 8.01682 6.42673 8.18803 6.64681 8.40704L12.8103 4.79806C12.7772 4.70405 12.7523 4.60131 12.7358 4.48985C12.7192 4.37841 12.7109 4.27067 12.7109 4.16665C12.7109 3.53008 12.9336 2.98899 13.3791 2.5434C13.8245 2.0978 14.3653 1.875 15.0016 1.875C15.638 1.875 16.1791 2.09771 16.6252 2.54313C17.0712 2.98854 17.2942 3.5294 17.2942 4.16571C17.2942 4.80201 17.0714 5.34319 16.6258 5.78923C16.1802 6.23527 15.6392 6.45829 15.0026 6.45829C14.6885 6.45829 14.3909 6.3966 14.11 6.27321C13.829 6.14981 13.5784 5.9786 13.3584 5.75958L7.19488 9.36856C7.228 9.46258 7.25284 9.56513 7.2694 9.67621C7.28595 9.78728 7.29423 9.89465 7.29423 9.99831C7.29423 10.102 7.28595 10.2099 7.2694 10.3221C7.25284 10.4343 7.228 10.5374 7.19488 10.6314L13.3584 14.2404C13.5784 14.0214 13.829 13.8502 14.11 13.7268C14.3909 13.6034 14.6885 13.5417 15.0026 13.5417C15.6392 13.5417 16.1802 13.7644 16.6258 14.2098C17.0714 14.6552 17.2942 15.1961 17.2942 15.8324C17.2942 16.4687 17.0715 17.0099 16.6261 17.4559C16.1807 17.9019 15.6398 18.125 15.0035 18.125ZM15.0026 5.20831C15.2921 5.20831 15.5381 5.10708 15.7406 4.90462C15.943 4.70215 16.0443 4.45615 16.0443 4.16663C16.0443 3.8771 15.943 3.6311 15.7406 3.42863C15.5381 3.22618 15.2921 3.12496 15.0026 3.12496C14.7131 3.12496 14.4671 3.22619 14.2646 3.42865C14.0621 3.63112 13.9609 3.87712 13.9609 4.16665C13.9609 4.45617 14.0621 4.70217 14.2646 4.90465C14.4671 5.10711 14.7131 5.20831 15.0026 5.20831ZM5.00258 11.0416C5.29211 11.0416 5.53811 10.9404 5.74058 10.738C5.94304 10.5355 6.04427 10.2895 6.04427 9.99996C6.04427 9.71043 5.94304 9.46443 5.74058 9.26196C5.53811 9.05951 5.29211 8.95829 5.00258 8.95829C4.71306 8.95829 4.46706 9.05952 4.26458 9.26198C4.06213 9.46445 3.9609 9.71045 3.9609 9.99998C3.9609 10.2895 4.06213 10.5355 4.26458 10.738C4.46706 10.9404 4.71306 11.0416 5.00258 11.0416ZM15.0026 16.875C15.2921 16.875 15.5381 16.7737 15.7406 16.5713C15.943 16.3688 16.0443 16.1228 16.0443 15.8333C16.0443 15.5438 15.943 15.2978 15.7406 15.0953C15.5381 14.8928 15.2921 14.7916 15.0026 14.7916C14.7131 14.7916 14.4671 14.8929 14.2646 15.0953C14.0621 15.2978 13.9609 15.5438 13.9609 15.8333C13.9609 16.1228 14.0621 16.3688 14.2646 16.5713C14.4671 16.7738 14.7131 16.875 15.0026 16.875Z" fill="#BD0043"/>
</g>
</g>
</svg>
