<svg width="44" height="23" viewBox="0 0 44 23" fill="none" xmlns="http://www.w3.org/2000/svg">
<path d="M30.3755 22.5695C30.0725 22.5695 29.7655 22.5493 29.4554 22.5078C27.3262 22.227 25.4646 21.0302 24.4745 19.3064C22.6321 16.0959 23.7094 11.5843 26.8773 9.24937C27.6221 8.7001 28.4562 8.27549 29.3439 7.98261C26.1689 5.02347 22.0291 3.08582 17.712 2.62979C12.1109 2.04708 6.27778 3.94723 2.11167 7.73838C1.59788 8.20962 0.800325 8.1711 0.329092 7.65426C-0.140115 7.13945 -0.103632 6.34089 0.413205 5.87168C5.10223 1.6022 11.665 -0.547224 17.9765 0.119597C23.4591 0.698251 28.6903 3.39897 32.3922 7.48401C33.963 7.42625 35.6402 7.81641 37.1714 8.54099C41.5939 10.6327 44.3849 15.498 43.9582 20.3725C43.8974 21.0677 43.2924 21.5906 42.5911 21.5197C41.8959 21.4589 41.3832 20.8468 41.444 20.1526C41.7743 16.3706 39.5236 12.4456 36.0922 10.8232C35.5824 10.582 35.0514 10.3945 34.5133 10.2607C36.5533 13.605 37.363 18.0984 34.5528 20.9147C33.4826 21.9889 31.995 22.5695 30.3755 22.5695ZM31.3119 10.1067C30.2256 10.2719 29.2101 10.6661 28.3761 11.2813C26.2439 12.853 25.4595 15.952 26.6645 18.0508C27.2553 19.0814 28.4531 19.8303 29.7868 20.0067C30.9714 20.1617 32.0568 19.8466 32.7672 19.1351C34.6947 17.2026 33.7917 13.5219 31.9017 10.886C31.7112 10.6205 31.5146 10.3621 31.3119 10.1067Z" fill="#FFBDAD"/>
</svg>
