<svg width="28" height="28" viewBox="0 0 28 28" fill="none" xmlns="http://www.w3.org/2000/svg">
<mask id="mask0_0_477" style="mask-type:alpha" maskUnits="userSpaceOnUse" x="0" y="0" width="28" height="28">
<rect width="28" height="28" fill="#D9D9D9"/>
</mask>
<g mask="url(#mask0_0_477)">
<path fill-rule="evenodd" clip-rule="evenodd" d="M4.36926 6.40189C4.34088 6.40189 4.31366 6.41317 4.29359 6.43324C4.27352 6.4533 4.26224 6.48052 4.26224 6.50891V21.4913C4.26224 21.5197 4.27352 21.5469 4.29359 21.5669C4.31365 21.587 4.34087 21.5983 4.36926 21.5983H23.6323C23.6607 21.5983 23.6879 21.587 23.708 21.5669C23.728 21.5469 23.7393 21.5197 23.7393 21.4913V6.50891C23.7393 6.48052 23.728 6.4533 23.708 6.43324C23.6879 6.41317 23.6607 6.40189 23.6323 6.40189H4.36926ZM2.93148 5.07113C3.3128 4.68981 3.82999 4.47559 4.36926 4.47559H23.6323C24.1716 4.47559 24.6888 4.68981 25.0701 5.07113C25.4514 5.45246 25.6656 5.96964 25.6656 6.50891V21.4913C25.6656 22.0305 25.4514 22.5477 25.0701 22.9291C24.6888 23.3104 24.1716 23.5246 23.6323 23.5246H4.36926C3.82999 23.5246 3.31281 23.3104 2.93148 22.9291C2.55016 22.5477 2.33594 22.0305 2.33594 21.4913V6.50891C2.33594 5.96964 2.55016 5.45245 2.93148 5.07113Z" fill="black"/>
<path fill-rule="evenodd" clip-rule="evenodd" d="M2.33594 8.75586H25.6656V10.6822H2.33594V8.75586Z" fill="black"/>
<path fill-rule="evenodd" clip-rule="evenodd" d="M3.29909 5.5459C3.83102 5.5459 4.26224 5.97712 4.26224 6.50905V15.0704C4.26224 15.6023 3.83102 16.0336 3.29909 16.0336C2.76716 16.0336 2.33594 15.6023 2.33594 15.0704V6.50905C2.33594 5.97712 2.76716 5.5459 3.29909 5.5459ZM24.7025 5.5459C25.2344 5.5459 25.6656 5.97712 25.6656 6.50905V15.0704C25.6656 15.6023 25.2344 16.0336 24.7025 16.0336C24.1705 16.0336 23.7393 15.6023 23.7393 15.0704V6.50905C23.7393 5.97712 24.1705 5.5459 24.7025 5.5459ZM14.6429 18.2809C14.6429 17.749 15.0741 17.3178 15.606 17.3178H20.4218C20.9537 17.3178 21.3849 17.749 21.3849 18.2809C21.3849 18.8128 20.9537 19.2441 20.4218 19.2441H15.606C15.0741 19.2441 14.6429 18.8128 14.6429 18.2809Z" fill="black"/>
</g>
</svg>
