<svg width="84" height="84" viewBox="0 0 84 84" fill="none" xmlns="http://www.w3.org/2000/svg">
<path fill-rule="evenodd" clip-rule="evenodd" d="M45.9745 49.9435C48.7874 49.9435 51.4611 49.9641 54.134 49.9359C55.8124 49.9181 57.2456 50.4316 58.3882 51.6792C59.1475 52.5083 59.6913 53.4925 59.6957 54.6053C59.7084 57.8969 59.7694 61.1997 59.5275 64.4769C59.3206 67.2824 58.1709 69.8473 56.4542 72.0941C54.5838 74.5422 52.0544 75.8513 48.9771 75.9008C45.2877 75.9603 41.5954 75.9284 37.9056 75.8624C35.5737 75.8207 33.3703 75.1556 31.2644 74.1663C31.0674 74.0737 30.8663 73.9894 30.6738 73.9046C29.0206 76.3463 25.9519 76.2638 23.5657 75.6266C21.9125 75.1849 20.8123 73.5531 20.8032 71.7779C20.7729 65.9065 20.7649 60.0347 20.8028 54.1636C20.8179 51.8287 22.6561 50.0557 24.9817 49.9877C25.6748 49.9672 26.3695 49.9702 27.0626 49.9877C28.3707 50.0204 29.4323 50.6017 30.314 51.5444C34.3188 48.0287 36.9713 43.7525 38.1578 38.5857C38.8696 35.4868 41.3807 34.3212 44.2053 35.7641C47.1577 37.2721 48.6436 40.6198 47.7562 43.8671C47.2935 45.5602 46.7511 47.2315 46.2483 48.9137C46.1587 49.2153 46.0861 49.522 45.9745 49.9435ZM43.0829 73.4456C43.0871 73.3885 43.0915 73.3314 43.0956 73.2743C44.9037 73.2743 46.7122 73.2961 48.5197 73.2692C51.2559 73.2283 53.3687 72.0604 54.8007 69.7041C56.0848 67.5915 56.8828 65.3111 56.925 62.8351C56.9659 60.435 56.8909 58.0315 56.8182 55.6313C56.7601 53.7161 55.7751 52.8093 53.8528 52.8075C50.6329 52.8045 47.4131 52.7976 44.193 52.8134C43.4642 52.817 42.9025 52.5725 42.6935 51.8675C42.5966 51.5406 42.662 51.1284 42.7612 50.7861C43.4693 48.34 44.2138 45.9046 44.9301 43.4609C45.5754 41.2586 44.6743 39.146 42.7128 38.2084C41.5222 37.6396 40.9937 37.8888 40.6916 39.1849C39.8961 42.5986 38.59 45.8098 36.4493 48.585C34.9734 50.4978 33.222 52.1976 31.6094 54.0065C31.4115 54.2288 31.1847 54.5369 31.1835 54.8061C31.1586 60.1063 31.1607 65.4071 31.1808 70.7075C31.1816 70.9163 31.3689 71.2404 31.5497 71.3142C32.8957 71.8637 34.224 72.607 35.6303 72.8255C38.0872 73.2069 40.5958 73.2567 43.0829 73.4456ZM28.4448 62.9608C28.4448 60.4354 28.4448 57.9096 28.4448 55.3844C28.4448 52.8545 28.2384 52.6509 25.6795 52.6518C23.971 52.6524 23.514 53.1021 23.5136 54.795C23.512 60.2175 23.5126 65.6397 23.514 71.0622C23.514 71.3094 23.5102 71.559 23.5401 71.8035C23.6428 72.6468 24.168 73.1417 25.0136 73.1825C25.4583 73.204 25.9048 73.1907 26.3504 73.1903C27.9999 73.1891 28.4436 72.7386 28.4446 71.0572C28.4458 68.3584 28.4448 65.6597 28.4448 62.9608Z" fill="black"/>
<path fill-rule="evenodd" clip-rule="evenodd" d="M35.9817 32.3937C34.0761 32.2837 32.6922 30.6163 33.0043 28.7258C33.2501 27.2365 33.5432 25.7543 33.7616 24.2612C33.8031 23.9787 33.6796 23.5766 33.4841 23.3704C32.4787 22.3104 31.4292 21.2915 30.3865 20.2667C29.4987 19.3944 29.1484 18.3668 29.5049 17.1571C29.8784 15.8904 30.7588 15.1709 32.0517 14.9687C33.5436 14.7352 35.0432 14.5478 36.5297 14.2863C36.8073 14.2375 37.1439 13.9887 37.2763 13.7387C37.9482 12.4713 38.569 11.1767 39.1929 9.88461C39.7732 8.68298 40.6929 7.98472 42.0498 7.99324C43.4074 8.00177 44.3125 8.71926 44.8827 9.92288C45.4757 11.1751 46.1186 12.4041 46.6818 13.6689C46.9053 14.1709 47.2275 14.3527 47.736 14.4176C49.1603 14.5988 50.5804 14.8129 52.0007 15.0238C53.2372 15.2074 54.1038 15.8817 54.5074 17.0663C54.9135 18.2582 54.6089 19.3149 53.7319 20.2009C52.6859 21.2572 51.6091 22.284 50.5845 23.3603C50.3839 23.5709 50.2408 23.9646 50.2757 24.2487C50.4507 25.673 50.6916 27.0891 50.9138 28.5073C51.1171 29.8041 50.8439 30.9326 49.7213 31.7254C48.6113 32.5095 47.462 32.4562 46.2943 31.8255C45.075 31.1673 43.8369 30.5434 42.6235 29.8743C42.2195 29.6512 41.9054 29.6108 41.4703 29.8505C40.1703 30.5664 38.844 31.2363 37.5079 31.8824C37.0285 32.1142 36.492 32.2268 35.9817 32.3937ZM32.383 17.6509C32.6786 18.0346 32.8782 18.3615 33.1419 18.6242C34.3013 19.7774 35.4678 20.9236 36.6548 22.0481C37.1964 22.5614 37.3525 23.1365 37.2159 23.8593C36.8991 25.537 36.6165 27.2212 36.3322 28.9048C36.3025 29.0824 36.3531 29.2733 36.3667 29.4583C36.5686 29.43 36.7966 29.4532 36.9681 29.3653C38.5095 28.5761 40.0519 27.7872 41.5706 26.9551C42.2246 26.5967 42.8057 26.5893 43.4576 26.9474C44.9102 27.7456 46.3819 28.5097 47.8535 29.2731C48.0807 29.3909 48.348 29.4308 48.5968 29.5067C48.6262 29.2291 48.7183 28.9409 48.6745 28.6754C48.4204 27.1375 48.1525 25.6012 47.8516 24.0719C47.6787 23.1944 47.85 22.5045 48.5465 21.8772C49.7053 20.8331 50.7983 19.7158 51.9021 18.6123C52.0943 18.4204 52.2019 18.144 52.3486 17.9069C52.0883 17.7965 51.8377 17.6281 51.5669 17.5853C49.9045 17.3234 48.2405 17.069 46.5712 16.8573C45.8795 16.7695 45.4534 16.4261 45.1491 15.8254C44.3888 14.3246 43.6114 12.8321 42.8216 11.3468C42.6933 11.1057 42.4647 10.9177 42.2825 10.7052C42.1061 10.9268 41.8904 11.1275 41.7603 11.3735C40.9734 12.8606 40.1963 14.3531 39.4369 15.8545C39.13 16.461 38.6949 16.7578 37.9972 16.8416C36.1615 17.0627 34.336 17.3635 32.383 17.6509Z" fill="black"/>
<path fill-rule="evenodd" clip-rule="evenodd" d="M70.1247 39.9774C69.6622 39.822 69.1759 39.7153 68.7419 39.502C67.6763 38.9782 66.6451 38.384 65.5755 37.869C65.3374 37.7542 64.9518 37.7504 64.7141 37.8638C63.6653 38.3646 62.6407 38.9173 61.6173 39.4697C60.54 40.0514 59.477 40.0906 58.4762 39.3476C57.4787 38.6071 57.1887 37.5938 57.4407 36.3826C57.6677 35.2928 57.8693 34.1951 58.0073 33.0914C58.0453 32.7866 57.9046 32.3663 57.6942 32.1401C56.8848 31.2706 56.0152 30.4567 55.1653 29.6246C54.3084 28.786 53.9815 27.7939 54.4002 26.6484C54.8048 25.5409 55.6605 24.9854 56.8177 24.8401C57.947 24.6984 59.0707 24.512 60.2004 24.3724C60.6423 24.3181 60.8913 24.1137 61.0783 23.7091C61.545 22.6987 62.0561 21.7088 62.5557 20.714C63.0951 19.6404 63.9784 19.0609 65.1713 19.0714C66.3333 19.0817 67.1933 19.6622 67.7199 20.7045C68.2219 21.6979 68.7401 22.6853 69.1921 23.7017C69.3934 24.1537 69.6862 24.3225 70.1392 24.3796C71.2445 24.5187 72.3458 24.6894 73.4499 24.8377C74.6038 24.9928 75.4557 25.5598 75.8365 26.6805C76.2251 27.8241 75.9202 28.8199 75.0568 29.6583C74.239 30.4526 73.4533 31.2807 72.6113 32.0475C72.2302 32.3945 72.1384 32.7426 72.2312 33.2218C72.4566 34.388 72.6684 35.5573 72.8549 36.7304C73.1275 38.4431 71.8759 39.8924 70.1247 39.9774ZM73.0421 27.6181C71.7881 27.4077 70.485 27.1028 69.1654 26.9936C68.0177 26.8986 67.3977 26.3522 66.9629 25.3393C66.4441 24.1307 65.8002 22.9763 65.1612 21.7005C64.5833 22.8375 63.9621 23.8117 63.5787 24.8722C63.0055 26.4561 61.925 27.0521 60.3166 27.1042C59.2581 27.1385 58.2067 27.3978 56.9948 27.5802C58.0354 28.6068 58.9006 29.5671 59.878 30.3957C60.9076 31.268 61.2458 32.2038 60.8299 33.5273C60.4801 34.6396 60.3544 35.8222 60.1019 37.1146C61.4653 36.433 62.7089 35.8798 63.881 35.2026C64.7857 34.68 65.5609 34.7157 66.4441 35.2321C67.611 35.9141 68.8357 36.4976 70.1358 37.1759C69.8979 35.6915 69.7155 34.321 69.4483 32.9671C69.2637 32.0311 69.4441 31.3168 70.169 30.6393C71.1753 29.6988 72.0762 28.6447 73.0421 27.6181Z" fill="black"/>
<path fill-rule="evenodd" clip-rule="evenodd" d="M23.9216 39.985C23.438 39.8181 22.9319 39.6976 22.4753 39.4749C21.4527 38.9763 20.4416 38.4501 19.4529 37.8873C19.0534 37.6597 18.7534 37.6859 18.3686 37.9004C17.3751 38.4549 16.3557 38.9632 15.35 39.4961C14.2952 40.0552 13.2476 40.0792 12.2728 39.3595C11.3059 38.6458 10.9695 37.6682 11.21 36.4757C11.435 35.3601 11.6459 34.2394 11.7901 33.1115C11.8293 32.8036 11.6959 32.3773 11.4853 32.1503C10.6772 31.2798 9.80848 30.4651 8.95657 29.635C8.09792 28.7988 7.76365 27.8085 8.17543 26.6622C8.57373 25.5541 9.42703 24.9901 10.5843 24.842C11.7135 24.6976 12.8382 24.5149 13.9679 24.3747C14.4039 24.3206 14.666 24.1364 14.8531 23.7238C15.2827 22.7785 15.7853 21.8663 16.2253 20.9252C16.7681 19.7632 17.6402 19.0664 18.937 19.0723C20.2356 19.0784 21.0939 19.7955 21.6333 20.9538C22.0613 21.8729 22.5568 22.7615 22.968 23.6877C23.165 24.1312 23.4434 24.3235 23.9071 24.38C25.0368 24.5176 26.1617 24.6929 27.2898 24.8459C28.4436 25.0028 29.2866 25.5769 29.673 26.6957C30.061 27.8192 29.7424 28.7901 28.9111 29.6079C28.0634 30.4417 27.2289 31.2907 26.3498 32.0906C25.9835 32.4241 25.925 32.7586 26.0122 33.2066C26.2394 34.3724 26.4482 35.5419 26.6454 36.713C26.9311 38.4077 25.6706 39.8869 23.9216 39.985ZM10.7817 27.5646C11.9834 28.7619 13.0504 29.8583 14.1566 30.9138C14.7365 31.4669 14.9241 32.0526 14.7371 32.846C14.4154 34.2108 14.1777 35.5956 13.8763 37.1157C14.7946 36.6569 15.5781 36.2532 16.372 35.8712C19.3966 34.4158 18.4009 34.3327 21.4925 35.9164C22.2654 36.3121 23.0368 36.7106 23.9204 37.1654C23.6648 35.5925 23.4569 34.1753 23.1968 32.7675C23.0485 31.9648 23.2108 31.3262 23.8357 30.7671C24.5917 30.0904 25.2921 29.3521 26.0225 28.6465C26.3294 28.3501 26.6524 28.07 27.1056 27.657C25.4696 27.3892 24.0879 27.1154 22.6934 26.9514C21.8048 26.8471 21.264 26.4536 20.8966 25.6419C20.3084 24.3422 19.6349 23.0811 18.9457 21.7C18.2039 23.1548 17.5002 24.4827 16.8478 25.8352C16.5217 26.5109 16.0274 26.8325 15.2992 26.9241C13.8519 27.1067 12.4096 27.3311 10.7817 27.5646Z" fill="black"/>
<path fill-rule="evenodd" clip-rule="evenodd" d="M32.3828 17.6506C34.336 17.3631 36.1616 17.0624 37.9967 16.8415C38.6943 16.7577 39.1295 16.4609 39.4364 15.8544C40.1957 14.3532 40.9729 12.8605 41.7598 11.3734C41.8898 11.1274 42.1057 10.9267 42.282 10.7051C42.4642 10.9176 42.6926 11.1056 42.821 11.3466C43.6109 12.832 44.3883 14.3245 45.1486 15.8253C45.4529 16.426 45.879 16.7694 46.5707 16.8572C48.24 17.0691 49.904 17.3233 51.5663 17.5852C51.8372 17.6278 52.088 17.7963 52.3481 17.9068C52.2014 18.1439 52.0937 18.4202 51.9016 18.6122C50.7979 19.7157 49.7047 20.8332 48.5459 21.8771C47.8494 22.5043 47.6781 23.1943 47.851 24.0718C48.1522 25.6009 48.4198 27.1374 48.674 28.6753C48.718 28.9409 48.6258 29.229 48.5963 29.5066C48.3475 29.4306 48.08 29.3908 47.853 29.273C46.3813 28.5095 44.9097 27.7455 43.457 26.9473C42.8052 26.589 42.2241 26.5964 41.57 26.955C40.0514 27.7869 38.5091 28.576 36.9675 29.3652C36.796 29.453 36.5678 29.4298 36.3662 29.4582C36.3527 29.2732 36.302 29.0821 36.3317 28.9047C36.616 27.2211 36.8985 25.5369 37.2153 23.8592C37.3517 23.1364 37.1959 22.5612 36.6543 22.0479C35.4675 20.9234 34.3007 19.7773 33.1413 18.6241C32.8781 18.3614 32.6784 18.0342 32.3828 17.6506Z" fill="#BD0043"/>
<path fill-rule="evenodd" clip-rule="evenodd" d="M73.0397 27.6185C72.074 28.6451 71.1729 29.6993 70.1664 30.64C69.4415 31.3174 69.2613 32.0317 69.4457 32.9677C69.7129 34.3216 69.8953 35.6922 70.1333 37.1765C68.8329 36.4983 67.6085 35.915 66.4415 35.2328C65.5583 34.7163 64.7833 34.6805 63.8784 35.2033C62.7065 35.8807 61.4627 36.4336 60.0993 37.1152C60.3516 35.8228 60.4775 34.6402 60.8273 33.528C61.2434 32.2044 60.9052 31.2687 59.8754 30.3963C58.898 29.568 58.0328 28.6075 56.9922 27.5809C58.2041 27.3985 59.2555 27.1392 60.314 27.1049C61.9224 27.0525 63.0029 26.4568 63.5761 24.8729C63.9597 23.8126 64.5807 22.8382 65.1586 21.7012C65.7976 22.9768 66.4415 24.1314 66.9604 25.34C67.3951 26.3529 68.0151 26.8993 69.1628 26.9942C70.4824 27.1033 71.7855 27.4082 73.0397 27.6185Z" fill="#E6F8FF"/>
<path fill-rule="evenodd" clip-rule="evenodd" d="M10.7812 27.5646C12.4091 27.3311 13.8515 27.1067 15.2989 26.9243C16.0271 26.8327 16.5214 26.5111 16.8475 25.8354C17.5 24.4829 18.2036 23.155 18.9455 21.7002C19.6346 23.0813 20.3081 24.3424 20.8963 25.6421C21.2637 26.4538 21.8043 26.8473 22.6931 26.9516C24.0877 27.1154 25.4693 27.3894 27.1053 27.6572C26.6521 28.0702 26.3292 28.3505 26.0223 28.6467C25.2917 29.3523 24.5912 30.0906 23.8355 30.7673C23.2108 31.3266 23.0482 31.9649 23.1965 32.7677C23.4568 34.1755 23.6646 35.5926 23.9201 37.1656C23.0365 36.711 22.2651 36.3123 21.4923 35.9166C18.4007 34.3329 19.3963 34.416 16.3717 35.8714C15.5779 36.2534 14.7944 36.6571 13.876 37.1159C14.1774 35.5958 14.4151 34.211 14.7369 32.8462C14.9238 32.0528 14.7363 31.4669 14.1564 30.914C13.0499 29.8583 11.9827 28.7619 10.7812 27.5646Z" fill="#E6F8FF"/>
</svg>
