<svg xmlns="http://www.w3.org/2000/svg" width="12" height="12" viewBox="0 0 12 12" fill="none">
<path d="M5.25926 10.285V6.714H1.68827C1.50339 6.70708 1.3284 6.62878 1.20005 6.49554C1.07171 6.3623 1 6.1845 1 5.9995C1 5.8145 1.07171 5.6367 1.20005 5.50346C1.3284 5.37022 1.50339 5.29192 1.68827 5.285H5.25926V1.714C5.25926 1.52464 5.33449 1.34303 5.46839 1.20913C5.60229 1.07522 5.7839 1 5.97327 1C6.16263 1 6.34424 1.07522 6.47814 1.20913C6.61204 1.34303 6.68727 1.52464 6.68727 1.714V5.285H10.2593C10.4441 5.29192 10.6191 5.37022 10.7475 5.50346C10.8758 5.6367 10.9475 5.8145 10.9475 5.9995C10.9475 6.1845 10.8758 6.3623 10.7475 6.49554C10.6191 6.62878 10.4441 6.70708 10.2593 6.714H6.68727V10.285C6.68727 10.4744 6.61204 10.656 6.47814 10.7899C6.34424 10.9238 6.16263 10.999 5.97327 10.999C5.7839 10.999 5.60229 10.9238 5.46839 10.7899C5.33449 10.656 5.25926 10.4744 5.25926 10.285Z" fill="black"/>
</svg>