<svg width="172" height="115" viewBox="0 0 172 115" fill="none" xmlns="http://www.w3.org/2000/svg">
<g opacity="0.7">
<mask id="mask0_1_11853" style="mask-type:luminance" maskUnits="userSpaceOnUse" x="-9" y="-10" width="189" height="135">
<path d="M14.3739 -9.1604L-8.57027 29.9803L157.049 124.157L179.993 85.0168L14.3739 -9.1604Z" fill="white"/>
</mask>
<g mask="url(#mask0_1_11853)">
<path d="M2.78739 10.6088C-1.34739 17.6621 -2.89951 28.5683 12.8498 40.7028C20.6817 46.6134 41.9642 58.7156 58.8087 68.2939C88.16 84.9844 117.384 101.204 135.284 110.588L135.586 110.76C144.149 114.966 159.714 119.844 168.565 104.744C178.931 87.0612 163.1 77.1317 157.121 73.3352C136.364 60.3387 119.173 50.4318 98.1942 38.5016C82.7614 29.7266 53.6545 13.3077 35.1182 4.09188C16.035 -5.56736 6.63018 4.05229 2.78739 10.6088Z" fill="white"/>
<path d="M2.78739 10.6088C-1.34739 17.6621 -2.89951 28.5683 12.8498 40.7028C20.6817 46.6134 41.9642 58.7156 58.8087 68.2939C88.16 84.9844 117.384 101.204 135.284 110.588L135.586 110.76C144.149 114.966 159.714 119.844 168.565 104.744C178.931 87.0612 163.1 77.1317 157.121 73.3352C136.364 60.3387 119.173 50.4318 98.1942 38.5016C82.7614 29.7266 53.6545 13.3077 35.1182 4.09188C16.035 -5.56736 6.63018 4.05229 2.78739 10.6088Z" fill="white"/>
</g>
</g>
</svg>
