<svg width="28" height="28" viewBox="0 0 28 28" fill="none" xmlns="http://www.w3.org/2000/svg">
<path fill-rule="evenodd" clip-rule="evenodd" d="M1.54639 5.17534C1.736 4.72672 2.07569 4.5592 2.55671 4.58213C3.23257 4.61441 3.91947 4.54449 4.58481 4.63793C5.59448 4.77984 6.22709 5.4182 6.4904 6.40265C6.60592 6.83447 6.68962 7.27478 6.79043 7.72314C7.40017 7.72314 7.99553 7.72314 8.59083 7.72314C9.10524 7.72314 10.8145 7.71987 11.3288 7.72418C11.8028 7.7281 12.1522 8.06956 12.1477 8.5151C12.1433 8.95052 11.7984 9.28707 11.337 9.28949C10.4307 9.29426 8.32961 9.29099 7.4233 9.29099C7.33464 9.29099 7.24604 9.29099 7.13862 9.29099C7.36881 10.3243 7.59325 11.3343 7.81893 12.3441C8.24023 14.2297 8.66094 16.1155 9.08479 18.0005C9.19456 18.4889 9.46421 18.6981 9.97045 18.6982C13.7835 18.6988 17.5967 18.6987 21.4098 18.6983C21.9125 18.6982 22.1833 18.4945 22.3189 18.015C22.421 17.6542 22.7038 16.0865 22.808 15.7264C22.9416 15.2652 23.3461 15.0261 23.7853 15.1421C24.2028 15.2523 24.4374 15.6697 24.3217 16.1225C24.2147 16.541 23.9147 18.1637 23.7853 18.5756C23.4629 19.6018 22.5607 20.2649 21.4868 20.2655C17.6328 20.2679 13.7789 20.2679 9.92491 20.2657C8.743 20.2649 7.82533 19.5405 7.56482 18.3824C6.71314 14.5965 5.87322 10.808 5.01905 7.02264C4.96724 6.79311 4.87498 6.54091 4.7198 6.37651C4.5935 6.24277 4.34724 6.17527 4.14959 6.16482C3.62029 6.13679 3.08765 6.13496 2.55821 6.16116C2.07556 6.18501 1.73881 6.01232 1.54645 5.56723C1.54639 5.43662 1.54639 5.30601 1.54639 5.17534Z" fill="white"/>
<mask id="mask0_8270_61364" style="mask-type:alpha" maskUnits="userSpaceOnUse" x="14" y="0" width="14" height="13">
<rect x="14.4526" width="13" height="13" fill="#D9D9D9"/>
</mask>
<g mask="url(#mask0_8270_61364)">
<circle cx="20.951" cy="6.50078" r="5.2" fill="white"/>
<path d="M20.9526 7.41L22.8376 9.295C22.9568 9.41417 23.1085 9.47375 23.2926 9.47375C23.4768 9.47375 23.6285 9.41417 23.7476 9.295C23.8668 9.17583 23.9264 9.02417 23.9264 8.84C23.9264 8.65583 23.8668 8.50417 23.7476 8.385L21.8626 6.5L23.7476 4.615C23.8668 4.49583 23.9264 4.34417 23.9264 4.16C23.9264 3.97583 23.8668 3.82417 23.7476 3.705C23.6285 3.58583 23.4768 3.52625 23.2926 3.52625C23.1085 3.52625 22.9568 3.58583 22.8376 3.705L20.9526 5.59L19.0676 3.705C18.9485 3.58583 18.7968 3.52625 18.6126 3.52625C18.4285 3.52625 18.2768 3.58583 18.1576 3.705C18.0385 3.82417 17.9789 3.97583 17.9789 4.16C17.9789 4.34417 18.0385 4.49583 18.1576 4.615L20.0426 6.5L18.1576 8.385C18.0385 8.50417 17.9789 8.65583 17.9789 8.84C17.9789 9.02417 18.0385 9.17583 18.1576 9.295C18.2768 9.41417 18.4285 9.47375 18.6126 9.47375C18.7968 9.47375 18.9485 9.41417 19.0676 9.295L20.9526 7.41ZM20.9526 13C20.0535 13 19.2085 12.8294 18.4176 12.4881C17.6268 12.1469 16.9389 11.6838 16.3539 11.0988C15.7689 10.5138 15.3058 9.82583 14.9645 9.035C14.6233 8.24417 14.4526 7.39917 14.4526 6.5C14.4526 5.60083 14.6233 4.75583 14.9645 3.965C15.3058 3.17417 15.7689 2.48625 16.3539 1.90125C16.9389 1.31625 17.6268 0.853125 18.4176 0.511875C19.2085 0.170625 20.0535 0 20.9526 0C21.8518 0 22.6968 0.170625 23.4876 0.511875C24.2785 0.853125 24.9664 1.31625 25.5514 1.90125C26.1364 2.48625 26.5995 3.17417 26.9408 3.965C27.282 4.75583 27.4526 5.60083 27.4526 6.5C27.4526 7.39917 27.282 8.24417 26.9408 9.035C26.5995 9.82583 26.1364 10.5138 25.5514 11.0988C24.9664 11.6838 24.2785 12.1469 23.4876 12.4881C22.6968 12.8294 21.8518 13 20.9526 13Z" fill="#D10000"/>
</g>
<path fill-rule="evenodd" clip-rule="evenodd" d="M11.3974 26.5389C11.177 26.4618 10.948 26.4032 10.7375 26.3047C9.65971 25.8 9.1342 24.5728 9.50604 23.4529C9.88428 22.3136 11.0382 21.6523 12.2385 21.8869C13.3554 22.1051 14.1754 23.207 14.0859 24.3698C14.0073 25.3924 13.2436 26.2673 12.2391 26.4871C12.186 26.4987 12.1352 26.5213 12.0834 26.5389C11.8547 26.5389 11.6261 26.5389 11.3974 26.5389ZM12.5234 24.1776C12.5187 23.7526 12.1622 23.402 11.7368 23.4037C11.2993 23.4055 10.9464 23.7697 10.9573 24.2079C10.9679 24.6317 11.3306 24.9781 11.7556 24.9701C12.1807 24.9621 12.5282 24.6034 12.5234 24.1776Z" fill="white"/>
<path fill-rule="evenodd" clip-rule="evenodd" d="M19.2334 26.5389C19.013 26.4618 18.7839 26.4032 18.5734 26.3047C17.4957 25.8001 16.9702 24.5728 17.3419 23.4529C17.7202 22.3136 18.8741 21.6523 20.0743 21.8869C21.1913 22.1051 22.0113 23.207 21.9218 24.3698C21.8433 25.3924 21.0795 26.2673 20.075 26.4871C20.0219 26.4987 19.9711 26.5213 19.9192 26.5389C19.6907 26.5389 19.462 26.5389 19.2334 26.5389ZM19.5653 24.97C19.9911 24.9757 20.3506 24.6288 20.3593 24.2037C20.3681 23.7783 20.0231 23.4154 19.5989 23.4037C19.161 23.3917 18.7959 23.7442 18.7932 24.1816C18.7906 24.6071 19.1404 24.9644 19.5653 24.97Z" fill="white"/>
</svg>
