<svg width="683" height="657" viewBox="0 0 683 657" fill="none" xmlns="http://www.w3.org/2000/svg">
<mask id="mask0_26_475" style="mask-type:alpha" maskUnits="userSpaceOnUse" x="0" y="0" width="683" height="657">
<rect width="683" height="657" fill="#DCF1FD"/>
</mask>
<g mask="url(#mask0_26_475)">
<g opacity="0.5">
<g opacity="0.4">
<mask id="mask1_26_475" style="mask-type:luminance" maskUnits="userSpaceOnUse" x="413" y="64" width="311" height="318">
<path d="M724.001 128.144L479.551 64L413.001 317.486L657.451 381.63L724.001 128.144Z" fill="white"/>
</mask>
<g mask="url(#mask1_26_475)">
<path d="M711.395 157.038C709.294 136.361 696.763 120.996 677.974 116.067C671.867 114.465 665.926 114.163 660.436 114.987C648.993 116.512 629.577 124.5 611.36 145.129C594.344 164.06 578.534 189.85 576.311 193.543C576.189 189.234 574.85 158.946 569.559 134.161C563.591 107.185 550.604 90.6948 541.617 83.8087C537.242 80.3964 531.915 77.7408 525.81 76.1388C506.789 71.1477 488.325 78.3784 476.337 95.3589C473.519 99.3995 465.387 109.341 461.519 136.503C456.279 174.626 463.979 204.571 473.99 242.922C483.841 279.973 507.09 324.314 515.494 335.324C520.536 341.93 528.124 347.444 533.699 349.158L533.933 349.219L535.108 349.527L536.282 349.835L536.516 349.897C542.152 351.376 551.532 350.064 559.173 346.785C571.665 341.258 613.933 314.109 640.713 286.671C668.449 258.476 689.694 235.874 703.854 200.093C714.062 174.595 711.862 161.941 711.395 157.038Z" fill="#FFF49A"/>
</g>
</g>
<g opacity="0.4">
<mask id="mask2_26_475" style="mask-type:luminance" maskUnits="userSpaceOnUse" x="-40" y="523" width="192" height="195">
<path d="M151.487 523H-40V717.084H151.487V523Z" fill="white"/>
</mask>
<g mask="url(#mask2_26_475)">
<path d="M58.877 523C0.560843 523 -40 562.892 -40 619.955C-40 645.799 -31.4704 669.734 -15.9768 687.251C1.43092 706.85 25.628 717.258 54.3511 717.258C111.623 717.258 151.661 675.978 151.661 616.66C151.487 559.77 115.105 523 58.877 523ZM55.0473 652.562C45.4729 652.562 37.2911 649.094 31.5465 642.503C26.3243 636.606 23.5393 628.627 23.5393 619.955C23.5393 600.876 37.1172 587.521 56.6136 587.521C75.4146 587.521 87.6001 599.836 87.6001 618.914C87.6001 638.687 74.196 652.562 55.0473 652.562Z" fill="#7CDBFF"/>
</g>
</g>
<g opacity="0.6">
<mask id="mask3_26_475" style="mask-type:luminance" maskUnits="userSpaceOnUse" x="56" y="267" width="224" height="161">
<path d="M83.2499 267L56 314.186L252.7 427.721L279.95 380.535L83.2499 267Z" fill="white"/>
</mask>
<g mask="url(#mask3_26_475)">
<path d="M69.4863 290.832C64.5755 299.335 62.7321 312.483 81.437 327.112C90.7387 334.237 116.015 348.827 136.021 360.374C170.88 380.495 205.588 400.049 226.847 411.362L227.206 411.569C237.375 416.64 255.861 422.52 266.374 404.316C278.685 382.999 259.883 371.028 252.783 366.451C228.129 350.784 207.713 338.84 182.797 324.458C164.468 313.879 129.899 294.085 107.884 282.975C85.22 271.331 74.0502 282.928 69.4863 290.832Z" fill="#FFDCDB"/>
<path d="M69.4863 290.832C64.5755 299.335 62.7321 312.483 81.437 327.112C90.7387 334.237 116.015 348.827 136.021 360.374C170.88 380.495 205.588 400.049 226.847 411.362L227.206 411.569C237.375 416.64 255.861 422.52 266.374 404.316C278.685 382.999 259.883 371.028 252.783 366.451C228.129 350.784 207.713 338.84 182.797 324.458C164.468 313.879 129.899 294.085 107.884 282.975C85.22 271.331 74.0502 282.928 69.4863 290.832Z" fill="#FFDCDB"/>
</g>
</g>
</g>
</g>
<path d="M302.421 210C291.202 210 291.184 227.436 302.421 227.436C313.64 227.436 313.659 210 302.421 210Z" fill="#62BEBB"/>
<path d="M59.2453 124.593C59.2373 124.593 59.2283 124.593 59.2203 124.593C58.5313 124.578 57.9853 124.009 58.0003 123.322C58.1183 117.691 58.2393 111.869 59.7993 106.254C61.5773 99.8559 65.1003 94.7719 69.7203 91.9409C73.1183 89.8579 76.9943 89.0069 80.7863 88.6909C80.4863 84.7539 81.3623 80.7049 83.3573 77.3239C86.3043 72.3269 91.7063 68.7588 97.4573 68.0118C98.1343 67.9168 98.7633 68.4039 98.8523 69.0859C98.9413 69.7679 98.4603 70.3938 97.7783 70.4808C92.7723 71.1318 88.0693 74.2389 85.5033 78.5879C83.7553 81.5509 82.9943 85.1028 83.2703 88.5498C84.2923 88.5198 85.2963 88.5159 86.2713 88.5259C88.5603 88.5509 90.9793 88.6648 93.1693 89.7228C95.3683 90.7838 97.4883 93.1489 97.2673 96.0429C97.1443 97.6519 96.2733 99.1028 94.8153 100.124C93.1063 101.325 90.8443 101.735 88.8993 101.192C85.9733 100.379 83.4703 97.8179 82.0303 94.1689C81.6473 93.1959 81.3493 92.1879 81.1353 91.1599C77.6173 91.4419 74.0593 92.2008 71.0213 94.0628C66.9423 96.5638 63.8093 101.13 62.2003 106.92C60.7253 112.234 60.6053 117.898 60.4913 123.373C60.4763 124.053 59.9213 124.593 59.2453 124.593ZM83.6553 91.0309C83.8323 91.7889 84.0623 92.5319 84.3483 93.2539C84.8923 94.6349 86.4903 97.9358 89.5683 98.7918C90.7923 99.1368 92.2873 98.8549 93.3863 98.0839C93.8703 97.7439 94.6963 97.0038 94.7833 95.8518C94.9143 94.1388 93.4773 92.6369 92.0873 91.9649C90.3583 91.1309 88.2523 91.0378 86.2443 91.0158C85.4023 91.0048 84.5343 91.0079 83.6553 91.0309Z" fill="#ED7279"/>
</svg>
