<svg width="1364" height="1170" viewBox="0 0 1364 1170" fill="none" xmlns="http://www.w3.org/2000/svg">
<rect width="1364" height="1170" fill="white"/>
<g opacity="0.12">
<mask id="mask0_31_478" style="mask-type:luminance" maskUnits="userSpaceOnUse" x="403" y="212" width="534" height="650">
<path d="M786.941 212.558L403.879 313.65L553.061 862L936.123 760.908L786.941 212.558Z" fill="white"/>
</mask>
<g mask="url(#mask0_31_478)">
<path d="M832.761 380.976C811.656 303.398 726.69 228.461 556.364 273.41C441.244 303.79 426.089 356.826 438.609 426.721C443.74 454.859 455.832 504.613 470.985 560.309C473.419 569.26 475.945 578.544 478.561 588.158C481.177 597.773 483.702 607.055 486.137 616.006C501.289 671.704 516.075 720.746 525.828 747.309C550.557 814.337 590.515 852.473 705.636 822.092C875.625 777.231 911.502 670.402 890.395 592.824C879.031 551.051 851.828 517.367 817.191 498.792C837.668 465.317 844.216 423.08 832.761 380.976Z" fill="#FFD9DC"/>
</g>
</g>
<path d="M1308.42 500C1297.2 500 1297.18 517.436 1308.42 517.436C1319.64 517.435 1319.66 500 1308.42 500Z" fill="#ED7279"/>
<path d="M1244.42 103C1233.2 103 1233.18 120.436 1244.42 120.436C1255.64 120.436 1255.66 103 1244.42 103Z" fill="#62BEBB"/>
<path d="M858.421 946C847.202 946 847.183 963.437 858.421 963.437C869.64 963.437 869.658 946 858.421 946Z" fill="#FFBDAD"/>
<path d="M78.2453 116.593C78.2373 116.593 78.2283 116.593 78.2203 116.593C77.5313 116.578 76.9853 116.009 77.0003 115.322C77.1183 109.691 77.2393 103.869 78.7993 98.2539C80.5773 91.8559 84.1003 86.7719 88.7203 83.9409C92.1183 81.8579 95.9943 81.0069 99.7863 80.6909C99.4863 76.7539 100.362 72.7049 102.357 69.3239C105.304 64.3269 110.706 60.7588 116.457 60.0118C117.134 59.9168 117.763 60.4039 117.852 61.0859C117.941 61.7679 117.46 62.3938 116.778 62.4808C111.772 63.1318 107.069 66.2389 104.503 70.5879C102.755 73.5509 101.994 77.1028 102.27 80.5498C103.292 80.5198 104.296 80.5159 105.271 80.5259C107.56 80.5509 109.979 80.6648 112.169 81.7228C114.368 82.7838 116.488 85.1489 116.267 88.0429C116.144 89.6519 115.273 91.1028 113.815 92.1238C112.106 93.3248 109.844 93.7348 107.899 93.1918C104.973 92.3788 102.47 89.8179 101.03 86.1689C100.647 85.1959 100.349 84.1879 100.135 83.1599C96.6173 83.4419 93.0593 84.2008 90.0213 86.0628C85.9423 88.5638 82.8093 93.1299 81.2003 98.9199C79.7253 104.234 79.6053 109.898 79.4913 115.373C79.4763 116.053 78.9213 116.593 78.2453 116.593ZM102.655 83.0309C102.832 83.7889 103.062 84.5319 103.348 85.2539C103.892 86.6349 105.49 89.9358 108.568 90.7918C109.792 91.1368 111.287 90.8549 112.386 90.0839C112.87 89.7439 113.696 89.0038 113.783 87.8518C113.914 86.1388 112.477 84.6369 111.087 83.9649C109.358 83.1309 107.252 83.0378 105.244 83.0158C104.402 83.0048 103.534 83.0079 102.655 83.0309Z" fill="#ED7279"/>
<path d="M1115.17 949.514C1115.16 949.511 1115.15 949.508 1115.14 949.505C1114.5 949.252 1114.19 948.529 1114.44 947.89C1116.5 942.649 1118.64 937.23 1122.05 932.505C1125.93 927.12 1131 923.573 1136.32 922.519C1140.22 921.744 1144.16 922.29 1147.82 923.308C1148.91 919.511 1151.13 916.017 1154.17 913.538C1158.67 909.873 1164.98 908.399 1170.63 909.692C1171.3 909.838 1171.72 910.513 1171.56 911.184C1171.41 911.854 1170.74 912.274 1170.07 912.12C1165.15 910.994 1159.66 912.278 1155.75 915.467C1153.08 917.641 1151.14 920.708 1150.2 924.037C1151.17 924.363 1152.11 924.708 1153.02 925.055C1155.16 925.872 1157.39 926.818 1159.08 928.57C1160.77 930.327 1161.94 933.281 1160.73 935.919C1160.06 937.385 1158.74 938.444 1157.02 938.896C1155 939.43 1152.73 939.03 1151.1 937.847C1148.63 936.07 1147.17 932.8 1147.09 928.878C1147.07 927.832 1147.14 926.783 1147.29 925.745C1143.9 924.79 1140.29 924.268 1136.8 924.961C1132.11 925.892 1127.58 929.089 1124.07 933.962C1120.84 938.435 1118.77 943.706 1116.76 948.801C1116.51 949.434 1115.8 949.748 1115.17 949.514ZM1149.7 926.498C1149.6 927.27 1149.56 928.047 1149.58 928.823C1149.61 930.307 1149.97 933.957 1152.56 935.828C1153.58 936.576 1155.08 936.829 1156.38 936.487C1156.95 936.336 1157.99 935.929 1158.47 934.878C1159.18 933.317 1158.36 931.41 1157.29 930.298C1155.95 928.916 1154.01 928.098 1152.13 927.381C1151.35 927.079 1150.53 926.781 1149.7 926.498Z" fill="#3BB8E0"/>
<path d="M997.818 277.235C997.797 277.235 997.776 277.235 997.755 277.234C997.068 277.2 996.539 276.616 996.571 275.929C996.911 268.965 994.615 262.304 990.272 257.654C986.689 253.814 981.68 251.517 976.727 251.269C977.379 253.558 977.508 255.982 976.981 258.313C976.343 261.138 974.416 263.828 972.069 265.164C970.347 266.145 968.523 266.368 966.792 265.81C965.086 265.258 963.71 263.956 962.919 262.143C961.988 260.009 961.998 257.518 962.945 255.48C964.421 252.308 967.737 249.991 972.048 249.126C972.401 249.055 972.756 248.995 973.112 248.945C971.508 246.094 968.888 243.808 965.745 242.911C959.66 241.168 952.498 244.893 950.422 250.875C950.198 251.524 949.488 251.871 948.837 251.642C948.188 251.417 947.844 250.708 948.069 250.058C950.555 242.893 959.13 238.427 966.428 240.516C970.561 241.695 973.935 244.877 975.78 248.758C975.791 248.758 975.801 248.758 975.813 248.758C981.737 248.758 987.827 251.383 992.094 255.954C996.892 261.095 999.431 268.419 999.059 276.051C999.028 276.717 998.477 277.235 997.818 277.235ZM974.169 251.326C973.621 251.379 973.077 251.459 972.539 251.568C969.067 252.265 966.325 254.121 965.206 256.53C964.563 257.912 964.562 259.68 965.202 261.147C965.705 262.297 966.542 263.111 967.559 263.44C968.621 263.781 969.725 263.633 970.836 263.001C972.575 262.01 974.067 259.905 974.552 257.764C975.035 255.626 974.859 253.398 974.169 251.326Z" fill="#FFBDAD"/>
</svg>
