<svg width="13" height="15" viewBox="0 0 13 15" fill="none" xmlns="http://www.w3.org/2000/svg">
<path d="M6.58984 3.89749C6.05044 3.89749 5.52315 4.04412 5.07465 4.31882C4.62615 4.59353 4.27659 4.98398 4.07017 5.4408C3.86375 5.89762 3.80974 6.40029 3.91497 6.88525C4.02021 7.3702 4.27995 7.81567 4.66137 8.1653C5.04279 8.51494 5.52874 8.75304 6.05778 8.8495C6.58682 8.94597 7.13518 8.89646 7.63353 8.70724C8.13187 8.51802 8.55781 8.19758 8.85749 7.78646C9.15717 7.37533 9.31712 6.89197 9.31712 6.39752C9.31712 5.73447 9.02978 5.09858 8.51832 4.62973C8.00685 4.16089 7.31316 3.89749 6.58984 3.89749ZM6.58984 7.89753C6.2662 7.89753 5.94983 7.80956 5.68073 7.64473C5.41163 7.47991 5.20189 7.24564 5.07804 6.97155C4.95419 6.69745 4.92178 6.39585 4.98492 6.10488C5.04806 5.8139 5.20391 5.54663 5.43276 5.33684C5.66161 5.12706 5.95318 4.9842 6.27061 4.92632C6.58803 4.86844 6.91705 4.89815 7.21605 5.01168C7.51506 5.12522 7.77063 5.31748 7.95043 5.56415C8.13024 5.81083 8.22621 6.10084 8.22621 6.39752C8.22621 6.79534 8.05381 7.17688 7.74693 7.45819C7.44005 7.73949 7.02383 7.89753 6.58984 7.89753ZM6.58984 0.897461C4.9991 0.899115 3.47402 1.47911 2.3492 2.51022C1.22437 3.54132 0.591648 4.93932 0.589844 6.39752C0.589844 8.36004 1.57916 10.4401 3.45348 12.4132C4.29568 13.3048 5.24356 14.1077 6.27962 14.807C6.37133 14.8659 6.48059 14.8975 6.59257 14.8975C6.70455 14.8975 6.81381 14.8659 6.90553 14.807C7.93967 14.1074 8.88572 13.3045 9.72621 12.4132C11.5978 10.4401 12.5898 8.36004 12.5898 6.39752C12.588 4.93932 11.9553 3.54132 10.8305 2.51022C9.70566 1.47911 8.18059 0.899115 6.58984 0.897461ZM6.58984 13.7726C5.4628 12.9601 1.68075 9.97568 1.68075 6.39752C1.68075 5.20403 2.19796 4.05943 3.11859 3.2155C4.03923 2.37158 5.28787 1.89747 6.58984 1.89747C7.89182 1.89747 9.14046 2.37158 10.0611 3.2155C10.9817 4.05943 11.4989 5.20403 11.4989 6.39752C11.4989 9.97443 7.71689 12.9601 6.58984 13.7726Z" fill="#400011"/>
</svg>
