<svg width="16" height="20" viewBox="0 0 16 20" fill="none" xmlns="http://www.w3.org/2000/svg">
<path id="location_on" d="M8 10C8.55 10 9.02083 9.80417 9.4125 9.4125C9.80417 9.02083 10 8.55 10 8C10 7.45 9.80417 6.97917 9.4125 6.5875C9.02083 6.19583 8.55 6 8 6C7.45 6 6.97917 6.19583 6.5875 6.5875C6.19583 6.97917 6 7.45 6 8C6 8.55 6.19583 9.02083 6.5875 9.4125C6.97917 9.80417 7.45 10 8 10ZM8 19.625C7.86667 19.625 7.73333 19.6 7.6 19.55C7.46667 19.5 7.35 19.4333 7.25 19.35C4.81667 17.2 3 15.2042 1.8 13.3625C0.6 11.5208 0 9.8 0 8.2C0 5.7 0.804167 3.70833 2.4125 2.225C4.02083 0.741667 5.88333 0 8 0C10.1167 0 11.9792 0.741667 13.5875 2.225C15.1958 3.70833 16 5.7 16 8.2C16 9.8 15.4 11.5208 14.2 13.3625C13 15.2042 11.1833 17.2 8.75 19.35C8.65 19.4333 8.53333 19.5 8.4 19.55C8.26667 19.6 8.13333 19.625 8 19.625Z" fill="#400011"/>
</svg>
