<svg width="122" height="126" viewBox="0 0 122 126" fill="none" xmlns="http://www.w3.org/2000/svg">
<circle cx="57" cy="67" r="31" fill="#FFD9DC"/>
<mask id="mask0_3568_182594" style="mask-type:alpha" maskUnits="userSpaceOnUse" x="39" y="49" width="36" height="36">
<rect x="39" y="49" width="36" height="36" fill="#D9D9D9"/>
</mask>
<g mask="url(#mask0_3568_182594)">
<path d="M61.9875 73.4125C61.7125 73.0875 61.575 72.7188 61.575 72.3063C61.575 71.8938 61.7125 71.55 61.9875 71.275L64.7625 68.5H54C53.575 68.5 53.2188 68.3563 52.9312 68.0688C52.6438 67.7813 52.5 67.425 52.5 67C52.5 66.575 52.6438 66.2188 52.9312 65.9313C53.2188 65.6438 53.575 65.5 54 65.5H64.7625L61.9875 62.725C61.6875 62.425 61.5375 62.0688 61.5375 61.6562C61.5375 61.2438 61.6875 60.8875 61.9875 60.5875C62.2625 60.2875 62.6062 60.1375 63.0187 60.1375C63.4312 60.1375 63.775 60.275 64.05 60.55L69.45 65.95C69.6 66.1 69.7063 66.2625 69.7688 66.4375C69.8313 66.6125 69.8625 66.8 69.8625 67C69.8625 67.2 69.8313 67.3875 69.7688 67.5625C69.7063 67.7375 69.6 67.9 69.45 68.05L64.05 73.45C63.725 73.775 63.3687 73.9188 62.9813 73.8813C62.5938 73.8438 62.2625 73.6875 61.9875 73.4125ZM46.5 80.5C45.675 80.5 44.9688 80.2063 44.3813 79.6188C43.7938 79.0312 43.5 78.325 43.5 77.5V56.5C43.5 55.675 43.7938 54.9688 44.3813 54.3813C44.9688 53.7938 45.675 53.5 46.5 53.5H55.5C55.925 53.5 56.2813 53.6437 56.5688 53.9312C56.8563 54.2188 57 54.575 57 55C57 55.425 56.8563 55.7812 56.5688 56.0687C56.2813 56.3563 55.925 56.5 55.5 56.5H46.5V77.5H55.5C55.925 77.5 56.2813 77.6438 56.5688 77.9313C56.8563 78.2188 57 78.575 57 79C57 79.425 56.8563 79.7812 56.5688 80.0687C56.2813 80.3562 55.925 80.5 55.5 80.5H46.5Z" fill="#400011"/>
</g>
<circle cx="57" cy="67" r="40.5" stroke="#FFECED"/>
<circle cx="57" cy="67" r="51.5" stroke="#FFF8F7"/>
<path d="M5.00022 23.0024C-1.66169 23.0024 -1.67179 32.9649 5.00022 32.9649C11.661 32.9644 11.6722 23.0024 5.00022 23.0024Z" fill="#379584"/>
<path d="M118.5 59.0088C113.837 59.0088 113.83 65.9817 118.5 65.9817C123.163 65.9813 123.171 59.0088 118.5 59.0088Z" fill="#FFB2BA"/>
<path d="M46.0001 121.017C43.3353 121.017 43.3313 125.001 46.0001 125.001C48.6644 125.001 48.6689 121.017 46.0001 121.017Z" fill="#3BB8E0"/>
<path d="M74.9201 14.2233C74.7732 14.2605 74.6216 14.2869 74.4654 14.3018C73.3938 14.4067 72.3219 13.9693 71.5977 13.132C70.2497 11.5723 70.1321 8.93089 71.3362 7.24384C71.6193 6.84702 71.9633 6.5086 72.3519 6.23686C70.3938 4.98033 68.1129 4.41024 65.9562 4.68594C63.1592 5.04861 60.6019 6.82066 59.1205 9.44004C58.9383 9.76513 58.5464 9.8415 58.2447 9.61183C57.9444 9.38303 57.8488 8.93441 58.0327 8.61007C59.6997 5.66054 62.5753 3.66038 65.7284 3.25738C68.4673 2.90699 71.3853 3.76767 73.7585 5.58578C74.5115 5.36106 75.3796 5.37241 76.2244 5.58766C78.6641 6.20875 80.7064 8.57256 81.1908 11.336C81.2599 11.7301 81.0408 12.0951 80.6909 12.1416C80.3454 12.1931 80.0101 11.9155 79.9412 11.522C79.565 9.37795 77.9178 7.47095 76.0249 6.98929C75.7437 6.91765 75.4598 6.87849 75.18 6.87007C76.6428 8.47995 77.6723 10.8798 76.7097 12.7907C76.3434 13.5194 75.7048 14.0248 74.9201 14.2233ZM73.6068 7.17694C73.1038 7.40201 72.6676 7.74577 72.3506 8.19016C71.5402 9.3258 71.5995 11.1456 72.481 12.1651C72.9134 12.6659 73.6001 12.9356 74.2714 12.8701C74.8674 12.8111 75.3487 12.5027 75.5921 12.0199C76.2522 10.7088 75.2928 8.77233 74.0031 7.53805C73.8732 7.41374 73.7412 7.29412 73.6068 7.17694Z" fill="#3BB8E0"/>
<path d="M6.87093 110.414L4.74369 103.345C4.4805 102.471 5.43155 101.732 6.21565 102.202L14.7929 107.344C15.5389 107.791 15.3998 108.91 14.5673 109.158L8.11728 111.085C7.5881 111.243 7.03009 110.942 6.87093 110.414Z" fill="#D9D9D9"/>
<path d="M6.87093 110.414L4.74369 103.345C4.4805 102.471 5.43155 101.732 6.21565 102.202L14.7929 107.344C15.5389 107.791 15.3998 108.91 14.5673 109.158L8.11728 111.085C7.5881 111.243 7.03009 110.942 6.87093 110.414Z" fill="#FEBA4B"/>
<path d="M109.508 41.6523L105.559 38.4311C104.079 37.2237 104.979 34.8325 106.892 34.8905L113.327 35.0856C114.989 35.136 115.868 37.0636 114.815 38.3453L112.328 41.3714C111.626 42.2247 110.364 42.3505 109.508 41.6523Z" fill="#D9D9D9"/>
<path d="M109.508 41.6523L105.559 38.4311C104.079 37.2237 104.979 34.8325 106.892 34.8905L113.327 35.0856C114.989 35.136 115.868 37.0636 114.815 38.3453L112.328 41.3714C111.626 42.2247 110.364 42.3505 109.508 41.6523Z" fill="#FEBA4B"/>
</svg>
