<svg width="24" height="24" viewBox="0 0 24 24" fill="none" xmlns="http://www.w3.org/2000/svg">
<g id="Group 26364">
<path id="Icon ionic-ios-close" d="M13.6594 11.998L18.6594 6.99801C18.8707 6.77657 18.9869 6.48126 18.9833 6.17522C18.9797 5.86918 18.8566 5.57669 18.6402 5.36027C18.4237 5.14385 18.1312 5.02068 17.8252 5.01708C17.5192 5.01348 17.2239 5.12975 17.0024 5.34101L12.0024 10.341L7.00241 5.34101C6.89457 5.22798 6.76521 5.13764 6.62195 5.07532C6.47869 5.013 6.32442 4.97995 6.1682 4.97811C6.01198 4.97627 5.85698 5.00569 5.71229 5.06462C5.56761 5.12356 5.43616 5.21083 5.32569 5.3213C5.21522 5.43177 5.12795 5.56321 5.06902 5.7079C5.01008 5.85258 4.98067 6.00759 4.9825 6.16381C4.98434 6.32003 5.01739 6.4743 5.07971 6.61756C5.14204 6.76082 5.23237 6.89017 5.34541 6.99801L10.3454 11.998L5.34541 16.998C5.13414 17.2195 5.01788 17.5148 5.02148 17.8208C5.02508 18.1268 5.14825 18.4193 5.36467 18.6358C5.58108 18.8522 5.87358 18.9753 6.17962 18.9789C6.48566 18.9825 6.78096 18.8663 7.00241 18.655L12.0024 13.655L17.0024 18.655C17.2239 18.8663 17.5192 18.9825 17.8252 18.9789C18.1312 18.9753 18.4237 18.8522 18.6402 18.6358C18.8566 18.4193 18.9797 18.1268 18.9833 17.8208C18.9869 17.5148 18.8707 17.2195 18.6594 16.998L13.6594 11.998Z" fill="black"/>
</g>
</svg>
