<svg width="64" height="64" viewBox="0 0 64 64" fill="none" xmlns="http://www.w3.org/2000/svg">
<circle cx="32" cy="32" r="32" fill="#BD0043"/>
<mask id="mask0_1993_271228" style="mask-type:alpha" maskUnits="userSpaceOnUse" x="16" y="16" width="32" height="32">
<rect x="16" y="16" width="32" height="32" fill="#D9D9D9"/>
</mask>
<g mask="url(#mask0_1993_271228)">
<path d="M21.331 44.4C20.7977 44.5778 20.331 44.4667 19.931 44.0667C19.531 43.6667 19.4199 43.2 19.5977 42.6667L23.8977 30.6334C24.231 29.7 24.8755 29.1278 25.831 28.9167C26.7866 28.7056 27.6088 28.9445 28.2977 29.6334L34.3643 35.7C35.0532 36.3889 35.2921 37.2111 35.081 38.1667C34.8699 39.1222 34.2977 39.7667 33.3643 40.1L21.331 44.4ZM34.6977 32.0334C34.4977 31.8334 34.3977 31.6 34.3977 31.3334C34.3977 31.0667 34.4977 30.8334 34.6977 30.6334L41.4643 23.8667C42.1755 23.1556 43.031 22.8 44.031 22.8C45.031 22.8 45.8866 23.1556 46.5977 23.8667L46.731 24C46.9088 24.1778 46.9977 24.4 46.9977 24.6667C46.9977 24.9334 46.8977 25.1667 46.6977 25.3667C46.4977 25.5667 46.2643 25.6667 45.9977 25.6667C45.731 25.6667 45.4977 25.5667 45.2977 25.3667L45.1977 25.2667C44.8866 24.9556 44.4977 24.8 44.031 24.8C43.5643 24.8 43.1755 24.9556 42.8643 25.2667L36.0643 32.0667C35.8866 32.2445 35.6643 32.3334 35.3977 32.3334C35.131 32.3334 34.8977 32.2334 34.6977 32.0334ZM29.3643 26.7C29.1643 26.5 29.0643 26.2667 29.0643 26C29.0643 25.7334 29.1643 25.5 29.3643 25.3L29.4643 25.2C29.7755 24.8889 29.931 24.5111 29.931 24.0667C29.931 23.6222 29.7755 23.2445 29.4643 22.9334L29.2643 22.7334C29.0866 22.5556 28.9977 22.3334 28.9977 22.0667C28.9977 21.8 29.0977 21.5667 29.2977 21.3667C29.4977 21.1667 29.731 21.0667 29.9977 21.0667C30.2643 21.0667 30.4977 21.1667 30.6977 21.3667L30.8643 21.5334C31.5755 22.2445 31.931 23.0889 31.931 24.0667C31.931 25.0445 31.5755 25.8889 30.8643 26.6L30.731 26.7334C30.5532 26.9111 30.331 27 30.0643 27C29.7977 27 29.5643 26.9 29.3643 26.7ZM32.031 29.3667C31.831 29.1667 31.731 28.9334 31.731 28.6667C31.731 28.4 31.831 28.1667 32.031 27.9667L36.131 23.8667C36.4421 23.5556 36.5977 23.1667 36.5977 22.7C36.5977 22.2334 36.4421 21.8445 36.131 21.5334L34.6643 20.0667C34.4866 19.8889 34.3977 19.6667 34.3977 19.4C34.3977 19.1334 34.4977 18.9 34.6977 18.7C34.8977 18.5 35.131 18.4 35.3977 18.4C35.6643 18.4 35.8977 18.5 36.0977 18.7L37.531 20.1334C38.2421 20.8445 38.5977 21.7 38.5977 22.7C38.5977 23.7 38.2421 24.5556 37.531 25.2667L33.3977 29.4C33.2199 29.5778 32.9977 29.6667 32.731 29.6667C32.4643 29.6667 32.231 29.5667 32.031 29.3667ZM37.3643 34.7C37.1643 34.5 37.0643 34.2667 37.0643 34C37.0643 33.7334 37.1643 33.5 37.3643 33.3L38.7977 31.8667C39.5088 31.1556 40.3643 30.8 41.3643 30.8C42.3643 30.8 43.2199 31.1556 43.931 31.8667L45.3977 33.3334C45.5755 33.5111 45.6643 33.7334 45.6643 34C45.6643 34.2667 45.5643 34.5 45.3643 34.7C45.1643 34.9 44.931 35 44.6643 35C44.3977 35 44.1643 34.9 43.9643 34.7L42.531 33.2667C42.2199 32.9556 41.831 32.8 41.3643 32.8C40.8977 32.8 40.5088 32.9556 40.1977 33.2667L38.731 34.7334C38.5532 34.9111 38.331 35 38.0643 35C37.7977 35 37.5643 34.9 37.3643 34.7Z" fill="white"/>
</g>
</svg>
