<svg width="40" height="40" viewBox="0 0 40 40" fill="none" xmlns="http://www.w3.org/2000/svg">
<circle opacity="0.1" cx="20" cy="20" r="20" fill="#379584"/>
<path fill-rule="evenodd" clip-rule="evenodd" d="M12.0102 16.3223C12.127 16.3223 12.2144 16.3223 12.3018 16.3223C15.5321 16.3223 18.7624 16.3221 21.9928 16.3231C22.0935 16.3231 22.1966 16.3248 22.2948 16.3444C22.6273 16.4106 22.8342 16.6983 22.8054 17.0422C22.7792 17.3542 22.5249 17.5971 22.2008 17.6169C22.12 17.6218 22.0387 17.6198 21.9576 17.6198C18.7341 17.6199 15.5105 17.6199 12.287 17.6199C12.2007 17.6199 12.1144 17.6199 12.0165 17.6199C12.0111 17.7004 12.0039 17.7593 12.0039 17.8181C12.0055 19.8725 12.0012 21.927 12.0156 23.9813C12.0184 24.3908 12.0753 24.8027 12.1392 25.2085C12.2623 25.9905 12.7362 26.4542 13.513 26.565C14.0593 26.6429 14.6143 26.6955 15.1656 26.6971C18.5311 26.7067 21.8965 26.702 25.262 26.6915C25.6449 26.6903 26.033 26.6524 26.4093 26.5813C27.3903 26.3958 27.7809 25.9841 27.9041 24.9916C27.968 24.477 27.983 23.9551 27.9974 23.436C28.0127 22.8823 27.9952 22.3277 28.0036 21.7736C28.009 21.4228 28.2254 21.1775 28.553 21.1193C28.8441 21.0676 29.1379 21.2324 29.2505 21.5193C29.2793 21.5928 29.2962 21.6766 29.2952 21.7554C29.2818 22.7618 29.2958 23.77 29.2337 24.7736C29.2043 25.2499 29.0803 25.7376 28.9073 26.1846C28.5094 27.213 27.662 27.7001 26.6221 27.8605C26.0308 27.9517 25.4262 27.993 24.8273 27.9948C21.4551 28.0049 18.0828 28.0049 14.7107 27.9851C14.1619 27.9819 13.6044 27.9057 13.0672 27.7882C11.8548 27.523 11.146 26.7358 10.8772 25.534C10.7241 24.8495 10.7059 24.1552 10.7059 23.4586C10.7058 21.4042 10.6976 19.3498 10.7099 17.2954C10.7147 16.4997 10.7387 15.7019 10.808 14.9098C10.8415 14.5273 10.9624 14.1402 11.1094 13.7821C11.4882 12.8594 12.2346 12.3574 13.1837 12.1876C13.8246 12.0728 14.4837 12.0178 15.1353 12.0121C17.4599 11.9917 19.7847 12.0029 22.1094 12.0044C22.5138 12.0046 22.7915 12.251 22.8075 12.6113C22.8228 12.954 22.6059 13.2275 22.2653 13.2855C22.173 13.3012 22.0771 13.3005 21.9828 13.3006C19.5702 13.3036 17.1575 13.2982 14.7451 13.3151C14.2962 13.3181 13.8438 13.3871 13.4002 13.4658C12.7064 13.5888 12.3023 14.026 12.1527 14.7107C12.0383 15.2341 12.003 15.7626 12.0102 16.3223Z" fill="black"/>
<path fill-rule="evenodd" clip-rule="evenodd" d="M28.5462 14.8664C28.8048 14.6107 29.0569 14.349 29.3232 14.1008C29.7549 13.6985 30.3371 13.6861 30.7288 14.0602C31.1057 14.4202 31.0908 14.9692 30.6778 15.3641C29.855 16.1508 29.0285 16.9343 28.1967 17.7126C27.7861 18.0966 27.2224 18.0951 26.8136 17.7124C25.9749 16.9274 25.1399 16.1385 24.3092 15.3461C23.9003 14.9561 23.8994 14.4033 24.2919 14.0439C24.6746 13.6935 25.2438 13.7059 25.6555 14.0775C25.9345 14.3295 26.2088 14.5862 26.486 14.8402C26.4909 14.8447 26.5043 14.8407 26.552 14.8407C26.552 14.7465 26.552 14.6483 26.552 14.5502C26.5523 13.0065 26.5492 11.4629 26.5546 9.91914C26.5563 9.44416 26.8713 9.08525 27.3203 9.01418C27.7828 8.94102 28.2199 9.15504 28.3791 9.56008C28.4393 9.71337 28.458 9.88859 28.4586 10.054C28.4644 11.5416 28.4621 13.029 28.4621 14.5166C28.4621 14.618 28.4621 14.7195 28.4621 14.8211C28.4901 14.8362 28.5182 14.8512 28.5462 14.8664Z" fill="#379584"/>
<path fill-rule="evenodd" clip-rule="evenodd" d="M20.4263 24.5438C19.873 24.5438 19.3197 24.545 18.7664 24.5434C18.3521 24.5422 18.0593 24.277 18.0547 23.9034C18.05 23.5191 18.3432 23.247 18.7686 23.2466C19.8752 23.2454 20.9817 23.2455 22.0883 23.2466C22.5179 23.2469 22.8074 23.5104 22.8069 23.896C22.8064 24.2814 22.5171 24.5426 22.0861 24.5436C21.5328 24.5448 20.9795 24.5438 20.4263 24.5438Z" fill="black"/>
<path fill-rule="evenodd" clip-rule="evenodd" d="M15.6695 24.5451C15.3928 24.5451 15.1161 24.548 14.8394 24.5444C14.4487 24.5393 14.1599 24.2563 14.1641 23.8883C14.1682 23.527 14.4518 23.2515 14.834 23.2487C15.3942 23.2446 15.9545 23.2449 16.5146 23.2486C16.9047 23.2512 17.1981 23.5394 17.1924 23.9039C17.1867 24.2638 16.9009 24.5387 16.52 24.5443C16.2365 24.5484 15.953 24.5451 15.6695 24.5451Z" fill="black"/>
</svg>
