<svg width="18" height="18" viewBox="0 0 18 18" fill="none" xmlns="http://www.w3.org/2000/svg">
<g id="Pending">
<mask id="mask0_4496_6537" style="mask-type:alpha" maskUnits="userSpaceOnUse" x="0" y="0" width="18" height="18">
<rect id="Bounding box" width="18" height="18" fill="#D9D9D9"/>
</mask>
<g mask="url(#mask0_4496_6537)">
<path id="hourglass_empty" d="M6 15H12V12.75C12 11.925 11.7063 11.2188 11.1187 10.6313C10.5312 10.0437 9.825 9.75 9 9.75C8.175 9.75 7.46875 10.0437 6.88125 10.6313C6.29375 11.2188 6 11.925 6 12.75V15ZM9 8.25C9.825 8.25 10.5312 7.95625 11.1187 7.36875C11.7063 6.78125 12 6.075 12 5.25V3H6V5.25C6 6.075 6.29375 6.78125 6.88125 7.36875C7.46875 7.95625 8.175 8.25 9 8.25ZM14.25 16.5H3.75C3.5375 16.5 3.35938 16.4281 3.21562 16.2844C3.07187 16.1406 3 15.9625 3 15.75C3 15.5375 3.07187 15.3594 3.21562 15.2156C3.35938 15.0719 3.5375 15 3.75 15H4.5V12.75C4.5 11.9875 4.67813 11.2719 5.03438 10.6031C5.39062 9.93437 5.8875 9.4 6.525 9C5.8875 8.6 5.39062 8.06563 5.03438 7.39688C4.67813 6.72813 4.5 6.0125 4.5 5.25V3H3.75C3.5375 3 3.35938 2.92813 3.21562 2.78437C3.07187 2.64062 3 2.4625 3 2.25C3 2.0375 3.07187 1.85938 3.21562 1.71562C3.35938 1.57187 3.5375 1.5 3.75 1.5H14.25C14.4625 1.5 14.6406 1.57187 14.7844 1.71562C14.9281 1.85938 15 2.0375 15 2.25C15 2.4625 14.9281 2.64062 14.7844 2.78437C14.6406 2.92813 14.4625 3 14.25 3H13.5V5.25C13.5 6.0125 13.3219 6.72813 12.9656 7.39688C12.6094 8.06563 12.1125 8.6 11.475 9C12.1125 9.4 12.6094 9.93437 12.9656 10.6031C13.3219 11.2719 13.5 11.9875 13.5 12.75V15H14.25C14.4625 15 14.6406 15.0719 14.7844 15.2156C14.9281 15.3594 15 15.5375 15 15.75C15 15.9625 14.9281 16.1406 14.7844 16.2844C14.6406 16.4281 14.4625 16.5 14.25 16.5Z" fill="#400011"/>
</g>
</g>
</svg>
