<svg width="61" height="38" viewBox="0 0 61 38" fill="none" xmlns="http://www.w3.org/2000/svg">
<path d="M0.14974 3.11301C0.148768 3.10507 0.147674 3.09613 0.146702 3.08819C0.0778657 2.40248 0.576298 1.79138 1.26003 1.72279C6.86364 1.15566 12.6572 0.568293 18.4201 1.43442C24.9868 2.42179 30.4612 5.30089 33.8326 9.54265C36.3131 12.6623 37.6288 16.4062 38.4032 20.1317C42.2746 19.3555 46.4001 19.733 49.9984 21.3024C55.3165 23.6203 59.5145 28.5487 60.9548 34.1663C61.1314 34.8268 60.7244 35.5103 60.0583 35.6815C59.3921 35.8527 58.7123 35.4514 58.5431 34.785C57.2886 29.8952 53.6331 25.6046 49.0046 23.5861C45.8511 22.2111 42.233 21.8874 38.8451 22.5802C38.999 23.5909 39.125 24.587 39.2335 25.556C39.4869 27.8311 39.6677 30.246 38.8836 32.5484C38.0977 34.86 36.0078 37.2517 33.1084 37.384C31.4964 37.4574 29.9503 36.7692 28.7597 35.446C27.36 33.8956 26.6781 31.7002 26.9808 29.7037C27.4322 26.7005 29.67 23.9049 33.117 22.0322C34.0363 21.5338 35.0006 21.1155 35.9949 20.7781C35.2875 17.3205 34.1018 13.8811 31.8845 11.0919C28.9063 7.347 23.9934 4.79206 18.0508 3.89856C12.597 3.08023 6.96039 3.64938 1.51211 4.20152C0.835325 4.26927 0.231885 3.784 0.14974 3.11301ZM36.4292 23.2638C35.6983 23.5316 34.9888 23.8502 34.3069 24.2218C33.0022 24.9296 29.9199 26.9169 29.4443 30.0761C29.2506 31.3329 29.7121 32.7826 30.6109 33.7797C31.0072 34.2188 31.8421 34.9488 32.9962 34.8952C34.7124 34.817 36.0287 33.2082 36.5268 31.7468C37.1445 29.9293 36.9809 27.8276 36.7587 25.8318C36.6673 24.9947 36.5589 24.1335 36.4292 23.2638Z" fill="#ED7279"/>
</svg>
