<svg width="36" height="36" viewBox="0 0 36 36" fill="none" xmlns="http://www.w3.org/2000/svg">
<mask id="mask0_44_3029" style="mask-type:alpha" maskUnits="userSpaceOnUse" x="0" y="0" width="36" height="36">
<rect width="36" height="36" fill="#D9D9D9"/>
</mask>
<g mask="url(#mask0_44_3029)">
<circle cx="18" cy="18" r="17.5" stroke="black"/>
<path d="M23.3667 18.6666H18.6667H17.3333H12.6667C12.4667 18.6666 12.3058 18.6057 12.184 18.4839C12.0613 18.3613 12 18.1999 12 17.9999C12 17.8221 12.0613 17.6666 12.184 17.5333C12.3058 17.3999 12.4556 17.3333 12.6333 17.3333H17.3333H18.6667H23.3333C23.5333 17.3333 23.6947 17.3941 23.8173 17.5159C23.9391 17.6386 24 17.7999 24 17.9999C24 18.1777 23.9391 18.3333 23.8173 18.4666C23.6947 18.5999 23.5444 18.6666 23.3667 18.6666Z" fill="black"/>
</g>
</svg>
