<svg width="172" height="175" viewBox="0 0 172 175" fill="none" xmlns="http://www.w3.org/2000/svg">
<circle cx="81.9961" cy="91.999" r="42" fill="#FFD9DC"/>
<path d="M94.0581 101.234L102.624 109.798L99.7941 112.628L91.2301 104.062C88.0436 106.616 84.0801 108.006 79.9961 108C70.0601 108 61.9961 99.936 61.9961 90C61.9961 80.064 70.0601 72 79.9961 72C89.9321 72 97.9961 80.064 97.9961 90C98.0019 94.084 96.6125 98.0475 94.0581 101.234ZM90.0461 99.75C92.5843 97.1398 94.0018 93.6409 93.9961 90C93.9961 82.266 87.7301 76 79.9961 76C72.2621 76 65.9961 82.266 65.9961 90C65.9961 97.734 72.2621 104 79.9961 104C83.637 104.006 87.1359 102.588 89.7461 100.05L90.0461 99.75Z" fill="#400011"/>
<circle cx="81.9961" cy="91.999" r="54.5" stroke="#FFECED"/>
<circle cx="81.9961" cy="91.999" r="69.5" stroke="#FFF8F7"/>
<path d="M7.60175 32.2031C-1.72477 32.2031 -1.7389 46.1504 7.60175 46.1504C16.9266 46.1496 16.9424 32.2031 7.60175 32.2031Z" fill="#379584"/>
<path d="M166.498 82.6104C159.969 82.6104 159.959 92.3722 166.498 92.3722C173.025 92.3717 173.036 82.6104 166.498 82.6104Z" fill="#FFB2BA"/>
<path d="M64.9993 169.421C61.2687 169.421 61.263 174.999 64.9993 174.999C68.7292 174.999 68.7356 169.421 64.9993 169.421Z" fill="#3BB8E0"/>
<path d="M105.486 19.9122C105.281 19.9642 105.068 20.0011 104.85 20.022C103.349 20.1689 101.849 19.5566 100.835 18.3843C98.9477 16.2007 98.783 12.5029 100.469 10.141C100.865 9.58551 101.347 9.11172 101.891 8.73129C99.1494 6.97218 95.9562 6.17407 92.9368 6.56004C89.0212 7.06777 85.441 9.5486 83.3671 13.2157C83.112 13.6708 82.5633 13.7777 82.141 13.4562C81.7205 13.1359 81.5868 12.5078 81.8443 12.0537C84.178 7.92445 88.2038 5.12428 92.618 4.56009C96.4524 4.06955 100.538 5.27448 103.86 7.8198C104.914 7.50519 106.129 7.52108 107.312 7.82243C110.728 8.69194 113.587 12.0012 114.265 15.8699C114.362 16.4217 114.055 16.9327 113.565 16.9978C113.081 17.0698 112.612 16.6812 112.516 16.1303C111.989 13.1287 109.683 10.459 107.033 9.78468C106.639 9.68438 106.242 9.62956 105.85 9.61777C107.898 11.8716 109.339 15.2313 107.992 17.9066C107.479 18.9267 106.585 19.6342 105.486 19.9122ZM103.648 10.0474C102.943 10.3625 102.333 10.8437 101.889 11.4659C100.754 13.0557 100.837 15.6034 102.071 17.0307C102.677 17.7318 103.638 18.1093 104.578 18.0177C105.412 17.935 106.086 17.5033 106.427 16.8275C107.351 14.9918 106.008 12.2809 104.202 10.5529C104.02 10.3789 103.836 10.2114 103.648 10.0474Z" fill="#3BB8E0"/>
<path d="M10.3376 154.96L6.94682 143.693C6.68363 142.818 7.63467 142.08 8.41877 142.55L22.0908 150.746C22.8368 151.193 22.6977 152.311 21.8652 152.56L11.584 155.631C11.0548 155.789 10.4968 155.489 10.3376 154.96Z" fill="#D9D9D9"/>
<path d="M10.3376 154.96L6.94682 143.693C6.68363 142.818 7.63467 142.08 8.41877 142.55L22.0908 150.746C22.8368 151.193 22.6977 152.311 21.8652 152.56L11.584 155.631C11.0548 155.789 10.4968 155.489 10.3376 154.96Z" fill="#FEBA4B"/>
<path d="M154.531 58.8177L146.559 52.3149C145.079 51.1075 145.979 48.7163 147.892 48.7743L160.884 49.1682C162.545 49.2186 163.425 51.1462 162.371 52.4279L157.351 58.5368C156.649 59.3902 155.387 59.5159 154.531 58.8177Z" fill="#D9D9D9"/>
<path d="M154.531 58.8177L146.559 52.3149C145.079 51.1075 145.979 48.7163 147.892 48.7743L160.884 49.1682C162.545 49.2186 163.425 51.1462 162.371 52.4279L157.351 58.5368C156.649 59.3902 155.387 59.5159 154.531 58.8177Z" fill="#FEBA4B"/>
</svg>
