<svg width="122" height="125" viewBox="0 0 122 125" fill="none" xmlns="http://www.w3.org/2000/svg">
<circle cx="57" cy="67" r="31" fill="#FFD9DC"/>
<mask id="mask0_3568_181854" style="mask-type:alpha" maskUnits="userSpaceOnUse" x="39" y="49" width="36" height="36">
<rect x="39" y="49" width="36" height="36" fill="#D9D9D9"/>
</mask>
<g mask="url(#mask0_3568_181854)">
<path d="M66.0016 81.625C64.8563 81.625 63.8822 81.2239 63.0793 80.4218C62.2764 79.6197 61.875 78.6458 61.875 77.5C61.875 77.3127 61.8899 77.1188 61.9197 76.9182C61.9495 76.7176 61.9942 76.5326 62.0538 76.3634L50.9596 69.8673C50.5634 70.2615 50.1125 70.5697 49.6067 70.7918C49.1009 71.0139 48.5653 71.1249 48 71.1249C46.8541 71.1249 45.8802 70.7241 45.0781 69.9223C44.276 69.1206 43.875 68.147 43.875 67.0017C43.875 65.8563 44.276 64.8822 45.0781 64.0793C45.8802 63.2764 46.8541 62.875 48 62.875C48.5653 62.875 49.1009 62.9861 49.6067 63.2082C50.1125 63.4303 50.5634 63.7385 50.9596 64.1327L62.0538 57.6365C61.9942 57.4673 61.9495 57.2824 61.9197 57.0817C61.8899 56.8811 61.875 56.6872 61.875 56.5C61.875 55.3541 62.2759 54.3802 63.0776 53.5781C63.8794 52.776 64.8529 52.375 65.9983 52.375C67.1436 52.375 68.1177 52.7759 68.9206 53.5776C69.7235 54.3794 70.1249 55.3529 70.1249 56.4983C70.1249 57.6436 69.7239 58.6177 68.9218 59.4206C68.1197 60.2235 67.1458 60.6249 66 60.6249C65.4346 60.6249 64.899 60.5139 64.3932 60.2918C63.8875 60.0697 63.4365 59.7615 63.0404 59.3673L51.9461 65.8634C52.0057 66.0326 52.0504 66.2172 52.0802 66.4172C52.11 66.6171 52.1249 66.8104 52.1249 66.997C52.1249 67.1836 52.11 67.3779 52.0802 67.5798C52.0504 67.7817 52.0057 67.9673 51.9461 68.1365L63.0404 74.6327C63.4365 74.2385 63.8875 73.9303 64.3932 73.7082C64.899 73.4861 65.4346 73.375 66 73.375C67.1458 73.375 68.1197 73.7759 68.9218 74.5776C69.7239 75.3794 70.1249 76.3529 70.1249 77.4983C70.1249 78.6436 69.7241 79.6177 68.9223 80.4206C68.1206 81.2235 67.147 81.625 66.0016 81.625ZM66 58.375C66.5211 58.375 66.9639 58.1927 67.3284 57.8283C67.6928 57.4639 67.875 57.0211 67.875 56.4999C67.875 55.9788 67.6928 55.536 67.3284 55.1715C66.9639 54.8071 66.5211 54.6249 66 54.6249C65.4788 54.6249 65.036 54.8071 64.6716 55.1716C64.3071 55.536 64.1249 55.9788 64.1249 56.5C64.1249 57.0211 64.3071 57.4639 64.6716 57.8284C65.036 58.1928 65.4788 58.375 66 58.375ZM48 68.875C48.5211 68.875 48.9639 68.6928 49.3284 68.3283C49.6928 67.9639 49.875 67.5211 49.875 66.9999C49.875 66.4788 49.6928 66.036 49.3284 65.6715C48.9639 65.3071 48.5211 65.1249 48 65.1249C47.4788 65.1249 47.036 65.3071 46.6716 65.6716C46.3071 66.036 46.1249 66.4788 46.1249 67C46.1249 67.5211 46.3071 67.9639 46.6716 68.3284C47.036 68.6928 47.4788 68.875 48 68.875ZM66 79.375C66.5211 79.375 66.9639 79.1927 67.3284 78.8283C67.6928 78.4639 67.875 78.0211 67.875 77.4999C67.875 76.9788 67.6928 76.536 67.3284 76.1715C66.9639 75.8071 66.5211 75.6249 66 75.6249C65.4788 75.6249 65.036 75.8071 64.6716 76.1716C64.3071 76.536 64.1249 76.9788 64.1249 77.5C64.1249 78.0211 64.3071 78.4639 64.6716 78.8284C65.036 79.1928 65.4788 79.375 66 79.375Z" fill="#400011"/>
</g>
<circle cx="57" cy="67" r="40.5" stroke="#FFECED"/>
<circle cx="57" cy="67" r="51.5" stroke="#FFF8F7"/>
<path d="M5.00022 23.0029C-1.66169 23.0029 -1.67179 32.9654 5.00022 32.9654C11.661 32.9649 11.6722 23.0029 5.00022 23.0029Z" fill="#379584"/>
<path d="M118.5 59.0088C113.837 59.0088 113.83 65.9817 118.5 65.9817C123.163 65.9813 123.171 59.0088 118.5 59.0088Z" fill="#FFB2BA"/>
<path d="M46.0001 121.017C43.3353 121.017 43.3313 125.001 46.0001 125.001C48.6644 125.001 48.6689 121.017 46.0001 121.017Z" fill="#3BB8E0"/>
<path d="M74.9201 14.2238C74.7732 14.261 74.6216 14.2874 74.4654 14.3023C73.3938 14.4072 72.3219 13.9698 71.5977 13.1325C70.2497 11.5728 70.1321 8.93138 71.3362 7.24433C71.6193 6.84751 71.9633 6.50908 72.3519 6.23735C70.3938 4.98082 68.1129 4.41073 65.9562 4.68642C63.1592 5.0491 60.6019 6.82115 59.1205 9.44053C58.9383 9.76562 58.5464 9.84199 58.2447 9.61232C57.9444 9.38352 57.8488 8.9349 58.0327 8.61056C59.6997 5.66102 62.5753 3.66087 65.7284 3.25787C68.4673 2.90748 71.3853 3.76816 73.7585 5.58627C74.5115 5.36154 75.3796 5.3729 76.2244 5.58815C78.6641 6.20924 80.7064 8.57305 81.1908 11.3365C81.2599 11.7306 81.0408 12.0956 80.6909 12.1421C80.3454 12.1936 80.0101 11.916 79.9412 11.5224C79.565 9.37844 77.9178 7.47143 76.0249 6.98978C75.7437 6.91814 75.4598 6.87898 75.18 6.87056C76.6428 8.48043 77.6723 10.8803 76.7097 12.7912C76.3434 13.5199 75.7048 14.0253 74.9201 14.2238ZM73.6068 7.17743C73.1038 7.4025 72.6676 7.74626 72.3506 8.19065C71.5402 9.32629 71.5995 11.1461 72.481 12.1656C72.9134 12.6664 73.6001 12.936 74.2714 12.8706C74.8674 12.8116 75.3487 12.5032 75.5921 12.0204C76.2522 10.7092 75.2928 8.77282 74.0031 7.53854C73.8732 7.41422 73.7412 7.29461 73.6068 7.17743Z" fill="#3BB8E0"/>
<path d="M6.87093 110.414L4.74369 103.345C4.4805 102.471 5.43155 101.732 6.21565 102.202L14.7929 107.344C15.5389 107.791 15.3998 108.91 14.5673 109.158L8.11728 111.085C7.5881 111.243 7.03009 110.942 6.87093 110.414Z" fill="#D9D9D9"/>
<path d="M6.87093 110.414L4.74369 103.345C4.4805 102.471 5.43155 101.732 6.21565 102.202L14.7929 107.344C15.5389 107.791 15.3998 108.91 14.5673 109.158L8.11728 111.085C7.5881 111.243 7.03009 110.942 6.87093 110.414Z" fill="#FEBA4B"/>
<path d="M109.508 41.6523L105.559 38.4311C104.079 37.2237 104.979 34.8325 106.892 34.8905L113.327 35.0856C114.989 35.136 115.868 37.0636 114.815 38.3453L112.328 41.3714C111.626 42.2247 110.364 42.3505 109.508 41.6523Z" fill="#D9D9D9"/>
<path d="M109.508 41.6523L105.559 38.4311C104.079 37.2237 104.979 34.8325 106.892 34.8905L113.327 35.0856C114.989 35.136 115.868 37.0636 114.815 38.3453L112.328 41.3714C111.626 42.2247 110.364 42.3505 109.508 41.6523Z" fill="#FEBA4B"/>
</svg>
