<svg width="28" height="28" viewBox="0 0 28 28" fill="none" xmlns="http://www.w3.org/2000/svg">
<mask id="mask0_89_120313" style="mask-type:alpha" maskUnits="userSpaceOnUse" x="0" y="0" width="28" height="28">
<rect width="28" height="28" fill="#D9D9D9"/>
</mask>
<g mask="url(#mask0_89_120313)">
<path d="M10.325 20.7958L14 18.5792L17.675 20.825L16.7125 16.625L19.95 13.825L15.6917 13.4458L14 9.47917L12.3083 13.4167L8.04999 13.7958L11.2875 16.625L10.325 20.7958ZM6.79583 25.6667L8.69166 17.4708L2.33333 11.9583L10.7333 11.2292L14 3.5L17.2667 11.2292L25.6667 11.9583L19.3083 17.4708L21.2042 25.6667L14 21.3208L6.79583 25.6667Z" fill="#FEBA4B"/>
<path d="M11.5505 12.2503L13.9977 4.66699V20.417L8.05046 23.3337L10.3838 16.917L6.35742 12.8337L11.5505 12.2503Z" fill="#FEBA4B"/>
<path d="M10.325 20.7958L14 18.5792L17.675 20.825L16.7125 16.625L19.95 13.825L15.6917 13.4458L14 9.47917L12.3083 13.4167L8.04999 13.7958L11.2875 16.625L10.325 20.7958ZM6.79583 25.6667L8.69166 17.4708L2.33333 11.9583L10.7333 11.2292L14 3.5L17.2667 11.2292L25.6667 11.9583L19.3083 17.4708L21.2042 25.6667L14 21.3208L6.79583 25.6667Z" fill="#FEBA4B"/>
</g>
</svg>
