<svg width="24" height="24" viewBox="0 0 24 24" fill="none" xmlns="http://www.w3.org/2000/svg">
<path d="M8.25834 21.245C8.88334 20.6188 9.27657 19.7984 9.37334 18.919C9.43964 18.3392 9.37377 17.7518 9.18066 17.2011C8.98755 16.6503 8.67223 16.1505 8.25834 15.739C7.75891 15.2374 7.1298 14.8846 6.44134 14.72C5.79067 14.5548 5.10819 14.562 4.46114 14.7409C3.81409 14.9197 3.22481 15.2641 2.75134 15.74C2.08034 16.4045 1.68072 17.295 1.63034 18.238C1.59534 18.63 1.63034 19.036 1.73334 19.428C1.89134 20.096 2.23534 20.729 2.75134 21.245C3.11287 21.6067 3.54212 21.8937 4.01458 22.0894C4.48703 22.2852 4.99343 22.386 5.50484 22.386C6.01625 22.386 6.52265 22.2852 6.99511 22.0894C7.46757 21.8937 7.89682 21.6067 8.25834 21.245ZM6.96434 17.776C7.36334 17.776 7.69434 18.106 7.69434 18.506C7.69175 18.7006 7.61324 18.8864 7.47555 19.0239C7.33787 19.1614 7.15191 19.2397 6.95734 19.242L6.23434 19.235L6.24134 19.931C6.23876 20.1254 6.16038 20.3111 6.02291 20.4486C5.88544 20.586 5.69974 20.6644 5.50534 20.667C5.31078 20.6647 5.12482 20.5864 4.98713 20.4489C4.84945 20.3114 4.77094 20.1256 4.76834 19.931L4.77534 19.235L4.05234 19.242C3.85795 19.2394 3.67225 19.161 3.53478 19.0236C3.39731 18.8861 3.31893 18.7004 3.31634 18.506C3.32235 18.3143 3.40119 18.1321 3.53681 17.9965C3.67244 17.8609 3.85464 17.782 4.04634 17.776H4.77534V17.019C4.77534 16.813 4.85834 16.634 4.98834 16.503C5.11934 16.373 5.29834 16.29 5.50534 16.29C5.90434 16.29 6.23534 16.62 6.23534 17.02V17.776H6.96434ZM15.0943 3.845V7.545H13.6343V3.845C13.6343 3.583 13.4013 3.456 13.2443 3.456C13.1945 3.45667 13.1453 3.46686 13.0993 3.486L5.37934 6.395C5.12855 6.48944 4.91281 6.65864 4.76132 6.8797C4.60983 7.10076 4.5299 7.36302 4.53234 7.631V8.283C4.07822 8.62223 3.7097 9.06293 3.4562 9.56993C3.2027 10.0769 3.07125 10.6362 3.07234 11.203V7.632C3.07234 6.474 3.78234 5.442 4.86334 5.033L12.5923 2.113C12.8724 2.00851 13.1737 1.9733 13.4703 2.01039C13.767 2.04747 14.0502 2.15574 14.296 2.32596C14.5418 2.49619 14.7427 2.72332 14.8817 2.988C15.0207 3.25268 15.0937 3.54604 15.0943 3.845ZM21.5693 14.116V15.089C21.5696 15.2167 21.5196 15.3394 21.4302 15.4305C21.3407 15.5216 21.219 15.5739 21.0913 15.576H19.6703C19.1543 15.576 18.6873 15.196 18.6483 14.69C18.6351 14.5474 18.6534 14.4036 18.7022 14.2689C18.7509 14.1343 18.8288 14.0121 18.9303 13.911C19.0186 13.8197 19.1247 13.7476 19.242 13.699C19.3593 13.6505 19.4854 13.6267 19.6123 13.629H21.0823C21.3643 13.639 21.5693 13.853 21.5693 14.116Z" fill="#400011"/>
<path d="M19.5983 12.604H20.5913C20.8491 12.6032 21.0962 12.5004 21.2785 12.3181C21.4608 12.1358 21.5635 11.8888 21.5643 11.631V11.203C21.5622 10.233 21.1759 9.30325 20.49 8.61732C19.8041 7.9314 18.8744 7.54511 17.9043 7.543H6.73032C5.90332 7.543 5.14332 7.816 4.53032 8.283C4.0762 8.62223 3.70767 9.06293 3.45418 9.56993C3.20068 10.0769 3.06923 10.6362 3.07032 11.203V12.935C3.07032 13.305 3.46032 13.539 3.81032 13.422C4.35582 13.2362 4.92805 13.141 5.50432 13.14C6.92321 13.1426 8.28323 13.7075 9.28654 14.7108C10.2899 15.7141 10.8547 17.0741 10.8573 18.493C10.8573 19.194 10.6723 19.963 10.3803 20.644C10.2243 20.994 10.4683 21.414 10.8473 21.414H17.9043C18.8744 21.4119 19.8041 21.0256 20.49 20.3397C21.1759 19.6537 21.5622 18.724 21.5643 17.754V17.569C21.5638 17.311 21.4611 17.0637 21.2788 16.8812C21.0965 16.6987 20.8493 16.5958 20.5913 16.595H19.7443C18.8103 16.595 17.9143 16.021 17.6713 15.115C17.5781 14.7762 17.5776 14.4186 17.67 14.0796C17.7623 13.7406 17.9441 13.4327 18.1963 13.188C18.3787 13.0014 18.5969 12.8534 18.8378 12.7531C19.0787 12.6528 19.3374 12.602 19.5983 12.604ZM14.2643 12.41H9.39632C8.99732 12.41 8.66632 12.079 8.66632 11.68C8.66632 11.28 8.99732 10.95 9.39632 10.95H14.2633C14.6623 10.95 14.9933 11.28 14.9933 11.68C14.9933 12.079 14.6633 12.41 14.2643 12.41Z" fill="#400011"/>
</svg>
