<svg width="45" height="45" viewBox="0 0 45 45" fill="none" xmlns="http://www.w3.org/2000/svg">
<path d="M4.67207 44.1167C4.29007 44.1167 3.91308 43.9417 3.66908 43.6117C-0.990921 37.3047 -1.23892 27.9747 3.07908 21.4277C4.72908 18.9257 6.89608 16.9667 9.31108 15.7327C11.0181 9.60969 15.4511 4.31169 21.3451 1.73469C28.8631 -1.55131 38.0261 -0.0803103 44.1371 5.39669C44.6511 5.85569 44.6931 6.64269 44.2351 7.15569C43.7751 7.66769 42.9881 7.71169 42.4761 7.25169C37.1591 2.48869 28.8801 1.15869 22.3421 4.01769C17.8011 6.00169 14.1711 9.97468 12.3381 14.6067C12.6581 14.5297 12.9821 14.4657 13.3051 14.4137C17.8521 13.6947 22.5461 15.7367 24.7101 19.3957C26.4841 22.3997 26.4341 26.3067 24.5811 29.1177C22.6211 32.0917 18.7911 33.5557 15.4731 32.5987C10.6081 31.1977 8.47308 25.5767 8.54808 20.9487C8.56008 20.3127 8.60008 19.6797 8.66908 19.0517C7.34208 20.0327 6.14605 21.3007 5.15705 22.7987C1.39405 28.5047 1.61007 36.6337 5.67207 42.1297C6.08107 42.6837 5.96308 43.4627 5.41008 43.8727C5.18708 44.0377 4.92907 44.1167 4.67207 44.1167ZM11.4551 17.4937C11.2011 18.6437 11.0591 19.8147 11.0401 20.9897C10.9791 24.7007 12.5571 29.1677 16.1621 30.2067C18.4281 30.8587 21.1491 29.8027 22.5021 27.7487C23.8201 25.7467 23.8471 22.8327 22.5651 20.6647C20.9111 17.8647 17.2651 16.3127 13.6971 16.8747C12.9371 16.9967 12.1851 17.2057 11.4551 17.4937Z" fill="#FDBC2C"/>
</svg>
