<svg width="122" height="125" viewBox="0 0 122 125" fill="none" xmlns="http://www.w3.org/2000/svg">
<g id="Group 48098883">
<g id="Group 48098882">
<g id="Group 48098739">
<circle id="Ellipse 479" cx="57" cy="67" r="31" fill="#FFD9DC"/>
<g id="person">
<mask id="mask0_3568_182054" style="mask-type:alpha" maskUnits="userSpaceOnUse" x="39" y="49" width="36" height="36">
<rect id="Bounding box" x="39" y="49" width="36" height="36" fill="#D9D9D9"/>
</mask>
<g mask="url(#mask0_3568_182054)">
<path id="person_2" d="M57 66.999C55.35 66.999 53.9375 66.4115 52.7625 65.2365C51.5875 64.0615 51 62.649 51 60.999C51 59.349 51.5875 57.9365 52.7625 56.7615C53.9375 55.5865 55.35 54.999 57 54.999C58.65 54.999 60.0625 55.5865 61.2375 56.7615C62.4125 57.9365 63 59.349 63 60.999C63 62.649 62.4125 64.0615 61.2375 65.2365C60.0625 66.4115 58.65 66.999 57 66.999ZM66 78.999H48C47.175 78.999 46.4688 78.7053 45.8813 78.1178C45.2938 77.5303 45 76.824 45 75.999V74.799C45 73.949 45.2187 73.1678 45.6562 72.4553C46.0938 71.7428 46.675 71.199 47.4 70.824C48.95 70.049 50.525 69.4678 52.125 69.0803C53.725 68.6928 55.35 68.499 57 68.499C58.65 68.499 60.275 68.6928 61.875 69.0803C63.475 69.4678 65.05 70.049 66.6 70.824C67.325 71.199 67.9062 71.7428 68.3438 72.4553C68.7812 73.1678 69 73.949 69 74.799V75.999C69 76.824 68.7063 77.5303 68.1188 78.1178C67.5312 78.7053 66.825 78.999 66 78.999ZM48 75.999H66V74.799C66 74.524 65.9312 74.274 65.7938 74.049C65.6562 73.824 65.475 73.649 65.25 73.524C63.9 72.849 62.5375 72.3428 61.1625 72.0053C59.7875 71.6678 58.4 71.499 57 71.499C55.6 71.499 54.2125 71.6678 52.8375 72.0053C51.4625 72.3428 50.1 72.849 48.75 73.524C48.525 73.649 48.3438 73.824 48.2063 74.049C48.0688 74.274 48 74.524 48 74.799V75.999ZM57 63.999C57.825 63.999 58.5313 63.7053 59.1188 63.1178C59.7063 62.5303 60 61.824 60 60.999C60 60.174 59.7063 59.4678 59.1188 58.8803C58.5313 58.2928 57.825 57.999 57 57.999C56.175 57.999 55.4688 58.2928 54.8813 58.8803C54.2937 59.4678 54 60.174 54 60.999C54 61.824 54.2937 62.5303 54.8813 63.1178C55.4688 63.7053 56.175 63.999 57 63.999Z" fill="#400011"/>
</g>
</g>
</g>
<circle id="Ellipse 480" cx="57" cy="67" r="40.5" stroke="#FFECED"/>
<circle id="Ellipse 481" cx="57" cy="67" r="51.5" stroke="#FFF8F7"/>
</g>
<g id="Group 48098864">
<path id="Vector" d="M5.00022 23.0029C-1.66169 23.0029 -1.67179 32.9654 5.00022 32.9654C11.661 32.9649 11.6722 23.0029 5.00022 23.0029Z" fill="#379584"/>
<path id="Vector_2" d="M118.5 59.0088C113.837 59.0088 113.83 65.9817 118.5 65.9817C123.163 65.9813 123.171 59.0088 118.5 59.0088Z" fill="#FFB2BA"/>
<path id="Vector_3" d="M46.0001 121.017C43.3353 121.017 43.3313 125.001 46.0001 125.001C48.6644 125.001 48.6689 121.017 46.0001 121.017Z" fill="#3BB8E0"/>
<path id="Vector_4" d="M74.9201 14.2238C74.7732 14.261 74.6216 14.2874 74.4654 14.3023C73.3938 14.4072 72.3219 13.9698 71.5977 13.1325C70.2497 11.5728 70.1321 8.93138 71.3362 7.24433C71.6193 6.84751 71.9633 6.50908 72.3519 6.23735C70.3938 4.98082 68.1129 4.41073 65.9562 4.68642C63.1592 5.0491 60.6019 6.82115 59.1205 9.44053C58.9383 9.76562 58.5464 9.84199 58.2447 9.61232C57.9444 9.38352 57.8488 8.9349 58.0327 8.61056C59.6997 5.66102 62.5753 3.66087 65.7284 3.25787C68.4673 2.90748 71.3853 3.76816 73.7585 5.58627C74.5115 5.36154 75.3796 5.3729 76.2244 5.58815C78.6641 6.20924 80.7064 8.57305 81.1908 11.3365C81.2599 11.7306 81.0408 12.0956 80.6909 12.1421C80.3454 12.1936 80.0101 11.916 79.9412 11.5224C79.565 9.37844 77.9178 7.47143 76.0249 6.98978C75.7437 6.91814 75.4598 6.87898 75.18 6.87056C76.6428 8.48043 77.6723 10.8803 76.7097 12.7912C76.3434 13.5199 75.7048 14.0253 74.9201 14.2238ZM73.6068 7.17743C73.1038 7.4025 72.6676 7.74626 72.3506 8.19065C71.5402 9.32629 71.5995 11.1461 72.481 12.1656C72.9134 12.6664 73.6001 12.936 74.2714 12.8706C74.8674 12.8116 75.3487 12.5032 75.5921 12.0204C76.2522 10.7092 75.2928 8.77282 74.0031 7.53854C73.8732 7.41422 73.7412 7.29461 73.6068 7.17743Z" fill="#3BB8E0"/>
<g id="Vector 14">
<path d="M6.87093 110.414L4.74369 103.345C4.4805 102.471 5.43155 101.732 6.21565 102.202L14.7929 107.344C15.5389 107.791 15.3998 108.91 14.5673 109.158L8.11728 111.085C7.5881 111.243 7.03009 110.942 6.87093 110.414Z" fill="#D9D9D9"/>
<path d="M6.87093 110.414L4.74369 103.345C4.4805 102.471 5.43155 101.732 6.21565 102.202L14.7929 107.344C15.5389 107.791 15.3998 108.91 14.5673 109.158L8.11728 111.085C7.5881 111.243 7.03009 110.942 6.87093 110.414Z" fill="#FEBA4B"/>
</g>
<g id="Vector 15">
<path d="M109.508 41.6523L105.559 38.4311C104.079 37.2237 104.979 34.8325 106.892 34.8905L113.327 35.0856C114.989 35.136 115.868 37.0636 114.815 38.3453L112.328 41.3714C111.626 42.2247 110.364 42.3505 109.508 41.6523Z" fill="#D9D9D9"/>
<path d="M109.508 41.6523L105.559 38.4311C104.079 37.2237 104.979 34.8325 106.892 34.8905L113.327 35.0856C114.989 35.136 115.868 37.0636 114.815 38.3453L112.328 41.3714C111.626 42.2247 110.364 42.3505 109.508 41.6523Z" fill="#FEBA4B"/>
</g>
</g>
</g>
</svg>
